G04 EAGLE Gerber RS-274X export*
G75*
%MOMM*%
%FSLAX34Y34*%
%LPD*%
%INBottom Copper*%
%IPPOS*%
%AMOC8*
5,1,8,0,0,1.08239X$1,22.5*%
G01*
G04 Define Apertures*
%ADD10R,1.600000X1.600000*%
%ADD11C,1.600000*%
%ADD12R,1.400000X1.600000*%
%ADD13R,1.600000X1.400000*%
%ADD14R,1.600000X1.600000*%
%ADD15R,1.500000X3.000000*%
%ADD16C,0.220000*%
%ADD17C,1.800000*%
%ADD18C,0.400000*%
%ADD19C,0.604000*%
G36*
X441649Y670144D02*
X441821Y670175D01*
X443336Y670580D01*
X443500Y670640D01*
X444921Y671303D01*
X445072Y671390D01*
X446356Y672289D01*
X446490Y672401D01*
X447599Y673510D01*
X447711Y673644D01*
X448610Y674928D01*
X448697Y675079D01*
X449360Y676501D01*
X449420Y676664D01*
X449825Y678179D01*
X449856Y678351D01*
X449992Y679913D01*
X449992Y680087D01*
X449856Y681649D01*
X449825Y681821D01*
X449420Y683336D01*
X449360Y683500D01*
X448697Y684921D01*
X448610Y685072D01*
X447711Y686356D01*
X447599Y686490D01*
X446490Y687599D01*
X446356Y687711D01*
X445072Y688610D01*
X444921Y688697D01*
X443500Y689360D01*
X443336Y689420D01*
X441821Y689825D01*
X441649Y689856D01*
X440087Y689992D01*
X439913Y689992D01*
X438351Y689856D01*
X438179Y689825D01*
X436664Y689420D01*
X436501Y689360D01*
X435079Y688697D01*
X434928Y688610D01*
X433644Y687711D01*
X433510Y687599D01*
X432401Y686490D01*
X432289Y686356D01*
X431390Y685072D01*
X431303Y684921D01*
X430640Y683500D01*
X430580Y683336D01*
X430175Y681821D01*
X430144Y681649D01*
X430008Y680087D01*
X430008Y679913D01*
X430144Y678351D01*
X430175Y678179D01*
X430580Y676664D01*
X430640Y676501D01*
X431303Y675079D01*
X431390Y674928D01*
X432289Y673644D01*
X432401Y673510D01*
X433510Y672401D01*
X433644Y672289D01*
X434928Y671390D01*
X435079Y671303D01*
X436501Y670640D01*
X436664Y670580D01*
X438179Y670175D01*
X438351Y670144D01*
X439913Y670008D01*
X440087Y670008D01*
X441649Y670144D01*
G37*
D10*
G36*
X99090Y188111D02*
X103231Y203564D01*
X118684Y199423D01*
X114543Y183970D01*
X99090Y188111D01*
G37*
D11*
X102313Y169233D03*
D10*
G36*
X77778Y68429D02*
X85778Y54573D01*
X71922Y46573D01*
X63922Y60429D01*
X77778Y68429D01*
G37*
D11*
X62150Y79499D03*
D12*
X165000Y193900D03*
X189000Y193900D03*
X357900Y667000D03*
X381900Y667000D03*
D10*
G36*
X425771Y288678D02*
X439627Y280678D01*
X431627Y266822D01*
X417771Y274822D01*
X425771Y288678D01*
G37*
D11*
X406701Y290450D03*
D10*
G36*
X511422Y222971D02*
X519422Y236827D01*
X533278Y228827D01*
X525278Y214971D01*
X511422Y222971D01*
G37*
D11*
X509650Y203901D03*
D13*
G36*
X442846Y235172D02*
X450846Y249028D01*
X462970Y242028D01*
X454970Y228172D01*
X442846Y235172D01*
G37*
G36*
X463630Y223172D02*
X471630Y237028D01*
X483754Y230028D01*
X475754Y216172D01*
X463630Y223172D01*
G37*
D10*
G36*
X408722Y614071D02*
X400722Y627927D01*
X414578Y635927D01*
X422578Y622071D01*
X408722Y614071D01*
G37*
D11*
X424350Y603001D03*
D14*
X502000Y683800D03*
D11*
X527400Y683800D03*
D13*
G36*
X462122Y624709D02*
X450809Y636022D01*
X460708Y645921D01*
X472021Y634608D01*
X462122Y624709D01*
G37*
G36*
X479092Y641679D02*
X467779Y652992D01*
X477678Y662891D01*
X488991Y651578D01*
X479092Y641679D01*
G37*
D10*
G36*
X114371Y718778D02*
X128227Y710778D01*
X120227Y696922D01*
X106371Y704922D01*
X114371Y718778D01*
G37*
D11*
X95301Y720550D03*
D14*
X68200Y816800D03*
D11*
X68200Y842200D03*
D13*
X116200Y828400D03*
X116200Y852400D03*
D10*
G36*
X373389Y1023190D02*
X357936Y1027331D01*
X362077Y1042784D01*
X377530Y1038643D01*
X373389Y1023190D01*
G37*
D11*
X392267Y1026413D03*
D10*
G36*
X336289Y907890D02*
X320836Y912031D01*
X324977Y927484D01*
X340430Y923343D01*
X336289Y907890D01*
G37*
D11*
X355167Y911113D03*
D13*
G36*
X334277Y947191D02*
X338419Y962645D01*
X351941Y959021D01*
X347799Y943567D01*
X334277Y947191D01*
G37*
G36*
X357459Y940979D02*
X361601Y956433D01*
X375123Y952809D01*
X370981Y937355D01*
X357459Y940979D01*
G37*
G36*
X391389Y1001978D02*
X387247Y986524D01*
X373725Y990148D01*
X377867Y1005602D01*
X391389Y1001978D01*
G37*
G36*
X368207Y1008190D02*
X364065Y992736D01*
X350543Y996360D01*
X354685Y1011814D01*
X368207Y1008190D01*
G37*
D15*
X454450Y772500D03*
X429050Y772500D03*
X403650Y772500D03*
X378250Y772500D03*
X441750Y727500D03*
X416350Y727500D03*
X390950Y727500D03*
X365550Y727500D03*
D16*
X179464Y755017D02*
X178531Y754941D01*
X179464Y755017D02*
X179885Y755111D01*
X180274Y755243D01*
X180633Y755413D01*
X180961Y755621D01*
X181258Y755865D01*
X181524Y756148D01*
X181758Y756467D01*
X181962Y756824D01*
X182135Y757219D01*
X182386Y758119D01*
X182511Y759167D01*
X182491Y760544D01*
X182386Y761250D01*
X182222Y761869D01*
X182007Y762408D01*
X181747Y762871D01*
X181452Y763265D01*
X181130Y763595D01*
X180788Y763866D01*
X180434Y764085D01*
X180077Y764256D01*
X179383Y764479D01*
X178772Y764581D01*
X178307Y764605D01*
X177847Y764585D01*
X177416Y764526D01*
X177013Y764429D01*
X176638Y764292D01*
X176292Y764118D01*
X175975Y763906D01*
X175687Y763655D01*
X175429Y763368D01*
X175200Y763043D01*
X175001Y762681D01*
X174832Y762282D01*
X174585Y761375D01*
X174461Y760325D01*
X174454Y759332D01*
X174533Y758489D01*
X174713Y757661D01*
X174847Y757263D01*
X175016Y756882D01*
X175222Y756522D01*
X175467Y756188D01*
X175754Y755883D01*
X176087Y755614D01*
X176468Y755384D01*
X176900Y755197D01*
X177386Y755058D01*
X177929Y754971D01*
X178531Y754941D01*
X178840Y764323D02*
X178479Y764343D01*
X178840Y764323D02*
X179183Y764264D01*
X179507Y764166D01*
X179812Y764032D01*
X180096Y763861D01*
X180359Y763654D01*
X180601Y763414D01*
X180820Y763140D01*
X181015Y762834D01*
X181187Y762496D01*
X181457Y761731D01*
X181623Y760852D01*
X181680Y759868D01*
X181579Y758453D01*
X181462Y757866D01*
X181307Y757353D01*
X181119Y756909D01*
X180904Y756529D01*
X180667Y756208D01*
X180413Y755942D01*
X180148Y755725D01*
X179876Y755553D01*
X179604Y755420D01*
X179335Y755323D01*
X178833Y755214D01*
X178410Y755186D01*
X178003Y755212D01*
X177519Y755318D01*
X177260Y755412D01*
X176998Y755539D01*
X176736Y755705D01*
X176481Y755914D01*
X176236Y756171D01*
X176008Y756480D01*
X175801Y756846D01*
X175620Y757273D01*
X175471Y757768D01*
X175286Y758974D01*
X175276Y760220D01*
X175388Y761189D01*
X175608Y762043D01*
X175756Y762425D01*
X175929Y762776D01*
X176126Y763094D01*
X176346Y763378D01*
X176589Y763628D01*
X176853Y763842D01*
X177139Y764020D01*
X177445Y764159D01*
X177771Y764261D01*
X178116Y764322D01*
X178479Y764343D01*
X198040Y754941D02*
X198811Y754991D01*
X199566Y755124D01*
X200893Y755540D01*
X200728Y755944D01*
X199349Y755489D01*
X198662Y755355D01*
X198023Y755306D01*
X197719Y755319D01*
X197440Y755355D01*
X197185Y755413D01*
X196954Y755491D01*
X196745Y755588D01*
X196557Y755703D01*
X196392Y755832D01*
X196246Y755975D01*
X196121Y756130D01*
X196014Y756295D01*
X195926Y756468D01*
X195856Y756648D01*
X195765Y757023D01*
X195736Y757404D01*
X195753Y757683D01*
X195803Y757937D01*
X195883Y758168D01*
X195989Y758377D01*
X196119Y758566D01*
X196270Y758735D01*
X196439Y758888D01*
X196817Y759145D01*
X197231Y759350D01*
X199095Y759988D01*
X199560Y760199D01*
X199951Y760438D01*
X200119Y760571D01*
X200268Y760714D01*
X200398Y760869D01*
X200508Y761036D01*
X200599Y761218D01*
X200670Y761414D01*
X200721Y761627D01*
X200752Y761858D01*
X200762Y762107D01*
X200735Y762517D01*
X200660Y762880D01*
X200541Y763198D01*
X200384Y763475D01*
X200196Y763714D01*
X199982Y763916D01*
X199747Y764086D01*
X199499Y764225D01*
X198982Y764426D01*
X198479Y764540D01*
X197696Y764605D01*
X197010Y764551D01*
X196326Y764397D01*
X195663Y764149D01*
X195040Y763816D01*
X195264Y763531D01*
X195920Y763878D01*
X196545Y764126D01*
X197137Y764276D01*
X197696Y764325D01*
X198153Y764287D01*
X198368Y764240D01*
X198572Y764176D01*
X198764Y764096D01*
X198944Y763999D01*
X199111Y763887D01*
X199264Y763762D01*
X199402Y763622D01*
X199524Y763470D01*
X199630Y763306D01*
X199718Y763130D01*
X199789Y762944D01*
X199840Y762748D01*
X199871Y762544D01*
X199882Y762331D01*
X199865Y762056D01*
X199817Y761806D01*
X199740Y761577D01*
X199636Y761368D01*
X199509Y761179D01*
X199360Y761008D01*
X199192Y760853D01*
X198810Y760586D01*
X198384Y760367D01*
X196400Y759651D01*
X195930Y759434D01*
X195541Y759191D01*
X195377Y759058D01*
X195232Y758914D01*
X195107Y758759D01*
X195002Y758591D01*
X194916Y758408D01*
X194849Y758210D01*
X194802Y757995D01*
X194764Y757508D01*
X194790Y757097D01*
X194864Y756732D01*
X194982Y756410D01*
X195137Y756129D01*
X195325Y755886D01*
X195541Y755677D01*
X195778Y755502D01*
X196033Y755356D01*
X196571Y755142D01*
X197113Y755016D01*
X198040Y754941D01*
X212436Y754941D02*
X213206Y754991D01*
X213961Y755124D01*
X215288Y755542D01*
X215123Y755944D01*
X213744Y755489D01*
X213057Y755355D01*
X212418Y755306D01*
X212115Y755319D01*
X211835Y755355D01*
X211580Y755413D01*
X211349Y755491D01*
X211139Y755588D01*
X210952Y755703D01*
X210786Y755832D01*
X210641Y755975D01*
X210515Y756130D01*
X210408Y756295D01*
X210320Y756468D01*
X210250Y756648D01*
X210158Y757023D01*
X210129Y757404D01*
X210147Y757683D01*
X210197Y757937D01*
X210276Y758168D01*
X210383Y758377D01*
X210513Y758566D01*
X210664Y758735D01*
X210833Y758888D01*
X211212Y759145D01*
X211626Y759350D01*
X213490Y759988D01*
X213955Y760199D01*
X214347Y760438D01*
X214514Y760571D01*
X214663Y760714D01*
X214793Y760869D01*
X214903Y761036D01*
X214994Y761218D01*
X215065Y761414D01*
X215116Y761627D01*
X215147Y761858D01*
X215157Y762107D01*
X215131Y762517D01*
X215055Y762880D01*
X214936Y763198D01*
X214779Y763475D01*
X214591Y763714D01*
X214377Y763916D01*
X214143Y764086D01*
X213894Y764225D01*
X213378Y764426D01*
X212874Y764540D01*
X212091Y764605D01*
X211406Y764552D01*
X210722Y764397D01*
X210058Y764150D01*
X209435Y763816D01*
X209661Y763531D01*
X210317Y763878D01*
X210942Y764126D01*
X211534Y764276D01*
X212091Y764325D01*
X212549Y764287D01*
X212763Y764240D01*
X212967Y764176D01*
X213159Y764096D01*
X213339Y763999D01*
X213506Y763887D01*
X213659Y763762D01*
X213797Y763622D01*
X213919Y763470D01*
X214025Y763306D01*
X214114Y763130D01*
X214184Y762944D01*
X214235Y762748D01*
X214266Y762544D01*
X214277Y762331D01*
X214260Y762056D01*
X214212Y761806D01*
X214135Y761577D01*
X214031Y761368D01*
X213904Y761179D01*
X213755Y761008D01*
X213587Y760853D01*
X213206Y760586D01*
X212780Y760367D01*
X210796Y759651D01*
X210327Y759434D01*
X209939Y759191D01*
X209775Y759058D01*
X209630Y758914D01*
X209505Y758759D01*
X209400Y758591D01*
X209314Y758408D01*
X209248Y758210D01*
X209201Y757995D01*
X209163Y757508D01*
X209189Y757097D01*
X209263Y756732D01*
X209381Y756410D01*
X209536Y756129D01*
X209724Y755886D01*
X209939Y755677D01*
X210176Y755502D01*
X210430Y755356D01*
X210968Y755142D01*
X211509Y755016D01*
X212436Y754941D01*
X166293Y758505D02*
X164792Y755148D01*
X166293Y758505D02*
X166529Y758808D01*
X166655Y758932D01*
X166915Y759130D01*
X167181Y759270D01*
X167442Y759361D01*
X167688Y759412D01*
X168931Y759429D01*
X169040Y759413D01*
X169146Y759386D01*
X169247Y759349D01*
X169343Y759302D01*
X169433Y759247D01*
X169518Y759184D01*
X169596Y759113D01*
X169667Y759035D01*
X169730Y758950D01*
X169785Y758859D01*
X169832Y758763D01*
X169869Y758662D01*
X169896Y758556D01*
X169912Y758447D01*
X169918Y755148D01*
X170683Y755148D01*
X170683Y764398D01*
X166658Y764348D01*
X165867Y764208D01*
X165550Y764108D01*
X165280Y763991D01*
X165054Y763859D01*
X164867Y763712D01*
X164716Y763553D01*
X164598Y763384D01*
X164508Y763206D01*
X164443Y763021D01*
X164398Y762830D01*
X164358Y762441D01*
X164361Y762063D01*
X164414Y761723D01*
X164511Y761416D01*
X164647Y761141D01*
X164812Y760899D01*
X165001Y760690D01*
X165205Y760515D01*
X165416Y760374D01*
X165590Y760280D01*
X165716Y760193D01*
X165828Y760091D01*
X165923Y759974D01*
X166002Y759847D01*
X166063Y759709D01*
X166104Y759563D01*
X166126Y759411D01*
X166126Y759256D01*
X166104Y759104D01*
X166063Y758958D01*
X166002Y758820D01*
X165923Y758693D01*
X165828Y758577D01*
X165716Y758474D01*
X165590Y758387D01*
X165516Y758346D01*
X165498Y758333D01*
X165445Y758280D01*
X165378Y758188D01*
X164030Y755148D01*
X164792Y755148D01*
X168819Y764291D02*
X168931Y764285D01*
X169040Y764269D01*
X169146Y764242D01*
X169247Y764205D01*
X169343Y764158D01*
X169433Y764103D01*
X169518Y764040D01*
X169596Y763969D01*
X169667Y763891D01*
X169730Y763806D01*
X169785Y763715D01*
X169832Y763619D01*
X169869Y763518D01*
X169896Y763412D01*
X169912Y763303D01*
X169912Y760496D01*
X169896Y760386D01*
X169869Y760281D01*
X169832Y760180D01*
X169785Y760083D01*
X169730Y759993D01*
X169667Y759908D01*
X169596Y759830D01*
X169518Y759759D01*
X169433Y759695D01*
X169343Y759640D01*
X169247Y759594D01*
X169146Y759557D01*
X169040Y759530D01*
X168931Y759513D01*
X167420Y759519D01*
X167153Y759553D01*
X166901Y759608D01*
X166663Y759684D01*
X166441Y759781D01*
X166234Y759898D01*
X166044Y760033D01*
X165871Y760187D01*
X165716Y760359D01*
X165580Y760548D01*
X165463Y760753D01*
X165366Y760974D01*
X165289Y761210D01*
X165233Y761461D01*
X165188Y762003D01*
X165213Y762401D01*
X165298Y762801D01*
X165367Y762997D01*
X165458Y763186D01*
X165571Y763367D01*
X165708Y763539D01*
X165872Y763698D01*
X166065Y763842D01*
X166287Y763971D01*
X166542Y764080D01*
X166832Y764169D01*
X167157Y764236D01*
X168819Y764291D01*
X188889Y763027D02*
X188883Y755148D01*
X188889Y763027D02*
X188906Y763137D01*
X188933Y763242D01*
X188970Y763343D01*
X189016Y763439D01*
X189071Y763530D01*
X189134Y763615D01*
X189205Y763693D01*
X189283Y763764D01*
X189368Y763827D01*
X189459Y763883D01*
X189555Y763929D01*
X189656Y763966D01*
X189761Y763993D01*
X189870Y764010D01*
X191932Y764015D01*
X191932Y764398D01*
X184966Y764398D01*
X184966Y764015D01*
X187149Y764010D01*
X187258Y763993D01*
X187363Y763966D01*
X187464Y763929D01*
X187560Y763883D01*
X187651Y763827D01*
X187736Y763764D01*
X187814Y763693D01*
X187885Y763615D01*
X187948Y763530D01*
X188003Y763439D01*
X188049Y763343D01*
X188086Y763242D01*
X188113Y763137D01*
X188130Y763027D01*
X188136Y755148D01*
X188883Y755148D01*
X205394Y755148D02*
X205394Y764398D01*
X204634Y764398D01*
X204634Y755148D01*
X205394Y755148D01*
X223923Y755148D02*
X223923Y764398D01*
X218633Y764398D01*
X218633Y764015D01*
X222174Y764010D01*
X222283Y763993D01*
X222389Y763966D01*
X222490Y763929D01*
X222586Y763883D01*
X222677Y763827D01*
X222762Y763764D01*
X222840Y763693D01*
X222911Y763615D01*
X222974Y763530D01*
X223029Y763439D01*
X223076Y763343D01*
X223113Y763242D01*
X223140Y763137D01*
X223156Y763027D01*
X223156Y761064D01*
X223140Y760955D01*
X223113Y760849D01*
X223076Y760748D01*
X223029Y760652D01*
X222974Y760561D01*
X222911Y760476D01*
X222840Y760398D01*
X222762Y760327D01*
X222677Y760264D01*
X222586Y760209D01*
X222490Y760162D01*
X222389Y760125D01*
X222283Y760098D01*
X222174Y760082D01*
X219271Y760076D01*
X219271Y759694D01*
X222174Y759688D01*
X222283Y759671D01*
X222389Y759644D01*
X222490Y759607D01*
X222586Y759561D01*
X222677Y759506D01*
X222762Y759442D01*
X222840Y759371D01*
X222911Y759293D01*
X222974Y759208D01*
X223029Y759118D01*
X223076Y759021D01*
X223113Y758920D01*
X223140Y758815D01*
X223156Y758705D01*
X223156Y756517D01*
X223140Y756407D01*
X223113Y756302D01*
X223076Y756201D01*
X223029Y756104D01*
X222974Y756014D01*
X222911Y755929D01*
X222840Y755851D01*
X222762Y755780D01*
X222677Y755716D01*
X222586Y755661D01*
X222490Y755615D01*
X222389Y755578D01*
X222283Y755551D01*
X222174Y755534D01*
X218513Y755528D01*
X218513Y755148D01*
X223923Y755148D01*
X228505Y755148D02*
X230007Y758505D01*
X230242Y758808D01*
X230497Y759039D01*
X230762Y759207D01*
X231026Y759321D01*
X231280Y759391D01*
X231516Y759426D01*
X232643Y759429D01*
X232753Y759413D01*
X232858Y759386D01*
X232959Y759349D01*
X233056Y759302D01*
X233146Y759247D01*
X233231Y759184D01*
X233309Y759113D01*
X233380Y759035D01*
X233444Y758950D01*
X233499Y758859D01*
X233545Y758763D01*
X233582Y758662D01*
X233609Y758556D01*
X233626Y758447D01*
X233632Y755148D01*
X234393Y755148D01*
X234393Y764398D01*
X230370Y764348D01*
X229580Y764208D01*
X229264Y764108D01*
X228994Y763991D01*
X228768Y763859D01*
X228581Y763712D01*
X228431Y763553D01*
X228313Y763384D01*
X228223Y763206D01*
X228158Y763021D01*
X228113Y762830D01*
X228073Y762441D01*
X228076Y762063D01*
X228129Y761723D01*
X228226Y761416D01*
X228361Y761141D01*
X228527Y760899D01*
X228715Y760690D01*
X228918Y760515D01*
X229129Y760374D01*
X229304Y760280D01*
X229430Y760193D01*
X229542Y760091D01*
X229638Y759974D01*
X229717Y759847D01*
X229778Y759709D01*
X229820Y759563D01*
X229841Y759411D01*
X229841Y759256D01*
X229820Y759104D01*
X229778Y758958D01*
X229717Y758820D01*
X229638Y758693D01*
X229542Y758577D01*
X229430Y758474D01*
X229304Y758387D01*
X229230Y758346D01*
X229212Y758333D01*
X229160Y758280D01*
X229091Y758188D01*
X229018Y758055D01*
X227741Y755148D01*
X228505Y755148D01*
X232531Y764291D02*
X232643Y764285D01*
X232753Y764269D01*
X232858Y764242D01*
X232959Y764205D01*
X233056Y764158D01*
X233146Y764103D01*
X233231Y764040D01*
X233309Y763969D01*
X233380Y763891D01*
X233444Y763806D01*
X233499Y763715D01*
X233545Y763619D01*
X233582Y763518D01*
X233609Y763412D01*
X233626Y763303D01*
X233626Y760496D01*
X233609Y760386D01*
X233582Y760281D01*
X233545Y760180D01*
X233499Y760083D01*
X233444Y759993D01*
X233380Y759908D01*
X233309Y759830D01*
X233231Y759759D01*
X233146Y759695D01*
X233056Y759640D01*
X232959Y759594D01*
X232858Y759557D01*
X232753Y759530D01*
X232643Y759513D01*
X231132Y759519D01*
X230866Y759553D01*
X230613Y759608D01*
X230376Y759684D01*
X230153Y759781D01*
X229947Y759898D01*
X229757Y760033D01*
X229584Y760187D01*
X229429Y760359D01*
X229292Y760548D01*
X229175Y760753D01*
X229078Y760974D01*
X229001Y761210D01*
X228945Y761461D01*
X228900Y762003D01*
X228925Y762401D01*
X229009Y762801D01*
X229079Y762997D01*
X229169Y763186D01*
X229282Y763367D01*
X229420Y763539D01*
X229584Y763698D01*
X229777Y763842D01*
X229999Y763971D01*
X230254Y764080D01*
X230544Y764169D01*
X230869Y764236D01*
X232531Y764291D01*
X193702Y774457D02*
X187616Y774457D01*
X187616Y772782D01*
X187616Y770862D01*
X187616Y769021D01*
X193702Y769021D01*
X199194Y778552D02*
X199814Y778581D01*
X200373Y778667D01*
X200873Y778804D01*
X201317Y778988D01*
X201709Y779215D01*
X202051Y779481D01*
X202347Y779780D01*
X202599Y780110D01*
X202810Y780464D01*
X202984Y780840D01*
X203229Y781637D01*
X203359Y782465D01*
X203397Y783289D01*
X203363Y784077D01*
X203266Y784778D01*
X203112Y785395D01*
X202909Y785935D01*
X202663Y786402D01*
X202381Y786802D01*
X202070Y787140D01*
X201737Y787420D01*
X201389Y787648D01*
X201032Y787829D01*
X200675Y787969D01*
X199983Y788142D01*
X199369Y788209D01*
X198922Y788211D01*
X198559Y788178D01*
X198209Y788112D01*
X197873Y788012D01*
X197551Y787880D01*
X197243Y787715D01*
X196949Y787516D01*
X196535Y787158D01*
X196883Y786908D01*
X197435Y787367D01*
X197720Y787547D01*
X198012Y787694D01*
X198309Y787808D01*
X198614Y787889D01*
X198926Y787937D01*
X199246Y787954D01*
X199546Y787940D01*
X199847Y787896D01*
X200144Y787823D01*
X200436Y787717D01*
X200720Y787579D01*
X200993Y787406D01*
X201253Y787196D01*
X201497Y786950D01*
X201722Y786664D01*
X201926Y786338D01*
X202105Y785971D01*
X202258Y785561D01*
X202474Y784605D01*
X202550Y783461D01*
X202520Y782693D01*
X202433Y782013D01*
X202297Y781416D01*
X202117Y780897D01*
X201902Y780450D01*
X201656Y780071D01*
X201388Y779753D01*
X201103Y779491D01*
X200809Y779280D01*
X200512Y779115D01*
X200218Y778990D01*
X199669Y778839D01*
X199215Y778784D01*
X198615Y778803D01*
X198056Y778911D01*
X197504Y779105D01*
X196821Y779472D01*
X196666Y779272D01*
X197247Y778947D01*
X197851Y778723D01*
X198494Y778593D01*
X199194Y778552D01*
X210524Y778552D02*
X211483Y778605D01*
X212252Y778760D01*
X212570Y778873D01*
X212848Y779009D01*
X213088Y779168D01*
X213292Y779347D01*
X213463Y779547D01*
X213603Y779766D01*
X213715Y780004D01*
X213801Y780260D01*
X213906Y780822D01*
X213936Y788009D01*
X213175Y788009D01*
X213128Y780994D01*
X213069Y780707D01*
X212989Y780439D01*
X212887Y780190D01*
X212763Y779959D01*
X212618Y779749D01*
X212453Y779558D01*
X212268Y779387D01*
X212063Y779238D01*
X211840Y779111D01*
X211598Y779005D01*
X211338Y778922D01*
X211060Y778862D01*
X210455Y778814D01*
X210166Y778826D01*
X209890Y778864D01*
X209627Y778925D01*
X209379Y779010D01*
X209147Y779117D01*
X208930Y779245D01*
X208730Y779394D01*
X208548Y779563D01*
X208385Y779751D01*
X208240Y779957D01*
X208116Y780181D01*
X208013Y780421D01*
X207931Y780677D01*
X207871Y780948D01*
X207823Y788009D01*
X207061Y788009D01*
X207091Y780755D01*
X207177Y780372D01*
X207311Y780036D01*
X207488Y779744D01*
X207701Y779492D01*
X207942Y779279D01*
X208207Y779100D01*
X208488Y778952D01*
X209071Y778741D01*
X209640Y778620D01*
X210524Y778552D01*
X179929Y778759D02*
X179937Y782181D01*
X179960Y782311D01*
X179999Y782438D01*
X182909Y788009D01*
X182169Y788009D01*
X180410Y784365D01*
X180315Y784243D01*
X180205Y784136D01*
X180082Y784046D01*
X179947Y783973D01*
X179804Y783920D01*
X179652Y783888D01*
X179495Y783876D01*
X179338Y783887D01*
X179182Y783919D01*
X179029Y783970D01*
X178883Y784040D01*
X178749Y784127D01*
X178629Y784230D01*
X178526Y784349D01*
X176664Y788009D01*
X176109Y788009D01*
X179108Y782467D01*
X179149Y782336D01*
X179174Y782202D01*
X179182Y778759D01*
X179929Y778759D01*
X187195Y778759D02*
X189030Y782500D01*
X189115Y782613D01*
X189214Y782713D01*
X189324Y782800D01*
X189444Y782871D01*
X189573Y782928D01*
X189709Y782967D01*
X189887Y782992D01*
X189936Y782994D01*
X190078Y782987D01*
X190206Y782964D01*
X190329Y782926D01*
X190447Y782875D01*
X190557Y782810D01*
X190660Y782733D01*
X190754Y782643D01*
X191902Y781074D01*
X191980Y780920D01*
X192033Y780756D01*
X192060Y780585D01*
X192063Y778759D01*
X192807Y778759D01*
X192807Y788009D01*
X192063Y788009D01*
X192047Y785209D01*
X191995Y784917D01*
X191913Y784661D01*
X191802Y784440D01*
X191667Y784255D01*
X191591Y784177D01*
X191511Y784107D01*
X191426Y784046D01*
X191337Y783994D01*
X191245Y783951D01*
X191149Y783917D01*
X191051Y783892D01*
X190950Y783877D01*
X190848Y783870D01*
X190639Y783885D01*
X190428Y783937D01*
X190219Y784025D01*
X190013Y784151D01*
X189816Y784314D01*
X189631Y784515D01*
X187247Y788009D01*
X186661Y788009D01*
X188826Y784873D01*
X188884Y784738D01*
X188924Y784598D01*
X188944Y784454D01*
X188945Y784309D01*
X188927Y784164D01*
X188889Y784022D01*
X186279Y778759D01*
X187195Y778759D01*
X222287Y778759D02*
X222287Y788009D01*
X221510Y788009D01*
X221504Y780146D01*
X221488Y780037D01*
X221461Y779932D01*
X221424Y779830D01*
X221377Y779734D01*
X221322Y779643D01*
X221259Y779559D01*
X221188Y779481D01*
X221110Y779410D01*
X221025Y779346D01*
X220934Y779291D01*
X220838Y779245D01*
X220737Y779208D01*
X220631Y779181D01*
X220522Y779164D01*
X216945Y779158D01*
X216945Y778759D01*
X222287Y778759D01*
X210749Y771901D02*
X238019Y771901D01*
X187603Y771763D02*
X160665Y771763D01*
X210749Y774457D02*
X210749Y769021D01*
X206487Y769021D02*
X206487Y774457D01*
X202226Y774457D02*
X202226Y769021D01*
X197964Y769021D02*
X197964Y774457D01*
X193702Y774457D02*
X193702Y772782D01*
X193702Y770862D01*
X193702Y769021D01*
X193702Y772782D02*
X187616Y772782D01*
X187616Y770862D02*
X193702Y770862D01*
D17*
X410000Y540000D03*
X530000Y540000D03*
X500000Y540000D03*
X310000Y840000D03*
X350000Y840000D03*
X390000Y840000D03*
X440000Y540000D03*
X270000Y840000D03*
D18*
X188788Y199958D02*
X189000Y193900D01*
X188789Y199957D02*
X188762Y200526D01*
X188721Y201094D01*
X188667Y201661D01*
X188598Y202226D01*
X188516Y202790D01*
X188420Y203351D01*
X188311Y203910D01*
X188188Y204466D01*
X188051Y205019D01*
X187901Y205568D01*
X187738Y206114D01*
X187561Y206655D01*
X187372Y207192D01*
X187169Y207724D01*
X186953Y208251D01*
X186725Y208773D01*
X186484Y209289D01*
X186230Y209798D01*
X185964Y210302D01*
X185686Y210799D01*
X185396Y211289D01*
X185094Y211771D01*
X184780Y212247D01*
X184455Y212714D01*
X184118Y213174D01*
X183771Y213625D01*
X183412Y214067D01*
X183043Y214501D01*
X182663Y214925D01*
X182274Y215340D01*
X181874Y215745D01*
X181464Y216141D01*
X181045Y216526D01*
X180616Y216902D01*
X180179Y217266D01*
X179733Y217620D01*
X179278Y217963D01*
X178815Y218294D01*
X178344Y218615D01*
X177866Y218923D01*
X177380Y219220D01*
X176887Y219505D01*
X176387Y219778D01*
X175881Y220039D01*
X175368Y220287D01*
X174850Y220523D01*
X174326Y220745D01*
X173797Y220956D01*
X173262Y221153D01*
X172724Y221337D01*
X172180Y221508D01*
X171633Y221665D01*
X171082Y221809D01*
X170528Y221940D01*
X169971Y222057D01*
X169411Y222161D01*
X168848Y222251D01*
X168284Y222327D01*
X167718Y222389D01*
X167151Y222438D01*
X166582Y222472D01*
X166013Y222493D01*
X165444Y222500D01*
X115139Y222500D01*
X113992Y222486D01*
X112846Y222444D01*
X111701Y222374D01*
X110558Y222277D01*
X109418Y222151D01*
X108281Y221998D01*
X107149Y221817D01*
X106021Y221609D01*
X104898Y221373D01*
X103782Y221110D01*
X102672Y220820D01*
X101570Y220503D01*
X100476Y220159D01*
X99390Y219788D01*
X98314Y219392D01*
X97248Y218969D01*
X96192Y218520D01*
X95148Y218046D01*
X94115Y217546D01*
X93095Y217022D01*
X92089Y216472D01*
X91095Y215899D01*
X90116Y215301D01*
X89152Y214680D01*
X88203Y214035D01*
X87271Y213368D01*
X86355Y212678D01*
X85455Y211966D01*
X84574Y211232D01*
X83711Y210477D01*
X82866Y209701D01*
X82040Y208905D01*
X81234Y208088D01*
X80448Y207253D01*
X79683Y206399D01*
X78939Y205526D01*
X78216Y204635D01*
X77515Y203727D01*
X76837Y202802D01*
X76181Y201861D01*
X75549Y200905D01*
X74939Y199933D01*
X74354Y198946D01*
X73793Y197946D01*
X73256Y196932D01*
X72745Y195906D01*
X72258Y194867D01*
X71797Y193817D01*
X71361Y192756D01*
X70952Y191684D01*
X70569Y190603D01*
X70212Y189513D01*
X69882Y188415D01*
X69579Y187309D01*
X69302Y186195D01*
X69053Y185076D01*
X68832Y183950D01*
X68637Y182820D01*
X68471Y181685D01*
X68332Y180547D01*
X68221Y179405D01*
X68137Y178261D01*
X62150Y79499D01*
X267871Y207871D02*
X367574Y307574D01*
X367574Y307573D02*
X369982Y310040D01*
X372331Y312563D01*
X374620Y315141D01*
X376846Y317774D01*
X379009Y320458D01*
X381108Y323193D01*
X383141Y325977D01*
X385107Y328809D01*
X387005Y331687D01*
X388834Y334609D01*
X390593Y337574D01*
X392281Y340579D01*
X393897Y343625D01*
X395441Y346707D01*
X396910Y349826D01*
X398305Y352979D01*
X399624Y356164D01*
X400867Y359379D01*
X402033Y362623D01*
X403122Y365894D01*
X404132Y369190D01*
X405064Y372509D01*
X405917Y375850D01*
X406690Y379209D01*
X407382Y382586D01*
X407994Y385979D01*
X408526Y389385D01*
X408976Y392803D01*
X409344Y396231D01*
X409631Y399666D01*
X409836Y403108D01*
X409959Y406553D01*
X410000Y410000D01*
X410000Y540000D01*
X267871Y207871D02*
X266016Y206647D01*
X264132Y205469D01*
X262220Y204337D01*
X260281Y203253D01*
X258315Y202216D01*
X256325Y201228D01*
X254311Y200289D01*
X252274Y199400D01*
X250217Y198562D01*
X248139Y197773D01*
X246043Y197037D01*
X243929Y196351D01*
X241799Y195718D01*
X239654Y195138D01*
X237496Y194610D01*
X235325Y194135D01*
X233143Y193714D01*
X230952Y193346D01*
X228752Y193033D01*
X226545Y192773D01*
X224333Y192568D01*
X222116Y192417D01*
X219896Y192320D01*
X217674Y192278D01*
X215452Y192290D01*
X213231Y192357D01*
X211012Y192479D01*
X208797Y192655D01*
X206587Y192885D01*
X204383Y193169D01*
X202187Y193508D01*
X200000Y193900D01*
X189000Y193900D01*
X410000Y540000D02*
X333848Y629998D01*
X333847Y629998D02*
X333023Y630996D01*
X332224Y632014D01*
X331449Y633051D01*
X330700Y634107D01*
X329977Y635180D01*
X329279Y636270D01*
X328609Y637377D01*
X327966Y638501D01*
X327350Y639639D01*
X326761Y640792D01*
X326201Y641959D01*
X325670Y643139D01*
X325167Y644332D01*
X324693Y645536D01*
X324249Y646752D01*
X323834Y647978D01*
X323449Y649214D01*
X323095Y650459D01*
X322770Y651712D01*
X322476Y652972D01*
X322213Y654239D01*
X321981Y655513D01*
X321779Y656791D01*
X321609Y658074D01*
X321470Y659361D01*
X321362Y660651D01*
X321285Y661943D01*
X321240Y663236D01*
X321226Y664531D01*
X321244Y665825D01*
X321293Y667118D01*
X321373Y668410D01*
X321485Y669700D01*
X321627Y670986D01*
X321802Y672269D01*
X322007Y673547D01*
X322243Y674819D01*
X322510Y676086D01*
X322807Y677345D01*
X323135Y678598D01*
X323494Y679841D01*
X323882Y681076D01*
X324300Y682301D01*
X324748Y683515D01*
X325225Y684718D01*
X325731Y685910D01*
X326266Y687088D01*
X326830Y688254D01*
X327421Y689405D01*
X328040Y690541D01*
X328687Y691663D01*
X329361Y692768D01*
X330061Y693856D01*
X330788Y694928D01*
X331540Y695981D01*
X332317Y697016D01*
X333120Y698031D01*
X333947Y699027D01*
X334798Y700002D01*
X335672Y700957D01*
X336569Y701890D01*
X337488Y702801D01*
X338430Y703689D01*
X339392Y704554D01*
X339392Y704555D02*
X365550Y727500D01*
X165000Y193900D02*
X108887Y193767D01*
X454450Y772500D02*
X454450Y782550D01*
X444000Y793000D01*
D19*
X444000Y793000D03*
D18*
X357873Y667027D02*
X357900Y667000D01*
X357873Y667027D02*
X341200Y666800D01*
D19*
X341200Y666800D03*
D18*
X506784Y239073D02*
X522350Y225899D01*
X506785Y239073D02*
X505220Y240431D01*
X503689Y241826D01*
X502193Y243259D01*
X500732Y244728D01*
X499307Y246232D01*
X497920Y247771D01*
X496572Y249344D01*
X495262Y250949D01*
X493991Y252585D01*
X492762Y254253D01*
X491573Y255950D01*
X490427Y257675D01*
X489323Y259428D01*
X488263Y261208D01*
X487246Y263013D01*
X486274Y264843D01*
X485348Y266695D01*
X484467Y268570D01*
X483632Y270467D01*
X482844Y272382D01*
X482103Y274317D01*
X481410Y276269D01*
X480765Y278238D01*
X480168Y280222D01*
X479620Y282220D01*
X479122Y284231D01*
X478672Y286253D01*
X478273Y288286D01*
X477923Y290328D01*
X477624Y292378D01*
X477375Y294435D01*
X477177Y296497D01*
X477176Y296496D02*
X472222Y355561D01*
X462765Y521948D02*
X485981Y607119D01*
X462765Y521948D02*
X462331Y520277D01*
X461935Y518596D01*
X461579Y516907D01*
X461262Y515209D01*
X460985Y513505D01*
X460748Y511795D01*
X460550Y510079D01*
X460393Y508360D01*
X460276Y506637D01*
X460199Y504912D01*
X460162Y503185D01*
X460166Y501459D01*
X460210Y499732D01*
X460294Y498008D01*
X460418Y496285D01*
X472222Y355561D01*
X378300Y742600D02*
X378294Y742794D01*
X378283Y742989D01*
X378268Y743183D01*
X378248Y743376D01*
X378223Y743569D01*
X378193Y743761D01*
X378159Y743953D01*
X378121Y744144D01*
X378078Y744333D01*
X378030Y744522D01*
X377977Y744709D01*
X377921Y744895D01*
X377859Y745080D01*
X377794Y745263D01*
X377723Y745445D01*
X377649Y745624D01*
X377570Y745802D01*
X377487Y745978D01*
X377399Y746152D01*
X377308Y746324D01*
X377212Y746493D01*
X377112Y746660D01*
X377009Y746825D01*
X376901Y746987D01*
X376789Y747146D01*
X376674Y747303D01*
X376555Y747457D01*
X376432Y747607D01*
X376306Y747755D01*
X376176Y747900D01*
X376042Y748042D01*
X375906Y748180D01*
X375765Y748315D01*
X375622Y748447D01*
X375476Y748575D01*
X375326Y748699D01*
X375174Y748820D01*
X375018Y748937D01*
X374860Y749050D01*
X374699Y749160D01*
X374536Y749265D01*
X374370Y749367D01*
X374202Y749465D01*
X374031Y749558D01*
X373858Y749647D01*
X373683Y749732D01*
X373506Y749813D01*
X373327Y749890D01*
X373147Y749962D01*
X372964Y750030D01*
X372780Y750093D01*
X372595Y750152D01*
X372408Y750206D01*
X372220Y750256D01*
X372031Y750302D01*
X371841Y750342D01*
X371649Y750378D01*
X371457Y750410D01*
X371265Y750437D01*
X371071Y750459D01*
X370878Y750477D01*
X370683Y750489D01*
X370489Y750497D01*
X370295Y750501D01*
X370100Y750500D01*
X389269Y688962D02*
X440000Y680000D01*
X389270Y688962D02*
X388950Y689022D01*
X388632Y689090D01*
X388316Y689166D01*
X388002Y689250D01*
X387690Y689342D01*
X387380Y689441D01*
X387073Y689547D01*
X386768Y689661D01*
X386466Y689783D01*
X386168Y689912D01*
X385872Y690048D01*
X385581Y690191D01*
X385292Y690342D01*
X385008Y690499D01*
X384727Y690664D01*
X384451Y690835D01*
X384178Y691013D01*
X383911Y691197D01*
X383647Y691389D01*
X383389Y691586D01*
X383135Y691790D01*
X382887Y692000D01*
X382644Y692215D01*
X382406Y692437D01*
X382174Y692665D01*
X381947Y692898D01*
X381726Y693137D01*
X381511Y693380D01*
X381302Y693630D01*
X381099Y693884D01*
X380902Y694143D01*
X380712Y694407D01*
X380529Y694675D01*
X380352Y694948D01*
X380181Y695225D01*
X380018Y695506D01*
X379861Y695791D01*
X379712Y696080D01*
X379570Y696373D01*
X379434Y696668D01*
X379307Y696967D01*
X379186Y697270D01*
X379073Y697574D01*
X378967Y697882D01*
X378869Y698192D01*
X378779Y698505D01*
X378696Y698819D01*
X378621Y699136D01*
X378554Y699454D01*
X378495Y699774D01*
X378443Y700095D01*
X378399Y700417D01*
X378364Y700740D01*
X378336Y701064D01*
X378316Y701389D01*
X378304Y701714D01*
X378300Y702039D01*
X378300Y742600D01*
X460935Y653085D02*
X478413Y635606D01*
X478915Y635092D01*
X479403Y634566D01*
X479879Y634028D01*
X480342Y633479D01*
X480791Y632919D01*
X481226Y632347D01*
X481647Y631766D01*
X482053Y631174D01*
X482445Y630572D01*
X482823Y629961D01*
X483185Y629341D01*
X483532Y628713D01*
X483863Y628076D01*
X484179Y627431D01*
X484479Y626778D01*
X484763Y626119D01*
X485030Y625452D01*
X485281Y624780D01*
X485516Y624101D01*
X485734Y623417D01*
X485935Y622728D01*
X486120Y622034D01*
X486287Y621335D01*
X486437Y620633D01*
X486570Y619927D01*
X486686Y619219D01*
X486784Y618507D01*
X486865Y617794D01*
X486929Y617079D01*
X486975Y616362D01*
X487003Y615645D01*
X487014Y614927D01*
X487007Y614209D01*
X486983Y613491D01*
X486941Y612774D01*
X486882Y612058D01*
X486805Y611345D01*
X486711Y610633D01*
X486599Y609923D01*
X486470Y609217D01*
X486324Y608514D01*
X486161Y607815D01*
X485980Y607120D01*
X454088Y661019D02*
X440000Y680000D01*
X454088Y661019D02*
X455147Y659628D01*
X456240Y658264D01*
X457366Y656926D01*
X458524Y655617D01*
X459714Y654336D01*
X460935Y653085D01*
X440000Y680000D02*
X441750Y727500D01*
X442438Y681829D02*
X440000Y680000D01*
X175522Y95522D02*
X173160Y93216D01*
X170744Y90967D01*
X168276Y88776D01*
X165755Y86644D01*
X163185Y84573D01*
X160567Y82564D01*
X157901Y80617D01*
X155189Y78734D01*
X152434Y76917D01*
X149636Y75166D01*
X146798Y73481D01*
X143919Y71865D01*
X141004Y70318D01*
X138052Y68840D01*
X135066Y67433D01*
X132048Y66098D01*
X128998Y64835D01*
X125919Y63645D01*
X122813Y62528D01*
X119681Y61486D01*
X116525Y60518D01*
X113347Y59626D01*
X110149Y58810D01*
X106932Y58070D01*
X103699Y57406D01*
X100450Y56820D01*
X97189Y56312D01*
X93917Y55881D01*
X90635Y55528D01*
X87345Y55253D01*
X84050Y55057D01*
X80752Y54939D01*
X77451Y54900D01*
X175522Y95522D02*
X387574Y307574D01*
X387574Y307573D02*
X389982Y310040D01*
X392331Y312563D01*
X394620Y315141D01*
X396846Y317774D01*
X399009Y320458D01*
X401108Y323193D01*
X403141Y325977D01*
X405107Y328809D01*
X407005Y331687D01*
X408834Y334609D01*
X410593Y337574D01*
X412281Y340579D01*
X413897Y343625D01*
X415441Y346707D01*
X416910Y349826D01*
X418305Y352979D01*
X419624Y356164D01*
X420867Y359379D01*
X422033Y362623D01*
X423122Y365894D01*
X424132Y369190D01*
X425064Y372509D01*
X425917Y375850D01*
X426690Y379209D01*
X427382Y382586D01*
X427994Y385979D01*
X428526Y389385D01*
X428976Y392803D01*
X429344Y396231D01*
X429631Y399666D01*
X429836Y403108D01*
X429959Y406553D01*
X430000Y410000D01*
X436960Y527839D02*
X440000Y540000D01*
X436960Y527839D02*
X435643Y522283D01*
X434462Y516696D01*
X433419Y511082D01*
X432514Y505444D01*
X431746Y499785D01*
X431118Y494110D01*
X430629Y488421D01*
X430280Y482721D01*
X430070Y477015D01*
X430000Y471305D01*
X430000Y410000D01*
X74850Y57501D02*
X77451Y54900D01*
X440000Y680000D02*
X502000Y683800D01*
X438357Y679144D02*
X435986Y677945D01*
X433587Y676804D01*
X431161Y675722D01*
X428709Y674699D01*
X426232Y673737D01*
X423733Y672836D01*
X421213Y671995D01*
X418673Y671217D01*
X416114Y670501D01*
X413539Y669848D01*
X410949Y669257D01*
X408345Y668730D01*
X405729Y668267D01*
X403103Y667868D01*
X400467Y667533D01*
X397824Y667263D01*
X395176Y667057D01*
X392523Y666916D01*
X389867Y666840D01*
X387210Y666828D01*
X384554Y666882D01*
X381900Y667000D01*
X438357Y679143D02*
X440000Y680000D01*
X370100Y750500D02*
X355612Y750259D01*
X354157Y750217D01*
X352703Y750141D01*
X351252Y750029D01*
X349804Y749884D01*
X348359Y749703D01*
X346920Y749488D01*
X345486Y749239D01*
X344058Y748955D01*
X342637Y748638D01*
X341225Y748286D01*
X339821Y747901D01*
X338427Y747482D01*
X337044Y747030D01*
X335671Y746545D01*
X334311Y746027D01*
X332963Y745477D01*
X331629Y744895D01*
X330309Y744281D01*
X329005Y743636D01*
X327716Y742960D01*
X326443Y742253D01*
X234517Y689724D01*
X234516Y689723D02*
X231932Y688288D01*
X229314Y686915D01*
X226663Y685607D01*
X223981Y684363D01*
X221270Y683184D01*
X218532Y682071D01*
X215767Y681026D01*
X212977Y680047D01*
X210165Y679136D01*
X207331Y678294D01*
X204478Y677520D01*
X201607Y676816D01*
X198720Y676182D01*
X195818Y675618D01*
X192903Y675124D01*
X189978Y674701D01*
X187042Y674349D01*
X184100Y674068D01*
X181151Y673859D01*
X178198Y673721D01*
X175243Y673654D01*
X172286Y673660D01*
X169331Y673737D01*
X166379Y673885D01*
X163431Y674105D01*
X160489Y674397D01*
X111600Y679838D01*
X111600Y679839D02*
X110582Y679964D01*
X109567Y680115D01*
X108556Y680290D01*
X107549Y680489D01*
X106548Y680712D01*
X105552Y680960D01*
X104562Y681231D01*
X103580Y681527D01*
X102605Y681846D01*
X101637Y682188D01*
X100679Y682554D01*
X99729Y682943D01*
X98789Y683355D01*
X97860Y683789D01*
X96941Y684246D01*
X96033Y684724D01*
X95138Y685225D01*
X94254Y685747D01*
X93384Y686290D01*
X92527Y686854D01*
X91683Y687438D01*
X90855Y688043D01*
X90041Y688668D01*
X89242Y689312D01*
X88459Y689975D01*
X87692Y690657D01*
X86942Y691357D01*
X86209Y692075D01*
X85494Y692811D01*
X84797Y693564D01*
X84118Y694333D01*
X83458Y695118D01*
X82817Y695920D01*
X82196Y696736D01*
X81594Y697567D01*
X81013Y698413D01*
X80452Y699272D01*
X79912Y700145D01*
X79394Y701030D01*
X78897Y701928D01*
X78422Y702837D01*
X77969Y703758D01*
X77538Y704689D01*
X77130Y705631D01*
X76745Y706582D01*
X76383Y707542D01*
X76045Y708510D01*
X75729Y709487D01*
X75438Y710471D01*
X75170Y711461D01*
X74926Y712458D01*
X74707Y713460D01*
X74512Y714467D01*
X74341Y715479D01*
X74194Y716495D01*
X74072Y717514D01*
X73975Y718535D01*
X73903Y719558D01*
X68200Y816800D01*
X440000Y680000D02*
X437480Y666140D01*
X437480Y666139D02*
X437390Y665674D01*
X437288Y665212D01*
X437176Y664752D01*
X437052Y664295D01*
X436917Y663841D01*
X436771Y663390D01*
X436614Y662943D01*
X436447Y662500D01*
X436269Y662061D01*
X436080Y661627D01*
X435881Y661197D01*
X435672Y660772D01*
X435452Y660352D01*
X435222Y659938D01*
X434983Y659530D01*
X434733Y659127D01*
X434474Y658731D01*
X434205Y658341D01*
X433927Y657957D01*
X433640Y657581D01*
X433344Y657211D01*
X433039Y656849D01*
X432725Y656494D01*
X432403Y656147D01*
X432072Y655808D01*
X431734Y655476D01*
X431387Y655154D01*
X431033Y654839D01*
X430671Y654534D01*
X430302Y654237D01*
X429926Y653949D01*
X429543Y653670D01*
X429153Y653401D01*
X428757Y653141D01*
X428355Y652891D01*
X427947Y652651D01*
X427533Y652420D01*
X427114Y652200D01*
X426689Y651990D01*
X426260Y651790D01*
X425826Y651601D01*
X425387Y651422D01*
X424944Y651254D01*
X424498Y651096D01*
X424047Y650950D01*
X423594Y650814D01*
X423137Y650690D01*
X422677Y650576D01*
X422214Y650474D01*
X421750Y650383D01*
X421283Y650303D01*
X420814Y650234D01*
X420344Y650177D01*
X419872Y650131D01*
X419873Y650132D02*
X405065Y648874D01*
X404395Y648808D01*
X403727Y648727D01*
X403061Y648629D01*
X402398Y648514D01*
X401737Y648384D01*
X401080Y648237D01*
X400427Y648074D01*
X399778Y647896D01*
X399134Y647701D01*
X398494Y647491D01*
X397860Y647264D01*
X397232Y647023D01*
X396610Y646766D01*
X395994Y646494D01*
X395385Y646207D01*
X394784Y645905D01*
X394189Y645588D01*
X393603Y645257D01*
X393026Y644912D01*
X392456Y644553D01*
X391896Y644179D01*
X391345Y643792D01*
X390804Y643392D01*
X390273Y642978D01*
X389752Y642552D01*
X389242Y642113D01*
X388743Y641661D01*
X388255Y641198D01*
X387778Y640723D01*
X387313Y640236D01*
X386861Y639737D01*
X386420Y639228D01*
X385993Y638708D01*
X385578Y638178D01*
X385176Y637638D01*
X384788Y637088D01*
X384413Y636529D01*
X384052Y635961D01*
X383706Y635384D01*
X383373Y634798D01*
X383055Y634205D01*
X382752Y633604D01*
X382463Y632996D01*
X382189Y632381D01*
X381931Y631759D01*
X381688Y631132D01*
X381460Y630498D01*
X381248Y629859D01*
X381052Y629215D01*
X380872Y628567D01*
X380707Y627914D01*
X380559Y627258D01*
X380427Y626597D01*
X380311Y625934D01*
X380211Y625269D01*
X380128Y624601D01*
X380061Y623931D01*
X380011Y623260D01*
X379977Y622587D01*
X379960Y621914D01*
X379959Y621241D01*
X379974Y620568D01*
X380006Y619896D01*
X380055Y619224D01*
X380120Y618554D01*
X380202Y617886D01*
X380300Y617220D01*
X380414Y616557D01*
X380544Y615897D01*
X380691Y615240D01*
X380854Y614586D01*
X381032Y613937D01*
X381227Y613293D01*
X381437Y612653D01*
X381663Y612019D01*
X381904Y611391D01*
X382161Y610769D01*
X382433Y610153D01*
X382720Y609544D01*
X383022Y608942D01*
X383338Y608348D01*
X383669Y607762D01*
X384015Y607184D01*
X384374Y606615D01*
X384747Y606055D01*
X385134Y605504D01*
X385534Y604963D01*
X385948Y604432D01*
X386374Y603911D01*
X440000Y540000D01*
X530028Y724929D02*
X520962Y731356D01*
X530028Y724929D02*
X531083Y724162D01*
X532118Y723370D01*
X533133Y722552D01*
X534128Y721710D01*
X535103Y720844D01*
X536056Y719954D01*
X536986Y719041D01*
X537895Y718106D01*
X538780Y717149D01*
X539641Y716170D01*
X540478Y715171D01*
X541290Y714151D01*
X542078Y713112D01*
X542839Y712054D01*
X543575Y710977D01*
X544284Y709883D01*
X544966Y708772D01*
X545620Y707645D01*
X546247Y706502D01*
X546846Y705343D01*
X547416Y704171D01*
X547957Y702985D01*
X548469Y701786D01*
X548952Y700575D01*
X549405Y699352D01*
X549827Y698119D01*
X550220Y696876D01*
X550582Y695624D01*
X550913Y694363D01*
X551213Y693094D01*
X551483Y691818D01*
X551720Y690537D01*
X551927Y689249D01*
X552102Y687957D01*
X552245Y686662D01*
X552357Y685363D01*
X552436Y684061D01*
X552484Y682759D01*
X552500Y681455D01*
X552500Y603209D01*
X552470Y600766D01*
X552381Y598324D01*
X552232Y595885D01*
X552023Y593450D01*
X551755Y591021D01*
X551428Y588600D01*
X551041Y586187D01*
X550596Y583785D01*
X550092Y581393D01*
X549530Y579015D01*
X548910Y576652D01*
X548233Y574304D01*
X547499Y571974D01*
X546707Y569662D01*
X545860Y567370D01*
X544957Y565099D01*
X543998Y562852D01*
X542985Y560628D01*
X541918Y558430D01*
X540798Y556258D01*
X539625Y554115D01*
X538400Y552001D01*
X537123Y549917D01*
X535796Y547865D01*
X534420Y545846D01*
X532994Y543861D01*
X531521Y541912D01*
X530000Y540000D01*
X487000Y434294D02*
X487022Y432497D01*
X487087Y430701D01*
X487196Y428907D01*
X487348Y427116D01*
X487544Y425329D01*
X487783Y423548D01*
X488065Y421772D01*
X488390Y420005D01*
X488758Y418245D01*
X489168Y416495D01*
X489621Y414756D01*
X490116Y413028D01*
X490652Y411313D01*
X491230Y409611D01*
X491849Y407923D01*
X492509Y406251D01*
X493209Y404596D01*
X493949Y402958D01*
X494728Y401338D01*
X495547Y399738D01*
X496404Y398158D01*
X497299Y396600D01*
X498231Y395063D01*
X499201Y393550D01*
X500207Y392060D01*
X501249Y390596D01*
X502326Y389157D01*
X503437Y387744D01*
X504583Y386359D01*
X505761Y385002D01*
X506973Y383675D01*
X508216Y382376D01*
X519197Y371184D01*
X520972Y369333D01*
X522701Y367439D01*
X524385Y365504D01*
X526023Y363531D01*
X527613Y361518D01*
X529154Y359469D01*
X530646Y357383D01*
X532089Y355262D01*
X533480Y353107D01*
X534819Y350920D01*
X536106Y348702D01*
X537340Y346454D01*
X538520Y344177D01*
X539645Y341872D01*
X540716Y339541D01*
X541730Y337186D01*
X542688Y334807D01*
X543589Y332406D01*
X544432Y329984D01*
X545218Y327542D01*
X545945Y325083D01*
X546613Y322607D01*
X547223Y320115D01*
X547772Y317610D01*
X548262Y315093D01*
X548692Y312565D01*
X549061Y310027D01*
X549370Y307481D01*
X549618Y304928D01*
X549806Y302370D01*
X549932Y299809D01*
X549997Y297245D01*
X549997Y297244D02*
X550744Y241960D01*
X550746Y240277D01*
X550707Y238596D01*
X550627Y236915D01*
X550506Y235238D01*
X550345Y233563D01*
X550142Y231893D01*
X549899Y230229D01*
X549615Y228571D01*
X549291Y226920D01*
X548927Y225278D01*
X548522Y223645D01*
X548078Y222022D01*
X547595Y220411D01*
X547072Y218812D01*
X546511Y217226D01*
X545911Y215655D01*
X545273Y214098D01*
X544597Y212558D01*
X543884Y211034D01*
X543133Y209529D01*
X542347Y208042D01*
X541524Y206575D01*
X541345Y206274D01*
X541160Y205977D01*
X540967Y205686D01*
X540767Y205399D01*
X540561Y205116D01*
X540347Y204839D01*
X540128Y204567D01*
X539901Y204301D01*
X539668Y204040D01*
X539429Y203785D01*
X539184Y203535D01*
X538933Y203292D01*
X538676Y203055D01*
X538414Y202824D01*
X538146Y202599D01*
X537872Y202381D01*
X537594Y202170D01*
X537310Y201965D01*
X537022Y201767D01*
X536729Y201577D01*
X536431Y201393D01*
X536129Y201217D01*
X535823Y201048D01*
X535513Y200886D01*
X535199Y200732D01*
X534881Y200586D01*
X534560Y200447D01*
X534236Y200316D01*
X533908Y200193D01*
X533578Y200078D01*
X533245Y199971D01*
X532910Y199872D01*
X532572Y199781D01*
X532232Y199699D01*
X531891Y199624D01*
X531547Y199558D01*
X531203Y199500D01*
X530856Y199450D01*
X530509Y199409D01*
X530161Y199376D01*
X529812Y199352D01*
X529463Y199336D01*
X529113Y199329D01*
X528764Y199330D01*
X528414Y199339D01*
X528065Y199357D01*
X527716Y199383D01*
X527368Y199418D01*
X527021Y199461D01*
X526675Y199512D01*
X526331Y199572D01*
X525988Y199640D01*
X525646Y199716D01*
X525307Y199801D01*
X509650Y203901D01*
X473692Y226600D01*
X389100Y750200D02*
X378250Y772500D01*
D19*
X389100Y750200D03*
X491900Y750300D03*
D18*
X520962Y731356D01*
X530000Y540000D02*
X509092Y508638D01*
X509093Y508638D02*
X507427Y506075D01*
X505823Y503472D01*
X504281Y500832D01*
X502802Y498156D01*
X501387Y495446D01*
X500037Y492702D01*
X498752Y489928D01*
X497534Y487124D01*
X496382Y484292D01*
X495299Y481433D01*
X494283Y478549D01*
X493336Y475642D01*
X492458Y472713D01*
X491650Y469764D01*
X490913Y466797D01*
X490246Y463814D01*
X489650Y460815D01*
X489125Y457803D01*
X488673Y454779D01*
X488292Y451746D01*
X487983Y448704D01*
X487746Y445656D01*
X487746Y445655D02*
X487000Y434294D01*
X428699Y277750D02*
X452908Y238600D01*
X390950Y712050D02*
X390950Y727500D01*
X390950Y712050D02*
X390954Y711759D01*
X390964Y711468D01*
X390982Y711177D01*
X391006Y710887D01*
X391038Y710598D01*
X391076Y710309D01*
X391122Y710021D01*
X391174Y709735D01*
X391234Y709450D01*
X391300Y709166D01*
X391373Y708884D01*
X391453Y708604D01*
X391540Y708326D01*
X391633Y708051D01*
X391733Y707777D01*
X391840Y707506D01*
X391953Y707238D01*
X392072Y706972D01*
X392198Y706710D01*
X392330Y706450D01*
X392469Y706194D01*
X392613Y705941D01*
X392764Y705692D01*
X392921Y705446D01*
X393083Y705205D01*
X393251Y704967D01*
X393425Y704734D01*
X393605Y704504D01*
X393790Y704280D01*
X393980Y704059D01*
X394176Y703844D01*
X394377Y703633D01*
X394583Y703427D01*
X394794Y703226D01*
X395009Y703030D01*
X395230Y702840D01*
X395454Y702655D01*
X395684Y702475D01*
X395917Y702301D01*
X396155Y702133D01*
X396396Y701971D01*
X396642Y701814D01*
X396891Y701663D01*
X397144Y701519D01*
X397400Y701380D01*
X397660Y701248D01*
X397922Y701122D01*
X398188Y701003D01*
X398456Y700890D01*
X398727Y700783D01*
X399001Y700683D01*
X399276Y700590D01*
X399554Y700503D01*
X399834Y700423D01*
X400116Y700350D01*
X400400Y700284D01*
X400685Y700224D01*
X400971Y700172D01*
X401259Y700126D01*
X401548Y700088D01*
X401837Y700056D01*
X402127Y700032D01*
X402418Y700014D01*
X402709Y700004D01*
X403000Y700000D01*
X417907Y700000D01*
X418177Y700003D01*
X418448Y700013D01*
X418718Y700029D01*
X418987Y700052D01*
X419256Y700082D01*
X419524Y700117D01*
X419791Y700160D01*
X420057Y700209D01*
X420322Y700264D01*
X420586Y700325D01*
X420847Y700393D01*
X421108Y700467D01*
X421366Y700548D01*
X421622Y700635D01*
X421876Y700727D01*
X422128Y700826D01*
X422377Y700931D01*
X422624Y701042D01*
X422868Y701159D01*
X423109Y701282D01*
X423347Y701411D01*
X423581Y701545D01*
X423813Y701685D01*
X424041Y701830D01*
X424265Y701981D01*
X424486Y702138D01*
X424703Y702299D01*
X424916Y702466D01*
X425125Y702638D01*
X425329Y702815D01*
X425530Y702997D01*
X425725Y703183D01*
X425917Y703375D01*
X426103Y703570D01*
X426285Y703771D01*
X426462Y703975D01*
X426634Y704184D01*
X426801Y704397D01*
X426962Y704614D01*
X427119Y704835D01*
X427270Y705059D01*
X427415Y705287D01*
X427555Y705519D01*
X427689Y705753D01*
X427818Y705991D01*
X427941Y706232D01*
X428058Y706476D01*
X428169Y706723D01*
X428274Y706972D01*
X428373Y707224D01*
X428465Y707478D01*
X428552Y707734D01*
X428633Y707992D01*
X428707Y708253D01*
X428775Y708514D01*
X428836Y708778D01*
X428891Y709043D01*
X428940Y709309D01*
X428983Y709576D01*
X429018Y709844D01*
X429048Y710113D01*
X429071Y710382D01*
X429087Y710652D01*
X429097Y710923D01*
X429100Y711193D01*
X429100Y742700D01*
X429102Y742876D01*
X429109Y743053D01*
X429119Y743229D01*
X429134Y743405D01*
X429153Y743580D01*
X429177Y743755D01*
X429204Y743929D01*
X429236Y744103D01*
X429272Y744275D01*
X429312Y744447D01*
X429356Y744618D01*
X429405Y744787D01*
X429457Y744956D01*
X429514Y745123D01*
X429574Y745289D01*
X429639Y745453D01*
X429707Y745615D01*
X429780Y745776D01*
X429856Y745935D01*
X429936Y746092D01*
X430020Y746248D01*
X430108Y746401D01*
X430199Y746552D01*
X430294Y746700D01*
X430392Y746847D01*
X430494Y746991D01*
X430600Y747132D01*
X430708Y747271D01*
X430820Y747407D01*
X430936Y747541D01*
X431054Y747671D01*
X431176Y747799D01*
X431301Y747924D01*
X431429Y748046D01*
X431559Y748164D01*
X431693Y748280D01*
X431829Y748392D01*
X431968Y748500D01*
X432109Y748606D01*
X432253Y748708D01*
X432400Y748806D01*
X432548Y748901D01*
X432699Y748992D01*
X432852Y749080D01*
X433008Y749164D01*
X433165Y749244D01*
X433324Y749320D01*
X433485Y749393D01*
X433647Y749461D01*
X433811Y749526D01*
X433977Y749586D01*
X434144Y749643D01*
X434313Y749695D01*
X434482Y749744D01*
X434653Y749788D01*
X434825Y749828D01*
X434997Y749864D01*
X435171Y749896D01*
X435345Y749923D01*
X435520Y749947D01*
X435695Y749966D01*
X435871Y749981D01*
X436047Y749991D01*
X436224Y749998D01*
X436400Y750000D01*
X445997Y750000D01*
X446818Y749990D01*
X447638Y749961D01*
X448458Y749912D01*
X449276Y749844D01*
X450093Y749757D01*
X450907Y749650D01*
X451718Y749524D01*
X452526Y749379D01*
X453330Y749215D01*
X454131Y749031D01*
X454926Y748829D01*
X455717Y748608D01*
X456502Y748368D01*
X457282Y748110D01*
X458055Y747833D01*
X458821Y747538D01*
X459580Y747225D01*
X460331Y746895D01*
X461074Y746546D01*
X461809Y746180D01*
X462535Y745796D01*
X490356Y730676D01*
X490355Y730676D02*
X491807Y729865D01*
X493239Y729018D01*
X494650Y728138D01*
X496040Y727223D01*
X497407Y726276D01*
X498751Y725296D01*
X500071Y724284D01*
X501367Y723240D01*
X502637Y722166D01*
X503881Y721061D01*
X505098Y719927D01*
X506287Y718764D01*
X507448Y717573D01*
X508580Y716354D01*
X509682Y715108D01*
X510755Y713836D01*
X511796Y712539D01*
X512806Y711217D01*
X513784Y709872D01*
X514729Y708503D01*
X515641Y707112D01*
X516519Y705699D01*
X517363Y704265D01*
X518172Y702812D01*
X518947Y701340D01*
X519685Y699849D01*
X519686Y699849D02*
X527400Y683800D01*
X489875Y653354D02*
X478385Y652285D01*
X489874Y653355D02*
X490909Y653464D01*
X491941Y653597D01*
X492969Y653756D01*
X493993Y653940D01*
X495013Y654148D01*
X496027Y654382D01*
X497035Y654639D01*
X498036Y654921D01*
X499031Y655227D01*
X500017Y655557D01*
X500996Y655911D01*
X501965Y656288D01*
X502926Y656689D01*
X503876Y657113D01*
X504815Y657560D01*
X505744Y658029D01*
X506661Y658521D01*
X507566Y659035D01*
X508458Y659570D01*
X509337Y660127D01*
X510202Y660706D01*
X511052Y661305D01*
X511888Y661924D01*
X512709Y662563D01*
X513514Y663222D01*
X514303Y663901D01*
X515076Y664598D01*
X515831Y665314D01*
X516568Y666048D01*
X517288Y666799D01*
X517989Y667568D01*
X518671Y668353D01*
X519335Y669155D01*
X519978Y669973D01*
X520602Y670806D01*
X521205Y671653D01*
X521787Y672515D01*
X522349Y673391D01*
X522889Y674281D01*
X523407Y675183D01*
X523904Y676097D01*
X524378Y677023D01*
X524829Y677961D01*
X525258Y678909D01*
X525259Y678908D02*
X527400Y683800D01*
X527673Y616100D02*
X500000Y540000D01*
X527673Y616100D02*
X528460Y618350D01*
X529192Y620618D01*
X529869Y622904D01*
X530490Y625205D01*
X531055Y627521D01*
X531564Y629849D01*
X532015Y632190D01*
X532410Y634540D01*
X532747Y636900D01*
X533027Y639267D01*
X533249Y641640D01*
X533413Y644018D01*
X533519Y646400D01*
X533568Y648783D01*
X533558Y651166D01*
X533491Y653549D01*
X533365Y655929D01*
X533182Y658306D01*
X532940Y660677D01*
X532642Y663042D01*
X532285Y665399D01*
X531872Y667746D01*
X531402Y670083D01*
X530874Y672407D01*
X530291Y674718D01*
X529651Y677015D01*
X528956Y679294D01*
X528205Y681557D01*
X527400Y683800D01*
X461415Y635315D02*
X460236Y634458D01*
X459036Y633630D01*
X457817Y632831D01*
X456579Y632062D01*
X455323Y631323D01*
X454049Y630615D01*
X452759Y629937D01*
X451452Y629292D01*
X450130Y628678D01*
X448793Y628096D01*
X447443Y627547D01*
X446080Y627031D01*
X444705Y626548D01*
X443319Y626099D01*
X441922Y625683D01*
X440515Y625301D01*
X439099Y624954D01*
X437676Y624641D01*
X436245Y624362D01*
X434808Y624118D01*
X433366Y623910D01*
X431919Y623736D01*
X430468Y623597D01*
X429014Y623493D01*
X427558Y623425D01*
X426101Y623392D01*
X424644Y623395D01*
X423187Y623432D01*
X421731Y623505D01*
X420277Y623614D01*
X418827Y623757D01*
X417380Y623936D01*
X415939Y624149D01*
X414502Y624398D01*
X413073Y624681D01*
X411650Y624999D01*
X403650Y772500D02*
X397724Y786552D01*
X397585Y786869D01*
X397439Y787184D01*
X397286Y787494D01*
X397125Y787801D01*
X396957Y788104D01*
X396782Y788403D01*
X396599Y788698D01*
X396410Y788988D01*
X396213Y789273D01*
X396010Y789554D01*
X395801Y789830D01*
X395584Y790101D01*
X395362Y790366D01*
X395133Y790626D01*
X394898Y790881D01*
X394656Y791130D01*
X394409Y791373D01*
X394157Y791610D01*
X393898Y791841D01*
X393635Y792066D01*
X393366Y792284D01*
X393091Y792496D01*
X392812Y792701D01*
X392528Y792899D01*
X392239Y793091D01*
X391946Y793276D01*
X391649Y793453D01*
X391347Y793624D01*
X391041Y793787D01*
X390732Y793943D01*
X390419Y794091D01*
X390102Y794232D01*
X389782Y794366D01*
X389459Y794491D01*
X352865Y808222D01*
X350813Y809021D01*
X348781Y809870D01*
X346770Y810768D01*
X344782Y811715D01*
X342817Y812711D01*
X340878Y813755D01*
X338964Y814845D01*
X337078Y815983D01*
X335221Y817166D01*
X333393Y818394D01*
X331595Y819667D01*
X329829Y820983D01*
X328096Y822342D01*
X326397Y823743D01*
X324733Y825186D01*
X323104Y826668D01*
X321512Y828191D01*
X319958Y829751D01*
X310000Y840000D01*
X116200Y852400D02*
X68200Y842200D01*
X301432Y846855D02*
X310000Y840000D01*
X301431Y846855D02*
X299254Y848554D01*
X297037Y850201D01*
X294781Y851793D01*
X292487Y853331D01*
X290157Y854814D01*
X287792Y856240D01*
X285393Y857610D01*
X282963Y858921D01*
X280501Y860173D01*
X278010Y861366D01*
X275492Y862499D01*
X272946Y863571D01*
X270376Y864581D01*
X267782Y865530D01*
X265166Y866416D01*
X262530Y867239D01*
X259875Y867998D01*
X257202Y868694D01*
X254513Y869325D01*
X251810Y869891D01*
X249094Y870393D01*
X246367Y870829D01*
X243630Y871199D01*
X240885Y871503D01*
X238134Y871742D01*
X235378Y871915D01*
X232618Y872021D01*
X229856Y872061D01*
X227095Y872034D01*
X224334Y871942D01*
X221577Y871783D01*
X218825Y871558D01*
X216078Y871267D01*
X213340Y870910D01*
X210610Y870487D01*
X207892Y869999D01*
X116200Y852400D01*
X117299Y827302D02*
X117299Y707850D01*
X117299Y827302D02*
X116200Y828400D01*
X416350Y785442D02*
X416350Y727500D01*
X416350Y785442D02*
X416338Y787854D01*
X416339Y787854D02*
X416334Y788167D01*
X416321Y788479D01*
X416300Y788791D01*
X416272Y789103D01*
X416237Y789413D01*
X416194Y789723D01*
X416143Y790032D01*
X416085Y790339D01*
X416019Y790644D01*
X415946Y790949D01*
X415866Y791251D01*
X415778Y791551D01*
X415684Y791849D01*
X415581Y792144D01*
X415472Y792437D01*
X415356Y792727D01*
X415233Y793015D01*
X415102Y793299D01*
X414965Y793580D01*
X414821Y793857D01*
X414671Y794131D01*
X414513Y794402D01*
X414350Y794668D01*
X414180Y794930D01*
X414003Y795188D01*
X413820Y795442D01*
X413632Y795691D01*
X413437Y795936D01*
X413236Y796176D01*
X413030Y796411D01*
X412818Y796640D01*
X412600Y796865D01*
X412377Y797084D01*
X412149Y797298D01*
X411916Y797506D01*
X411677Y797708D01*
X411434Y797905D01*
X411186Y798095D01*
X410934Y798280D01*
X410677Y798458D01*
X410416Y798630D01*
X410151Y798796D01*
X409881Y798955D01*
X409609Y799107D01*
X409332Y799253D01*
X409052Y799392D01*
X385215Y810875D01*
X385214Y810875D02*
X383696Y811629D01*
X382196Y812421D01*
X380716Y813249D01*
X379257Y814113D01*
X377820Y815012D01*
X376405Y815947D01*
X375013Y816916D01*
X373645Y817918D01*
X372303Y818954D01*
X370986Y820022D01*
X369695Y821122D01*
X368432Y822254D01*
X367197Y823416D01*
X367198Y823416D02*
X350000Y840000D01*
X373711Y909214D01*
X373710Y909213D02*
X374003Y910102D01*
X374273Y910997D01*
X374522Y911899D01*
X374748Y912807D01*
X374953Y913719D01*
X375135Y914637D01*
X375295Y915559D01*
X375432Y916484D01*
X375546Y917412D01*
X375638Y918343D01*
X375707Y919276D01*
X375753Y920210D01*
X375777Y921145D01*
X375777Y922081D01*
X375755Y923016D01*
X375710Y923950D01*
X375643Y924883D01*
X375552Y925814D01*
X375439Y926743D01*
X375303Y927668D01*
X375145Y928590D01*
X374964Y929508D01*
X374761Y930421D01*
X374536Y931329D01*
X374289Y932231D01*
X374019Y933127D01*
X373728Y934016D01*
X373416Y934897D01*
X373082Y935771D01*
X372727Y936636D01*
X372350Y937493D01*
X371953Y938340D01*
X371536Y939177D01*
X371098Y940003D01*
X370640Y940819D01*
X370162Y941623D01*
X369665Y942416D01*
X369149Y943196D01*
X368614Y943963D01*
X368060Y944717D01*
X367488Y945457D01*
X366898Y946183D01*
X366291Y946894D01*
X359375Y1002275D01*
X343109Y953106D02*
X330633Y917687D01*
X382557Y996063D02*
X392267Y1026413D01*
X426269Y791707D02*
X429050Y772500D01*
X426269Y791706D02*
X426039Y793165D01*
X425775Y794619D01*
X425476Y796065D01*
X425142Y797504D01*
X424773Y798934D01*
X424370Y800355D01*
X423933Y801766D01*
X423463Y803166D01*
X422958Y804554D01*
X422421Y805930D01*
X421850Y807292D01*
X421247Y808641D01*
X420612Y809974D01*
X419944Y811292D01*
X419245Y812593D01*
X418515Y813877D01*
X417755Y815143D01*
X416964Y816390D01*
X416143Y817618D01*
X415293Y818826D01*
X414414Y820013D01*
X413506Y821178D01*
X412571Y822322D01*
X411609Y823442D01*
X410620Y824539D01*
X409605Y825612D01*
X408564Y826660D01*
X407499Y827683D01*
X406409Y828680D01*
X405295Y829650D01*
X404159Y830594D01*
X403000Y831509D01*
X401819Y832397D01*
X400617Y833255D01*
X399395Y834085D01*
X398154Y834885D01*
X398153Y834885D02*
X390000Y840000D01*
X388122Y845546D01*
X388122Y845547D02*
X387446Y847623D01*
X386821Y849716D01*
X386245Y851822D01*
X385721Y853942D01*
X385246Y856073D01*
X384823Y858216D01*
X384452Y860368D01*
X384131Y862528D01*
X383863Y864695D01*
X383646Y866868D01*
X383481Y869045D01*
X383369Y871226D01*
X383308Y873409D01*
X383300Y875593D01*
X383344Y877776D01*
X383440Y879958D01*
X383588Y882136D01*
X383788Y884311D01*
X384040Y886480D01*
X384344Y888643D01*
X384700Y890797D01*
X385106Y892943D01*
X385564Y895078D01*
X386073Y897202D01*
X386633Y899312D01*
X393341Y923455D01*
X393342Y923455D02*
X393851Y925380D01*
X394315Y927315D01*
X394731Y929262D01*
X395101Y931218D01*
X395423Y933182D01*
X395698Y935153D01*
X395925Y937131D01*
X396105Y939113D01*
X396237Y941100D01*
X396320Y943088D01*
X396356Y945078D01*
X396345Y947069D01*
X396285Y949059D01*
X396177Y951046D01*
X396021Y953031D01*
X395818Y955011D01*
X395567Y956985D01*
X395269Y958953D01*
X394923Y960914D01*
X394530Y962865D01*
X394090Y964806D01*
X393604Y966737D01*
X393071Y968654D01*
X392492Y970559D01*
X391868Y972449D01*
X391198Y974323D01*
X390483Y976181D01*
X382557Y996063D01*
M02*
