G04 EAGLE Gerber RS-274X export*
G75*
%MOMM*%
%FSLAX34Y34*%
%LPD*%
%INTop Copper*%
%IPPOS*%
%AMOC8*
5,1,8,0,0,1.08239X$1,22.5*%
G01*
G04 Define Apertures*
%ADD10R,1.600000X1.600000*%
%ADD11C,1.600000*%
%ADD12R,1.600000X1.600000*%
%ADD13C,0.220000*%
%ADD14C,1.800000*%
%ADD15C,0.604000*%
%ADD16C,0.400000*%
G36*
X72466Y12388D02*
X85671Y14955D01*
X85789Y14986D01*
X87684Y15601D01*
X531108Y159678D01*
X533003Y160294D01*
X533119Y160340D01*
X545637Y166231D01*
X545849Y166365D01*
X556508Y175183D01*
X556680Y175366D01*
X564811Y186558D01*
X564932Y186778D01*
X570025Y199641D01*
X570087Y199883D01*
X571821Y213608D01*
X571829Y213734D01*
X571829Y683962D01*
X571823Y684068D01*
X570580Y695716D01*
X570535Y695923D01*
X566862Y707047D01*
X566774Y707240D01*
X560836Y717337D01*
X560710Y717508D01*
X552774Y726124D01*
X552698Y726199D01*
X552122Y726704D01*
X416279Y845896D01*
X414781Y847210D01*
X410049Y851362D01*
X402756Y861628D01*
X398031Y873300D01*
X396127Y885747D01*
X397149Y898298D01*
X399094Y904286D01*
X399182Y904555D01*
X433357Y1009734D01*
X433972Y1011629D01*
X434003Y1011746D01*
X436559Y1024803D01*
X436576Y1025043D01*
X435934Y1038332D01*
X435893Y1038570D01*
X432089Y1051319D01*
X431992Y1051540D01*
X425247Y1063009D01*
X425101Y1063200D01*
X415807Y1072721D01*
X415619Y1072872D01*
X404317Y1079892D01*
X404099Y1079994D01*
X391445Y1084105D01*
X391208Y1084152D01*
X377939Y1085115D01*
X377698Y1085104D01*
X364583Y1082864D01*
X364352Y1082795D01*
X352154Y1077481D01*
X351946Y1077359D01*
X341374Y1069281D01*
X341202Y1069113D01*
X332871Y1058739D01*
X332743Y1058534D01*
X327137Y1046468D01*
X327093Y1046356D01*
X326477Y1044461D01*
X291599Y937118D01*
X290269Y933025D01*
X283718Y922271D01*
X274862Y913320D01*
X264179Y906655D01*
X252245Y902636D01*
X245976Y902058D01*
X245074Y901975D01*
X65254Y885406D01*
X63270Y885224D01*
X63143Y885204D01*
X49385Y882128D01*
X49144Y882040D01*
X36614Y875579D01*
X36404Y875434D01*
X25919Y866008D01*
X25753Y865814D01*
X17998Y854040D01*
X17886Y853810D01*
X13368Y840455D01*
X13318Y840205D01*
X12331Y826141D01*
X12345Y825886D01*
X14954Y812031D01*
X14986Y811907D01*
X15601Y810012D01*
X51452Y699675D01*
X52068Y697780D01*
X52111Y697669D01*
X57615Y685770D01*
X57739Y685568D01*
X65894Y675303D01*
X66063Y675136D01*
X76409Y667083D01*
X76612Y666961D01*
X88566Y661576D01*
X88792Y661505D01*
X101678Y659091D01*
X101796Y659077D01*
X203505Y652345D01*
X203505Y652345D01*
X205493Y652213D01*
X218816Y651331D01*
X245005Y646106D01*
X270289Y637508D01*
X294235Y625685D01*
X316433Y610839D01*
X336505Y593224D01*
X354107Y573141D01*
X368938Y550932D01*
X380745Y526978D01*
X389325Y501689D01*
X394533Y475496D01*
X396279Y448848D01*
X394533Y422200D01*
X389325Y396007D01*
X380745Y370718D01*
X368938Y346764D01*
X354107Y324555D01*
X336505Y304472D01*
X316433Y286857D01*
X294235Y272011D01*
X270289Y260188D01*
X245005Y251590D01*
X218816Y246365D01*
X205493Y245483D01*
X203505Y245351D01*
X203505Y245351D01*
X101796Y238619D01*
X101678Y238604D01*
X88792Y236191D01*
X88566Y236120D01*
X76612Y230735D01*
X76409Y230613D01*
X66063Y222560D01*
X65894Y222393D01*
X57739Y212128D01*
X57615Y211926D01*
X52111Y200027D01*
X52068Y199916D01*
X51452Y198021D01*
X15336Y86867D01*
X14986Y85789D01*
X14955Y85671D01*
X12388Y72466D01*
X12371Y72223D01*
X13075Y58789D01*
X13118Y58549D01*
X17051Y45685D01*
X17150Y45463D01*
X24078Y33932D01*
X24228Y33740D01*
X33740Y24228D01*
X33932Y24078D01*
X45463Y17150D01*
X45685Y17051D01*
X58549Y13118D01*
X58789Y13075D01*
X72223Y12371D01*
X72466Y12388D01*
G37*
%LPC*%
G36*
X357811Y1036681D02*
X359895Y1044459D01*
X361717Y1045511D01*
X369495Y1043427D01*
X367026Y1034212D01*
X357811Y1036681D01*
G37*
G36*
X368957Y1033694D02*
X371427Y1042909D01*
X379204Y1040825D01*
X380256Y1039003D01*
X378172Y1031225D01*
X368957Y1033694D01*
G37*
G36*
X390278Y1016413D02*
X386603Y1017935D01*
X383790Y1020748D01*
X382267Y1024424D01*
X382267Y1028402D01*
X383790Y1032078D01*
X386603Y1034891D01*
X390278Y1036413D01*
X394256Y1036413D01*
X397932Y1034891D01*
X400745Y1032078D01*
X402267Y1028402D01*
X402267Y1024424D01*
X400745Y1020748D01*
X397932Y1017935D01*
X394256Y1016413D01*
X390278Y1016413D01*
G37*
G36*
X356261Y1025149D02*
X355209Y1026971D01*
X357293Y1034749D01*
X366508Y1032280D01*
X364039Y1023065D01*
X356261Y1025149D01*
G37*
G36*
X365971Y1022547D02*
X368440Y1031762D01*
X377655Y1029293D01*
X375571Y1021515D01*
X373748Y1020463D01*
X365971Y1022547D01*
G37*
G36*
X319517Y910313D02*
X318689Y911748D01*
X323258Y928803D01*
X324693Y929631D01*
X341749Y925061D01*
X342577Y923626D01*
X338007Y906571D01*
X336572Y905743D01*
X319517Y910313D01*
G37*
G36*
X345285Y914796D02*
X346232Y917083D01*
X349197Y920048D01*
X353071Y921653D01*
X356956Y921653D01*
X354460Y912338D01*
X345285Y914796D01*
G37*
G36*
X356392Y911820D02*
X358851Y920996D01*
X361138Y920048D01*
X364103Y917083D01*
X365707Y913210D01*
X365707Y909324D01*
X356392Y911820D01*
G37*
G36*
X349197Y902178D02*
X346232Y905143D01*
X344627Y909016D01*
X344627Y912902D01*
X353943Y910406D01*
X351484Y901230D01*
X349197Y902178D01*
G37*
G36*
X353378Y900573D02*
X355874Y909888D01*
X365050Y907430D01*
X364103Y905143D01*
X361138Y902178D01*
X357264Y900573D01*
X353378Y900573D01*
G37*
G36*
X66211Y832200D02*
X62535Y833722D01*
X59722Y836535D01*
X58200Y840211D01*
X58200Y844189D01*
X59722Y847865D01*
X62535Y850678D01*
X66211Y852200D01*
X70189Y852200D01*
X73865Y850678D01*
X76678Y847865D01*
X78200Y844189D01*
X78200Y840211D01*
X76678Y836535D01*
X73865Y833722D01*
X70189Y832200D01*
X66211Y832200D01*
G37*
G36*
X271000Y841000D02*
X271000Y851540D01*
X272295Y851540D01*
X276537Y849783D01*
X279783Y846537D01*
X281540Y842295D01*
X281540Y841000D01*
X271000Y841000D01*
G37*
G36*
X258460Y841000D02*
X258460Y842295D01*
X260217Y846537D01*
X263463Y849783D01*
X267705Y851540D01*
X269000Y851540D01*
X269000Y841000D01*
X258460Y841000D01*
G37*
G36*
X387812Y829000D02*
X383769Y830675D01*
X380675Y833769D01*
X379000Y837812D01*
X379000Y842188D01*
X380675Y846231D01*
X383769Y849325D01*
X387812Y851000D01*
X392188Y851000D01*
X396231Y849325D01*
X399325Y846231D01*
X401000Y842188D01*
X401000Y837812D01*
X399325Y833769D01*
X396231Y830675D01*
X392188Y829000D01*
X387812Y829000D01*
G37*
G36*
X347812Y829000D02*
X343769Y830675D01*
X340675Y833769D01*
X339000Y837812D01*
X339000Y842188D01*
X340675Y846231D01*
X343769Y849325D01*
X347812Y851000D01*
X352188Y851000D01*
X356231Y849325D01*
X359325Y846231D01*
X361000Y842188D01*
X361000Y837812D01*
X359325Y833769D01*
X356231Y830675D01*
X352188Y829000D01*
X347812Y829000D01*
G37*
G36*
X307812Y829000D02*
X303769Y830675D01*
X300675Y833769D01*
X299000Y837812D01*
X299000Y842188D01*
X300675Y846231D01*
X303769Y849325D01*
X307812Y851000D01*
X312188Y851000D01*
X316231Y849325D01*
X319325Y846231D01*
X321000Y842188D01*
X321000Y837812D01*
X319325Y833769D01*
X316231Y830675D01*
X312188Y829000D01*
X307812Y829000D01*
G37*
G36*
X271000Y828460D02*
X271000Y839000D01*
X281540Y839000D01*
X281540Y837705D01*
X279783Y833463D01*
X276537Y830217D01*
X272295Y828460D01*
X271000Y828460D01*
G37*
G36*
X267705Y828460D02*
X263463Y830217D01*
X260217Y833463D01*
X258460Y837705D01*
X258460Y839000D01*
X269000Y839000D01*
X269000Y828460D01*
X267705Y828460D01*
G37*
G36*
X59372Y806800D02*
X58200Y807972D01*
X58200Y825628D01*
X59372Y826800D01*
X77028Y826800D01*
X78200Y825628D01*
X78200Y807972D01*
X77028Y806800D01*
X59372Y806800D01*
G37*
G36*
X292772Y750826D02*
X284940Y754070D01*
X278945Y760065D01*
X275701Y767897D01*
X275701Y776375D01*
X278945Y784207D01*
X284940Y790202D01*
X292772Y793446D01*
X301250Y793446D01*
X309082Y790202D01*
X315077Y784207D01*
X318321Y776375D01*
X318321Y767897D01*
X315077Y760065D01*
X309082Y754070D01*
X301250Y750826D01*
X292772Y750826D01*
G37*
G36*
X206610Y729869D02*
X206356Y729881D01*
X205837Y729839D01*
X205799Y729860D01*
X205317Y730012D01*
X205081Y730056D01*
X204614Y730086D01*
X204577Y730115D01*
X204471Y730141D01*
X204124Y730284D01*
X203916Y730345D01*
X203505Y730417D01*
X203157Y730548D01*
X202759Y730532D01*
X202291Y730268D01*
X202171Y730148D01*
X194151Y730148D01*
X193943Y730285D01*
X193552Y730358D01*
X193163Y730272D01*
X192981Y730148D01*
X192520Y730148D01*
X192118Y730063D01*
X191731Y729893D01*
X191723Y729896D01*
X191331Y729964D01*
X191002Y729889D01*
X190495Y730082D01*
X190139Y730148D01*
X189611Y730148D01*
X189322Y730437D01*
X188971Y730664D01*
X188562Y730820D01*
X188169Y730885D01*
X187782Y730792D01*
X187498Y730593D01*
X187050Y730146D01*
X185772Y730148D01*
X183723Y730148D01*
X181907Y731964D01*
X181907Y740829D01*
X181887Y740926D01*
X181907Y742511D01*
X181907Y742523D01*
X181907Y743804D01*
X182824Y744699D01*
X182833Y744707D01*
X183319Y745194D01*
X183539Y745526D01*
X183612Y745917D01*
X183526Y746306D01*
X183296Y746630D01*
X182958Y746840D01*
X182612Y746901D01*
X180097Y746901D01*
X178281Y748717D01*
X178281Y751285D01*
X180097Y753101D01*
X194072Y753101D01*
X194462Y753180D01*
X194791Y753405D01*
X195005Y753741D01*
X195072Y754133D01*
X194980Y754520D01*
X194779Y754808D01*
X194013Y755575D01*
X194013Y767393D01*
X195829Y769209D01*
X197888Y769209D01*
X199173Y769210D01*
X200086Y768297D01*
X200087Y768296D01*
X200971Y767413D01*
X201303Y767193D01*
X201694Y767121D01*
X202083Y767206D01*
X202385Y767414D01*
X203271Y768300D01*
X204172Y769209D01*
X205462Y769209D01*
X207148Y769216D01*
X207152Y769215D01*
X207501Y769217D01*
X208194Y768524D01*
X208526Y768304D01*
X208917Y768231D01*
X209306Y768317D01*
X209608Y768524D01*
X210302Y769218D01*
X210650Y769215D01*
X210653Y769216D01*
X210653Y769216D01*
X212344Y769209D01*
X213630Y769209D01*
X214522Y768309D01*
X214853Y768088D01*
X215244Y768014D01*
X215633Y768097D01*
X215959Y768329D01*
X216023Y768343D01*
X216203Y768413D01*
X216485Y768580D01*
X216623Y768696D01*
X216678Y768761D01*
X216734Y768766D01*
X216936Y768816D01*
X217241Y768950D01*
X217558Y769158D01*
X217782Y769182D01*
X218127Y769285D01*
X218178Y769311D01*
X218292Y769298D01*
X218674Y769410D01*
X218699Y769428D01*
X218842Y769456D01*
X218995Y769423D01*
X219386Y769497D01*
X219426Y769520D01*
X219491Y769514D01*
X219825Y769540D01*
X220021Y769589D01*
X220333Y769530D01*
X220731Y769535D01*
X220831Y769572D01*
X221053Y769552D01*
X221100Y769528D01*
X221432Y769503D01*
X221455Y769493D01*
X221841Y769418D01*
X221959Y769419D01*
X222015Y769409D01*
X222117Y769354D01*
X222498Y769240D01*
X222593Y769231D01*
X222665Y769211D01*
X222750Y769153D01*
X223122Y769000D01*
X223132Y768998D01*
X223155Y768976D01*
X223452Y768860D01*
X223790Y768675D01*
X223980Y768619D01*
X224376Y768584D01*
X224755Y768707D01*
X224971Y768871D01*
X225309Y769209D01*
X227323Y769209D01*
X227329Y769209D01*
X228613Y769216D01*
X228894Y768936D01*
X229226Y768716D01*
X229617Y768643D01*
X230006Y768728D01*
X230207Y768896D01*
X230334Y768920D01*
X230856Y769196D01*
X230869Y769209D01*
X231769Y769209D01*
X231955Y769226D01*
X232928Y769410D01*
X232999Y769380D01*
X233376Y769377D01*
X233444Y769389D01*
X233449Y769386D01*
X233815Y769229D01*
X234017Y769209D01*
X234082Y769209D01*
X234240Y769104D01*
X234631Y769031D01*
X235019Y769117D01*
X235154Y769209D01*
X235484Y769209D01*
X235947Y769322D01*
X236193Y769451D01*
X236319Y769411D01*
X236715Y769370D01*
X237036Y769460D01*
X237596Y769265D01*
X237926Y769209D01*
X238515Y769209D01*
X238760Y768964D01*
X239138Y768727D01*
X239604Y768564D01*
X239999Y768510D01*
X240243Y768557D01*
X240842Y768752D01*
X241240Y768996D01*
X241452Y769209D01*
X242086Y769209D01*
X242396Y769258D01*
X243041Y769468D01*
X243271Y769404D01*
X243626Y769443D01*
X243637Y769446D01*
X243853Y769329D01*
X244329Y769209D01*
X244575Y769209D01*
X245061Y768723D01*
X245292Y768551D01*
X245896Y768224D01*
X245966Y767988D01*
X246217Y767567D01*
X246391Y767393D01*
X246391Y766706D01*
X246433Y766421D01*
X246629Y765763D01*
X246512Y765546D01*
X246391Y765071D01*
X246391Y764825D01*
X245906Y764339D01*
X245733Y764108D01*
X243445Y759879D01*
X243324Y759405D01*
X243318Y756856D01*
X243318Y755570D01*
X242416Y754672D01*
X242195Y754341D01*
X242121Y753950D01*
X242206Y753561D01*
X242435Y753236D01*
X242773Y753026D01*
X243121Y752963D01*
X260019Y752963D01*
X261835Y751148D01*
X261835Y748579D01*
X260019Y746763D01*
X256435Y746763D01*
X256045Y746684D01*
X255717Y746459D01*
X255502Y746124D01*
X255435Y745732D01*
X255527Y745344D01*
X255710Y745075D01*
X255804Y744976D01*
X256007Y744849D01*
X256149Y744674D01*
X256519Y744504D01*
X256687Y744245D01*
X257034Y744029D01*
X257157Y743778D01*
X257484Y743514D01*
X257557Y743295D01*
X257689Y743158D01*
X257882Y742799D01*
X257892Y742743D01*
X257937Y742682D01*
X257943Y742622D01*
X258119Y742152D01*
X258125Y742143D01*
X258128Y742034D01*
X258155Y741985D01*
X258155Y741970D01*
X258261Y741516D01*
X258235Y741295D01*
X258351Y740985D01*
X258278Y740695D01*
X258303Y740422D01*
X258356Y740192D01*
X258298Y740007D01*
X258256Y739601D01*
X258279Y739382D01*
X258231Y739284D01*
X258128Y738851D01*
X258126Y738679D01*
X258023Y738529D01*
X257860Y738116D01*
X257838Y737972D01*
X257695Y737815D01*
X257484Y737447D01*
X257416Y737232D01*
X257389Y737095D01*
X257357Y737046D01*
X257355Y737039D01*
X257312Y736643D01*
X257394Y736332D01*
X257895Y735202D01*
X258102Y734900D01*
X258470Y734532D01*
X258470Y734115D01*
X258555Y733710D01*
X258724Y733330D01*
X258537Y732844D01*
X258470Y732484D01*
X258470Y731964D01*
X258175Y731669D01*
X257949Y731322D01*
X257800Y730934D01*
X257324Y730723D01*
X257022Y730516D01*
X256654Y730148D01*
X256237Y730148D01*
X255832Y730062D01*
X255452Y729893D01*
X255437Y729899D01*
X255045Y729965D01*
X254714Y729889D01*
X254209Y730082D01*
X253852Y730148D01*
X253324Y730148D01*
X253035Y730437D01*
X252685Y730664D01*
X252275Y730820D01*
X251883Y730885D01*
X251496Y730792D01*
X251212Y730593D01*
X250764Y730146D01*
X249486Y730148D01*
X247433Y730148D01*
X246583Y730998D01*
X246252Y731217D01*
X245860Y731290D01*
X245479Y731208D01*
X245344Y731150D01*
X245015Y730919D01*
X244948Y730848D01*
X244904Y730838D01*
X244727Y730709D01*
X244616Y730678D01*
X244262Y730493D01*
X244196Y730440D01*
X244118Y730433D01*
X243913Y730322D01*
X243808Y730305D01*
X243448Y730173D01*
X243361Y730120D01*
X243281Y730123D01*
X243078Y730047D01*
X242941Y730040D01*
X242593Y729959D01*
X242486Y729913D01*
X242349Y729937D01*
X241961Y729849D01*
X241951Y729843D01*
X241936Y729844D01*
X241590Y729810D01*
X241368Y729880D01*
X241105Y729873D01*
X240644Y729799D01*
X240600Y729783D01*
X240567Y729798D01*
X240250Y729869D01*
X239852Y729877D01*
X239730Y729837D01*
X239709Y729840D01*
X239580Y729916D01*
X239482Y729949D01*
X239087Y729999D01*
X238989Y729978D01*
X238887Y730027D01*
X238540Y730120D01*
X238302Y730139D01*
X238038Y730306D01*
X237723Y730436D01*
X237564Y730472D01*
X237501Y730476D01*
X237344Y730606D01*
X237029Y730781D01*
X236814Y730854D01*
X236683Y730994D01*
X236382Y731212D01*
X236194Y731301D01*
X236070Y731469D01*
X235799Y731723D01*
X235549Y731881D01*
X235278Y732000D01*
X235264Y732004D01*
X235154Y732058D01*
X234756Y732078D01*
X234382Y731942D01*
X234199Y731797D01*
X233455Y731054D01*
X233454Y731054D01*
X232547Y730147D01*
X231262Y730148D01*
X230519Y730148D01*
X229234Y730147D01*
X228327Y731054D01*
X228326Y731054D01*
X227803Y731577D01*
X227471Y731796D01*
X227080Y731869D01*
X226600Y731737D01*
X226590Y731731D01*
X226510Y731650D01*
X226504Y731649D01*
X226283Y731555D01*
X226152Y731480D01*
X225859Y731224D01*
X225757Y731092D01*
X225732Y731050D01*
X225672Y731034D01*
X225534Y730980D01*
X225207Y730769D01*
X224994Y730563D01*
X224807Y730519D01*
X224439Y730349D01*
X224387Y730310D01*
X224202Y730301D01*
X223844Y730127D01*
X223813Y730097D01*
X223622Y730114D01*
X223430Y730099D01*
X223142Y730032D01*
X222682Y729849D01*
X222236Y729878D01*
X221945Y729854D01*
X221579Y729769D01*
X221006Y729870D01*
X220752Y729882D01*
X220232Y729839D01*
X220190Y729863D01*
X219714Y730012D01*
X219479Y730056D01*
X219007Y730087D01*
X218975Y730111D01*
X218892Y730132D01*
X218522Y730284D01*
X218316Y730344D01*
X217952Y730408D01*
X217670Y730633D01*
X217492Y730706D01*
X217413Y730735D01*
X217402Y730738D01*
X217006Y730780D01*
X216625Y730664D01*
X216394Y730492D01*
X216050Y730148D01*
X212722Y730148D01*
X212162Y730708D01*
X211830Y730928D01*
X211439Y731001D01*
X211050Y730915D01*
X210759Y730720D01*
X210598Y730563D01*
X210411Y730520D01*
X210042Y730349D01*
X209990Y730311D01*
X209805Y730301D01*
X209448Y730127D01*
X209416Y730097D01*
X209225Y730114D01*
X209034Y730099D01*
X208746Y730032D01*
X208286Y729849D01*
X207841Y729878D01*
X207550Y729854D01*
X207182Y729769D01*
X206610Y729869D01*
G37*
G36*
X387021Y745180D02*
X384080Y748121D01*
X384080Y752279D01*
X387021Y755220D01*
X391179Y755220D01*
X391903Y754496D01*
X392235Y754277D01*
X392611Y754203D01*
X488384Y754297D01*
X488774Y754376D01*
X489090Y754589D01*
X489821Y755320D01*
X493979Y755320D01*
X496920Y752379D01*
X496920Y748221D01*
X493979Y745280D01*
X489821Y745280D01*
X489097Y746004D01*
X488765Y746224D01*
X488389Y746297D01*
X392616Y746203D01*
X392226Y746124D01*
X391910Y745911D01*
X391179Y745180D01*
X387021Y745180D01*
G37*
G36*
X86584Y726738D02*
X89331Y729485D01*
X93205Y731090D01*
X97398Y731090D01*
X99685Y730143D01*
X94935Y721916D01*
X86584Y726738D01*
G37*
G36*
X96668Y720916D02*
X101489Y729268D01*
X104237Y726520D01*
X105841Y722647D01*
X105841Y718453D01*
X104894Y716166D01*
X96668Y720916D01*
G37*
G36*
X86366Y714580D02*
X84761Y718453D01*
X84761Y722647D01*
X85709Y724934D01*
X93935Y720184D01*
X89114Y711832D01*
X86366Y714580D01*
G37*
G36*
X104653Y703604D02*
X104224Y705204D01*
X113052Y720496D01*
X114653Y720924D01*
X129944Y712096D01*
X130373Y710496D01*
X121545Y695204D01*
X119944Y694776D01*
X104653Y703604D01*
G37*
G36*
X93205Y710010D02*
X90918Y710957D01*
X95668Y719184D01*
X104019Y714362D01*
X101272Y711615D01*
X97398Y710010D01*
X93205Y710010D01*
G37*
G36*
X525411Y673800D02*
X521735Y675322D01*
X518922Y678135D01*
X517400Y681811D01*
X517400Y685789D01*
X518922Y689465D01*
X521735Y692278D01*
X525411Y693800D01*
X529389Y693800D01*
X533065Y692278D01*
X535878Y689465D01*
X537400Y685789D01*
X537400Y681811D01*
X535878Y678135D01*
X533065Y675322D01*
X529389Y673800D01*
X525411Y673800D01*
G37*
G36*
X493172Y673800D02*
X492000Y674972D01*
X492000Y692628D01*
X493172Y693800D01*
X510828Y693800D01*
X512000Y692628D01*
X512000Y674972D01*
X510828Y673800D01*
X493172Y673800D01*
G37*
G36*
X407404Y612353D02*
X398576Y627644D01*
X399004Y629245D01*
X414296Y638073D01*
X415896Y637644D01*
X424724Y622353D01*
X424296Y620752D01*
X409004Y611924D01*
X407404Y612353D01*
G37*
G36*
X419966Y612594D02*
X422253Y613541D01*
X426447Y613541D01*
X430320Y611937D01*
X433068Y609189D01*
X424716Y604368D01*
X419966Y612594D01*
G37*
G36*
X413810Y600905D02*
X413810Y605098D01*
X415415Y608972D01*
X418162Y611719D01*
X422984Y603368D01*
X414757Y598618D01*
X413810Y600905D01*
G37*
G36*
X425716Y602635D02*
X433943Y607385D01*
X434890Y605098D01*
X434890Y600905D01*
X433285Y597031D01*
X430538Y594284D01*
X425716Y602635D01*
G37*
G36*
X422253Y592461D02*
X418380Y594066D01*
X415632Y596814D01*
X423984Y601635D01*
X428734Y593409D01*
X426447Y592461D01*
X422253Y592461D01*
G37*
G36*
X407812Y529000D02*
X403769Y530675D01*
X400675Y533769D01*
X399000Y537812D01*
X399000Y542188D01*
X400675Y546231D01*
X403769Y549325D01*
X407812Y551000D01*
X412188Y551000D01*
X416231Y549325D01*
X419325Y546231D01*
X421000Y542188D01*
X421000Y537812D01*
X419325Y533769D01*
X416231Y530675D01*
X412188Y529000D01*
X407812Y529000D01*
G37*
G36*
X497812Y529000D02*
X493769Y530675D01*
X490675Y533769D01*
X489000Y537812D01*
X489000Y542188D01*
X490675Y546231D01*
X493769Y549325D01*
X497812Y551000D01*
X502188Y551000D01*
X506231Y549325D01*
X509325Y546231D01*
X511000Y542188D01*
X511000Y537812D01*
X509325Y533769D01*
X506231Y530675D01*
X502188Y529000D01*
X497812Y529000D01*
G37*
G36*
X437812Y529000D02*
X433769Y530675D01*
X430675Y533769D01*
X429000Y537812D01*
X429000Y542188D01*
X430675Y546231D01*
X433769Y549325D01*
X437812Y551000D01*
X442188Y551000D01*
X446231Y549325D01*
X449325Y546231D01*
X451000Y542188D01*
X451000Y537812D01*
X449325Y533769D01*
X446231Y530675D01*
X442188Y529000D01*
X437812Y529000D01*
G37*
G36*
X527812Y529000D02*
X523769Y530675D01*
X520675Y533769D01*
X519000Y537812D01*
X519000Y542188D01*
X520675Y546231D01*
X523769Y549325D01*
X527812Y551000D01*
X532188Y551000D01*
X536231Y549325D01*
X539325Y546231D01*
X541000Y542188D01*
X541000Y537812D01*
X539325Y533769D01*
X536231Y530675D01*
X532188Y529000D01*
X527812Y529000D01*
G37*
G36*
X527744Y427468D02*
X519912Y430712D01*
X513917Y436707D01*
X510673Y444539D01*
X510673Y453017D01*
X513917Y460849D01*
X519912Y466844D01*
X527744Y470088D01*
X536222Y470088D01*
X544054Y466844D01*
X550049Y460849D01*
X553293Y453017D01*
X553293Y444539D01*
X550049Y436707D01*
X544054Y430712D01*
X536222Y427468D01*
X527744Y427468D01*
G37*
G36*
X397984Y296638D02*
X400731Y299385D01*
X404605Y300990D01*
X408798Y300990D01*
X411085Y300043D01*
X406335Y291816D01*
X397984Y296638D01*
G37*
G36*
X408068Y290816D02*
X412889Y299168D01*
X415637Y296420D01*
X417241Y292547D01*
X417241Y288353D01*
X416294Y286066D01*
X408068Y290816D01*
G37*
G36*
X397766Y284480D02*
X396161Y288353D01*
X396161Y292547D01*
X397109Y294834D01*
X405335Y290084D01*
X400514Y281732D01*
X397766Y284480D01*
G37*
G36*
X416053Y273504D02*
X415624Y275104D01*
X424452Y290396D01*
X426053Y290824D01*
X441344Y281996D01*
X441773Y280396D01*
X432945Y265104D01*
X431344Y264676D01*
X416053Y273504D01*
G37*
G36*
X404605Y279910D02*
X402318Y280857D01*
X407068Y289084D01*
X415419Y284262D01*
X412672Y281515D01*
X408798Y279910D01*
X404605Y279910D01*
G37*
G36*
X509704Y221652D02*
X509276Y223253D01*
X518104Y238544D01*
X519704Y238973D01*
X534996Y230145D01*
X535424Y228544D01*
X526596Y213253D01*
X524996Y212824D01*
X509704Y221652D01*
G37*
G36*
X507661Y193901D02*
X503985Y195424D01*
X501172Y198237D01*
X499650Y201912D01*
X499650Y205891D01*
X501172Y209566D01*
X503985Y212379D01*
X507661Y213901D01*
X511639Y213901D01*
X515315Y212379D01*
X518128Y209566D01*
X519650Y205891D01*
X519650Y201912D01*
X518128Y198237D01*
X515315Y195424D01*
X511639Y193901D01*
X507661Y193901D01*
G37*
G36*
X97771Y186393D02*
X96943Y187828D01*
X101513Y204883D01*
X102948Y205711D01*
X120003Y201142D01*
X120831Y199707D01*
X116261Y182651D01*
X114826Y181823D01*
X97771Y186393D01*
G37*
G36*
X92430Y172916D02*
X93378Y175203D01*
X96343Y178168D01*
X100216Y179773D01*
X104102Y179773D01*
X101606Y170457D01*
X92430Y172916D01*
G37*
G36*
X103538Y169940D02*
X105996Y179115D01*
X108283Y178168D01*
X111248Y175203D01*
X112853Y171329D01*
X112853Y167444D01*
X103538Y169940D01*
G37*
G36*
X96343Y160297D02*
X93378Y163262D01*
X91773Y167136D01*
X91773Y171022D01*
X101088Y168526D01*
X98630Y159350D01*
X96343Y160297D01*
G37*
G36*
X100524Y158693D02*
X103020Y168008D01*
X112196Y165549D01*
X111248Y163262D01*
X108283Y160297D01*
X104410Y158693D01*
X100524Y158693D01*
G37*
G36*
X292846Y104132D02*
X285014Y107376D01*
X279019Y113371D01*
X275775Y121203D01*
X275775Y129681D01*
X279019Y137513D01*
X285014Y143508D01*
X292846Y146752D01*
X301324Y146752D01*
X309156Y143508D01*
X315151Y137513D01*
X318395Y129681D01*
X318395Y121203D01*
X315151Y113371D01*
X309156Y107376D01*
X301324Y104132D01*
X292846Y104132D01*
G37*
G36*
X60161Y69499D02*
X56485Y71021D01*
X53672Y73834D01*
X52150Y77509D01*
X52150Y81488D01*
X53672Y85163D01*
X56485Y87976D01*
X60161Y89499D01*
X64139Y89499D01*
X67815Y87976D01*
X70628Y85163D01*
X72150Y81488D01*
X72150Y77509D01*
X70628Y73834D01*
X67815Y71021D01*
X64139Y69499D01*
X60161Y69499D01*
G37*
G36*
X70604Y44856D02*
X61776Y60147D01*
X62204Y61748D01*
X77496Y70576D01*
X79096Y70147D01*
X87924Y54856D01*
X87496Y53255D01*
X72204Y44427D01*
X70604Y44856D01*
G37*
%LPD*%
D10*
G36*
X99090Y188111D02*
X103231Y203564D01*
X118684Y199423D01*
X114543Y183970D01*
X99090Y188111D01*
G37*
D11*
X102313Y169233D03*
D10*
G36*
X77778Y68429D02*
X85778Y54573D01*
X71922Y46573D01*
X63922Y60429D01*
X77778Y68429D01*
G37*
D11*
X62150Y79499D03*
D10*
G36*
X425771Y288678D02*
X439627Y280678D01*
X431627Y266822D01*
X417771Y274822D01*
X425771Y288678D01*
G37*
D11*
X406701Y290450D03*
D10*
G36*
X511422Y222971D02*
X519422Y236827D01*
X533278Y228827D01*
X525278Y214971D01*
X511422Y222971D01*
G37*
D11*
X509650Y203901D03*
D10*
G36*
X408722Y614071D02*
X400722Y627927D01*
X414578Y635927D01*
X422578Y622071D01*
X408722Y614071D01*
G37*
D11*
X424350Y603001D03*
D12*
X502000Y683800D03*
D11*
X527400Y683800D03*
D10*
G36*
X114371Y718778D02*
X128227Y710778D01*
X120227Y696922D01*
X106371Y704922D01*
X114371Y718778D01*
G37*
D11*
X95301Y720550D03*
D12*
X68200Y816800D03*
D11*
X68200Y842200D03*
D10*
G36*
X373389Y1023190D02*
X357936Y1027331D01*
X362077Y1042784D01*
X377530Y1038643D01*
X373389Y1023190D01*
G37*
D11*
X392267Y1026413D03*
D10*
G36*
X336289Y907890D02*
X320836Y912031D01*
X324977Y927484D01*
X340430Y923343D01*
X336289Y907890D01*
G37*
D11*
X355167Y911113D03*
D13*
X240869Y733041D02*
X239936Y733117D01*
X239515Y733211D01*
X239126Y733343D01*
X238767Y733513D01*
X238439Y733721D01*
X238142Y733965D01*
X237876Y734248D01*
X237642Y734567D01*
X237438Y734924D01*
X237266Y735319D01*
X237014Y736219D01*
X236889Y737267D01*
X236910Y738644D01*
X237014Y739350D01*
X237178Y739969D01*
X237393Y740508D01*
X237653Y740971D01*
X237948Y741365D01*
X238270Y741695D01*
X238612Y741966D01*
X238966Y742185D01*
X239323Y742356D01*
X240017Y742579D01*
X240628Y742681D01*
X241093Y742705D01*
X241553Y742685D01*
X241984Y742626D01*
X242387Y742529D01*
X242762Y742392D01*
X243108Y742218D01*
X243425Y742006D01*
X243713Y741755D01*
X243971Y741468D01*
X244200Y741143D01*
X244399Y740781D01*
X244568Y740382D01*
X244815Y739475D01*
X244940Y738425D01*
X244946Y737432D01*
X244867Y736589D01*
X244688Y735761D01*
X244553Y735363D01*
X244384Y734982D01*
X244178Y734622D01*
X243933Y734288D01*
X243646Y733983D01*
X243313Y733714D01*
X242932Y733484D01*
X242500Y733297D01*
X242014Y733158D01*
X241472Y733071D01*
X240869Y733041D01*
X240560Y742423D02*
X240921Y742443D01*
X240560Y742423D02*
X240217Y742364D01*
X239893Y742266D01*
X239588Y742132D01*
X239304Y741961D01*
X239041Y741754D01*
X238799Y741514D01*
X238580Y741240D01*
X238385Y740934D01*
X238213Y740596D01*
X237943Y739831D01*
X237777Y738952D01*
X237721Y737968D01*
X237821Y736553D01*
X237938Y735966D01*
X238093Y735453D01*
X238281Y735009D01*
X238496Y734629D01*
X238733Y734308D01*
X238987Y734042D01*
X239252Y733825D01*
X239524Y733653D01*
X239797Y733520D01*
X240065Y733423D01*
X240568Y733314D01*
X240990Y733286D01*
X241397Y733312D01*
X241882Y733418D01*
X242140Y733512D01*
X242403Y733639D01*
X242664Y733805D01*
X242920Y734014D01*
X243164Y734271D01*
X243392Y734580D01*
X243599Y734946D01*
X243780Y735373D01*
X243929Y735868D01*
X244114Y737074D01*
X244124Y738320D01*
X244012Y739289D01*
X243792Y740143D01*
X243644Y740525D01*
X243471Y740876D01*
X243274Y741194D01*
X243054Y741478D01*
X242811Y741728D01*
X242547Y741942D01*
X242261Y742120D01*
X241955Y742259D01*
X241629Y742361D01*
X241284Y742422D01*
X240921Y742443D01*
X221360Y733041D02*
X220589Y733091D01*
X219834Y733224D01*
X218507Y733640D01*
X218673Y734044D01*
X220051Y733589D01*
X220738Y733455D01*
X221377Y733406D01*
X221681Y733419D01*
X221960Y733455D01*
X222215Y733513D01*
X222447Y733591D01*
X222656Y733688D01*
X222843Y733803D01*
X223008Y733932D01*
X223154Y734075D01*
X223279Y734230D01*
X223386Y734395D01*
X223474Y734568D01*
X223544Y734748D01*
X223635Y735123D01*
X223665Y735504D01*
X223647Y735783D01*
X223597Y736037D01*
X223518Y736268D01*
X223411Y736477D01*
X223281Y736666D01*
X223130Y736835D01*
X222961Y736988D01*
X222583Y737245D01*
X222169Y737450D01*
X220305Y738088D01*
X219841Y738299D01*
X219449Y738538D01*
X219281Y738671D01*
X219132Y738814D01*
X219002Y738969D01*
X218892Y739136D01*
X218801Y739318D01*
X218730Y739514D01*
X218679Y739727D01*
X218648Y739958D01*
X218638Y740207D01*
X218665Y740617D01*
X218740Y740980D01*
X218859Y741298D01*
X219016Y741575D01*
X219204Y741814D01*
X219418Y742016D01*
X219653Y742186D01*
X219901Y742325D01*
X220418Y742526D01*
X220921Y742640D01*
X221704Y742705D01*
X222390Y742651D01*
X223074Y742497D01*
X223737Y742249D01*
X224360Y741916D01*
X224136Y741631D01*
X223480Y741978D01*
X222855Y742226D01*
X222263Y742376D01*
X221704Y742425D01*
X221247Y742387D01*
X221032Y742340D01*
X220829Y742276D01*
X220636Y742196D01*
X220456Y742099D01*
X220289Y741987D01*
X220137Y741862D01*
X219998Y741722D01*
X219876Y741570D01*
X219770Y741406D01*
X219682Y741230D01*
X219612Y741044D01*
X219560Y740848D01*
X219529Y740644D01*
X219518Y740431D01*
X219535Y740156D01*
X219583Y739906D01*
X219660Y739677D01*
X219764Y739468D01*
X219892Y739279D01*
X220040Y739108D01*
X220208Y738953D01*
X220590Y738686D01*
X221016Y738467D01*
X223000Y737751D01*
X223470Y737534D01*
X223859Y737291D01*
X224023Y737158D01*
X224168Y737014D01*
X224293Y736859D01*
X224398Y736691D01*
X224484Y736508D01*
X224551Y736310D01*
X224598Y736095D01*
X224636Y735608D01*
X224610Y735197D01*
X224536Y734832D01*
X224418Y734510D01*
X224263Y734229D01*
X224075Y733986D01*
X223859Y733777D01*
X223622Y733602D01*
X223367Y733456D01*
X222829Y733242D01*
X222287Y733116D01*
X221360Y733041D01*
X206964Y733041D02*
X206194Y733091D01*
X205439Y733224D01*
X204112Y733642D01*
X204277Y734044D01*
X205656Y733589D01*
X206343Y733455D01*
X206982Y733406D01*
X207286Y733419D01*
X207565Y733455D01*
X207820Y733513D01*
X208052Y733591D01*
X208261Y733688D01*
X208448Y733803D01*
X208614Y733932D01*
X208759Y734075D01*
X208885Y734230D01*
X208992Y734395D01*
X209080Y734568D01*
X209151Y734748D01*
X209242Y735123D01*
X209271Y735504D01*
X209254Y735783D01*
X209204Y736037D01*
X209124Y736268D01*
X209017Y736477D01*
X208887Y736666D01*
X208736Y736835D01*
X208567Y736988D01*
X208188Y737245D01*
X207774Y737450D01*
X205910Y738088D01*
X205445Y738299D01*
X205054Y738538D01*
X204886Y738671D01*
X204737Y738814D01*
X204607Y738969D01*
X204497Y739136D01*
X204406Y739318D01*
X204335Y739514D01*
X204284Y739727D01*
X204253Y739958D01*
X204243Y740207D01*
X204269Y740617D01*
X204345Y740980D01*
X204464Y741298D01*
X204621Y741575D01*
X204809Y741814D01*
X205023Y742016D01*
X205257Y742186D01*
X205506Y742325D01*
X206022Y742526D01*
X206526Y742640D01*
X207309Y742705D01*
X207994Y742652D01*
X208678Y742497D01*
X209342Y742250D01*
X209965Y741916D01*
X209739Y741631D01*
X209083Y741978D01*
X208458Y742226D01*
X207866Y742376D01*
X207309Y742425D01*
X206851Y742387D01*
X206637Y742340D01*
X206433Y742276D01*
X206241Y742196D01*
X206061Y742099D01*
X205894Y741987D01*
X205741Y741862D01*
X205603Y741722D01*
X205481Y741570D01*
X205375Y741406D01*
X205287Y741230D01*
X205216Y741044D01*
X205165Y740848D01*
X205134Y740644D01*
X205123Y740431D01*
X205140Y740156D01*
X205188Y739906D01*
X205265Y739677D01*
X205369Y739468D01*
X205496Y739279D01*
X205645Y739108D01*
X205813Y738953D01*
X206194Y738686D01*
X206620Y738467D01*
X208604Y737751D01*
X209073Y737534D01*
X209461Y737291D01*
X209626Y737158D01*
X209770Y737014D01*
X209895Y736859D01*
X210000Y736691D01*
X210086Y736508D01*
X210152Y736310D01*
X210200Y736095D01*
X210237Y735608D01*
X210211Y735197D01*
X210137Y734832D01*
X210020Y734510D01*
X209864Y734229D01*
X209676Y733986D01*
X209461Y733777D01*
X209224Y733602D01*
X208970Y733456D01*
X208432Y733242D01*
X207891Y733116D01*
X206964Y733041D01*
X253107Y736605D02*
X254608Y733248D01*
X253107Y736605D02*
X252871Y736908D01*
X252746Y737032D01*
X252485Y737230D01*
X252219Y737370D01*
X251958Y737461D01*
X251712Y737512D01*
X250469Y737529D01*
X250360Y737513D01*
X250254Y737486D01*
X250154Y737449D01*
X250057Y737402D01*
X249967Y737347D01*
X249882Y737284D01*
X249804Y737213D01*
X249733Y737135D01*
X249670Y737050D01*
X249615Y736959D01*
X249569Y736863D01*
X249532Y736762D01*
X249504Y736656D01*
X249488Y736547D01*
X249482Y733248D01*
X248717Y733248D01*
X248717Y742498D01*
X252742Y742448D01*
X253533Y742308D01*
X253850Y742208D01*
X254120Y742091D01*
X254346Y741959D01*
X254533Y741812D01*
X254684Y741653D01*
X254802Y741484D01*
X254892Y741306D01*
X254958Y741121D01*
X255002Y740930D01*
X255042Y740541D01*
X255039Y740163D01*
X254987Y739823D01*
X254889Y739516D01*
X254753Y739241D01*
X254588Y738999D01*
X254399Y738790D01*
X254196Y738615D01*
X253984Y738474D01*
X253810Y738380D01*
X253684Y738293D01*
X253573Y738191D01*
X253477Y738074D01*
X253398Y737947D01*
X253337Y737809D01*
X253296Y737663D01*
X253274Y737511D01*
X253274Y737356D01*
X253296Y737204D01*
X253337Y737058D01*
X253398Y736920D01*
X253477Y736793D01*
X253573Y736677D01*
X253684Y736574D01*
X253810Y736487D01*
X253884Y736446D01*
X253902Y736433D01*
X253955Y736380D01*
X254022Y736288D01*
X255370Y733248D01*
X254608Y733248D01*
X250581Y742391D02*
X250469Y742385D01*
X250360Y742369D01*
X250254Y742342D01*
X250154Y742305D01*
X250057Y742258D01*
X249967Y742203D01*
X249882Y742140D01*
X249804Y742069D01*
X249733Y741991D01*
X249670Y741906D01*
X249615Y741815D01*
X249569Y741719D01*
X249532Y741618D01*
X249504Y741512D01*
X249488Y741403D01*
X249488Y738596D01*
X249504Y738486D01*
X249532Y738381D01*
X249569Y738280D01*
X249615Y738183D01*
X249670Y738093D01*
X249733Y738008D01*
X249804Y737930D01*
X249882Y737859D01*
X249967Y737795D01*
X250057Y737740D01*
X250154Y737694D01*
X250254Y737657D01*
X250360Y737630D01*
X250469Y737613D01*
X251980Y737619D01*
X252247Y737653D01*
X252499Y737708D01*
X252737Y737784D01*
X252959Y737881D01*
X253166Y737998D01*
X253356Y738133D01*
X253529Y738287D01*
X253684Y738459D01*
X253820Y738648D01*
X253937Y738853D01*
X254034Y739074D01*
X254111Y739310D01*
X254167Y739561D01*
X254212Y740103D01*
X254187Y740501D01*
X254103Y740901D01*
X254033Y741097D01*
X253943Y741286D01*
X253830Y741467D01*
X253692Y741639D01*
X253528Y741798D01*
X253335Y741942D01*
X253113Y742071D01*
X252858Y742180D01*
X252568Y742269D01*
X252243Y742336D01*
X250581Y742391D01*
X230511Y741127D02*
X230517Y733248D01*
X230511Y741127D02*
X230494Y741237D01*
X230467Y741342D01*
X230430Y741443D01*
X230384Y741539D01*
X230329Y741630D01*
X230266Y741715D01*
X230195Y741793D01*
X230117Y741864D01*
X230032Y741927D01*
X229941Y741983D01*
X229845Y742029D01*
X229744Y742066D01*
X229639Y742093D01*
X229530Y742110D01*
X227468Y742115D01*
X227468Y742498D01*
X234434Y742498D01*
X234434Y742115D01*
X232251Y742110D01*
X232142Y742093D01*
X232037Y742066D01*
X231936Y742029D01*
X231840Y741983D01*
X231749Y741927D01*
X231665Y741864D01*
X231587Y741793D01*
X231516Y741715D01*
X231452Y741630D01*
X231397Y741539D01*
X231351Y741443D01*
X231314Y741342D01*
X231287Y741237D01*
X231270Y741127D01*
X231264Y733248D01*
X230517Y733248D01*
X214006Y733248D02*
X214006Y742498D01*
X214766Y742498D01*
X214766Y733248D01*
X214006Y733248D01*
X195477Y733248D02*
X195477Y742498D01*
X200767Y742498D01*
X200767Y742115D01*
X197226Y742110D01*
X197117Y742093D01*
X197011Y742066D01*
X196910Y742029D01*
X196814Y741983D01*
X196723Y741927D01*
X196639Y741864D01*
X196560Y741793D01*
X196489Y741715D01*
X196426Y741630D01*
X196371Y741539D01*
X196325Y741443D01*
X196288Y741342D01*
X196260Y741237D01*
X196244Y741127D01*
X196244Y739164D01*
X196260Y739055D01*
X196288Y738949D01*
X196325Y738848D01*
X196371Y738752D01*
X196426Y738661D01*
X196489Y738576D01*
X196560Y738498D01*
X196639Y738427D01*
X196723Y738364D01*
X196814Y738309D01*
X196910Y738262D01*
X197011Y738225D01*
X197117Y738198D01*
X197226Y738182D01*
X200129Y738176D01*
X200129Y737794D01*
X197226Y737788D01*
X197117Y737771D01*
X197011Y737744D01*
X196910Y737707D01*
X196814Y737661D01*
X196723Y737606D01*
X196639Y737542D01*
X196560Y737471D01*
X196489Y737393D01*
X196426Y737308D01*
X196371Y737218D01*
X196325Y737121D01*
X196288Y737020D01*
X196260Y736915D01*
X196244Y736805D01*
X196244Y734617D01*
X196260Y734507D01*
X196288Y734402D01*
X196325Y734301D01*
X196371Y734204D01*
X196426Y734114D01*
X196489Y734029D01*
X196560Y733951D01*
X196639Y733880D01*
X196723Y733816D01*
X196814Y733761D01*
X196910Y733715D01*
X197011Y733678D01*
X197117Y733651D01*
X197226Y733634D01*
X200887Y733628D01*
X200887Y733248D01*
X195477Y733248D01*
X190895Y733248D02*
X189393Y736605D01*
X189158Y736908D01*
X188903Y737139D01*
X188638Y737307D01*
X188374Y737421D01*
X188120Y737491D01*
X187885Y737526D01*
X186757Y737529D01*
X186647Y737513D01*
X186542Y737486D01*
X186441Y737449D01*
X186344Y737402D01*
X186254Y737347D01*
X186169Y737284D01*
X186091Y737213D01*
X186020Y737135D01*
X185956Y737050D01*
X185901Y736959D01*
X185855Y736863D01*
X185818Y736762D01*
X185791Y736656D01*
X185774Y736547D01*
X185768Y733248D01*
X185007Y733248D01*
X185007Y742498D01*
X189030Y742448D01*
X189820Y742308D01*
X190137Y742208D01*
X190406Y742091D01*
X190632Y741959D01*
X190819Y741812D01*
X190969Y741653D01*
X191088Y741484D01*
X191177Y741306D01*
X191243Y741121D01*
X191287Y740930D01*
X191327Y740541D01*
X191324Y740163D01*
X191271Y739823D01*
X191174Y739516D01*
X191039Y739241D01*
X190873Y738999D01*
X190685Y738790D01*
X190482Y738615D01*
X190271Y738474D01*
X190096Y738380D01*
X189970Y738293D01*
X189859Y738191D01*
X189763Y738074D01*
X189683Y737947D01*
X189622Y737809D01*
X189581Y737663D01*
X189559Y737511D01*
X189559Y737356D01*
X189581Y737204D01*
X189622Y737058D01*
X189683Y736920D01*
X189763Y736793D01*
X189859Y736677D01*
X189970Y736574D01*
X190096Y736487D01*
X190170Y736446D01*
X190188Y736433D01*
X190241Y736380D01*
X190309Y736288D01*
X190382Y736155D01*
X191660Y733248D01*
X190895Y733248D01*
X186869Y742391D02*
X186757Y742385D01*
X186647Y742369D01*
X186542Y742342D01*
X186441Y742305D01*
X186344Y742258D01*
X186254Y742203D01*
X186169Y742140D01*
X186091Y742069D01*
X186020Y741991D01*
X185956Y741906D01*
X185901Y741815D01*
X185855Y741719D01*
X185818Y741618D01*
X185791Y741512D01*
X185774Y741403D01*
X185774Y738596D01*
X185791Y738486D01*
X185818Y738381D01*
X185855Y738280D01*
X185901Y738183D01*
X185956Y738093D01*
X186020Y738008D01*
X186091Y737930D01*
X186169Y737859D01*
X186254Y737795D01*
X186344Y737740D01*
X186441Y737694D01*
X186542Y737657D01*
X186647Y737630D01*
X186757Y737613D01*
X188268Y737619D01*
X188534Y737653D01*
X188787Y737708D01*
X189024Y737784D01*
X189247Y737881D01*
X189453Y737998D01*
X189643Y738133D01*
X189816Y738287D01*
X189971Y738459D01*
X190108Y738648D01*
X190225Y738853D01*
X190322Y739074D01*
X190399Y739310D01*
X190455Y739561D01*
X190500Y740103D01*
X190475Y740501D01*
X190391Y740901D01*
X190321Y741097D01*
X190231Y741286D01*
X190118Y741467D01*
X189980Y741639D01*
X189816Y741798D01*
X189624Y741942D01*
X189401Y742071D01*
X189146Y742180D01*
X188857Y742269D01*
X188531Y742336D01*
X186869Y742391D01*
X225698Y752557D02*
X231784Y752557D01*
X231784Y750882D01*
X231784Y748962D01*
X231784Y747121D01*
X225698Y747121D01*
X220206Y756652D02*
X219586Y756681D01*
X219028Y756767D01*
X218528Y756904D01*
X218083Y757088D01*
X217691Y757315D01*
X217349Y757581D01*
X217053Y757880D01*
X216801Y758210D01*
X216590Y758564D01*
X216416Y758940D01*
X216171Y759737D01*
X216041Y760565D01*
X216003Y761389D01*
X216037Y762177D01*
X216134Y762878D01*
X216288Y763495D01*
X216491Y764035D01*
X216738Y764502D01*
X217020Y764902D01*
X217330Y765240D01*
X217663Y765520D01*
X218011Y765748D01*
X218368Y765929D01*
X218725Y766069D01*
X219417Y766242D01*
X220031Y766309D01*
X220478Y766311D01*
X220842Y766278D01*
X221191Y766212D01*
X221527Y766112D01*
X221849Y765980D01*
X222157Y765815D01*
X222451Y765616D01*
X222865Y765258D01*
X222517Y765008D01*
X221965Y765467D01*
X221680Y765647D01*
X221389Y765794D01*
X221091Y765908D01*
X220786Y765989D01*
X220474Y766037D01*
X220154Y766054D01*
X219854Y766040D01*
X219554Y765996D01*
X219256Y765923D01*
X218964Y765817D01*
X218680Y765679D01*
X218407Y765506D01*
X218147Y765296D01*
X217903Y765050D01*
X217678Y764764D01*
X217474Y764438D01*
X217295Y764071D01*
X217142Y763661D01*
X216927Y762705D01*
X216850Y761561D01*
X216880Y760793D01*
X216967Y760113D01*
X217104Y759516D01*
X217283Y758997D01*
X217498Y758550D01*
X217744Y758171D01*
X218012Y757853D01*
X218297Y757591D01*
X218591Y757380D01*
X218888Y757215D01*
X219182Y757090D01*
X219731Y756939D01*
X220186Y756884D01*
X220785Y756903D01*
X221344Y757011D01*
X221896Y757205D01*
X222579Y757572D01*
X222734Y757372D01*
X222153Y757047D01*
X221549Y756823D01*
X220906Y756693D01*
X220206Y756652D01*
X208876Y756652D02*
X207917Y756705D01*
X207149Y756860D01*
X206830Y756973D01*
X206552Y757109D01*
X206312Y757268D01*
X206108Y757447D01*
X205937Y757647D01*
X205797Y757866D01*
X205685Y758104D01*
X205599Y758360D01*
X205495Y758922D01*
X205464Y766109D01*
X206225Y766109D01*
X206273Y759094D01*
X206331Y758807D01*
X206411Y758539D01*
X206513Y758290D01*
X206637Y758059D01*
X206782Y757849D01*
X206947Y757658D01*
X207132Y757487D01*
X207337Y757338D01*
X207560Y757211D01*
X207802Y757105D01*
X208062Y757022D01*
X208340Y756962D01*
X208945Y756914D01*
X209234Y756926D01*
X209510Y756964D01*
X209773Y757025D01*
X210021Y757110D01*
X210253Y757217D01*
X210470Y757345D01*
X210670Y757494D01*
X210852Y757663D01*
X211015Y757851D01*
X211160Y758057D01*
X211284Y758281D01*
X211388Y758521D01*
X211469Y758777D01*
X211529Y759048D01*
X211577Y766109D01*
X212339Y766109D01*
X212309Y758855D01*
X212223Y758472D01*
X212089Y758136D01*
X211912Y757844D01*
X211699Y757592D01*
X211458Y757379D01*
X211193Y757200D01*
X210912Y757052D01*
X210329Y756841D01*
X209760Y756720D01*
X208876Y756652D01*
X239471Y756859D02*
X239463Y760281D01*
X239440Y760411D01*
X239401Y760538D01*
X236491Y766109D01*
X237231Y766109D01*
X238990Y762465D01*
X239085Y762343D01*
X239195Y762236D01*
X239318Y762146D01*
X239453Y762073D01*
X239597Y762020D01*
X239748Y761988D01*
X239905Y761976D01*
X240062Y761987D01*
X240219Y762019D01*
X240371Y762070D01*
X240517Y762140D01*
X240651Y762227D01*
X240771Y762330D01*
X240874Y762449D01*
X242737Y766109D01*
X243291Y766109D01*
X240292Y760567D01*
X240251Y760436D01*
X240227Y760302D01*
X240218Y756859D01*
X239471Y756859D01*
X232205Y756859D02*
X230370Y760600D01*
X230285Y760713D01*
X230186Y760813D01*
X230076Y760900D01*
X229956Y760971D01*
X229827Y761028D01*
X229691Y761067D01*
X229513Y761092D01*
X229464Y761094D01*
X229322Y761087D01*
X229194Y761064D01*
X229071Y761026D01*
X228954Y760975D01*
X228843Y760910D01*
X228740Y760833D01*
X228647Y760743D01*
X227499Y759174D01*
X227420Y759020D01*
X227367Y758856D01*
X227340Y758685D01*
X227337Y756859D01*
X226593Y756859D01*
X226593Y766109D01*
X227337Y766109D01*
X227354Y763309D01*
X227405Y763017D01*
X227487Y762761D01*
X227598Y762540D01*
X227733Y762355D01*
X227809Y762277D01*
X227889Y762207D01*
X227974Y762146D01*
X228063Y762094D01*
X228155Y762051D01*
X228251Y762017D01*
X228349Y761992D01*
X228450Y761977D01*
X228552Y761970D01*
X228761Y761985D01*
X228972Y762037D01*
X229182Y762125D01*
X229387Y762251D01*
X229584Y762414D01*
X229770Y762615D01*
X232153Y766109D01*
X232739Y766109D01*
X230574Y762973D01*
X230516Y762838D01*
X230476Y762698D01*
X230456Y762554D01*
X230455Y762409D01*
X230473Y762264D01*
X230511Y762122D01*
X233121Y756859D01*
X232205Y756859D01*
X197113Y756859D02*
X197113Y766109D01*
X197890Y766109D01*
X197896Y758246D01*
X197912Y758137D01*
X197940Y758032D01*
X197977Y757930D01*
X198023Y757834D01*
X198078Y757743D01*
X198141Y757659D01*
X198212Y757581D01*
X198291Y757510D01*
X198375Y757446D01*
X198466Y757391D01*
X198562Y757345D01*
X198663Y757308D01*
X198769Y757281D01*
X198878Y757264D01*
X202455Y757258D01*
X202455Y756859D01*
X197113Y756859D01*
X208651Y750001D02*
X181381Y750001D01*
X231797Y749863D02*
X258735Y749863D01*
X208651Y752557D02*
X208651Y747121D01*
X212913Y747121D02*
X212913Y752557D01*
X217174Y752557D02*
X217174Y747121D01*
X221436Y747121D02*
X221436Y752557D01*
X225698Y752557D02*
X225698Y750882D01*
X225698Y748962D01*
X225698Y747121D01*
X225698Y750882D02*
X231784Y750882D01*
X231784Y748962D02*
X225698Y748962D01*
D14*
X410000Y540000D03*
X530000Y540000D03*
X500000Y540000D03*
X310000Y840000D03*
X350000Y840000D03*
X390000Y840000D03*
X440000Y540000D03*
X270000Y840000D03*
D15*
X444000Y793000D03*
X341200Y666800D03*
X389100Y750200D03*
D16*
X491900Y750300D01*
D15*
X491900Y750300D03*
M02*
