G04 EAGLE Gerber RS-274X export*
G75*
%MOMM*%
%FSLAX34Y34*%
%LPD*%
%IN*%
%IPPOS*%
%AMOC8*
5,1,8,0,0,1.08239X$1,22.5*%
G01*
G04 Define Apertures*
%ADD10C,0.254000*%
D10*
X11362Y86966D02*
X9963Y81922D01*
X9009Y76776D01*
X8508Y71566D01*
X8462Y66331D01*
X8873Y61113D01*
X9737Y55951D01*
X11047Y50883D01*
X12794Y45949D01*
X14965Y41186D01*
X17543Y36630D01*
X20507Y32317D01*
X23837Y28278D01*
X27505Y24544D01*
X31486Y21145D01*
X35747Y18105D01*
X40257Y15449D01*
X44982Y13195D01*
X49884Y11362D01*
X54928Y9963D01*
X60075Y9009D01*
X65285Y8508D01*
X70519Y8462D01*
X75738Y8873D01*
X80900Y9737D01*
X85968Y11047D01*
X86966Y11362D01*
X534180Y156671D01*
X539083Y158504D01*
X543807Y160757D01*
X548317Y163414D01*
X552579Y166453D01*
X556559Y169853D01*
X560228Y173586D01*
X563557Y177625D01*
X566522Y181939D01*
X569099Y186494D01*
X571270Y191257D01*
X573017Y196192D01*
X574328Y201259D01*
X575192Y206422D01*
X575602Y211640D01*
X575639Y213734D01*
X575639Y683962D01*
X575411Y689191D01*
X574727Y694381D01*
X573594Y699491D01*
X572020Y704483D01*
X570017Y709319D01*
X567600Y713962D01*
X564788Y718377D01*
X561602Y722529D01*
X558065Y726388D01*
X555211Y729063D01*
X417294Y850074D01*
X414144Y853091D01*
X411269Y856371D01*
X408690Y859889D01*
X406428Y863619D01*
X404500Y867532D01*
X402920Y871597D01*
X401701Y875785D01*
X400851Y880064D01*
X400377Y884400D01*
X400283Y888761D01*
X400569Y893113D01*
X401234Y897424D01*
X402272Y901661D01*
X402718Y903108D01*
X437596Y1010451D01*
X438995Y1015495D01*
X439949Y1020642D01*
X440450Y1025852D01*
X440496Y1031086D01*
X440085Y1036305D01*
X439221Y1041467D01*
X437911Y1046535D01*
X436164Y1051469D01*
X433993Y1056232D01*
X431415Y1060788D01*
X428451Y1065101D01*
X425121Y1069140D01*
X421452Y1072874D01*
X417472Y1076273D01*
X413211Y1079313D01*
X408701Y1081969D01*
X403976Y1084223D01*
X399074Y1086056D01*
X394030Y1087455D01*
X388883Y1088409D01*
X383673Y1088910D01*
X378439Y1088956D01*
X373220Y1088545D01*
X368058Y1087681D01*
X362990Y1086371D01*
X358056Y1084623D01*
X353293Y1082453D01*
X348737Y1079875D01*
X344424Y1076911D01*
X340385Y1073581D01*
X336651Y1069912D01*
X333252Y1065932D01*
X330212Y1061671D01*
X327556Y1057161D01*
X325302Y1052436D01*
X323469Y1047533D01*
X288591Y940190D01*
X287064Y936105D01*
X285186Y932168D01*
X282972Y928409D01*
X280439Y924858D01*
X277606Y921541D01*
X274495Y918484D01*
X271129Y915709D01*
X267534Y913239D01*
X263738Y911091D01*
X259769Y909282D01*
X255657Y907826D01*
X251434Y906734D01*
X247132Y906014D01*
X245626Y905852D01*
X62920Y889018D01*
X57734Y888310D01*
X52629Y887154D01*
X47644Y885557D01*
X42818Y883531D01*
X38186Y881093D01*
X33784Y878260D01*
X29646Y875055D01*
X25804Y871501D01*
X22285Y867625D01*
X19118Y863458D01*
X16326Y859030D01*
X13930Y854376D01*
X11950Y849531D01*
X10399Y844532D01*
X9289Y839417D01*
X8630Y834224D01*
X8426Y828994D01*
X8678Y823765D01*
X9386Y818579D01*
X10542Y813474D01*
X11362Y810730D01*
X48444Y696603D01*
X50277Y691700D01*
X52531Y686976D01*
X55187Y682466D01*
X58227Y678204D01*
X61626Y674224D01*
X65360Y670555D01*
X69399Y667226D01*
X73712Y664261D01*
X78268Y661683D01*
X83031Y659513D01*
X87965Y657766D01*
X93033Y656455D01*
X98195Y655591D01*
X101545Y655275D01*
X205241Y648411D01*
X222584Y646501D01*
X239694Y643086D01*
X256442Y638193D01*
X272699Y631859D01*
X288342Y624132D01*
X303253Y615070D01*
X317317Y604744D01*
X330428Y593232D01*
X342485Y580621D01*
X353397Y567006D01*
X363081Y552493D01*
X371463Y537190D01*
X378480Y521216D01*
X384078Y504690D01*
X388214Y487740D01*
X390857Y470494D01*
X391987Y453082D01*
X391595Y435639D01*
X389685Y418296D01*
X386270Y401186D01*
X381377Y384438D01*
X375043Y368181D01*
X367316Y352538D01*
X358255Y337627D01*
X347929Y323563D01*
X336416Y310453D01*
X323805Y298395D01*
X310190Y287483D01*
X295677Y277799D01*
X280375Y269417D01*
X264400Y262400D01*
X247875Y256802D01*
X230924Y252666D01*
X213678Y250023D01*
X205241Y249285D01*
X101545Y242421D01*
X96342Y241848D01*
X91209Y240823D01*
X86185Y239356D01*
X81307Y237455D01*
X76614Y235137D01*
X72141Y232419D01*
X67922Y229321D01*
X63989Y225867D01*
X60372Y222084D01*
X57098Y218000D01*
X54193Y213646D01*
X51678Y209055D01*
X49573Y204262D01*
X48444Y201093D01*
X11362Y86966D01*
X314511Y771563D02*
X314436Y770420D01*
X314287Y769284D01*
X314063Y768160D01*
X313766Y767053D01*
X313398Y765968D01*
X312960Y764910D01*
X312453Y763882D01*
X311880Y762890D01*
X311243Y761937D01*
X310546Y761028D01*
X309790Y760167D01*
X308980Y759357D01*
X308119Y758601D01*
X307210Y757904D01*
X306257Y757267D01*
X305265Y756694D01*
X304237Y756187D01*
X303179Y755749D01*
X302094Y755381D01*
X300987Y755084D01*
X299863Y754861D01*
X298727Y754711D01*
X297584Y754636D01*
X296438Y754636D01*
X295295Y754711D01*
X294159Y754861D01*
X293035Y755084D01*
X291928Y755381D01*
X290843Y755749D01*
X289785Y756187D01*
X288757Y756694D01*
X287765Y757267D01*
X286812Y757904D01*
X285903Y758601D01*
X285042Y759357D01*
X284232Y760167D01*
X283476Y761028D01*
X282779Y761937D01*
X282142Y762890D01*
X281569Y763882D01*
X281062Y764910D01*
X280624Y765968D01*
X280256Y767053D01*
X279959Y768160D01*
X279736Y769284D01*
X279586Y770420D01*
X279511Y771563D01*
X279511Y772709D01*
X279586Y773852D01*
X279736Y774988D01*
X279959Y776112D01*
X280256Y777219D01*
X280624Y778304D01*
X281062Y779362D01*
X281569Y780390D01*
X282142Y781382D01*
X282779Y782335D01*
X283476Y783244D01*
X284232Y784105D01*
X285042Y784915D01*
X285903Y785671D01*
X286812Y786368D01*
X287765Y787005D01*
X288757Y787578D01*
X289785Y788085D01*
X290843Y788523D01*
X291928Y788891D01*
X293035Y789188D01*
X294159Y789412D01*
X295295Y789561D01*
X296438Y789636D01*
X297584Y789636D01*
X298727Y789561D01*
X299863Y789412D01*
X300987Y789188D01*
X302094Y788891D01*
X303179Y788523D01*
X304237Y788085D01*
X305265Y787578D01*
X306257Y787005D01*
X307210Y786368D01*
X308119Y785671D01*
X308980Y784915D01*
X309790Y784105D01*
X310546Y783244D01*
X311243Y782335D01*
X311880Y781382D01*
X312453Y780390D01*
X312960Y779362D01*
X313398Y778304D01*
X313766Y777219D01*
X314063Y776112D01*
X314287Y774988D01*
X314436Y773852D01*
X314511Y772709D01*
X314511Y771563D01*
X549483Y448205D02*
X549408Y447062D01*
X549259Y445926D01*
X549035Y444802D01*
X548738Y443695D01*
X548370Y442610D01*
X547932Y441552D01*
X547425Y440524D01*
X546852Y439532D01*
X546215Y438579D01*
X545518Y437670D01*
X544762Y436809D01*
X543952Y435999D01*
X543091Y435243D01*
X542182Y434546D01*
X541229Y433909D01*
X540237Y433336D01*
X539209Y432829D01*
X538151Y432391D01*
X537066Y432023D01*
X535959Y431726D01*
X534835Y431503D01*
X533699Y431353D01*
X532556Y431278D01*
X531410Y431278D01*
X530267Y431353D01*
X529131Y431503D01*
X528007Y431726D01*
X526900Y432023D01*
X525815Y432391D01*
X524757Y432829D01*
X523729Y433336D01*
X522737Y433909D01*
X521784Y434546D01*
X520875Y435243D01*
X520014Y435999D01*
X519204Y436809D01*
X518448Y437670D01*
X517751Y438579D01*
X517114Y439532D01*
X516541Y440524D01*
X516034Y441552D01*
X515596Y442610D01*
X515228Y443695D01*
X514931Y444802D01*
X514708Y445926D01*
X514558Y447062D01*
X514483Y448205D01*
X514483Y449351D01*
X514558Y450494D01*
X514708Y451630D01*
X514931Y452754D01*
X515228Y453861D01*
X515596Y454946D01*
X516034Y456004D01*
X516541Y457032D01*
X517114Y458024D01*
X517751Y458977D01*
X518448Y459886D01*
X519204Y460747D01*
X520014Y461557D01*
X520875Y462313D01*
X521784Y463010D01*
X522737Y463647D01*
X523729Y464220D01*
X524757Y464727D01*
X525815Y465165D01*
X526900Y465533D01*
X528007Y465830D01*
X529131Y466054D01*
X530267Y466203D01*
X531410Y466278D01*
X532556Y466278D01*
X533699Y466203D01*
X534835Y466054D01*
X535959Y465830D01*
X537066Y465533D01*
X538151Y465165D01*
X539209Y464727D01*
X540237Y464220D01*
X541229Y463647D01*
X542182Y463010D01*
X543091Y462313D01*
X543952Y461557D01*
X544762Y460747D01*
X545518Y459886D01*
X546215Y458977D01*
X546852Y458024D01*
X547425Y457032D01*
X547932Y456004D01*
X548370Y454946D01*
X548738Y453861D01*
X549035Y452754D01*
X549259Y451630D01*
X549408Y450494D01*
X549483Y449351D01*
X549483Y448205D01*
X314585Y124869D02*
X314510Y123726D01*
X314361Y122590D01*
X314137Y121466D01*
X313840Y120359D01*
X313472Y119274D01*
X313034Y118216D01*
X312527Y117188D01*
X311954Y116196D01*
X311317Y115243D01*
X310620Y114334D01*
X309864Y113473D01*
X309054Y112663D01*
X308193Y111907D01*
X307284Y111210D01*
X306331Y110573D01*
X305339Y110000D01*
X304311Y109493D01*
X303253Y109055D01*
X302168Y108687D01*
X301061Y108390D01*
X299937Y108167D01*
X298801Y108017D01*
X297658Y107942D01*
X296512Y107942D01*
X295369Y108017D01*
X294233Y108167D01*
X293109Y108390D01*
X292002Y108687D01*
X290917Y109055D01*
X289859Y109493D01*
X288831Y110000D01*
X287839Y110573D01*
X286886Y111210D01*
X285977Y111907D01*
X285116Y112663D01*
X284306Y113473D01*
X283550Y114334D01*
X282853Y115243D01*
X282216Y116196D01*
X281643Y117188D01*
X281136Y118216D01*
X280698Y119274D01*
X280330Y120359D01*
X280033Y121466D01*
X279810Y122590D01*
X279660Y123726D01*
X279585Y124869D01*
X279585Y126015D01*
X279660Y127158D01*
X279810Y128294D01*
X280033Y129418D01*
X280330Y130525D01*
X280698Y131610D01*
X281136Y132668D01*
X281643Y133696D01*
X282216Y134688D01*
X282853Y135641D01*
X283550Y136550D01*
X284306Y137411D01*
X285116Y138221D01*
X285977Y138977D01*
X286886Y139674D01*
X287839Y140311D01*
X288831Y140884D01*
X289859Y141391D01*
X290917Y141829D01*
X292002Y142197D01*
X293109Y142494D01*
X294233Y142718D01*
X295369Y142867D01*
X296512Y142942D01*
X297658Y142942D01*
X298801Y142867D01*
X299937Y142718D01*
X301061Y142494D01*
X302168Y142197D01*
X303253Y141829D01*
X304311Y141391D01*
X305339Y140884D01*
X306331Y140311D01*
X307284Y139674D01*
X308193Y138977D01*
X309054Y138221D01*
X309864Y137411D01*
X310620Y136550D01*
X311317Y135641D01*
X311954Y134688D01*
X312527Y133696D01*
X313034Y132668D01*
X313472Y131610D01*
X313840Y130525D01*
X314137Y129418D01*
X314361Y128294D01*
X314510Y127158D01*
X314585Y126015D01*
X314585Y124869D01*
M02*
