G04 EAGLE Gerber RS-274X export*
G75*
%MOMM*%
%FSLAX34Y34*%
%LPD*%
%INSoldermask Top*%
%IPPOS*%
%AMOC8*
5,1,8,0,0,1.08239X$1,22.5*%
G01*
G04 Define Apertures*
%ADD10C,3.627000*%
%ADD11R,1.727000X1.727000*%
%ADD12C,1.727000*%
%ADD13R,1.727000X1.727000*%
%ADD14C,0.254000*%
%ADD15C,1.927000*%
%ADD16C,0.731000*%
D10*
X297011Y772136D03*
X531983Y448778D03*
X297085Y125442D03*
D11*
G36*
X98312Y187662D02*
X102782Y204342D01*
X119462Y199872D01*
X114992Y183192D01*
X98312Y187662D01*
G37*
D12*
X102313Y169233D03*
D11*
G36*
X78010Y69296D02*
X86645Y54341D01*
X71690Y45706D01*
X63055Y60661D01*
X78010Y69296D01*
G37*
D12*
X62150Y79499D03*
D11*
G36*
X425539Y289545D02*
X440494Y280910D01*
X431859Y265955D01*
X416904Y274590D01*
X425539Y289545D01*
G37*
D12*
X406701Y290450D03*
D11*
G36*
X510555Y222739D02*
X519190Y237694D01*
X534145Y229059D01*
X525510Y214104D01*
X510555Y222739D01*
G37*
D12*
X509650Y203901D03*
D11*
G36*
X408490Y613204D02*
X399855Y628159D01*
X414810Y636794D01*
X423445Y621839D01*
X408490Y613204D01*
G37*
D12*
X424350Y603001D03*
D13*
X502000Y683800D03*
D12*
X527400Y683800D03*
D11*
G36*
X114139Y719645D02*
X129094Y711010D01*
X120459Y696055D01*
X105504Y704690D01*
X114139Y719645D01*
G37*
D12*
X95301Y720550D03*
D13*
X68200Y816800D03*
D12*
X68200Y842200D03*
D11*
G36*
X373838Y1022412D02*
X357158Y1026882D01*
X361628Y1043562D01*
X378308Y1039092D01*
X373838Y1022412D01*
G37*
D12*
X392267Y1026413D03*
D11*
G36*
X336738Y907112D02*
X320058Y911582D01*
X324528Y928262D01*
X341208Y923792D01*
X336738Y907112D01*
G37*
D12*
X355167Y911113D03*
D14*
X240869Y733041D02*
X239936Y733117D01*
X239515Y733211D01*
X239126Y733343D01*
X238767Y733513D01*
X238439Y733721D01*
X238142Y733965D01*
X237876Y734248D01*
X237642Y734567D01*
X237438Y734924D01*
X237266Y735319D01*
X237014Y736219D01*
X236889Y737267D01*
X236910Y738644D01*
X237014Y739350D01*
X237178Y739969D01*
X237393Y740508D01*
X237653Y740971D01*
X237948Y741365D01*
X238270Y741695D01*
X238612Y741966D01*
X238966Y742185D01*
X239323Y742356D01*
X240017Y742579D01*
X240628Y742681D01*
X241093Y742705D01*
X241553Y742685D01*
X241984Y742626D01*
X242387Y742529D01*
X242762Y742392D01*
X243108Y742218D01*
X243425Y742006D01*
X243713Y741755D01*
X243971Y741468D01*
X244200Y741143D01*
X244399Y740781D01*
X244568Y740382D01*
X244815Y739475D01*
X244940Y738425D01*
X244946Y737432D01*
X244867Y736589D01*
X244688Y735761D01*
X244553Y735363D01*
X244384Y734982D01*
X244178Y734622D01*
X243933Y734288D01*
X243646Y733983D01*
X243313Y733714D01*
X242932Y733484D01*
X242500Y733297D01*
X242014Y733158D01*
X241472Y733071D01*
X240869Y733041D01*
X240560Y742423D02*
X240921Y742443D01*
X240560Y742423D02*
X240217Y742364D01*
X239893Y742266D01*
X239588Y742132D01*
X239304Y741961D01*
X239041Y741754D01*
X238799Y741514D01*
X238580Y741240D01*
X238385Y740934D01*
X238213Y740596D01*
X237943Y739831D01*
X237777Y738952D01*
X237721Y737968D01*
X237821Y736553D01*
X237938Y735966D01*
X238093Y735453D01*
X238281Y735009D01*
X238496Y734629D01*
X238733Y734308D01*
X238987Y734042D01*
X239252Y733825D01*
X239524Y733653D01*
X239797Y733520D01*
X240065Y733423D01*
X240568Y733314D01*
X240990Y733286D01*
X241397Y733312D01*
X241882Y733418D01*
X242140Y733512D01*
X242403Y733639D01*
X242664Y733805D01*
X242920Y734014D01*
X243164Y734271D01*
X243392Y734580D01*
X243599Y734946D01*
X243780Y735373D01*
X243929Y735868D01*
X244114Y737074D01*
X244124Y738320D01*
X244012Y739289D01*
X243792Y740143D01*
X243644Y740525D01*
X243471Y740876D01*
X243274Y741194D01*
X243054Y741478D01*
X242811Y741728D01*
X242547Y741942D01*
X242261Y742120D01*
X241955Y742259D01*
X241629Y742361D01*
X241284Y742422D01*
X240921Y742443D01*
X221360Y733041D02*
X220589Y733091D01*
X219834Y733224D01*
X218507Y733640D01*
X218673Y734044D01*
X220051Y733589D01*
X220738Y733455D01*
X221377Y733406D01*
X221681Y733419D01*
X221960Y733455D01*
X222215Y733513D01*
X222447Y733591D01*
X222656Y733688D01*
X222843Y733803D01*
X223008Y733932D01*
X223154Y734075D01*
X223279Y734230D01*
X223386Y734395D01*
X223474Y734568D01*
X223544Y734748D01*
X223635Y735123D01*
X223665Y735504D01*
X223647Y735783D01*
X223597Y736037D01*
X223518Y736268D01*
X223411Y736477D01*
X223281Y736666D01*
X223130Y736835D01*
X222961Y736988D01*
X222583Y737245D01*
X222169Y737450D01*
X220305Y738088D01*
X219841Y738299D01*
X219449Y738538D01*
X219281Y738671D01*
X219132Y738814D01*
X219002Y738969D01*
X218892Y739136D01*
X218801Y739318D01*
X218730Y739514D01*
X218679Y739727D01*
X218648Y739958D01*
X218638Y740207D01*
X218665Y740617D01*
X218740Y740980D01*
X218859Y741298D01*
X219016Y741575D01*
X219204Y741814D01*
X219418Y742016D01*
X219653Y742186D01*
X219901Y742325D01*
X220418Y742526D01*
X220921Y742640D01*
X221704Y742705D01*
X222390Y742651D01*
X223074Y742497D01*
X223737Y742249D01*
X224360Y741916D01*
X224136Y741631D01*
X223480Y741978D01*
X222855Y742226D01*
X222263Y742376D01*
X221704Y742425D01*
X221247Y742387D01*
X221032Y742340D01*
X220829Y742276D01*
X220636Y742196D01*
X220456Y742099D01*
X220289Y741987D01*
X220137Y741862D01*
X219998Y741722D01*
X219876Y741570D01*
X219770Y741406D01*
X219682Y741230D01*
X219612Y741044D01*
X219560Y740848D01*
X219529Y740644D01*
X219518Y740431D01*
X219535Y740156D01*
X219583Y739906D01*
X219660Y739677D01*
X219764Y739468D01*
X219892Y739279D01*
X220040Y739108D01*
X220208Y738953D01*
X220590Y738686D01*
X221016Y738467D01*
X223000Y737751D01*
X223470Y737534D01*
X223859Y737291D01*
X224023Y737158D01*
X224168Y737014D01*
X224293Y736859D01*
X224398Y736691D01*
X224484Y736508D01*
X224551Y736310D01*
X224598Y736095D01*
X224636Y735608D01*
X224610Y735197D01*
X224536Y734832D01*
X224418Y734510D01*
X224263Y734229D01*
X224075Y733986D01*
X223859Y733777D01*
X223622Y733602D01*
X223367Y733456D01*
X222829Y733242D01*
X222287Y733116D01*
X221360Y733041D01*
X206964Y733041D02*
X206194Y733091D01*
X205439Y733224D01*
X204112Y733642D01*
X204277Y734044D01*
X205656Y733589D01*
X206343Y733455D01*
X206982Y733406D01*
X207286Y733419D01*
X207565Y733455D01*
X207820Y733513D01*
X208052Y733591D01*
X208261Y733688D01*
X208448Y733803D01*
X208614Y733932D01*
X208759Y734075D01*
X208885Y734230D01*
X208992Y734395D01*
X209080Y734568D01*
X209151Y734748D01*
X209242Y735123D01*
X209271Y735504D01*
X209254Y735783D01*
X209204Y736037D01*
X209124Y736268D01*
X209017Y736477D01*
X208887Y736666D01*
X208736Y736835D01*
X208567Y736988D01*
X208188Y737245D01*
X207774Y737450D01*
X205910Y738088D01*
X205445Y738299D01*
X205054Y738538D01*
X204886Y738671D01*
X204737Y738814D01*
X204607Y738969D01*
X204497Y739136D01*
X204406Y739318D01*
X204335Y739514D01*
X204284Y739727D01*
X204253Y739958D01*
X204243Y740207D01*
X204269Y740617D01*
X204345Y740980D01*
X204464Y741298D01*
X204621Y741575D01*
X204809Y741814D01*
X205023Y742016D01*
X205257Y742186D01*
X205506Y742325D01*
X206022Y742526D01*
X206526Y742640D01*
X207309Y742705D01*
X207994Y742652D01*
X208678Y742497D01*
X209342Y742250D01*
X209965Y741916D01*
X209739Y741631D01*
X209083Y741978D01*
X208458Y742226D01*
X207866Y742376D01*
X207309Y742425D01*
X206851Y742387D01*
X206637Y742340D01*
X206433Y742276D01*
X206241Y742196D01*
X206061Y742099D01*
X205894Y741987D01*
X205741Y741862D01*
X205603Y741722D01*
X205481Y741570D01*
X205375Y741406D01*
X205287Y741230D01*
X205216Y741044D01*
X205165Y740848D01*
X205134Y740644D01*
X205123Y740431D01*
X205140Y740156D01*
X205188Y739906D01*
X205265Y739677D01*
X205369Y739468D01*
X205496Y739279D01*
X205645Y739108D01*
X205813Y738953D01*
X206194Y738686D01*
X206620Y738467D01*
X208604Y737751D01*
X209073Y737534D01*
X209461Y737291D01*
X209626Y737158D01*
X209770Y737014D01*
X209895Y736859D01*
X210000Y736691D01*
X210086Y736508D01*
X210152Y736310D01*
X210200Y736095D01*
X210237Y735608D01*
X210211Y735197D01*
X210137Y734832D01*
X210020Y734510D01*
X209864Y734229D01*
X209676Y733986D01*
X209461Y733777D01*
X209224Y733602D01*
X208970Y733456D01*
X208432Y733242D01*
X207891Y733116D01*
X206964Y733041D01*
X253107Y736605D02*
X254608Y733248D01*
X253107Y736605D02*
X252871Y736908D01*
X252746Y737032D01*
X252485Y737230D01*
X252219Y737370D01*
X251958Y737461D01*
X251712Y737512D01*
X250469Y737529D01*
X250360Y737513D01*
X250254Y737486D01*
X250154Y737449D01*
X250057Y737402D01*
X249967Y737347D01*
X249882Y737284D01*
X249804Y737213D01*
X249733Y737135D01*
X249670Y737050D01*
X249615Y736959D01*
X249569Y736863D01*
X249532Y736762D01*
X249504Y736656D01*
X249488Y736547D01*
X249482Y733248D01*
X248717Y733248D01*
X248717Y742498D01*
X252742Y742448D01*
X253533Y742308D01*
X253850Y742208D01*
X254120Y742091D01*
X254346Y741959D01*
X254533Y741812D01*
X254684Y741653D01*
X254802Y741484D01*
X254892Y741306D01*
X254958Y741121D01*
X255002Y740930D01*
X255042Y740541D01*
X255039Y740163D01*
X254987Y739823D01*
X254889Y739516D01*
X254753Y739241D01*
X254588Y738999D01*
X254399Y738790D01*
X254196Y738615D01*
X253984Y738474D01*
X253810Y738380D01*
X253684Y738293D01*
X253573Y738191D01*
X253477Y738074D01*
X253398Y737947D01*
X253337Y737809D01*
X253296Y737663D01*
X253274Y737511D01*
X253274Y737356D01*
X253296Y737204D01*
X253337Y737058D01*
X253398Y736920D01*
X253477Y736793D01*
X253573Y736677D01*
X253684Y736574D01*
X253810Y736487D01*
X253884Y736446D01*
X253902Y736433D01*
X253955Y736380D01*
X254022Y736288D01*
X255370Y733248D01*
X254608Y733248D01*
X250581Y742391D02*
X250469Y742385D01*
X250360Y742369D01*
X250254Y742342D01*
X250154Y742305D01*
X250057Y742258D01*
X249967Y742203D01*
X249882Y742140D01*
X249804Y742069D01*
X249733Y741991D01*
X249670Y741906D01*
X249615Y741815D01*
X249569Y741719D01*
X249532Y741618D01*
X249504Y741512D01*
X249488Y741403D01*
X249488Y738596D01*
X249504Y738486D01*
X249532Y738381D01*
X249569Y738280D01*
X249615Y738183D01*
X249670Y738093D01*
X249733Y738008D01*
X249804Y737930D01*
X249882Y737859D01*
X249967Y737795D01*
X250057Y737740D01*
X250154Y737694D01*
X250254Y737657D01*
X250360Y737630D01*
X250469Y737613D01*
X251980Y737619D01*
X252247Y737653D01*
X252499Y737708D01*
X252737Y737784D01*
X252959Y737881D01*
X253166Y737998D01*
X253356Y738133D01*
X253529Y738287D01*
X253684Y738459D01*
X253820Y738648D01*
X253937Y738853D01*
X254034Y739074D01*
X254111Y739310D01*
X254167Y739561D01*
X254212Y740103D01*
X254187Y740501D01*
X254103Y740901D01*
X254033Y741097D01*
X253943Y741286D01*
X253830Y741467D01*
X253692Y741639D01*
X253528Y741798D01*
X253335Y741942D01*
X253113Y742071D01*
X252858Y742180D01*
X252568Y742269D01*
X252243Y742336D01*
X250581Y742391D01*
X230511Y741127D02*
X230517Y733248D01*
X230511Y741127D02*
X230494Y741237D01*
X230467Y741342D01*
X230430Y741443D01*
X230384Y741539D01*
X230329Y741630D01*
X230266Y741715D01*
X230195Y741793D01*
X230117Y741864D01*
X230032Y741927D01*
X229941Y741983D01*
X229845Y742029D01*
X229744Y742066D01*
X229639Y742093D01*
X229530Y742110D01*
X227468Y742115D01*
X227468Y742498D01*
X234434Y742498D01*
X234434Y742115D01*
X232251Y742110D01*
X232142Y742093D01*
X232037Y742066D01*
X231936Y742029D01*
X231840Y741983D01*
X231749Y741927D01*
X231665Y741864D01*
X231587Y741793D01*
X231516Y741715D01*
X231452Y741630D01*
X231397Y741539D01*
X231351Y741443D01*
X231314Y741342D01*
X231287Y741237D01*
X231270Y741127D01*
X231264Y733248D01*
X230517Y733248D01*
X214006Y733248D02*
X214006Y742498D01*
X214766Y742498D01*
X214766Y733248D01*
X214006Y733248D01*
X195477Y733248D02*
X195477Y742498D01*
X200767Y742498D01*
X200767Y742115D01*
X197226Y742110D01*
X197117Y742093D01*
X197011Y742066D01*
X196910Y742029D01*
X196814Y741983D01*
X196723Y741927D01*
X196639Y741864D01*
X196560Y741793D01*
X196489Y741715D01*
X196426Y741630D01*
X196371Y741539D01*
X196325Y741443D01*
X196288Y741342D01*
X196260Y741237D01*
X196244Y741127D01*
X196244Y739164D01*
X196260Y739055D01*
X196288Y738949D01*
X196325Y738848D01*
X196371Y738752D01*
X196426Y738661D01*
X196489Y738576D01*
X196560Y738498D01*
X196639Y738427D01*
X196723Y738364D01*
X196814Y738309D01*
X196910Y738262D01*
X197011Y738225D01*
X197117Y738198D01*
X197226Y738182D01*
X200129Y738176D01*
X200129Y737794D01*
X197226Y737788D01*
X197117Y737771D01*
X197011Y737744D01*
X196910Y737707D01*
X196814Y737661D01*
X196723Y737606D01*
X196639Y737542D01*
X196560Y737471D01*
X196489Y737393D01*
X196426Y737308D01*
X196371Y737218D01*
X196325Y737121D01*
X196288Y737020D01*
X196260Y736915D01*
X196244Y736805D01*
X196244Y734617D01*
X196260Y734507D01*
X196288Y734402D01*
X196325Y734301D01*
X196371Y734204D01*
X196426Y734114D01*
X196489Y734029D01*
X196560Y733951D01*
X196639Y733880D01*
X196723Y733816D01*
X196814Y733761D01*
X196910Y733715D01*
X197011Y733678D01*
X197117Y733651D01*
X197226Y733634D01*
X200887Y733628D01*
X200887Y733248D01*
X195477Y733248D01*
X190895Y733248D02*
X189393Y736605D01*
X189158Y736908D01*
X188903Y737139D01*
X188638Y737307D01*
X188374Y737421D01*
X188120Y737491D01*
X187885Y737526D01*
X186757Y737529D01*
X186647Y737513D01*
X186542Y737486D01*
X186441Y737449D01*
X186344Y737402D01*
X186254Y737347D01*
X186169Y737284D01*
X186091Y737213D01*
X186020Y737135D01*
X185956Y737050D01*
X185901Y736959D01*
X185855Y736863D01*
X185818Y736762D01*
X185791Y736656D01*
X185774Y736547D01*
X185768Y733248D01*
X185007Y733248D01*
X185007Y742498D01*
X189030Y742448D01*
X189820Y742308D01*
X190137Y742208D01*
X190406Y742091D01*
X190632Y741959D01*
X190819Y741812D01*
X190969Y741653D01*
X191088Y741484D01*
X191177Y741306D01*
X191243Y741121D01*
X191287Y740930D01*
X191327Y740541D01*
X191324Y740163D01*
X191271Y739823D01*
X191174Y739516D01*
X191039Y739241D01*
X190873Y738999D01*
X190685Y738790D01*
X190482Y738615D01*
X190271Y738474D01*
X190096Y738380D01*
X189970Y738293D01*
X189859Y738191D01*
X189763Y738074D01*
X189683Y737947D01*
X189622Y737809D01*
X189581Y737663D01*
X189559Y737511D01*
X189559Y737356D01*
X189581Y737204D01*
X189622Y737058D01*
X189683Y736920D01*
X189763Y736793D01*
X189859Y736677D01*
X189970Y736574D01*
X190096Y736487D01*
X190170Y736446D01*
X190188Y736433D01*
X190241Y736380D01*
X190309Y736288D01*
X190382Y736155D01*
X191660Y733248D01*
X190895Y733248D01*
X186869Y742391D02*
X186757Y742385D01*
X186647Y742369D01*
X186542Y742342D01*
X186441Y742305D01*
X186344Y742258D01*
X186254Y742203D01*
X186169Y742140D01*
X186091Y742069D01*
X186020Y741991D01*
X185956Y741906D01*
X185901Y741815D01*
X185855Y741719D01*
X185818Y741618D01*
X185791Y741512D01*
X185774Y741403D01*
X185774Y738596D01*
X185791Y738486D01*
X185818Y738381D01*
X185855Y738280D01*
X185901Y738183D01*
X185956Y738093D01*
X186020Y738008D01*
X186091Y737930D01*
X186169Y737859D01*
X186254Y737795D01*
X186344Y737740D01*
X186441Y737694D01*
X186542Y737657D01*
X186647Y737630D01*
X186757Y737613D01*
X188268Y737619D01*
X188534Y737653D01*
X188787Y737708D01*
X189024Y737784D01*
X189247Y737881D01*
X189453Y737998D01*
X189643Y738133D01*
X189816Y738287D01*
X189971Y738459D01*
X190108Y738648D01*
X190225Y738853D01*
X190322Y739074D01*
X190399Y739310D01*
X190455Y739561D01*
X190500Y740103D01*
X190475Y740501D01*
X190391Y740901D01*
X190321Y741097D01*
X190231Y741286D01*
X190118Y741467D01*
X189980Y741639D01*
X189816Y741798D01*
X189624Y741942D01*
X189401Y742071D01*
X189146Y742180D01*
X188857Y742269D01*
X188531Y742336D01*
X186869Y742391D01*
X225698Y752557D02*
X231784Y752557D01*
X231784Y750882D01*
X231784Y748962D01*
X231784Y747121D01*
X225698Y747121D01*
X220206Y756652D02*
X219586Y756681D01*
X219028Y756767D01*
X218528Y756904D01*
X218083Y757088D01*
X217691Y757315D01*
X217349Y757581D01*
X217053Y757880D01*
X216801Y758210D01*
X216590Y758564D01*
X216416Y758940D01*
X216171Y759737D01*
X216041Y760565D01*
X216003Y761389D01*
X216037Y762177D01*
X216134Y762878D01*
X216288Y763495D01*
X216491Y764035D01*
X216738Y764502D01*
X217020Y764902D01*
X217330Y765240D01*
X217663Y765520D01*
X218011Y765748D01*
X218368Y765929D01*
X218725Y766069D01*
X219417Y766242D01*
X220031Y766309D01*
X220478Y766311D01*
X220842Y766278D01*
X221191Y766212D01*
X221527Y766112D01*
X221849Y765980D01*
X222157Y765815D01*
X222451Y765616D01*
X222865Y765258D01*
X222517Y765008D01*
X221965Y765467D01*
X221680Y765647D01*
X221389Y765794D01*
X221091Y765908D01*
X220786Y765989D01*
X220474Y766037D01*
X220154Y766054D01*
X219854Y766040D01*
X219554Y765996D01*
X219256Y765923D01*
X218964Y765817D01*
X218680Y765679D01*
X218407Y765506D01*
X218147Y765296D01*
X217903Y765050D01*
X217678Y764764D01*
X217474Y764438D01*
X217295Y764071D01*
X217142Y763661D01*
X216927Y762705D01*
X216850Y761561D01*
X216880Y760793D01*
X216967Y760113D01*
X217104Y759516D01*
X217283Y758997D01*
X217498Y758550D01*
X217744Y758171D01*
X218012Y757853D01*
X218297Y757591D01*
X218591Y757380D01*
X218888Y757215D01*
X219182Y757090D01*
X219731Y756939D01*
X220186Y756884D01*
X220785Y756903D01*
X221344Y757011D01*
X221896Y757205D01*
X222579Y757572D01*
X222734Y757372D01*
X222153Y757047D01*
X221549Y756823D01*
X220906Y756693D01*
X220206Y756652D01*
X208876Y756652D02*
X207917Y756705D01*
X207149Y756860D01*
X206830Y756973D01*
X206552Y757109D01*
X206312Y757268D01*
X206108Y757447D01*
X205937Y757647D01*
X205797Y757866D01*
X205685Y758104D01*
X205599Y758360D01*
X205495Y758922D01*
X205464Y766109D01*
X206225Y766109D01*
X206273Y759094D01*
X206331Y758807D01*
X206411Y758539D01*
X206513Y758290D01*
X206637Y758059D01*
X206782Y757849D01*
X206947Y757658D01*
X207132Y757487D01*
X207337Y757338D01*
X207560Y757211D01*
X207802Y757105D01*
X208062Y757022D01*
X208340Y756962D01*
X208945Y756914D01*
X209234Y756926D01*
X209510Y756964D01*
X209773Y757025D01*
X210021Y757110D01*
X210253Y757217D01*
X210470Y757345D01*
X210670Y757494D01*
X210852Y757663D01*
X211015Y757851D01*
X211160Y758057D01*
X211284Y758281D01*
X211388Y758521D01*
X211469Y758777D01*
X211529Y759048D01*
X211577Y766109D01*
X212339Y766109D01*
X212309Y758855D01*
X212223Y758472D01*
X212089Y758136D01*
X211912Y757844D01*
X211699Y757592D01*
X211458Y757379D01*
X211193Y757200D01*
X210912Y757052D01*
X210329Y756841D01*
X209760Y756720D01*
X208876Y756652D01*
X239471Y756859D02*
X239463Y760281D01*
X239440Y760411D01*
X239401Y760538D01*
X236491Y766109D01*
X237231Y766109D01*
X238990Y762465D01*
X239085Y762343D01*
X239195Y762236D01*
X239318Y762146D01*
X239453Y762073D01*
X239597Y762020D01*
X239748Y761988D01*
X239905Y761976D01*
X240062Y761987D01*
X240219Y762019D01*
X240371Y762070D01*
X240517Y762140D01*
X240651Y762227D01*
X240771Y762330D01*
X240874Y762449D01*
X242737Y766109D01*
X243291Y766109D01*
X240292Y760567D01*
X240251Y760436D01*
X240227Y760302D01*
X240218Y756859D01*
X239471Y756859D01*
X232205Y756859D02*
X230370Y760600D01*
X230285Y760713D01*
X230186Y760813D01*
X230076Y760900D01*
X229956Y760971D01*
X229827Y761028D01*
X229691Y761067D01*
X229513Y761092D01*
X229464Y761094D01*
X229322Y761087D01*
X229194Y761064D01*
X229071Y761026D01*
X228954Y760975D01*
X228843Y760910D01*
X228740Y760833D01*
X228647Y760743D01*
X227499Y759174D01*
X227420Y759020D01*
X227367Y758856D01*
X227340Y758685D01*
X227337Y756859D01*
X226593Y756859D01*
X226593Y766109D01*
X227337Y766109D01*
X227354Y763309D01*
X227405Y763017D01*
X227487Y762761D01*
X227598Y762540D01*
X227733Y762355D01*
X227809Y762277D01*
X227889Y762207D01*
X227974Y762146D01*
X228063Y762094D01*
X228155Y762051D01*
X228251Y762017D01*
X228349Y761992D01*
X228450Y761977D01*
X228552Y761970D01*
X228761Y761985D01*
X228972Y762037D01*
X229182Y762125D01*
X229387Y762251D01*
X229584Y762414D01*
X229770Y762615D01*
X232153Y766109D01*
X232739Y766109D01*
X230574Y762973D01*
X230516Y762838D01*
X230476Y762698D01*
X230456Y762554D01*
X230455Y762409D01*
X230473Y762264D01*
X230511Y762122D01*
X233121Y756859D01*
X232205Y756859D01*
X197113Y756859D02*
X197113Y766109D01*
X197890Y766109D01*
X197896Y758246D01*
X197912Y758137D01*
X197940Y758032D01*
X197977Y757930D01*
X198023Y757834D01*
X198078Y757743D01*
X198141Y757659D01*
X198212Y757581D01*
X198291Y757510D01*
X198375Y757446D01*
X198466Y757391D01*
X198562Y757345D01*
X198663Y757308D01*
X198769Y757281D01*
X198878Y757264D01*
X202455Y757258D01*
X202455Y756859D01*
X197113Y756859D01*
X208651Y750001D02*
X181381Y750001D01*
X231797Y749863D02*
X258735Y749863D01*
X208651Y752557D02*
X208651Y747121D01*
X212913Y747121D02*
X212913Y752557D01*
X217174Y752557D02*
X217174Y747121D01*
X221436Y747121D02*
X221436Y752557D01*
X225698Y752557D02*
X225698Y750882D01*
X225698Y748962D01*
X225698Y747121D01*
X225698Y750882D02*
X231784Y750882D01*
X231784Y748962D02*
X225698Y748962D01*
D15*
X410000Y540000D03*
X530000Y540000D03*
X500000Y540000D03*
X310000Y840000D03*
X350000Y840000D03*
X390000Y840000D03*
X440000Y540000D03*
X270000Y840000D03*
D16*
X444000Y793000D03*
X341200Y666800D03*
X389100Y750200D03*
X491900Y750300D03*
M02*
