G04 EAGLE Gerber RS-274X export*
G75*
%MOMM*%
%FSLAX34Y34*%
%LPD*%
%INSolderpaste Bottom*%
%IPPOS*%
%AMOC8*
5,1,8,0,0,1.08239X$1,22.5*%
G01*
G04 Define Apertures*
%ADD10R,1.400000X1.600000*%
%ADD11R,1.600000X1.400000*%
%ADD12R,1.500000X3.000000*%
D10*
X165000Y193900D03*
X189000Y193900D03*
X357900Y667000D03*
X381900Y667000D03*
D11*
G36*
X442846Y235172D02*
X450846Y249028D01*
X462970Y242028D01*
X454970Y228172D01*
X442846Y235172D01*
G37*
G36*
X463630Y223172D02*
X471630Y237028D01*
X483754Y230028D01*
X475754Y216172D01*
X463630Y223172D01*
G37*
G36*
X462122Y624709D02*
X450809Y636022D01*
X460708Y645921D01*
X472021Y634608D01*
X462122Y624709D01*
G37*
G36*
X479092Y641679D02*
X467779Y652992D01*
X477678Y662891D01*
X488991Y651578D01*
X479092Y641679D01*
G37*
X116200Y828400D03*
X116200Y852400D03*
G36*
X334277Y947191D02*
X338419Y962645D01*
X351941Y959021D01*
X347799Y943567D01*
X334277Y947191D01*
G37*
G36*
X357459Y940979D02*
X361601Y956433D01*
X375123Y952809D01*
X370981Y937355D01*
X357459Y940979D01*
G37*
G36*
X391389Y1001978D02*
X387247Y986524D01*
X373725Y990148D01*
X377867Y1005602D01*
X391389Y1001978D01*
G37*
G36*
X368207Y1008190D02*
X364065Y992736D01*
X350543Y996360D01*
X354685Y1011814D01*
X368207Y1008190D01*
G37*
D12*
X454450Y772500D03*
X429050Y772500D03*
X403650Y772500D03*
X378250Y772500D03*
X441750Y727500D03*
X416350Y727500D03*
X390950Y727500D03*
X365550Y727500D03*
M02*
