M48
;GenerationSoftware,Autodesk,EAGLE,9.7.0*%
;CreationDate,2021-04-03T16:21:06Z*%
FMAT,2
ICI,OFF
METRIC,TZ,000.000
T3C0.350
T2C0.900
T1C3.500
%
G90
M71
T1
X29708Y12544
X53198Y44878
X29701Y77214
T2
X27000Y84000
X11730Y70785
X44000Y54000
X50200Y68380
X10889Y19377
X10231Y16923
X7485Y5750
X6215Y7950
X42870Y27775
X40670Y29045
X52235Y22590
X50965Y20390
X41165Y62500
X42435Y60300
X39000Y84000
X52740Y68380
X35000Y84000
X9530Y72055
X6820Y81680
X6820Y84220
X36773Y103299
X39227Y102641
X33063Y91769
X35517Y91111
X41000Y54000
X53000Y54000
X50000Y54000
X31000Y84000
T3
X38910Y75020
X49190Y75030
X34120Y66680
X44400Y79300
M30