M48
;GenerationSoftware,Autodesk,EAGLE,9.7.0*%
;CreationDate,2021-02-14T16:33:25Z*%
FMAT,2
ICI,OFF
METRIC,TZ,000.000
T5C0.350
T4C0.900
T3C1.000
T2C3.000
T1C3.400
%
G90
M71
T1
X64000Y19000
X4000Y19000
X64000Y39000
X4000Y39000
T2
X28490Y39110
X39290Y39110
T3
X33890Y31610
X31390Y46110
X36390Y46110
X31390Y31610
X36390Y31610
T4
X37000Y7000
X25445Y22850
X51905Y36924
X49365Y36924
X50635Y47084
X48095Y47084
X2730Y4000
X5270Y4000
X22730Y4000
X25270Y4000
X42730Y4000
X45270Y4000
X62730Y4000
X65270Y4000
X26715Y12690
X29255Y12690
X31795Y12690
X34335Y12690
X36875Y12690
X39415Y12690
X41955Y12690
X40685Y22850
X38145Y22850
X35605Y22850
X33065Y22850
X30525Y22850
X27985Y22850
T5
X57000Y20300
X45000Y28300
X58000Y28000
X12000Y29000
X21000Y29000
X10900Y37000
X50700Y28300
X12000Y33000
X15000Y37000
X22100Y37000
X18000Y37000
X47800Y18000
X54600Y28950
X47211Y34770
X44400Y31700
X45000Y24600
X49400Y24600
X36900Y24600
X48100Y33400
X59306Y31000
X28600Y8000
X34400Y8000
X33000Y6000
X58300Y10075
X49365Y12690
X54600Y20800
X46100Y20800
X51900Y24500
M30