G04 EAGLE Gerber RS-274X export*
G75*
%MOMM*%
%FSLAX34Y34*%
%LPD*%
%INTop Copper*%
%IPPOS*%
%AMOC8*
5,1,8,0,0,1.08239X$1,22.5*%
G01*
G04 Define Apertures*
%ADD10C,1.800000*%
%ADD11C,4.500000*%
%ADD12R,1.400000X1.600000*%
%ADD13R,1.000000X1.400000*%
%ADD14R,1.600000X1.400000*%
%ADD15R,1.500000X3.000000*%
%ADD16C,1.600000*%
%ADD17R,1.600000X1.600000*%
%ADD18R,1.200000X0.600000*%
%ADD19R,0.700000X2.200000*%
%ADD20R,0.914400X1.778000*%
%ADD21C,0.254000*%
%ADD22C,0.220000*%
%ADD23C,0.200000*%
%ADD24C,0.500000*%
%ADD25C,0.800000*%
%ADD26C,0.650000*%
D10*
X363900Y316100D03*
X338900Y316100D03*
X313900Y316100D03*
X363900Y461100D03*
X313900Y461100D03*
D11*
X392900Y391100D03*
X284900Y391100D03*
D12*
X119250Y350000D03*
X140750Y350000D03*
X210750Y350000D03*
X189250Y350000D03*
D13*
X140000Y310000D03*
X120000Y310000D03*
X190000Y310000D03*
X210000Y310000D03*
D12*
X119250Y390000D03*
X140750Y390000D03*
X210750Y390000D03*
X189250Y390000D03*
D14*
X166000Y451750D03*
X166000Y430250D03*
D15*
X330650Y200200D03*
X305250Y200200D03*
X279850Y200200D03*
X254450Y200200D03*
X356050Y200200D03*
X381450Y200200D03*
X406850Y200200D03*
X267150Y155200D03*
X292550Y155200D03*
X317950Y155200D03*
X343350Y155200D03*
X368750Y155200D03*
X394150Y155200D03*
X419550Y155200D03*
D16*
X254450Y228500D03*
X279850Y228500D03*
X305250Y228500D03*
X330650Y228500D03*
X356050Y228500D03*
X381450Y228500D03*
X406850Y228500D03*
X419550Y126900D03*
X394150Y126900D03*
X368750Y126900D03*
X343350Y126900D03*
X317950Y126900D03*
X292550Y126900D03*
X267150Y126900D03*
D17*
X652700Y40000D03*
D16*
X627300Y40000D03*
D17*
X452700Y40000D03*
D16*
X427300Y40000D03*
D17*
X252700Y40000D03*
D16*
X227300Y40000D03*
D17*
X52700Y40000D03*
D16*
X27300Y40000D03*
D14*
X630000Y79250D03*
X630000Y100750D03*
X470000Y79250D03*
X470000Y100750D03*
X260000Y79250D03*
X260000Y100750D03*
X60000Y79250D03*
X60000Y100750D03*
D18*
X593060Y289500D03*
X593060Y270500D03*
X566940Y289500D03*
X566940Y280000D03*
X566940Y270500D03*
D14*
X570000Y219250D03*
X570000Y240750D03*
D19*
X480950Y265296D03*
X493650Y265296D03*
X506350Y265296D03*
X519050Y265296D03*
X519050Y314704D03*
X506350Y314704D03*
X493650Y314704D03*
X480950Y314704D03*
D20*
X506350Y180000D03*
X493650Y180000D03*
X506350Y150000D03*
X493650Y150000D03*
D21*
X506350Y150000D01*
D12*
X428750Y300000D03*
X407250Y300000D03*
X428750Y258000D03*
X407250Y258000D03*
D14*
X576000Y421750D03*
X576000Y400250D03*
D12*
X547250Y339000D03*
X568750Y339000D03*
D15*
X480950Y442540D03*
X506350Y442540D03*
X493650Y397540D03*
X519050Y397540D03*
D16*
X480950Y470840D03*
X506350Y470840D03*
X493650Y369240D03*
X519050Y369240D03*
D22*
X170869Y183041D02*
X169936Y183117D01*
X169515Y183211D01*
X169126Y183343D01*
X168767Y183513D01*
X168439Y183721D01*
X168142Y183965D01*
X167876Y184248D01*
X167642Y184567D01*
X167438Y184924D01*
X167266Y185319D01*
X167014Y186219D01*
X166889Y187267D01*
X166910Y188644D01*
X167014Y189350D01*
X167178Y189969D01*
X167393Y190508D01*
X167653Y190971D01*
X167948Y191365D01*
X168270Y191695D01*
X168612Y191966D01*
X168966Y192185D01*
X169323Y192356D01*
X170017Y192579D01*
X170628Y192681D01*
X171093Y192705D01*
X171553Y192685D01*
X171984Y192626D01*
X172387Y192529D01*
X172762Y192392D01*
X173108Y192218D01*
X173425Y192006D01*
X173713Y191755D01*
X173971Y191468D01*
X174200Y191143D01*
X174399Y190781D01*
X174568Y190382D01*
X174815Y189475D01*
X174940Y188425D01*
X174946Y187432D01*
X174867Y186589D01*
X174688Y185761D01*
X174553Y185363D01*
X174384Y184982D01*
X174178Y184622D01*
X173933Y184288D01*
X173646Y183983D01*
X173313Y183714D01*
X172932Y183484D01*
X172500Y183297D01*
X172014Y183158D01*
X171472Y183071D01*
X170869Y183041D01*
X170560Y192423D02*
X170921Y192443D01*
X170560Y192423D02*
X170217Y192364D01*
X169893Y192266D01*
X169588Y192132D01*
X169304Y191961D01*
X169041Y191754D01*
X168799Y191514D01*
X168580Y191240D01*
X168385Y190934D01*
X168213Y190596D01*
X167943Y189831D01*
X167777Y188952D01*
X167721Y187968D01*
X167821Y186553D01*
X167938Y185966D01*
X168093Y185453D01*
X168281Y185009D01*
X168496Y184629D01*
X168733Y184308D01*
X168987Y184042D01*
X169252Y183825D01*
X169524Y183653D01*
X169797Y183520D01*
X170065Y183423D01*
X170568Y183314D01*
X170990Y183286D01*
X171397Y183312D01*
X171882Y183418D01*
X172140Y183512D01*
X172403Y183639D01*
X172664Y183805D01*
X172920Y184014D01*
X173164Y184271D01*
X173392Y184580D01*
X173599Y184946D01*
X173780Y185373D01*
X173929Y185868D01*
X174114Y187074D01*
X174124Y188320D01*
X174012Y189289D01*
X173792Y190143D01*
X173644Y190525D01*
X173471Y190876D01*
X173274Y191194D01*
X173054Y191478D01*
X172811Y191728D01*
X172547Y191942D01*
X172261Y192120D01*
X171955Y192259D01*
X171629Y192361D01*
X171284Y192422D01*
X170921Y192443D01*
X151360Y183041D02*
X150589Y183091D01*
X149834Y183224D01*
X148507Y183640D01*
X148673Y184044D01*
X150051Y183589D01*
X150738Y183455D01*
X151377Y183406D01*
X151681Y183419D01*
X151960Y183455D01*
X152215Y183513D01*
X152447Y183591D01*
X152656Y183688D01*
X152843Y183803D01*
X153008Y183932D01*
X153154Y184075D01*
X153279Y184230D01*
X153386Y184395D01*
X153474Y184568D01*
X153544Y184748D01*
X153635Y185123D01*
X153665Y185504D01*
X153647Y185783D01*
X153597Y186037D01*
X153518Y186268D01*
X153411Y186477D01*
X153281Y186666D01*
X153130Y186835D01*
X152961Y186988D01*
X152583Y187245D01*
X152169Y187450D01*
X150305Y188088D01*
X149841Y188299D01*
X149449Y188538D01*
X149281Y188671D01*
X149132Y188814D01*
X149002Y188969D01*
X148892Y189136D01*
X148801Y189318D01*
X148730Y189514D01*
X148679Y189727D01*
X148648Y189958D01*
X148638Y190207D01*
X148665Y190617D01*
X148740Y190980D01*
X148859Y191298D01*
X149016Y191575D01*
X149204Y191814D01*
X149418Y192016D01*
X149653Y192186D01*
X149901Y192325D01*
X150418Y192526D01*
X150921Y192640D01*
X151704Y192705D01*
X152390Y192651D01*
X153074Y192497D01*
X153737Y192249D01*
X154360Y191916D01*
X154136Y191631D01*
X153480Y191978D01*
X152855Y192226D01*
X152263Y192376D01*
X151704Y192425D01*
X151247Y192387D01*
X151032Y192340D01*
X150829Y192276D01*
X150636Y192196D01*
X150456Y192099D01*
X150289Y191987D01*
X150137Y191862D01*
X149998Y191722D01*
X149876Y191570D01*
X149770Y191406D01*
X149682Y191230D01*
X149612Y191044D01*
X149560Y190848D01*
X149529Y190644D01*
X149518Y190431D01*
X149535Y190156D01*
X149583Y189906D01*
X149660Y189677D01*
X149764Y189468D01*
X149892Y189279D01*
X150040Y189108D01*
X150208Y188953D01*
X150590Y188686D01*
X151016Y188467D01*
X153000Y187751D01*
X153470Y187534D01*
X153859Y187291D01*
X154023Y187158D01*
X154168Y187014D01*
X154293Y186859D01*
X154398Y186691D01*
X154484Y186508D01*
X154551Y186310D01*
X154598Y186095D01*
X154636Y185608D01*
X154610Y185197D01*
X154536Y184832D01*
X154418Y184510D01*
X154263Y184229D01*
X154075Y183986D01*
X153859Y183777D01*
X153622Y183602D01*
X153367Y183456D01*
X152829Y183242D01*
X152287Y183116D01*
X151360Y183041D01*
X136964Y183041D02*
X136194Y183091D01*
X135439Y183224D01*
X134112Y183642D01*
X134277Y184044D01*
X135656Y183589D01*
X136343Y183455D01*
X136982Y183406D01*
X137286Y183419D01*
X137565Y183455D01*
X137820Y183513D01*
X138052Y183591D01*
X138261Y183688D01*
X138448Y183803D01*
X138614Y183932D01*
X138759Y184075D01*
X138885Y184230D01*
X138992Y184395D01*
X139080Y184568D01*
X139151Y184748D01*
X139242Y185123D01*
X139271Y185504D01*
X139254Y185783D01*
X139204Y186037D01*
X139124Y186268D01*
X139017Y186477D01*
X138887Y186666D01*
X138736Y186835D01*
X138567Y186988D01*
X138188Y187245D01*
X137774Y187450D01*
X135910Y188088D01*
X135445Y188299D01*
X135054Y188538D01*
X134886Y188671D01*
X134737Y188814D01*
X134607Y188969D01*
X134497Y189136D01*
X134406Y189318D01*
X134335Y189514D01*
X134284Y189727D01*
X134253Y189958D01*
X134243Y190207D01*
X134269Y190617D01*
X134345Y190980D01*
X134464Y191298D01*
X134621Y191575D01*
X134809Y191814D01*
X135023Y192016D01*
X135257Y192186D01*
X135506Y192325D01*
X136022Y192526D01*
X136526Y192640D01*
X137309Y192705D01*
X137994Y192652D01*
X138678Y192497D01*
X139342Y192250D01*
X139965Y191916D01*
X139739Y191631D01*
X139083Y191978D01*
X138458Y192226D01*
X137866Y192376D01*
X137309Y192425D01*
X136851Y192387D01*
X136637Y192340D01*
X136433Y192276D01*
X136241Y192196D01*
X136061Y192099D01*
X135894Y191987D01*
X135741Y191862D01*
X135603Y191722D01*
X135481Y191570D01*
X135375Y191406D01*
X135287Y191230D01*
X135216Y191044D01*
X135165Y190848D01*
X135134Y190644D01*
X135123Y190431D01*
X135140Y190156D01*
X135188Y189906D01*
X135265Y189677D01*
X135369Y189468D01*
X135496Y189279D01*
X135645Y189108D01*
X135813Y188953D01*
X136194Y188686D01*
X136620Y188467D01*
X138604Y187751D01*
X139073Y187534D01*
X139461Y187291D01*
X139626Y187158D01*
X139770Y187014D01*
X139895Y186859D01*
X140000Y186691D01*
X140086Y186508D01*
X140152Y186310D01*
X140200Y186095D01*
X140237Y185608D01*
X140211Y185197D01*
X140137Y184832D01*
X140020Y184510D01*
X139864Y184229D01*
X139676Y183986D01*
X139461Y183777D01*
X139224Y183602D01*
X138970Y183456D01*
X138432Y183242D01*
X137891Y183116D01*
X136964Y183041D01*
X183107Y186605D02*
X184608Y183248D01*
X183107Y186605D02*
X182871Y186908D01*
X182746Y187032D01*
X182485Y187230D01*
X182219Y187370D01*
X181958Y187461D01*
X181712Y187512D01*
X180469Y187529D01*
X180360Y187513D01*
X180254Y187486D01*
X180154Y187449D01*
X180057Y187402D01*
X179967Y187347D01*
X179882Y187284D01*
X179804Y187213D01*
X179733Y187135D01*
X179670Y187050D01*
X179615Y186959D01*
X179569Y186863D01*
X179532Y186762D01*
X179504Y186656D01*
X179488Y186547D01*
X179482Y183248D01*
X178717Y183248D01*
X178717Y192498D01*
X182742Y192448D01*
X183533Y192308D01*
X183850Y192208D01*
X184120Y192091D01*
X184346Y191959D01*
X184533Y191812D01*
X184684Y191653D01*
X184802Y191484D01*
X184892Y191306D01*
X184958Y191121D01*
X185002Y190930D01*
X185042Y190541D01*
X185039Y190163D01*
X184987Y189823D01*
X184889Y189516D01*
X184753Y189241D01*
X184588Y188999D01*
X184399Y188790D01*
X184196Y188615D01*
X183984Y188474D01*
X183810Y188380D01*
X183684Y188293D01*
X183573Y188191D01*
X183477Y188074D01*
X183398Y187947D01*
X183337Y187809D01*
X183296Y187663D01*
X183274Y187511D01*
X183274Y187356D01*
X183296Y187204D01*
X183337Y187058D01*
X183398Y186920D01*
X183477Y186793D01*
X183573Y186677D01*
X183684Y186574D01*
X183810Y186487D01*
X183884Y186446D01*
X183902Y186433D01*
X183955Y186380D01*
X184022Y186288D01*
X185370Y183248D01*
X184608Y183248D01*
X180581Y192391D02*
X180469Y192385D01*
X180360Y192369D01*
X180254Y192342D01*
X180154Y192305D01*
X180057Y192258D01*
X179967Y192203D01*
X179882Y192140D01*
X179804Y192069D01*
X179733Y191991D01*
X179670Y191906D01*
X179615Y191815D01*
X179569Y191719D01*
X179532Y191618D01*
X179504Y191512D01*
X179488Y191403D01*
X179488Y188596D01*
X179504Y188486D01*
X179532Y188381D01*
X179569Y188280D01*
X179615Y188183D01*
X179670Y188093D01*
X179733Y188008D01*
X179804Y187930D01*
X179882Y187859D01*
X179967Y187795D01*
X180057Y187740D01*
X180154Y187694D01*
X180254Y187657D01*
X180360Y187630D01*
X180469Y187613D01*
X181980Y187619D01*
X182247Y187653D01*
X182499Y187708D01*
X182737Y187784D01*
X182959Y187881D01*
X183166Y187998D01*
X183356Y188133D01*
X183529Y188287D01*
X183684Y188459D01*
X183820Y188648D01*
X183937Y188853D01*
X184034Y189074D01*
X184111Y189310D01*
X184167Y189561D01*
X184212Y190103D01*
X184187Y190501D01*
X184103Y190901D01*
X184033Y191097D01*
X183943Y191286D01*
X183830Y191467D01*
X183692Y191639D01*
X183528Y191798D01*
X183335Y191942D01*
X183113Y192071D01*
X182858Y192180D01*
X182568Y192269D01*
X182243Y192336D01*
X180581Y192391D01*
X160511Y191127D02*
X160517Y183248D01*
X160511Y191127D02*
X160494Y191237D01*
X160467Y191342D01*
X160430Y191443D01*
X160384Y191539D01*
X160329Y191630D01*
X160266Y191715D01*
X160195Y191793D01*
X160117Y191864D01*
X160032Y191927D01*
X159941Y191983D01*
X159845Y192029D01*
X159744Y192066D01*
X159639Y192093D01*
X159530Y192110D01*
X157468Y192115D01*
X157468Y192498D01*
X164434Y192498D01*
X164434Y192115D01*
X162251Y192110D01*
X162142Y192093D01*
X162037Y192066D01*
X161936Y192029D01*
X161840Y191983D01*
X161749Y191927D01*
X161665Y191864D01*
X161587Y191793D01*
X161516Y191715D01*
X161452Y191630D01*
X161397Y191539D01*
X161351Y191443D01*
X161314Y191342D01*
X161287Y191237D01*
X161270Y191127D01*
X161264Y183248D01*
X160517Y183248D01*
X144006Y183248D02*
X144006Y192498D01*
X144766Y192498D01*
X144766Y183248D01*
X144006Y183248D01*
X125477Y183248D02*
X125477Y192498D01*
X130767Y192498D01*
X130767Y192115D01*
X127226Y192110D01*
X127117Y192093D01*
X127011Y192066D01*
X126910Y192029D01*
X126814Y191983D01*
X126723Y191927D01*
X126639Y191864D01*
X126560Y191793D01*
X126489Y191715D01*
X126426Y191630D01*
X126371Y191539D01*
X126325Y191443D01*
X126288Y191342D01*
X126260Y191237D01*
X126244Y191127D01*
X126244Y189164D01*
X126260Y189055D01*
X126288Y188949D01*
X126325Y188848D01*
X126371Y188752D01*
X126426Y188661D01*
X126489Y188576D01*
X126560Y188498D01*
X126639Y188427D01*
X126723Y188364D01*
X126814Y188309D01*
X126910Y188262D01*
X127011Y188225D01*
X127117Y188198D01*
X127226Y188182D01*
X130129Y188176D01*
X130129Y187794D01*
X127226Y187788D01*
X127117Y187771D01*
X127011Y187744D01*
X126910Y187707D01*
X126814Y187661D01*
X126723Y187606D01*
X126639Y187542D01*
X126560Y187471D01*
X126489Y187393D01*
X126426Y187308D01*
X126371Y187218D01*
X126325Y187121D01*
X126288Y187020D01*
X126260Y186915D01*
X126244Y186805D01*
X126244Y184617D01*
X126260Y184507D01*
X126288Y184402D01*
X126325Y184301D01*
X126371Y184204D01*
X126426Y184114D01*
X126489Y184029D01*
X126560Y183951D01*
X126639Y183880D01*
X126723Y183816D01*
X126814Y183761D01*
X126910Y183715D01*
X127011Y183678D01*
X127117Y183651D01*
X127226Y183634D01*
X130887Y183628D01*
X130887Y183248D01*
X125477Y183248D01*
X120895Y183248D02*
X119393Y186605D01*
X119158Y186908D01*
X118903Y187139D01*
X118638Y187307D01*
X118374Y187421D01*
X118120Y187491D01*
X117885Y187526D01*
X116757Y187529D01*
X116647Y187513D01*
X116542Y187486D01*
X116441Y187449D01*
X116344Y187402D01*
X116254Y187347D01*
X116169Y187284D01*
X116091Y187213D01*
X116020Y187135D01*
X115956Y187050D01*
X115901Y186959D01*
X115855Y186863D01*
X115818Y186762D01*
X115791Y186656D01*
X115774Y186547D01*
X115768Y183248D01*
X115007Y183248D01*
X115007Y192498D01*
X119030Y192448D01*
X119820Y192308D01*
X120137Y192208D01*
X120406Y192091D01*
X120632Y191959D01*
X120819Y191812D01*
X120969Y191653D01*
X121088Y191484D01*
X121177Y191306D01*
X121243Y191121D01*
X121287Y190930D01*
X121327Y190541D01*
X121324Y190163D01*
X121271Y189823D01*
X121174Y189516D01*
X121039Y189241D01*
X120873Y188999D01*
X120685Y188790D01*
X120482Y188615D01*
X120271Y188474D01*
X120096Y188380D01*
X119970Y188293D01*
X119859Y188191D01*
X119763Y188074D01*
X119683Y187947D01*
X119622Y187809D01*
X119581Y187663D01*
X119559Y187511D01*
X119559Y187356D01*
X119581Y187204D01*
X119622Y187058D01*
X119683Y186920D01*
X119763Y186793D01*
X119859Y186677D01*
X119970Y186574D01*
X120096Y186487D01*
X120170Y186446D01*
X120188Y186433D01*
X120241Y186380D01*
X120309Y186288D01*
X120382Y186155D01*
X121660Y183248D01*
X120895Y183248D01*
X116869Y192391D02*
X116757Y192385D01*
X116647Y192369D01*
X116542Y192342D01*
X116441Y192305D01*
X116344Y192258D01*
X116254Y192203D01*
X116169Y192140D01*
X116091Y192069D01*
X116020Y191991D01*
X115956Y191906D01*
X115901Y191815D01*
X115855Y191719D01*
X115818Y191618D01*
X115791Y191512D01*
X115774Y191403D01*
X115774Y188596D01*
X115791Y188486D01*
X115818Y188381D01*
X115855Y188280D01*
X115901Y188183D01*
X115956Y188093D01*
X116020Y188008D01*
X116091Y187930D01*
X116169Y187859D01*
X116254Y187795D01*
X116344Y187740D01*
X116441Y187694D01*
X116542Y187657D01*
X116647Y187630D01*
X116757Y187613D01*
X118268Y187619D01*
X118534Y187653D01*
X118787Y187708D01*
X119024Y187784D01*
X119247Y187881D01*
X119453Y187998D01*
X119643Y188133D01*
X119816Y188287D01*
X119971Y188459D01*
X120108Y188648D01*
X120225Y188853D01*
X120322Y189074D01*
X120399Y189310D01*
X120455Y189561D01*
X120500Y190103D01*
X120475Y190501D01*
X120391Y190901D01*
X120321Y191097D01*
X120231Y191286D01*
X120118Y191467D01*
X119980Y191639D01*
X119816Y191798D01*
X119624Y191942D01*
X119401Y192071D01*
X119146Y192180D01*
X118857Y192269D01*
X118531Y192336D01*
X116869Y192391D01*
X155698Y202557D02*
X161784Y202557D01*
X161784Y200882D01*
X161784Y198962D01*
X161784Y197121D01*
X155698Y197121D01*
X150206Y206652D02*
X149586Y206681D01*
X149028Y206767D01*
X148528Y206904D01*
X148083Y207088D01*
X147691Y207315D01*
X147349Y207581D01*
X147053Y207880D01*
X146801Y208210D01*
X146590Y208564D01*
X146416Y208940D01*
X146171Y209737D01*
X146041Y210565D01*
X146003Y211389D01*
X146037Y212177D01*
X146134Y212878D01*
X146288Y213495D01*
X146491Y214035D01*
X146738Y214502D01*
X147020Y214902D01*
X147330Y215240D01*
X147663Y215520D01*
X148011Y215748D01*
X148368Y215929D01*
X148725Y216069D01*
X149417Y216242D01*
X150031Y216309D01*
X150478Y216311D01*
X150842Y216278D01*
X151191Y216212D01*
X151527Y216112D01*
X151849Y215980D01*
X152157Y215815D01*
X152451Y215616D01*
X152865Y215258D01*
X152517Y215008D01*
X151965Y215467D01*
X151680Y215647D01*
X151389Y215794D01*
X151091Y215908D01*
X150786Y215989D01*
X150474Y216037D01*
X150154Y216054D01*
X149854Y216040D01*
X149554Y215996D01*
X149256Y215923D01*
X148964Y215817D01*
X148680Y215679D01*
X148407Y215506D01*
X148147Y215296D01*
X147903Y215050D01*
X147678Y214764D01*
X147474Y214438D01*
X147295Y214071D01*
X147142Y213661D01*
X146927Y212705D01*
X146850Y211561D01*
X146880Y210793D01*
X146967Y210113D01*
X147104Y209516D01*
X147283Y208997D01*
X147498Y208550D01*
X147744Y208171D01*
X148012Y207853D01*
X148297Y207591D01*
X148591Y207380D01*
X148888Y207215D01*
X149182Y207090D01*
X149731Y206939D01*
X150186Y206884D01*
X150785Y206903D01*
X151344Y207011D01*
X151896Y207205D01*
X152579Y207572D01*
X152734Y207372D01*
X152153Y207047D01*
X151549Y206823D01*
X150906Y206693D01*
X150206Y206652D01*
X138876Y206652D02*
X137917Y206705D01*
X137149Y206860D01*
X136830Y206973D01*
X136552Y207109D01*
X136312Y207268D01*
X136108Y207447D01*
X135937Y207647D01*
X135797Y207866D01*
X135685Y208104D01*
X135599Y208360D01*
X135495Y208922D01*
X135464Y216109D01*
X136225Y216109D01*
X136273Y209094D01*
X136331Y208807D01*
X136411Y208539D01*
X136513Y208290D01*
X136637Y208059D01*
X136782Y207849D01*
X136947Y207658D01*
X137132Y207487D01*
X137337Y207338D01*
X137560Y207211D01*
X137802Y207105D01*
X138062Y207022D01*
X138340Y206962D01*
X138945Y206914D01*
X139234Y206926D01*
X139510Y206964D01*
X139773Y207025D01*
X140021Y207110D01*
X140253Y207217D01*
X140470Y207345D01*
X140670Y207494D01*
X140852Y207663D01*
X141015Y207851D01*
X141160Y208057D01*
X141284Y208281D01*
X141388Y208521D01*
X141469Y208777D01*
X141529Y209048D01*
X141577Y216109D01*
X142339Y216109D01*
X142309Y208855D01*
X142223Y208472D01*
X142089Y208136D01*
X141912Y207844D01*
X141699Y207592D01*
X141458Y207379D01*
X141193Y207200D01*
X140912Y207052D01*
X140329Y206841D01*
X139760Y206720D01*
X138876Y206652D01*
X169471Y206859D02*
X169463Y210281D01*
X169440Y210411D01*
X169401Y210538D01*
X166491Y216109D01*
X167231Y216109D01*
X168990Y212465D01*
X169085Y212343D01*
X169195Y212236D01*
X169318Y212146D01*
X169453Y212073D01*
X169597Y212020D01*
X169748Y211988D01*
X169905Y211976D01*
X170062Y211987D01*
X170219Y212019D01*
X170371Y212070D01*
X170517Y212140D01*
X170651Y212227D01*
X170771Y212330D01*
X170874Y212449D01*
X172737Y216109D01*
X173291Y216109D01*
X170292Y210567D01*
X170251Y210436D01*
X170227Y210302D01*
X170218Y206859D01*
X169471Y206859D01*
X162205Y206859D02*
X160370Y210600D01*
X160285Y210713D01*
X160186Y210813D01*
X160076Y210900D01*
X159956Y210971D01*
X159827Y211028D01*
X159691Y211067D01*
X159513Y211092D01*
X159464Y211094D01*
X159322Y211087D01*
X159194Y211064D01*
X159071Y211026D01*
X158954Y210975D01*
X158843Y210910D01*
X158740Y210833D01*
X158647Y210743D01*
X157499Y209174D01*
X157420Y209020D01*
X157367Y208856D01*
X157340Y208685D01*
X157337Y206859D01*
X156593Y206859D01*
X156593Y216109D01*
X157337Y216109D01*
X157354Y213309D01*
X157405Y213017D01*
X157487Y212761D01*
X157598Y212540D01*
X157733Y212355D01*
X157809Y212277D01*
X157889Y212207D01*
X157974Y212146D01*
X158063Y212094D01*
X158155Y212051D01*
X158251Y212017D01*
X158349Y211992D01*
X158450Y211977D01*
X158552Y211970D01*
X158761Y211985D01*
X158972Y212037D01*
X159182Y212125D01*
X159387Y212251D01*
X159584Y212414D01*
X159770Y212615D01*
X162153Y216109D01*
X162739Y216109D01*
X160574Y212973D01*
X160516Y212838D01*
X160476Y212698D01*
X160456Y212554D01*
X160455Y212409D01*
X160473Y212264D01*
X160511Y212122D01*
X163121Y206859D01*
X162205Y206859D01*
X127113Y206859D02*
X127113Y216109D01*
X127890Y216109D01*
X127896Y208246D01*
X127912Y208137D01*
X127940Y208032D01*
X127977Y207930D01*
X128023Y207834D01*
X128078Y207743D01*
X128141Y207659D01*
X128212Y207581D01*
X128291Y207510D01*
X128375Y207446D01*
X128466Y207391D01*
X128562Y207345D01*
X128663Y207308D01*
X128769Y207281D01*
X128878Y207264D01*
X132455Y207258D01*
X132455Y206859D01*
X127113Y206859D01*
X138651Y200001D02*
X111381Y200001D01*
X161797Y199863D02*
X188735Y199863D01*
X138651Y202557D02*
X138651Y197121D01*
X142913Y197121D02*
X142913Y202557D01*
X147174Y202557D02*
X147174Y197121D01*
X151436Y197121D02*
X151436Y202557D01*
X155698Y202557D02*
X155698Y200882D01*
X155698Y198962D01*
X155698Y197121D01*
X155698Y200882D02*
X161784Y200882D01*
X161784Y198962D02*
X155698Y198962D01*
D10*
X370000Y70000D03*
D23*
X254450Y200200D02*
X254450Y228500D01*
D24*
X480950Y442540D02*
X480950Y470840D01*
D23*
X519050Y265296D02*
X519050Y245000D01*
X519000Y245000D01*
D25*
X519000Y245000D03*
D23*
X570000Y219250D02*
X570000Y203000D01*
D25*
X570000Y203000D03*
D24*
X566940Y280000D02*
X580000Y280000D01*
D25*
X580000Y280000D03*
D23*
X120000Y290000D02*
X120000Y310000D01*
D26*
X120000Y290000D03*
D23*
X210000Y290000D02*
X210000Y310000D01*
D26*
X210000Y290000D03*
D23*
X119250Y350000D02*
X119250Y370000D01*
X119250Y390000D01*
D26*
X109000Y370000D03*
D23*
X119250Y370000D01*
D26*
X120000Y330000D03*
D23*
X119250Y330000D01*
X119250Y350000D01*
X292550Y155200D02*
X292550Y126900D01*
X140750Y310000D02*
X140750Y350000D01*
X140750Y310000D02*
X140000Y310000D01*
D26*
X150000Y370000D03*
D23*
X140750Y360750D02*
X140750Y350000D01*
X140750Y360750D02*
X140753Y360974D01*
X140761Y361197D01*
X140774Y361420D01*
X140793Y361643D01*
X140817Y361865D01*
X140847Y362087D01*
X140882Y362307D01*
X140922Y362527D01*
X140968Y362746D01*
X141019Y362964D01*
X141075Y363180D01*
X141136Y363395D01*
X141203Y363608D01*
X141274Y363820D01*
X141351Y364030D01*
X141433Y364238D01*
X141520Y364444D01*
X141611Y364648D01*
X141708Y364850D01*
X141810Y365049D01*
X141916Y365245D01*
X142027Y365439D01*
X142142Y365631D01*
X142263Y365819D01*
X142387Y366005D01*
X142517Y366187D01*
X142650Y366366D01*
X142788Y366542D01*
X142930Y366715D01*
X143076Y366884D01*
X143227Y367049D01*
X143381Y367211D01*
X143539Y367369D01*
X143701Y367523D01*
X143866Y367674D01*
X144035Y367820D01*
X144208Y367962D01*
X144384Y368100D01*
X144563Y368233D01*
X144745Y368363D01*
X144931Y368487D01*
X145119Y368608D01*
X145311Y368723D01*
X145505Y368834D01*
X145701Y368940D01*
X145900Y369042D01*
X146102Y369139D01*
X146306Y369230D01*
X146512Y369317D01*
X146720Y369399D01*
X146930Y369476D01*
X147142Y369547D01*
X147355Y369614D01*
X147570Y369675D01*
X147786Y369731D01*
X148004Y369782D01*
X148223Y369828D01*
X148443Y369868D01*
X148663Y369903D01*
X148885Y369933D01*
X149107Y369957D01*
X149330Y369976D01*
X149553Y369989D01*
X149776Y369997D01*
X150000Y370000D01*
X140000Y310000D02*
X140000Y280000D01*
X140006Y279517D01*
X140023Y279034D01*
X140053Y278551D01*
X140093Y278070D01*
X140146Y277589D01*
X140210Y277110D01*
X140285Y276633D01*
X140373Y276157D01*
X140471Y275684D01*
X140581Y275214D01*
X140702Y274746D01*
X140835Y274281D01*
X140979Y273820D01*
X141134Y273362D01*
X141300Y272908D01*
X141477Y272458D01*
X141664Y272013D01*
X141863Y271572D01*
X142071Y271136D01*
X142291Y270706D01*
X142521Y270280D01*
X142761Y269861D01*
X143011Y269447D01*
X143271Y269040D01*
X143540Y268639D01*
X143820Y268244D01*
X144108Y267857D01*
X144407Y267476D01*
X144714Y267103D01*
X145030Y266738D01*
X145355Y266380D01*
X145688Y266030D01*
X146030Y265688D01*
X146380Y265355D01*
X146738Y265030D01*
X147103Y264714D01*
X147476Y264407D01*
X147857Y264108D01*
X148244Y263820D01*
X148639Y263540D01*
X149040Y263271D01*
X149447Y263011D01*
X149861Y262761D01*
X150280Y262521D01*
X150706Y262291D01*
X151136Y262071D01*
X151572Y261863D01*
X152013Y261664D01*
X152458Y261477D01*
X152908Y261300D01*
X153362Y261134D01*
X153820Y260979D01*
X154281Y260835D01*
X154746Y260702D01*
X155214Y260581D01*
X155684Y260471D01*
X156157Y260373D01*
X156633Y260285D01*
X157110Y260210D01*
X157589Y260146D01*
X158070Y260093D01*
X158551Y260053D01*
X159034Y260023D01*
X159517Y260006D01*
X160000Y260000D01*
X200000Y260000D01*
X200725Y259991D01*
X201449Y259965D01*
X202173Y259921D01*
X202895Y259860D01*
X203616Y259781D01*
X204335Y259685D01*
X205051Y259572D01*
X205764Y259441D01*
X206474Y259293D01*
X207179Y259128D01*
X207881Y258946D01*
X208578Y258747D01*
X209271Y258532D01*
X209957Y258299D01*
X210638Y258050D01*
X211313Y257785D01*
X211981Y257504D01*
X212642Y257206D01*
X213296Y256893D01*
X213942Y256564D01*
X214580Y256219D01*
X215209Y255859D01*
X215829Y255484D01*
X216440Y255094D01*
X217042Y254690D01*
X217634Y254271D01*
X218215Y253837D01*
X218786Y253390D01*
X219345Y252929D01*
X219894Y252455D01*
X220430Y251968D01*
X220955Y251468D01*
X221468Y250955D01*
X221968Y250430D01*
X222455Y249894D01*
X222929Y249345D01*
X223390Y248786D01*
X223837Y248215D01*
X224271Y247634D01*
X224690Y247042D01*
X225094Y246440D01*
X225484Y245829D01*
X225859Y245209D01*
X226219Y244580D01*
X226564Y243942D01*
X226893Y243296D01*
X227206Y242642D01*
X227504Y241981D01*
X227785Y241313D01*
X228050Y240638D01*
X228299Y239957D01*
X228532Y239271D01*
X228747Y238578D01*
X228946Y237881D01*
X229128Y237179D01*
X229293Y236474D01*
X229441Y235764D01*
X229572Y235051D01*
X229685Y234335D01*
X229781Y233616D01*
X229860Y232895D01*
X229921Y232173D01*
X229965Y231449D01*
X229991Y230725D01*
X230000Y230000D01*
X230000Y190000D01*
X230004Y189710D01*
X230014Y189420D01*
X230032Y189131D01*
X230056Y188842D01*
X230087Y188554D01*
X230126Y188266D01*
X230171Y187980D01*
X230224Y187694D01*
X230283Y187411D01*
X230349Y187128D01*
X230421Y186848D01*
X230501Y186569D01*
X230587Y186292D01*
X230680Y186017D01*
X230780Y185745D01*
X230886Y185475D01*
X230998Y185208D01*
X231118Y184943D01*
X231243Y184682D01*
X231375Y184423D01*
X231512Y184168D01*
X231656Y183916D01*
X231806Y183668D01*
X231962Y183424D01*
X232124Y183183D01*
X232292Y182947D01*
X232465Y182714D01*
X232644Y182486D01*
X232828Y182262D01*
X233018Y182043D01*
X233213Y181828D01*
X233413Y181618D01*
X233618Y181413D01*
X233828Y181213D01*
X234043Y181018D01*
X234262Y180828D01*
X234486Y180644D01*
X234714Y180465D01*
X234947Y180292D01*
X235183Y180124D01*
X235424Y179962D01*
X235668Y179806D01*
X235916Y179656D01*
X236168Y179512D01*
X236423Y179375D01*
X236682Y179243D01*
X236943Y179118D01*
X237208Y178998D01*
X237475Y178886D01*
X237745Y178780D01*
X238017Y178680D01*
X238292Y178587D01*
X238569Y178501D01*
X238848Y178421D01*
X239128Y178349D01*
X239411Y178283D01*
X239694Y178224D01*
X239980Y178171D01*
X240266Y178126D01*
X240554Y178087D01*
X240842Y178056D01*
X241131Y178032D01*
X241420Y178014D01*
X241710Y178004D01*
X242000Y178000D01*
X286550Y178000D01*
X286702Y177998D01*
X286854Y177992D01*
X287006Y177983D01*
X287157Y177969D01*
X287308Y177952D01*
X287459Y177931D01*
X287609Y177906D01*
X287758Y177877D01*
X287906Y177845D01*
X288054Y177808D01*
X288201Y177769D01*
X288346Y177725D01*
X288491Y177677D01*
X288634Y177627D01*
X288776Y177572D01*
X288916Y177514D01*
X289055Y177452D01*
X289192Y177387D01*
X289328Y177318D01*
X289462Y177246D01*
X289594Y177171D01*
X289724Y177092D01*
X289852Y177010D01*
X289978Y176925D01*
X290101Y176836D01*
X290223Y176745D01*
X290342Y176650D01*
X290458Y176553D01*
X290572Y176452D01*
X290684Y176349D01*
X290793Y176243D01*
X290899Y176134D01*
X291002Y176022D01*
X291103Y175908D01*
X291200Y175792D01*
X291295Y175673D01*
X291386Y175551D01*
X291475Y175428D01*
X291560Y175302D01*
X291642Y175174D01*
X291721Y175044D01*
X291796Y174912D01*
X291868Y174778D01*
X291937Y174642D01*
X292002Y174505D01*
X292064Y174366D01*
X292122Y174226D01*
X292177Y174084D01*
X292227Y173941D01*
X292275Y173796D01*
X292319Y173651D01*
X292358Y173504D01*
X292395Y173356D01*
X292427Y173208D01*
X292456Y173059D01*
X292481Y172909D01*
X292502Y172758D01*
X292519Y172607D01*
X292533Y172456D01*
X292542Y172304D01*
X292548Y172152D01*
X292550Y172000D01*
X292550Y155200D01*
X210750Y350000D02*
X210750Y370000D01*
X210750Y390000D01*
D26*
X221000Y370000D03*
D23*
X210750Y370000D01*
X221000Y370000D02*
X240000Y370000D01*
X240242Y369997D01*
X240483Y369988D01*
X240724Y369974D01*
X240965Y369953D01*
X241205Y369927D01*
X241445Y369895D01*
X241684Y369857D01*
X241921Y369814D01*
X242158Y369764D01*
X242393Y369709D01*
X242627Y369649D01*
X242859Y369582D01*
X243090Y369511D01*
X243319Y369433D01*
X243546Y369350D01*
X243771Y369262D01*
X243994Y369168D01*
X244214Y369069D01*
X244432Y368964D01*
X244647Y368855D01*
X244860Y368740D01*
X245070Y368620D01*
X245276Y368495D01*
X245480Y368365D01*
X245681Y368230D01*
X245878Y368090D01*
X246072Y367946D01*
X246262Y367797D01*
X246448Y367643D01*
X246631Y367485D01*
X246810Y367323D01*
X246985Y367156D01*
X247156Y366985D01*
X247323Y366810D01*
X247485Y366631D01*
X247643Y366448D01*
X247797Y366262D01*
X247946Y366072D01*
X248090Y365878D01*
X248230Y365681D01*
X248365Y365480D01*
X248495Y365276D01*
X248620Y365070D01*
X248740Y364860D01*
X248855Y364647D01*
X248964Y364432D01*
X249069Y364214D01*
X249168Y363994D01*
X249262Y363771D01*
X249350Y363546D01*
X249433Y363319D01*
X249511Y363090D01*
X249582Y362859D01*
X249649Y362627D01*
X249709Y362393D01*
X249764Y362158D01*
X249814Y361921D01*
X249857Y361684D01*
X249895Y361445D01*
X249927Y361205D01*
X249953Y360965D01*
X249974Y360724D01*
X249988Y360483D01*
X249997Y360242D01*
X250000Y360000D01*
X250000Y350000D01*
X250003Y349758D01*
X250012Y349517D01*
X250026Y349276D01*
X250047Y349035D01*
X250073Y348795D01*
X250105Y348555D01*
X250143Y348316D01*
X250186Y348079D01*
X250236Y347842D01*
X250291Y347607D01*
X250351Y347373D01*
X250418Y347141D01*
X250489Y346910D01*
X250567Y346681D01*
X250650Y346454D01*
X250738Y346229D01*
X250832Y346006D01*
X250931Y345786D01*
X251036Y345568D01*
X251145Y345353D01*
X251260Y345140D01*
X251380Y344930D01*
X251505Y344724D01*
X251635Y344520D01*
X251770Y344319D01*
X251910Y344122D01*
X252054Y343928D01*
X252203Y343738D01*
X252357Y343552D01*
X252515Y343369D01*
X252677Y343190D01*
X252844Y343015D01*
X253015Y342844D01*
X253190Y342677D01*
X253369Y342515D01*
X253552Y342357D01*
X253738Y342203D01*
X253928Y342054D01*
X254122Y341910D01*
X254319Y341770D01*
X254520Y341635D01*
X254724Y341505D01*
X254930Y341380D01*
X255140Y341260D01*
X255353Y341145D01*
X255568Y341036D01*
X255786Y340931D01*
X256006Y340832D01*
X256229Y340738D01*
X256454Y340650D01*
X256681Y340567D01*
X256910Y340489D01*
X257141Y340418D01*
X257373Y340351D01*
X257607Y340291D01*
X257842Y340236D01*
X258079Y340186D01*
X258316Y340143D01*
X258555Y340105D01*
X258795Y340073D01*
X259035Y340047D01*
X259276Y340026D01*
X259517Y340012D01*
X259758Y340003D01*
X260000Y340000D01*
X343900Y340000D01*
X344383Y339994D01*
X344866Y339977D01*
X345349Y339947D01*
X345830Y339907D01*
X346311Y339854D01*
X346790Y339790D01*
X347267Y339715D01*
X347743Y339627D01*
X348216Y339529D01*
X348686Y339419D01*
X349154Y339298D01*
X349619Y339165D01*
X350080Y339021D01*
X350538Y338866D01*
X350992Y338700D01*
X351442Y338523D01*
X351887Y338336D01*
X352328Y338137D01*
X352764Y337929D01*
X353194Y337709D01*
X353620Y337479D01*
X354039Y337239D01*
X354453Y336989D01*
X354860Y336729D01*
X355261Y336460D01*
X355656Y336180D01*
X356043Y335892D01*
X356424Y335593D01*
X356797Y335286D01*
X357162Y334970D01*
X357520Y334645D01*
X357870Y334312D01*
X358212Y333970D01*
X358545Y333620D01*
X358870Y333262D01*
X359186Y332897D01*
X359493Y332524D01*
X359792Y332143D01*
X360080Y331756D01*
X360360Y331361D01*
X360629Y330960D01*
X360889Y330553D01*
X361139Y330139D01*
X361379Y329720D01*
X361609Y329294D01*
X361829Y328864D01*
X362037Y328428D01*
X362236Y327987D01*
X362423Y327542D01*
X362600Y327092D01*
X362766Y326638D01*
X362921Y326180D01*
X363065Y325719D01*
X363198Y325254D01*
X363319Y324786D01*
X363429Y324316D01*
X363527Y323843D01*
X363615Y323367D01*
X363690Y322890D01*
X363754Y322411D01*
X363807Y321930D01*
X363847Y321449D01*
X363877Y320966D01*
X363894Y320483D01*
X363900Y320000D01*
X363900Y316100D01*
X279850Y228500D02*
X279850Y200200D01*
X189250Y310000D02*
X189250Y350000D01*
X189250Y310000D02*
X190000Y310000D01*
D26*
X180000Y370000D03*
D23*
X180224Y369997D01*
X180447Y369989D01*
X180670Y369976D01*
X180893Y369957D01*
X181115Y369933D01*
X181337Y369903D01*
X181557Y369868D01*
X181777Y369828D01*
X181996Y369782D01*
X182214Y369731D01*
X182430Y369675D01*
X182645Y369614D01*
X182858Y369547D01*
X183070Y369476D01*
X183280Y369399D01*
X183488Y369317D01*
X183694Y369230D01*
X183898Y369139D01*
X184100Y369042D01*
X184299Y368940D01*
X184495Y368834D01*
X184689Y368723D01*
X184881Y368608D01*
X185069Y368487D01*
X185255Y368363D01*
X185437Y368233D01*
X185616Y368100D01*
X185792Y367962D01*
X185965Y367820D01*
X186134Y367674D01*
X186299Y367523D01*
X186461Y367369D01*
X186619Y367211D01*
X186773Y367049D01*
X186924Y366884D01*
X187070Y366715D01*
X187212Y366542D01*
X187350Y366366D01*
X187483Y366187D01*
X187613Y366005D01*
X187737Y365819D01*
X187858Y365631D01*
X187973Y365439D01*
X188084Y365245D01*
X188190Y365049D01*
X188292Y364850D01*
X188389Y364648D01*
X188480Y364444D01*
X188567Y364238D01*
X188649Y364030D01*
X188726Y363820D01*
X188797Y363608D01*
X188864Y363395D01*
X188925Y363180D01*
X188981Y362964D01*
X189032Y362746D01*
X189078Y362527D01*
X189118Y362307D01*
X189153Y362087D01*
X189183Y361865D01*
X189207Y361643D01*
X189226Y361420D01*
X189239Y361197D01*
X189247Y360974D01*
X189250Y360750D01*
X189250Y350000D01*
X190000Y310000D02*
X190000Y280000D01*
X190003Y279758D01*
X190012Y279517D01*
X190026Y279276D01*
X190047Y279035D01*
X190073Y278795D01*
X190105Y278555D01*
X190143Y278316D01*
X190186Y278079D01*
X190236Y277842D01*
X190291Y277607D01*
X190351Y277373D01*
X190418Y277141D01*
X190489Y276910D01*
X190567Y276681D01*
X190650Y276454D01*
X190738Y276229D01*
X190832Y276006D01*
X190931Y275786D01*
X191036Y275568D01*
X191145Y275353D01*
X191260Y275140D01*
X191380Y274930D01*
X191505Y274724D01*
X191635Y274520D01*
X191770Y274319D01*
X191910Y274122D01*
X192054Y273928D01*
X192203Y273738D01*
X192357Y273552D01*
X192515Y273369D01*
X192677Y273190D01*
X192844Y273015D01*
X193015Y272844D01*
X193190Y272677D01*
X193369Y272515D01*
X193552Y272357D01*
X193738Y272203D01*
X193928Y272054D01*
X194122Y271910D01*
X194319Y271770D01*
X194520Y271635D01*
X194724Y271505D01*
X194930Y271380D01*
X195140Y271260D01*
X195353Y271145D01*
X195568Y271036D01*
X195786Y270931D01*
X196006Y270832D01*
X196229Y270738D01*
X196454Y270650D01*
X196681Y270567D01*
X196910Y270489D01*
X197141Y270418D01*
X197373Y270351D01*
X197607Y270291D01*
X197842Y270236D01*
X198079Y270186D01*
X198316Y270143D01*
X198555Y270105D01*
X198795Y270073D01*
X199035Y270047D01*
X199276Y270026D01*
X199517Y270012D01*
X199758Y270003D01*
X200000Y270000D01*
X249850Y270000D01*
X250575Y269991D01*
X251299Y269965D01*
X252023Y269921D01*
X252745Y269860D01*
X253466Y269781D01*
X254185Y269685D01*
X254901Y269572D01*
X255614Y269441D01*
X256324Y269293D01*
X257029Y269128D01*
X257731Y268946D01*
X258428Y268747D01*
X259121Y268532D01*
X259807Y268299D01*
X260488Y268050D01*
X261163Y267785D01*
X261831Y267504D01*
X262492Y267206D01*
X263146Y266893D01*
X263792Y266564D01*
X264430Y266219D01*
X265059Y265859D01*
X265679Y265484D01*
X266290Y265094D01*
X266892Y264690D01*
X267484Y264271D01*
X268065Y263837D01*
X268636Y263390D01*
X269195Y262929D01*
X269744Y262455D01*
X270280Y261968D01*
X270805Y261468D01*
X271318Y260955D01*
X271818Y260430D01*
X272305Y259894D01*
X272779Y259345D01*
X273240Y258786D01*
X273687Y258215D01*
X274121Y257634D01*
X274540Y257042D01*
X274944Y256440D01*
X275334Y255829D01*
X275709Y255209D01*
X276069Y254580D01*
X276414Y253942D01*
X276743Y253296D01*
X277056Y252642D01*
X277354Y251981D01*
X277635Y251313D01*
X277900Y250638D01*
X278149Y249957D01*
X278382Y249271D01*
X278597Y248578D01*
X278796Y247881D01*
X278978Y247179D01*
X279143Y246474D01*
X279291Y245764D01*
X279422Y245051D01*
X279535Y244335D01*
X279631Y243616D01*
X279710Y242895D01*
X279771Y242173D01*
X279815Y241449D01*
X279841Y240725D01*
X279850Y240000D01*
X279850Y228500D01*
X267150Y155200D02*
X267150Y126900D01*
X304550Y451750D02*
X166000Y451750D01*
X304550Y451750D02*
X304776Y451753D01*
X305002Y451761D01*
X305227Y451775D01*
X305452Y451794D01*
X305677Y451818D01*
X305901Y451848D01*
X306124Y451883D01*
X306346Y451924D01*
X306568Y451970D01*
X306788Y452022D01*
X307006Y452078D01*
X307224Y452140D01*
X307439Y452208D01*
X307653Y452280D01*
X307866Y452358D01*
X308076Y452440D01*
X308284Y452528D01*
X308490Y452621D01*
X308694Y452718D01*
X308895Y452821D01*
X309094Y452928D01*
X309290Y453041D01*
X309483Y453157D01*
X309674Y453279D01*
X309861Y453405D01*
X310046Y453536D01*
X310227Y453671D01*
X310405Y453810D01*
X310579Y453954D01*
X310750Y454101D01*
X310917Y454253D01*
X311081Y454409D01*
X311241Y454569D01*
X311397Y454733D01*
X311549Y454900D01*
X311696Y455071D01*
X311840Y455245D01*
X311979Y455423D01*
X312114Y455604D01*
X312245Y455789D01*
X312371Y455976D01*
X312493Y456167D01*
X312609Y456360D01*
X312722Y456556D01*
X312829Y456755D01*
X312932Y456956D01*
X313029Y457160D01*
X313122Y457366D01*
X313210Y457574D01*
X313292Y457784D01*
X313370Y457997D01*
X313442Y458211D01*
X313510Y458426D01*
X313572Y458644D01*
X313628Y458862D01*
X313680Y459082D01*
X313726Y459304D01*
X313767Y459526D01*
X313802Y459749D01*
X313832Y459973D01*
X313856Y460198D01*
X313875Y460423D01*
X313889Y460648D01*
X313897Y460874D01*
X313900Y461100D01*
X166000Y451750D02*
X121750Y451750D01*
X120983Y451741D01*
X120216Y451713D01*
X119450Y451667D01*
X118686Y451602D01*
X117923Y451519D01*
X117162Y451417D01*
X116405Y451297D01*
X115650Y451159D01*
X114899Y451002D01*
X114152Y450827D01*
X113409Y450635D01*
X112671Y450424D01*
X111939Y450196D01*
X111212Y449950D01*
X110491Y449687D01*
X109777Y449406D01*
X109070Y449108D01*
X108371Y448793D01*
X107679Y448462D01*
X106995Y448113D01*
X106320Y447748D01*
X105654Y447368D01*
X104997Y446971D01*
X104351Y446558D01*
X103714Y446130D01*
X103088Y445686D01*
X102473Y445228D01*
X101869Y444755D01*
X101276Y444267D01*
X100696Y443765D01*
X100128Y443250D01*
X99572Y442720D01*
X99030Y442178D01*
X98500Y441622D01*
X97985Y441054D01*
X97483Y440474D01*
X96995Y439881D01*
X96522Y439277D01*
X96064Y438662D01*
X95620Y438036D01*
X95192Y437399D01*
X94779Y436753D01*
X94382Y436096D01*
X94002Y435430D01*
X93637Y434755D01*
X93288Y434071D01*
X92957Y433379D01*
X92642Y432680D01*
X92344Y431973D01*
X92063Y431259D01*
X91800Y430538D01*
X91554Y429811D01*
X91326Y429079D01*
X91115Y428341D01*
X90923Y427598D01*
X90748Y426851D01*
X90591Y426100D01*
X90453Y425345D01*
X90333Y424588D01*
X90231Y423827D01*
X90148Y423064D01*
X90083Y422300D01*
X90037Y421534D01*
X90009Y420767D01*
X90000Y420000D01*
X90000Y280000D01*
X90009Y279275D01*
X90035Y278551D01*
X90079Y277827D01*
X90140Y277105D01*
X90219Y276384D01*
X90315Y275665D01*
X90428Y274949D01*
X90559Y274236D01*
X90707Y273526D01*
X90872Y272821D01*
X91054Y272119D01*
X91253Y271422D01*
X91468Y270729D01*
X91701Y270043D01*
X91950Y269362D01*
X92215Y268687D01*
X92496Y268019D01*
X92794Y267358D01*
X93107Y266704D01*
X93436Y266058D01*
X93781Y265420D01*
X94141Y264791D01*
X94516Y264171D01*
X94906Y263560D01*
X95310Y262958D01*
X95729Y262366D01*
X96163Y261785D01*
X96610Y261214D01*
X97071Y260655D01*
X97545Y260106D01*
X98032Y259570D01*
X98532Y259045D01*
X99045Y258532D01*
X99570Y258032D01*
X100106Y257545D01*
X100655Y257071D01*
X101214Y256610D01*
X101785Y256163D01*
X102366Y255729D01*
X102958Y255310D01*
X103560Y254906D01*
X104171Y254516D01*
X104791Y254141D01*
X105420Y253781D01*
X106058Y253436D01*
X106704Y253107D01*
X107358Y252794D01*
X108019Y252496D01*
X108687Y252215D01*
X109362Y251950D01*
X110043Y251701D01*
X110729Y251468D01*
X111422Y251253D01*
X112119Y251054D01*
X112821Y250872D01*
X113526Y250707D01*
X114236Y250559D01*
X114949Y250428D01*
X115665Y250315D01*
X116384Y250219D01*
X117105Y250140D01*
X117827Y250079D01*
X118551Y250035D01*
X119275Y250009D01*
X120000Y250000D01*
X200000Y250000D01*
X200483Y249994D01*
X200966Y249977D01*
X201449Y249947D01*
X201930Y249907D01*
X202411Y249854D01*
X202890Y249790D01*
X203367Y249715D01*
X203843Y249627D01*
X204316Y249529D01*
X204786Y249419D01*
X205254Y249298D01*
X205719Y249165D01*
X206180Y249021D01*
X206638Y248866D01*
X207092Y248700D01*
X207542Y248523D01*
X207987Y248336D01*
X208428Y248137D01*
X208864Y247929D01*
X209294Y247709D01*
X209720Y247479D01*
X210139Y247239D01*
X210553Y246989D01*
X210960Y246729D01*
X211361Y246460D01*
X211756Y246180D01*
X212143Y245892D01*
X212524Y245593D01*
X212897Y245286D01*
X213262Y244970D01*
X213620Y244645D01*
X213970Y244312D01*
X214312Y243970D01*
X214645Y243620D01*
X214970Y243262D01*
X215286Y242897D01*
X215593Y242524D01*
X215892Y242143D01*
X216180Y241756D01*
X216460Y241361D01*
X216729Y240960D01*
X216989Y240553D01*
X217239Y240139D01*
X217479Y239720D01*
X217709Y239294D01*
X217929Y238864D01*
X218137Y238428D01*
X218336Y237987D01*
X218523Y237542D01*
X218700Y237092D01*
X218866Y236638D01*
X219021Y236180D01*
X219165Y235719D01*
X219298Y235254D01*
X219419Y234786D01*
X219529Y234316D01*
X219627Y233843D01*
X219715Y233367D01*
X219790Y232890D01*
X219854Y232411D01*
X219907Y231930D01*
X219947Y231449D01*
X219977Y230966D01*
X219994Y230483D01*
X220000Y230000D01*
X220000Y180000D01*
X220007Y179401D01*
X220029Y178802D01*
X220065Y178204D01*
X220116Y177606D01*
X220181Y177011D01*
X220260Y176417D01*
X220354Y175825D01*
X220462Y175235D01*
X220584Y174649D01*
X220721Y174065D01*
X220871Y173485D01*
X221036Y172909D01*
X221214Y172336D01*
X221406Y171769D01*
X221612Y171206D01*
X221831Y170648D01*
X222064Y170096D01*
X222310Y169549D01*
X222569Y169009D01*
X222841Y168475D01*
X223126Y167948D01*
X223423Y167427D01*
X223733Y166915D01*
X224056Y166409D01*
X224390Y165912D01*
X224736Y165423D01*
X225094Y164942D01*
X225464Y164471D01*
X225845Y164008D01*
X226237Y163555D01*
X226640Y163111D01*
X227053Y162677D01*
X227477Y162253D01*
X227911Y161840D01*
X228355Y161437D01*
X228808Y161045D01*
X229271Y160664D01*
X229742Y160294D01*
X230223Y159936D01*
X230712Y159590D01*
X231209Y159256D01*
X231715Y158933D01*
X232227Y158623D01*
X232748Y158326D01*
X233275Y158041D01*
X233809Y157769D01*
X234349Y157510D01*
X234896Y157264D01*
X235448Y157031D01*
X236006Y156812D01*
X236569Y156606D01*
X237136Y156414D01*
X237709Y156236D01*
X238285Y156071D01*
X238865Y155921D01*
X239449Y155784D01*
X240035Y155662D01*
X240625Y155554D01*
X241217Y155460D01*
X241811Y155381D01*
X242406Y155316D01*
X243004Y155265D01*
X243602Y155229D01*
X244201Y155207D01*
X244800Y155200D01*
X267150Y155200D01*
D24*
X406850Y200200D02*
X406850Y228500D01*
X406850Y230000D01*
X493650Y217300D02*
X493650Y180000D01*
X493650Y217300D02*
X493646Y217607D01*
X493635Y217914D01*
X493617Y218220D01*
X493591Y218526D01*
X493557Y218831D01*
X493517Y219135D01*
X493469Y219438D01*
X493413Y219740D01*
X493351Y220040D01*
X493281Y220339D01*
X493204Y220636D01*
X493120Y220932D01*
X493028Y221225D01*
X492930Y221515D01*
X492825Y221803D01*
X492712Y222089D01*
X492593Y222372D01*
X492467Y222652D01*
X492335Y222929D01*
X492195Y223202D01*
X492049Y223472D01*
X491897Y223738D01*
X491738Y224001D01*
X491573Y224260D01*
X491402Y224514D01*
X491225Y224765D01*
X491041Y225011D01*
X490852Y225253D01*
X490657Y225489D01*
X490456Y225722D01*
X490250Y225949D01*
X490038Y226171D01*
X489821Y226388D01*
X489599Y226600D01*
X489372Y226806D01*
X489139Y227007D01*
X488903Y227202D01*
X488661Y227391D01*
X488415Y227575D01*
X488164Y227752D01*
X487910Y227923D01*
X487651Y228088D01*
X487388Y228247D01*
X487122Y228399D01*
X486852Y228545D01*
X486579Y228685D01*
X486302Y228817D01*
X486022Y228943D01*
X485739Y229062D01*
X485453Y229175D01*
X485165Y229280D01*
X484875Y229378D01*
X484582Y229470D01*
X484286Y229554D01*
X483989Y229631D01*
X483690Y229701D01*
X483390Y229763D01*
X483088Y229819D01*
X482785Y229867D01*
X482481Y229907D01*
X482176Y229941D01*
X481870Y229967D01*
X481564Y229985D01*
X481257Y229996D01*
X480950Y230000D01*
X406850Y230000D01*
X480950Y230000D02*
X480950Y265296D01*
D23*
X480950Y272975D01*
X480957Y273556D01*
X480978Y274136D01*
X481013Y274715D01*
X481062Y275294D01*
X481125Y275871D01*
X481202Y276446D01*
X481293Y277020D01*
X481398Y277591D01*
X481516Y278159D01*
X481648Y278725D01*
X481794Y279287D01*
X481953Y279845D01*
X482126Y280399D01*
X482312Y280949D01*
X482511Y281494D01*
X482724Y282035D01*
X482949Y282570D01*
X483187Y283099D01*
X483438Y283623D01*
X483702Y284140D01*
X483978Y284651D01*
X484266Y285155D01*
X484567Y285652D01*
X484879Y286141D01*
X485203Y286623D01*
X485538Y287097D01*
X485885Y287562D01*
X486243Y288019D01*
X486612Y288467D01*
X486992Y288907D01*
X487382Y289336D01*
X487783Y289757D01*
X488193Y290167D01*
X488614Y290568D01*
X489043Y290958D01*
X489483Y291338D01*
X489931Y291707D01*
X490388Y292065D01*
X490853Y292412D01*
X491327Y292747D01*
X491809Y293071D01*
X492298Y293383D01*
X492795Y293684D01*
X493299Y293972D01*
X493810Y294248D01*
X494327Y294512D01*
X494851Y294763D01*
X495380Y295001D01*
X495915Y295226D01*
X496456Y295439D01*
X497001Y295638D01*
X497551Y295824D01*
X498105Y295997D01*
X498663Y296156D01*
X499225Y296302D01*
X499791Y296434D01*
X500359Y296552D01*
X500930Y296657D01*
X501504Y296748D01*
X502079Y296825D01*
X502656Y296888D01*
X503235Y296937D01*
X503814Y296972D01*
X504394Y296993D01*
X504975Y297000D01*
X510106Y297000D01*
X510322Y297003D01*
X510538Y297010D01*
X510754Y297023D01*
X510969Y297042D01*
X511184Y297065D01*
X511398Y297094D01*
X511612Y297128D01*
X511824Y297167D01*
X512036Y297211D01*
X512246Y297260D01*
X512456Y297314D01*
X512663Y297373D01*
X512870Y297438D01*
X513075Y297507D01*
X513278Y297581D01*
X513479Y297660D01*
X513678Y297744D01*
X513875Y297833D01*
X514070Y297926D01*
X514262Y298024D01*
X514453Y298127D01*
X514640Y298235D01*
X514825Y298346D01*
X515007Y298463D01*
X515187Y298583D01*
X515363Y298708D01*
X515536Y298837D01*
X515707Y298971D01*
X515873Y299108D01*
X516037Y299249D01*
X516197Y299395D01*
X516353Y299544D01*
X516506Y299697D01*
X516655Y299853D01*
X516801Y300013D01*
X516942Y300177D01*
X517079Y300343D01*
X517213Y300514D01*
X517342Y300687D01*
X517467Y300863D01*
X517587Y301043D01*
X517704Y301225D01*
X517815Y301410D01*
X517923Y301597D01*
X518026Y301788D01*
X518124Y301980D01*
X518217Y302175D01*
X518306Y302372D01*
X518390Y302571D01*
X518469Y302772D01*
X518543Y302975D01*
X518612Y303180D01*
X518677Y303387D01*
X518736Y303594D01*
X518790Y303804D01*
X518839Y304014D01*
X518883Y304226D01*
X518922Y304438D01*
X518956Y304652D01*
X518985Y304866D01*
X519008Y305081D01*
X519027Y305296D01*
X519040Y305512D01*
X519047Y305728D01*
X519050Y305944D01*
X519050Y314704D01*
D24*
X406850Y258000D02*
X406850Y228500D01*
X406850Y258000D02*
X407250Y258000D01*
X407250Y300000D01*
X478000Y180000D02*
X493650Y180000D01*
D25*
X478000Y180000D03*
D23*
X140750Y390000D02*
X140000Y390000D01*
X140750Y390000D02*
X166000Y390000D01*
X189250Y390000D01*
X166000Y390000D02*
X166000Y430250D01*
X309750Y430250D01*
X310481Y430241D01*
X311211Y430215D01*
X311941Y430171D01*
X312670Y430109D01*
X313396Y430029D01*
X314121Y429933D01*
X314843Y429818D01*
X315562Y429686D01*
X316277Y429537D01*
X316989Y429371D01*
X317697Y429187D01*
X318400Y428987D01*
X319098Y428769D01*
X319790Y428535D01*
X320477Y428284D01*
X321157Y428017D01*
X321831Y427733D01*
X322497Y427433D01*
X323157Y427117D01*
X323808Y426785D01*
X324451Y426438D01*
X325086Y426075D01*
X325711Y425696D01*
X326327Y425303D01*
X326934Y424895D01*
X327531Y424473D01*
X328117Y424036D01*
X328692Y423585D01*
X329256Y423121D01*
X329809Y422642D01*
X330351Y422151D01*
X330880Y421647D01*
X331397Y421130D01*
X331901Y420601D01*
X332392Y420059D01*
X332871Y419506D01*
X333335Y418942D01*
X333786Y418367D01*
X334223Y417781D01*
X334645Y417184D01*
X335053Y416577D01*
X335446Y415961D01*
X335825Y415336D01*
X336188Y414701D01*
X336535Y414058D01*
X336867Y413407D01*
X337183Y412747D01*
X337483Y412081D01*
X337767Y411407D01*
X338034Y410727D01*
X338285Y410040D01*
X338519Y409348D01*
X338737Y408650D01*
X338937Y407947D01*
X339121Y407239D01*
X339287Y406527D01*
X339436Y405812D01*
X339568Y405093D01*
X339683Y404371D01*
X339779Y403646D01*
X339859Y402920D01*
X339921Y402191D01*
X339965Y401461D01*
X339991Y400731D01*
X340000Y400000D01*
X340000Y380000D01*
X340009Y379275D01*
X340035Y378551D01*
X340079Y377827D01*
X340140Y377105D01*
X340219Y376384D01*
X340315Y375665D01*
X340428Y374949D01*
X340559Y374236D01*
X340707Y373526D01*
X340872Y372821D01*
X341054Y372119D01*
X341253Y371422D01*
X341468Y370729D01*
X341701Y370043D01*
X341950Y369362D01*
X342215Y368687D01*
X342496Y368019D01*
X342794Y367358D01*
X343107Y366704D01*
X343436Y366058D01*
X343781Y365420D01*
X344141Y364791D01*
X344516Y364171D01*
X344906Y363560D01*
X345310Y362958D01*
X345729Y362366D01*
X346163Y361785D01*
X346610Y361214D01*
X347071Y360655D01*
X347545Y360106D01*
X348032Y359570D01*
X348532Y359045D01*
X349045Y358532D01*
X349570Y358032D01*
X350106Y357545D01*
X350655Y357071D01*
X351214Y356610D01*
X351785Y356163D01*
X352366Y355729D01*
X352958Y355310D01*
X353560Y354906D01*
X354171Y354516D01*
X354791Y354141D01*
X355420Y353781D01*
X356058Y353436D01*
X356704Y353107D01*
X357358Y352794D01*
X358019Y352496D01*
X358687Y352215D01*
X359362Y351950D01*
X360043Y351701D01*
X360729Y351468D01*
X361422Y351253D01*
X362119Y351054D01*
X362821Y350872D01*
X363526Y350707D01*
X364236Y350559D01*
X364949Y350428D01*
X365665Y350315D01*
X366384Y350219D01*
X367105Y350140D01*
X367827Y350079D01*
X368551Y350035D01*
X369275Y350009D01*
X370000Y350000D01*
X377250Y350000D01*
X377975Y349991D01*
X378699Y349965D01*
X379423Y349921D01*
X380145Y349860D01*
X380866Y349781D01*
X381585Y349685D01*
X382301Y349572D01*
X383014Y349441D01*
X383724Y349293D01*
X384429Y349128D01*
X385131Y348946D01*
X385828Y348747D01*
X386521Y348532D01*
X387207Y348299D01*
X387888Y348050D01*
X388563Y347785D01*
X389231Y347504D01*
X389892Y347206D01*
X390546Y346893D01*
X391192Y346564D01*
X391830Y346219D01*
X392459Y345859D01*
X393079Y345484D01*
X393690Y345094D01*
X394292Y344690D01*
X394884Y344271D01*
X395465Y343837D01*
X396036Y343390D01*
X396595Y342929D01*
X397144Y342455D01*
X397680Y341968D01*
X398205Y341468D01*
X398718Y340955D01*
X399218Y340430D01*
X399705Y339894D01*
X400179Y339345D01*
X400640Y338786D01*
X401087Y338215D01*
X401521Y337634D01*
X401940Y337042D01*
X402344Y336440D01*
X402734Y335829D01*
X403109Y335209D01*
X403469Y334580D01*
X403814Y333942D01*
X404143Y333296D01*
X404456Y332642D01*
X404754Y331981D01*
X405035Y331313D01*
X405300Y330638D01*
X405549Y329957D01*
X405782Y329271D01*
X405997Y328578D01*
X406196Y327881D01*
X406378Y327179D01*
X406543Y326474D01*
X406691Y325764D01*
X406822Y325051D01*
X406935Y324335D01*
X407031Y323616D01*
X407110Y322895D01*
X407171Y322173D01*
X407215Y321449D01*
X407241Y320725D01*
X407250Y320000D01*
X407250Y300000D01*
X356050Y228500D02*
X356050Y200200D01*
D25*
X507000Y283000D03*
D23*
X507000Y265296D01*
X506350Y265296D01*
X433000Y300000D02*
X428750Y300000D01*
X433000Y300000D02*
X433411Y299995D01*
X433821Y299980D01*
X434231Y299955D01*
X434641Y299921D01*
X435049Y299876D01*
X435456Y299822D01*
X435862Y299757D01*
X436266Y299683D01*
X436668Y299599D01*
X437068Y299506D01*
X437466Y299403D01*
X437861Y299290D01*
X438253Y299168D01*
X438642Y299036D01*
X439028Y298895D01*
X439411Y298745D01*
X439789Y298585D01*
X440164Y298417D01*
X440534Y298239D01*
X440900Y298053D01*
X441262Y297857D01*
X441618Y297653D01*
X441970Y297441D01*
X442316Y297220D01*
X442657Y296991D01*
X442992Y296753D01*
X443322Y296508D01*
X443645Y296254D01*
X443962Y295993D01*
X444273Y295725D01*
X444577Y295449D01*
X444875Y295165D01*
X445165Y294875D01*
X445449Y294577D01*
X445725Y294273D01*
X445993Y293962D01*
X446254Y293645D01*
X446508Y293322D01*
X446753Y292992D01*
X446991Y292657D01*
X447220Y292316D01*
X447441Y291970D01*
X447653Y291618D01*
X447857Y291262D01*
X448053Y290900D01*
X448239Y290534D01*
X448417Y290164D01*
X448585Y289789D01*
X448745Y289411D01*
X448895Y289028D01*
X449036Y288642D01*
X449168Y288253D01*
X449290Y287861D01*
X449403Y287466D01*
X449506Y287068D01*
X449599Y286668D01*
X449683Y286266D01*
X449757Y285862D01*
X449822Y285456D01*
X449876Y285049D01*
X449921Y284641D01*
X449955Y284231D01*
X449980Y283821D01*
X449995Y283411D01*
X450000Y283000D01*
D25*
X450000Y283000D03*
D23*
X381450Y228500D02*
X381450Y200200D01*
X566940Y240750D02*
X566940Y270500D01*
X566940Y240750D02*
X570000Y240750D01*
D25*
X461000Y208000D03*
X546000Y208000D03*
D23*
X546000Y219810D01*
X546006Y220316D01*
X546024Y220822D01*
X546055Y221327D01*
X546098Y221831D01*
X546153Y222334D01*
X546220Y222836D01*
X546299Y223335D01*
X546390Y223833D01*
X546493Y224329D01*
X546608Y224821D01*
X546736Y225311D01*
X546874Y225798D01*
X547025Y226281D01*
X547187Y226760D01*
X547361Y227235D01*
X547546Y227706D01*
X547742Y228173D01*
X547950Y228634D01*
X548169Y229090D01*
X548399Y229541D01*
X548639Y229986D01*
X548890Y230426D01*
X549152Y230859D01*
X549424Y231285D01*
X549707Y231705D01*
X549999Y232118D01*
X550302Y232524D01*
X550614Y232922D01*
X550935Y233313D01*
X551266Y233696D01*
X551606Y234070D01*
X551955Y234437D01*
X552313Y234795D01*
X552680Y235144D01*
X553054Y235484D01*
X553437Y235815D01*
X553828Y236136D01*
X554226Y236448D01*
X554632Y236751D01*
X555045Y237043D01*
X555465Y237326D01*
X555891Y237598D01*
X556324Y237860D01*
X556764Y238111D01*
X557209Y238351D01*
X557660Y238581D01*
X558116Y238800D01*
X558577Y239008D01*
X559044Y239204D01*
X559515Y239389D01*
X559990Y239563D01*
X560469Y239725D01*
X560952Y239876D01*
X561439Y240014D01*
X561929Y240142D01*
X562421Y240257D01*
X562917Y240360D01*
X563415Y240451D01*
X563914Y240530D01*
X564416Y240597D01*
X564919Y240652D01*
X565423Y240695D01*
X565928Y240726D01*
X566434Y240744D01*
X566940Y240750D01*
X381450Y200200D02*
X381450Y184648D01*
X381452Y184487D01*
X381458Y184327D01*
X381467Y184166D01*
X381481Y184006D01*
X381498Y183847D01*
X381520Y183687D01*
X381545Y183529D01*
X381574Y183371D01*
X381607Y183213D01*
X381643Y183057D01*
X381684Y182902D01*
X381728Y182747D01*
X381775Y182594D01*
X381827Y182441D01*
X381882Y182291D01*
X381941Y182141D01*
X382003Y181993D01*
X382069Y181847D01*
X382139Y181702D01*
X382211Y181559D01*
X382288Y181417D01*
X382368Y181278D01*
X382451Y181140D01*
X382537Y181005D01*
X382627Y180872D01*
X382720Y180740D01*
X382816Y180612D01*
X382915Y180485D01*
X383017Y180361D01*
X383122Y180240D01*
X383230Y180121D01*
X383341Y180004D01*
X383454Y179891D01*
X383571Y179780D01*
X383690Y179672D01*
X383811Y179567D01*
X383935Y179465D01*
X384062Y179366D01*
X384190Y179270D01*
X384322Y179177D01*
X384455Y179087D01*
X384590Y179001D01*
X384728Y178918D01*
X384867Y178838D01*
X385009Y178761D01*
X385152Y178689D01*
X385297Y178619D01*
X385443Y178553D01*
X385591Y178491D01*
X385741Y178432D01*
X385891Y178377D01*
X386044Y178325D01*
X386197Y178278D01*
X386352Y178234D01*
X386507Y178193D01*
X386663Y178157D01*
X386821Y178124D01*
X386979Y178095D01*
X387137Y178070D01*
X387297Y178048D01*
X387456Y178031D01*
X387616Y178017D01*
X387777Y178008D01*
X387937Y178002D01*
X388098Y178000D01*
X439000Y178000D01*
X439532Y178006D01*
X440063Y178026D01*
X440594Y178058D01*
X441123Y178103D01*
X441652Y178160D01*
X442179Y178231D01*
X442704Y178314D01*
X443227Y178410D01*
X443747Y178518D01*
X444265Y178639D01*
X444780Y178773D01*
X445291Y178919D01*
X445798Y179077D01*
X446302Y179247D01*
X446801Y179430D01*
X447296Y179624D01*
X447786Y179831D01*
X448271Y180049D01*
X448750Y180279D01*
X449224Y180520D01*
X449692Y180773D01*
X450153Y181037D01*
X450608Y181312D01*
X451056Y181598D01*
X451497Y181894D01*
X451931Y182202D01*
X452358Y182519D01*
X452776Y182847D01*
X453187Y183185D01*
X453589Y183533D01*
X453982Y183890D01*
X454367Y184257D01*
X454743Y184633D01*
X455110Y185018D01*
X455467Y185411D01*
X455815Y185813D01*
X456153Y186224D01*
X456481Y186642D01*
X456798Y187069D01*
X457106Y187503D01*
X457402Y187944D01*
X457688Y188392D01*
X457963Y188847D01*
X458227Y189308D01*
X458480Y189776D01*
X458721Y190250D01*
X458951Y190729D01*
X459169Y191214D01*
X459376Y191704D01*
X459570Y192199D01*
X459753Y192698D01*
X459923Y193202D01*
X460081Y193709D01*
X460227Y194220D01*
X460361Y194735D01*
X460482Y195253D01*
X460590Y195773D01*
X460686Y196296D01*
X460769Y196821D01*
X460840Y197348D01*
X460897Y197877D01*
X460942Y198406D01*
X460974Y198937D01*
X460994Y199468D01*
X461000Y200000D01*
X461000Y208000D01*
D24*
X419550Y155200D02*
X419550Y126900D01*
X493650Y126900D02*
X493650Y150000D01*
X493650Y126900D02*
X419550Y126900D01*
D25*
X493650Y126900D03*
D24*
X260000Y100750D02*
X60000Y100750D01*
X260000Y100750D02*
X470000Y100750D01*
X583000Y100750D02*
X630000Y100750D01*
X583000Y100750D02*
X470000Y100750D01*
D25*
X583000Y100750D03*
D23*
X630000Y79250D02*
X633683Y79250D01*
X634143Y79244D01*
X634602Y79228D01*
X635060Y79200D01*
X635518Y79161D01*
X635975Y79111D01*
X636431Y79050D01*
X636885Y78979D01*
X637337Y78896D01*
X637787Y78802D01*
X638234Y78697D01*
X638679Y78582D01*
X639121Y78456D01*
X639560Y78319D01*
X639995Y78172D01*
X640427Y78014D01*
X640854Y77846D01*
X641278Y77668D01*
X641697Y77479D01*
X642111Y77280D01*
X642521Y77072D01*
X642925Y76853D01*
X643324Y76625D01*
X643717Y76387D01*
X644105Y76140D01*
X644486Y75884D01*
X644861Y75618D01*
X645229Y75343D01*
X645591Y75060D01*
X645946Y74768D01*
X646294Y74467D01*
X646634Y74159D01*
X646967Y73842D01*
X647292Y73517D01*
X647609Y73184D01*
X647917Y72844D01*
X648218Y72496D01*
X648510Y72141D01*
X648793Y71779D01*
X649068Y71411D01*
X649334Y71036D01*
X649590Y70655D01*
X649837Y70267D01*
X650075Y69874D01*
X650303Y69475D01*
X650522Y69071D01*
X650730Y68661D01*
X650929Y68247D01*
X651118Y67828D01*
X651296Y67404D01*
X651464Y66977D01*
X651622Y66545D01*
X651769Y66110D01*
X651906Y65671D01*
X652032Y65229D01*
X652147Y64784D01*
X652252Y64337D01*
X652346Y63887D01*
X652429Y63435D01*
X652500Y62981D01*
X652561Y62525D01*
X652611Y62068D01*
X652650Y61610D01*
X652678Y61152D01*
X652694Y60693D01*
X652700Y60233D01*
X652700Y40000D01*
X470000Y79250D02*
X469582Y79245D01*
X469164Y79230D01*
X468747Y79205D01*
X468330Y79169D01*
X467915Y79124D01*
X467500Y79068D01*
X467087Y79003D01*
X466676Y78928D01*
X466267Y78842D01*
X465860Y78747D01*
X465455Y78642D01*
X465053Y78528D01*
X464654Y78403D01*
X464258Y78269D01*
X463865Y78126D01*
X463476Y77973D01*
X463091Y77811D01*
X462710Y77639D01*
X462333Y77458D01*
X461960Y77268D01*
X461592Y77070D01*
X461230Y76862D01*
X460872Y76646D01*
X460519Y76421D01*
X460172Y76188D01*
X459831Y75946D01*
X459496Y75696D01*
X459167Y75438D01*
X458844Y75173D01*
X458528Y74899D01*
X458218Y74618D01*
X457916Y74330D01*
X457620Y74034D01*
X457332Y73732D01*
X457051Y73422D01*
X456777Y73106D01*
X456512Y72783D01*
X456254Y72454D01*
X456004Y72119D01*
X455762Y71778D01*
X455529Y71431D01*
X455304Y71078D01*
X455088Y70720D01*
X454880Y70358D01*
X454682Y69990D01*
X454492Y69617D01*
X454311Y69240D01*
X454139Y68859D01*
X453977Y68474D01*
X453824Y68085D01*
X453681Y67692D01*
X453547Y67296D01*
X453422Y66897D01*
X453308Y66495D01*
X453203Y66090D01*
X453108Y65683D01*
X453022Y65274D01*
X452947Y64863D01*
X452882Y64450D01*
X452826Y64035D01*
X452781Y63620D01*
X452745Y63203D01*
X452720Y62786D01*
X452705Y62368D01*
X452700Y61950D01*
X452700Y40000D01*
X260000Y47300D02*
X259998Y47124D01*
X259991Y46947D01*
X259981Y46771D01*
X259966Y46595D01*
X259947Y46420D01*
X259923Y46245D01*
X259896Y46071D01*
X259864Y45897D01*
X259828Y45725D01*
X259788Y45553D01*
X259744Y45382D01*
X259695Y45213D01*
X259643Y45044D01*
X259586Y44877D01*
X259526Y44711D01*
X259461Y44547D01*
X259393Y44385D01*
X259320Y44224D01*
X259244Y44065D01*
X259164Y43908D01*
X259080Y43752D01*
X258992Y43599D01*
X258901Y43448D01*
X258806Y43300D01*
X258708Y43153D01*
X258606Y43009D01*
X258500Y42868D01*
X258392Y42729D01*
X258280Y42593D01*
X258164Y42459D01*
X258046Y42329D01*
X257924Y42201D01*
X257799Y42076D01*
X257671Y41954D01*
X257541Y41836D01*
X257407Y41720D01*
X257271Y41608D01*
X257132Y41500D01*
X256991Y41394D01*
X256847Y41292D01*
X256700Y41194D01*
X256552Y41099D01*
X256401Y41008D01*
X256248Y40920D01*
X256092Y40836D01*
X255935Y40756D01*
X255776Y40680D01*
X255615Y40607D01*
X255453Y40539D01*
X255289Y40474D01*
X255123Y40414D01*
X254956Y40357D01*
X254787Y40305D01*
X254618Y40256D01*
X254447Y40212D01*
X254275Y40172D01*
X254103Y40136D01*
X253929Y40104D01*
X253755Y40077D01*
X253580Y40053D01*
X253405Y40034D01*
X253229Y40019D01*
X253053Y40009D01*
X252876Y40002D01*
X252700Y40000D01*
X260000Y47300D02*
X260000Y79250D01*
X60000Y79250D02*
X60000Y47300D01*
X59998Y47124D01*
X59991Y46947D01*
X59981Y46771D01*
X59966Y46595D01*
X59947Y46420D01*
X59923Y46245D01*
X59896Y46071D01*
X59864Y45897D01*
X59828Y45725D01*
X59788Y45553D01*
X59744Y45382D01*
X59695Y45213D01*
X59643Y45044D01*
X59586Y44877D01*
X59526Y44711D01*
X59461Y44547D01*
X59393Y44385D01*
X59320Y44224D01*
X59244Y44065D01*
X59164Y43908D01*
X59080Y43752D01*
X58992Y43599D01*
X58901Y43448D01*
X58806Y43300D01*
X58708Y43153D01*
X58606Y43009D01*
X58500Y42868D01*
X58392Y42729D01*
X58280Y42593D01*
X58164Y42459D01*
X58046Y42329D01*
X57924Y42201D01*
X57799Y42076D01*
X57671Y41954D01*
X57541Y41836D01*
X57407Y41720D01*
X57271Y41608D01*
X57132Y41500D01*
X56991Y41394D01*
X56847Y41292D01*
X56700Y41194D01*
X56552Y41099D01*
X56401Y41008D01*
X56248Y40920D01*
X56092Y40836D01*
X55935Y40756D01*
X55776Y40680D01*
X55615Y40607D01*
X55453Y40539D01*
X55289Y40474D01*
X55123Y40414D01*
X54956Y40357D01*
X54787Y40305D01*
X54618Y40256D01*
X54447Y40212D01*
X54275Y40172D01*
X54103Y40136D01*
X53929Y40104D01*
X53755Y40077D01*
X53580Y40053D01*
X53405Y40034D01*
X53229Y40019D01*
X53053Y40009D01*
X52876Y40002D01*
X52700Y40000D01*
X305250Y200200D02*
X305250Y228500D01*
X317950Y155200D02*
X317950Y126900D01*
X330650Y200200D02*
X330650Y228500D01*
D25*
X330000Y60000D03*
D23*
X329988Y59033D01*
X329953Y58067D01*
X329895Y57103D01*
X329813Y56139D01*
X329708Y55179D01*
X329580Y54220D01*
X329429Y53266D01*
X329255Y52315D01*
X329058Y51369D01*
X328838Y50427D01*
X328595Y49492D01*
X328330Y48562D01*
X328042Y47639D01*
X327732Y46724D01*
X327401Y45816D01*
X327047Y44916D01*
X326672Y44025D01*
X326275Y43144D01*
X325857Y42272D01*
X325418Y41411D01*
X324959Y40561D01*
X324479Y39722D01*
X323979Y38894D01*
X323459Y38079D01*
X322919Y37277D01*
X322361Y36489D01*
X321783Y35713D01*
X321187Y34953D01*
X320573Y34206D01*
X319940Y33475D01*
X319291Y32759D01*
X318624Y32060D01*
X317940Y31376D01*
X317241Y30709D01*
X316525Y30060D01*
X315794Y29427D01*
X315047Y28813D01*
X314287Y28217D01*
X313511Y27639D01*
X312723Y27081D01*
X311921Y26541D01*
X311106Y26021D01*
X310278Y25521D01*
X309439Y25041D01*
X308589Y24582D01*
X307728Y24143D01*
X306856Y23725D01*
X305975Y23328D01*
X305084Y22953D01*
X304184Y22599D01*
X303276Y22268D01*
X302361Y21958D01*
X301438Y21670D01*
X300508Y21405D01*
X299573Y21162D01*
X298631Y20942D01*
X297685Y20745D01*
X296734Y20571D01*
X295780Y20420D01*
X294821Y20292D01*
X293861Y20187D01*
X292897Y20105D01*
X291933Y20047D01*
X290967Y20012D01*
X290000Y20000D01*
X247300Y20000D01*
X246817Y20006D01*
X246334Y20023D01*
X245851Y20053D01*
X245370Y20093D01*
X244889Y20146D01*
X244410Y20210D01*
X243933Y20285D01*
X243457Y20373D01*
X242984Y20471D01*
X242514Y20581D01*
X242046Y20702D01*
X241581Y20835D01*
X241120Y20979D01*
X240662Y21134D01*
X240208Y21300D01*
X239758Y21477D01*
X239313Y21664D01*
X238872Y21863D01*
X238436Y22071D01*
X238006Y22291D01*
X237580Y22521D01*
X237161Y22761D01*
X236747Y23011D01*
X236340Y23271D01*
X235939Y23540D01*
X235544Y23820D01*
X235157Y24108D01*
X234776Y24407D01*
X234403Y24714D01*
X234038Y25030D01*
X233680Y25355D01*
X233330Y25688D01*
X232988Y26030D01*
X232655Y26380D01*
X232330Y26738D01*
X232014Y27103D01*
X231707Y27476D01*
X231408Y27857D01*
X231120Y28244D01*
X230840Y28639D01*
X230571Y29040D01*
X230311Y29447D01*
X230061Y29861D01*
X229821Y30280D01*
X229591Y30706D01*
X229371Y31136D01*
X229163Y31572D01*
X228964Y32013D01*
X228777Y32458D01*
X228600Y32908D01*
X228434Y33362D01*
X228279Y33820D01*
X228135Y34281D01*
X228002Y34746D01*
X227881Y35214D01*
X227771Y35684D01*
X227673Y36157D01*
X227585Y36633D01*
X227510Y37110D01*
X227446Y37589D01*
X227393Y38070D01*
X227353Y38551D01*
X227323Y39034D01*
X227306Y39517D01*
X227300Y40000D01*
X343350Y126900D02*
X343350Y155200D01*
D25*
X344000Y80000D03*
D23*
X286000Y80000D01*
D25*
X286000Y80000D03*
D24*
X519050Y369240D02*
X519050Y397540D01*
X593060Y310000D02*
X593060Y289500D01*
X593060Y310000D02*
X593060Y339000D01*
X593060Y352180D01*
X593055Y352592D01*
X593040Y353004D01*
X593015Y353416D01*
X592980Y353827D01*
X592936Y354236D01*
X592881Y354645D01*
X592816Y355052D01*
X592742Y355458D01*
X592658Y355861D01*
X592564Y356263D01*
X592461Y356662D01*
X592348Y357058D01*
X592225Y357452D01*
X592093Y357842D01*
X591951Y358230D01*
X591801Y358613D01*
X591640Y358993D01*
X591471Y359369D01*
X591293Y359741D01*
X591106Y360108D01*
X590910Y360471D01*
X590705Y360829D01*
X590492Y361182D01*
X590270Y361529D01*
X590040Y361871D01*
X589802Y362208D01*
X589555Y362538D01*
X589301Y362863D01*
X589039Y363181D01*
X588770Y363493D01*
X588493Y363798D01*
X588208Y364097D01*
X587917Y364388D01*
X587618Y364673D01*
X587313Y364950D01*
X587001Y365219D01*
X586683Y365481D01*
X586358Y365735D01*
X586028Y365982D01*
X585691Y366220D01*
X585349Y366450D01*
X585002Y366672D01*
X584649Y366885D01*
X584291Y367090D01*
X583928Y367286D01*
X583561Y367473D01*
X583189Y367651D01*
X582813Y367820D01*
X582433Y367981D01*
X582050Y368131D01*
X581662Y368273D01*
X581272Y368405D01*
X580878Y368528D01*
X580482Y368641D01*
X580083Y368744D01*
X579681Y368838D01*
X579278Y368922D01*
X578872Y368996D01*
X578465Y369061D01*
X578056Y369116D01*
X577647Y369160D01*
X577236Y369195D01*
X576824Y369220D01*
X576412Y369235D01*
X576000Y369240D01*
X519050Y369240D01*
D23*
X568750Y339000D02*
X593060Y339000D01*
X576000Y369240D02*
X576000Y400250D01*
D25*
X593060Y310000D03*
D24*
X480950Y314704D02*
X480950Y334000D01*
X481000Y334000D01*
D25*
X481000Y334000D03*
D23*
X368750Y155200D02*
X368750Y126900D01*
X368750Y155200D02*
X368750Y246000D01*
X369000Y246000D01*
D25*
X369000Y246000D03*
X494000Y246000D03*
D23*
X494000Y265296D01*
X493650Y265296D01*
X450000Y246000D02*
X449996Y246290D01*
X449986Y246580D01*
X449968Y246869D01*
X449944Y247158D01*
X449913Y247446D01*
X449874Y247734D01*
X449829Y248020D01*
X449776Y248306D01*
X449717Y248589D01*
X449651Y248872D01*
X449579Y249152D01*
X449499Y249431D01*
X449413Y249708D01*
X449320Y249983D01*
X449220Y250255D01*
X449114Y250525D01*
X449002Y250792D01*
X448882Y251057D01*
X448757Y251318D01*
X448625Y251577D01*
X448488Y251832D01*
X448344Y252084D01*
X448194Y252332D01*
X448038Y252576D01*
X447876Y252817D01*
X447708Y253053D01*
X447535Y253286D01*
X447356Y253514D01*
X447172Y253738D01*
X446982Y253957D01*
X446787Y254172D01*
X446587Y254382D01*
X446382Y254587D01*
X446172Y254787D01*
X445957Y254982D01*
X445738Y255172D01*
X445514Y255356D01*
X445286Y255535D01*
X445053Y255708D01*
X444817Y255876D01*
X444576Y256038D01*
X444332Y256194D01*
X444084Y256344D01*
X443832Y256488D01*
X443577Y256625D01*
X443318Y256757D01*
X443057Y256882D01*
X442792Y257002D01*
X442525Y257114D01*
X442255Y257220D01*
X441983Y257320D01*
X441708Y257413D01*
X441431Y257499D01*
X441152Y257579D01*
X440872Y257651D01*
X440589Y257717D01*
X440306Y257776D01*
X440020Y257829D01*
X439734Y257874D01*
X439446Y257913D01*
X439158Y257944D01*
X438869Y257968D01*
X438580Y257986D01*
X438290Y257996D01*
X438000Y258000D01*
X428750Y258000D01*
D25*
X450000Y246000D03*
X444000Y317000D03*
D23*
X444411Y316995D01*
X444821Y316980D01*
X445231Y316955D01*
X445641Y316921D01*
X446049Y316876D01*
X446456Y316822D01*
X446862Y316757D01*
X447266Y316683D01*
X447668Y316599D01*
X448068Y316506D01*
X448466Y316403D01*
X448861Y316290D01*
X449253Y316168D01*
X449642Y316036D01*
X450028Y315895D01*
X450411Y315745D01*
X450789Y315585D01*
X451164Y315417D01*
X451534Y315239D01*
X451900Y315053D01*
X452262Y314857D01*
X452618Y314653D01*
X452970Y314441D01*
X453316Y314220D01*
X453657Y313991D01*
X453992Y313753D01*
X454322Y313508D01*
X454645Y313254D01*
X454962Y312993D01*
X455273Y312725D01*
X455577Y312449D01*
X455875Y312165D01*
X456165Y311875D01*
X456449Y311577D01*
X456725Y311273D01*
X456993Y310962D01*
X457254Y310645D01*
X457508Y310322D01*
X457753Y309992D01*
X457991Y309657D01*
X458220Y309316D01*
X458441Y308970D01*
X458653Y308618D01*
X458857Y308262D01*
X459053Y307900D01*
X459239Y307534D01*
X459417Y307164D01*
X459585Y306789D01*
X459745Y306411D01*
X459895Y306028D01*
X460036Y305642D01*
X460168Y305253D01*
X460290Y304861D01*
X460403Y304466D01*
X460506Y304068D01*
X460599Y303668D01*
X460683Y303266D01*
X460757Y302862D01*
X460822Y302456D01*
X460876Y302049D01*
X460921Y301641D01*
X460955Y301231D01*
X460980Y300821D01*
X460995Y300411D01*
X461000Y300000D01*
X461000Y257000D01*
X460997Y256734D01*
X460987Y256469D01*
X460971Y256203D01*
X460949Y255938D01*
X460920Y255674D01*
X460885Y255411D01*
X460843Y255148D01*
X460795Y254887D01*
X460741Y254626D01*
X460680Y254368D01*
X460614Y254110D01*
X460541Y253855D01*
X460462Y253601D01*
X460376Y253349D01*
X460285Y253099D01*
X460188Y252852D01*
X460085Y252607D01*
X459976Y252365D01*
X459861Y252125D01*
X459740Y251888D01*
X459614Y251654D01*
X459482Y251423D01*
X459344Y251196D01*
X459201Y250972D01*
X459053Y250751D01*
X458899Y250534D01*
X458740Y250321D01*
X458576Y250112D01*
X458407Y249907D01*
X458234Y249706D01*
X458055Y249509D01*
X457872Y249316D01*
X457684Y249128D01*
X457491Y248945D01*
X457294Y248766D01*
X457093Y248593D01*
X456888Y248424D01*
X456679Y248260D01*
X456466Y248101D01*
X456249Y247947D01*
X456028Y247799D01*
X455804Y247656D01*
X455577Y247518D01*
X455346Y247386D01*
X455112Y247260D01*
X454875Y247139D01*
X454635Y247024D01*
X454393Y246915D01*
X454148Y246812D01*
X453901Y246715D01*
X453651Y246624D01*
X453399Y246538D01*
X453145Y246459D01*
X452890Y246386D01*
X452632Y246320D01*
X452374Y246259D01*
X452113Y246205D01*
X451852Y246157D01*
X451589Y246115D01*
X451326Y246080D01*
X451062Y246051D01*
X450797Y246029D01*
X450531Y246013D01*
X450266Y246003D01*
X450000Y246000D01*
X506350Y442540D02*
X506350Y444000D01*
X506350Y470840D01*
X480950Y347700D02*
X472110Y347700D01*
X480950Y347700D02*
X481257Y347696D01*
X481564Y347685D01*
X481870Y347667D01*
X482176Y347641D01*
X482481Y347607D01*
X482785Y347567D01*
X483088Y347519D01*
X483390Y347463D01*
X483690Y347401D01*
X483989Y347331D01*
X484286Y347254D01*
X484582Y347170D01*
X484875Y347078D01*
X485165Y346980D01*
X485453Y346875D01*
X485739Y346762D01*
X486022Y346643D01*
X486302Y346517D01*
X486579Y346385D01*
X486852Y346245D01*
X487122Y346099D01*
X487388Y345947D01*
X487651Y345788D01*
X487910Y345623D01*
X488164Y345452D01*
X488415Y345275D01*
X488661Y345091D01*
X488903Y344902D01*
X489139Y344707D01*
X489372Y344506D01*
X489599Y344300D01*
X489821Y344088D01*
X490038Y343871D01*
X490250Y343649D01*
X490456Y343422D01*
X490657Y343189D01*
X490852Y342953D01*
X491041Y342711D01*
X491225Y342465D01*
X491402Y342214D01*
X491573Y341960D01*
X491738Y341701D01*
X491897Y341438D01*
X492049Y341172D01*
X492195Y340902D01*
X492335Y340629D01*
X492467Y340352D01*
X492593Y340072D01*
X492712Y339789D01*
X492825Y339503D01*
X492930Y339215D01*
X493028Y338925D01*
X493120Y338632D01*
X493204Y338336D01*
X493281Y338039D01*
X493351Y337740D01*
X493413Y337440D01*
X493469Y337138D01*
X493517Y336835D01*
X493557Y336531D01*
X493591Y336226D01*
X493617Y335920D01*
X493635Y335614D01*
X493646Y335307D01*
X493650Y335000D01*
X493650Y314704D01*
X506350Y430000D02*
X506350Y442540D01*
X506350Y430000D02*
X506347Y429760D01*
X506338Y429520D01*
X506324Y429280D01*
X506304Y429041D01*
X506278Y428802D01*
X506246Y428564D01*
X506208Y428327D01*
X506165Y428091D01*
X506116Y427856D01*
X506061Y427622D01*
X506001Y427390D01*
X505935Y427159D01*
X505864Y426930D01*
X505787Y426702D01*
X505704Y426477D01*
X505616Y426253D01*
X505523Y426032D01*
X505425Y425813D01*
X505321Y425596D01*
X505212Y425383D01*
X505098Y425171D01*
X504979Y424963D01*
X504854Y424757D01*
X504725Y424555D01*
X504591Y424356D01*
X504452Y424160D01*
X504309Y423967D01*
X504161Y423778D01*
X504008Y423593D01*
X503851Y423411D01*
X503690Y423233D01*
X503524Y423060D01*
X503354Y422890D01*
X503181Y422724D01*
X503003Y422563D01*
X502821Y422406D01*
X502636Y422253D01*
X502447Y422105D01*
X502254Y421962D01*
X502058Y421823D01*
X501859Y421689D01*
X501657Y421560D01*
X501451Y421435D01*
X501243Y421316D01*
X501031Y421202D01*
X500818Y421093D01*
X500601Y420989D01*
X500382Y420891D01*
X500161Y420798D01*
X499937Y420710D01*
X499712Y420627D01*
X499484Y420550D01*
X499255Y420479D01*
X499024Y420413D01*
X498792Y420353D01*
X498558Y420298D01*
X498323Y420249D01*
X498087Y420206D01*
X497850Y420168D01*
X497612Y420136D01*
X497373Y420110D01*
X497134Y420090D01*
X496894Y420076D01*
X496654Y420067D01*
X496414Y420064D01*
X485174Y420064D01*
X484858Y420060D01*
X484543Y420049D01*
X484228Y420030D01*
X483913Y420003D01*
X483599Y419969D01*
X483286Y419927D01*
X482975Y419878D01*
X482664Y419821D01*
X482355Y419756D01*
X482048Y419684D01*
X481742Y419605D01*
X481438Y419519D01*
X481137Y419425D01*
X480838Y419323D01*
X480541Y419215D01*
X480248Y419100D01*
X479957Y418977D01*
X479669Y418847D01*
X479384Y418711D01*
X479103Y418568D01*
X478825Y418418D01*
X478551Y418261D01*
X478281Y418097D01*
X478015Y417928D01*
X477753Y417751D01*
X477495Y417569D01*
X477242Y417380D01*
X476994Y417186D01*
X476750Y416985D01*
X476511Y416779D01*
X476277Y416566D01*
X476049Y416349D01*
X475825Y416125D01*
X475608Y415897D01*
X475395Y415663D01*
X475189Y415424D01*
X474988Y415180D01*
X474794Y414932D01*
X474605Y414679D01*
X474423Y414421D01*
X474246Y414159D01*
X474077Y413893D01*
X473913Y413623D01*
X473756Y413349D01*
X473606Y413071D01*
X473463Y412790D01*
X473327Y412505D01*
X473197Y412217D01*
X473074Y411926D01*
X472959Y411633D01*
X472851Y411336D01*
X472749Y411037D01*
X472655Y410736D01*
X472569Y410432D01*
X472490Y410126D01*
X472418Y409819D01*
X472353Y409510D01*
X472296Y409199D01*
X472247Y408888D01*
X472205Y408575D01*
X472171Y408261D01*
X472144Y407946D01*
X472125Y407631D01*
X472114Y407316D01*
X472110Y407000D01*
X472110Y347700D01*
X576000Y421750D02*
X576000Y431750D01*
X575996Y432046D01*
X575986Y432342D01*
X575968Y432637D01*
X575943Y432932D01*
X575911Y433227D01*
X575871Y433520D01*
X575825Y433812D01*
X575772Y434104D01*
X575711Y434393D01*
X575644Y434682D01*
X575570Y434968D01*
X575489Y435253D01*
X575400Y435535D01*
X575306Y435816D01*
X575204Y436094D01*
X575096Y436369D01*
X574981Y436642D01*
X574859Y436912D01*
X574731Y437179D01*
X574597Y437443D01*
X574456Y437703D01*
X574309Y437960D01*
X574156Y438214D01*
X573997Y438463D01*
X573832Y438709D01*
X573660Y438950D01*
X573484Y439188D01*
X573301Y439421D01*
X573113Y439649D01*
X572919Y439873D01*
X572720Y440092D01*
X572516Y440307D01*
X572307Y440516D01*
X572092Y440720D01*
X571873Y440919D01*
X571649Y441113D01*
X571421Y441301D01*
X571188Y441484D01*
X570950Y441660D01*
X570709Y441832D01*
X570463Y441997D01*
X570214Y442156D01*
X569960Y442309D01*
X569703Y442456D01*
X569443Y442597D01*
X569179Y442731D01*
X568912Y442859D01*
X568642Y442981D01*
X568369Y443096D01*
X568094Y443204D01*
X567816Y443306D01*
X567535Y443400D01*
X567253Y443489D01*
X566968Y443570D01*
X566682Y443644D01*
X566393Y443711D01*
X566104Y443772D01*
X565812Y443825D01*
X565520Y443871D01*
X565227Y443911D01*
X564932Y443943D01*
X564637Y443968D01*
X564342Y443986D01*
X564046Y443996D01*
X563750Y444000D01*
X506350Y444000D01*
D25*
X472110Y347700D03*
D23*
X493650Y369240D02*
X493650Y397540D01*
X506350Y339000D02*
X506350Y314704D01*
X506350Y339000D02*
X506350Y356540D01*
X506346Y356847D01*
X506335Y357154D01*
X506317Y357460D01*
X506291Y357766D01*
X506257Y358071D01*
X506217Y358375D01*
X506169Y358678D01*
X506113Y358980D01*
X506051Y359280D01*
X505981Y359579D01*
X505904Y359876D01*
X505820Y360172D01*
X505728Y360465D01*
X505630Y360755D01*
X505525Y361043D01*
X505412Y361329D01*
X505293Y361612D01*
X505167Y361892D01*
X505035Y362169D01*
X504895Y362442D01*
X504749Y362712D01*
X504597Y362978D01*
X504438Y363241D01*
X504273Y363500D01*
X504102Y363754D01*
X503925Y364005D01*
X503741Y364251D01*
X503552Y364493D01*
X503357Y364729D01*
X503156Y364962D01*
X502950Y365189D01*
X502738Y365411D01*
X502521Y365628D01*
X502299Y365840D01*
X502072Y366046D01*
X501839Y366247D01*
X501603Y366442D01*
X501361Y366631D01*
X501115Y366815D01*
X500864Y366992D01*
X500610Y367163D01*
X500351Y367328D01*
X500088Y367487D01*
X499822Y367639D01*
X499552Y367785D01*
X499279Y367925D01*
X499002Y368057D01*
X498722Y368183D01*
X498439Y368302D01*
X498153Y368415D01*
X497865Y368520D01*
X497575Y368618D01*
X497282Y368710D01*
X496986Y368794D01*
X496689Y368871D01*
X496390Y368941D01*
X496090Y369003D01*
X495788Y369059D01*
X495485Y369107D01*
X495181Y369147D01*
X494876Y369181D01*
X494570Y369207D01*
X494264Y369225D01*
X493957Y369236D01*
X493650Y369240D01*
X506350Y339000D02*
X547250Y339000D01*
D24*
X546000Y289500D02*
X566940Y289500D01*
X546000Y289500D02*
X545613Y289495D01*
X545227Y289481D01*
X544841Y289458D01*
X544456Y289425D01*
X544071Y289383D01*
X543688Y289332D01*
X543306Y289272D01*
X542926Y289202D01*
X542547Y289123D01*
X542171Y289035D01*
X541797Y288938D01*
X541425Y288832D01*
X541056Y288717D01*
X540689Y288593D01*
X540326Y288460D01*
X539966Y288319D01*
X539610Y288169D01*
X539258Y288010D01*
X538909Y287843D01*
X538564Y287667D01*
X538224Y287483D01*
X537889Y287292D01*
X537558Y287091D01*
X537232Y286884D01*
X536911Y286668D01*
X536595Y286444D01*
X536285Y286213D01*
X535981Y285975D01*
X535683Y285729D01*
X535390Y285476D01*
X535104Y285216D01*
X534824Y284950D01*
X534550Y284676D01*
X534284Y284396D01*
X534024Y284110D01*
X533771Y283817D01*
X533525Y283519D01*
X533287Y283215D01*
X533056Y282905D01*
X532832Y282589D01*
X532616Y282268D01*
X532409Y281942D01*
X532208Y281611D01*
X532017Y281276D01*
X531833Y280936D01*
X531657Y280591D01*
X531490Y280242D01*
X531331Y279890D01*
X531181Y279534D01*
X531040Y279174D01*
X530907Y278811D01*
X530783Y278444D01*
X530668Y278075D01*
X530562Y277703D01*
X530465Y277329D01*
X530377Y276953D01*
X530298Y276574D01*
X530228Y276194D01*
X530168Y275812D01*
X530117Y275429D01*
X530075Y275044D01*
X530042Y274659D01*
X530019Y274273D01*
X530005Y273887D01*
X530000Y273500D01*
X530000Y180000D01*
X506350Y180000D01*
X506350Y150000D02*
X512101Y150000D01*
X512534Y150005D01*
X512966Y150021D01*
X513398Y150047D01*
X513829Y150084D01*
X514258Y150131D01*
X514687Y150188D01*
X515114Y150255D01*
X515540Y150333D01*
X515963Y150422D01*
X516385Y150520D01*
X516803Y150629D01*
X517219Y150747D01*
X517632Y150876D01*
X518042Y151015D01*
X518448Y151163D01*
X518851Y151321D01*
X519249Y151489D01*
X519644Y151667D01*
X520034Y151854D01*
X520419Y152050D01*
X520800Y152256D01*
X521175Y152471D01*
X521545Y152694D01*
X521910Y152927D01*
X522269Y153168D01*
X522622Y153418D01*
X522969Y153677D01*
X523309Y153944D01*
X523643Y154219D01*
X523970Y154501D01*
X524291Y154792D01*
X524604Y155090D01*
X524910Y155396D01*
X525208Y155709D01*
X525499Y156030D01*
X525781Y156357D01*
X526056Y156691D01*
X526323Y157031D01*
X526582Y157378D01*
X526832Y157731D01*
X527073Y158090D01*
X527306Y158455D01*
X527529Y158825D01*
X527744Y159200D01*
X527950Y159581D01*
X528146Y159966D01*
X528333Y160356D01*
X528511Y160751D01*
X528679Y161149D01*
X528837Y161552D01*
X528985Y161958D01*
X529124Y162368D01*
X529253Y162781D01*
X529371Y163197D01*
X529480Y163615D01*
X529578Y164037D01*
X529667Y164460D01*
X529745Y164886D01*
X529812Y165313D01*
X529869Y165742D01*
X529916Y166171D01*
X529953Y166602D01*
X529979Y167034D01*
X529995Y167466D01*
X530000Y167899D01*
X530000Y180000D01*
D25*
X546000Y289500D03*
D23*
X394150Y155200D02*
X394150Y126900D01*
M02*
