G04 EAGLE Gerber RS-274X export*
G75*
%MOMM*%
%FSLAX34Y34*%
%LPD*%
%INBottom Copper*%
%IPPOS*%
%AMOC8*
5,1,8,0,0,1.08239X$1,22.5*%
G01*
G04 Define Apertures*
%ADD10C,1.800000*%
%ADD11C,4.500000*%
%ADD12R,0.914400X1.778000*%
%ADD13C,1.600000*%
%ADD14R,1.600000X1.600000*%
%ADD15C,0.254000*%
%ADD16C,0.220000*%
%ADD17C,0.800000*%
%ADD18C,0.650000*%
%ADD19C,0.200000*%
%ADD20C,0.500000*%
G36*
X640391Y4531D02*
X650589Y6146D01*
X651333Y6388D01*
X660532Y11075D01*
X661165Y11535D01*
X668465Y18835D01*
X668925Y19468D01*
X673612Y28667D01*
X673854Y29411D01*
X675469Y39609D01*
X675500Y40000D01*
X675500Y460000D01*
X675469Y460391D01*
X673854Y470589D01*
X673612Y471333D01*
X668925Y480532D01*
X668465Y481165D01*
X661165Y488465D01*
X660532Y488925D01*
X651333Y493612D01*
X650589Y493854D01*
X640391Y495469D01*
X640000Y495500D01*
X40000Y495500D01*
X39609Y495469D01*
X29411Y493854D01*
X28667Y493612D01*
X19468Y488925D01*
X18835Y488465D01*
X11535Y481165D01*
X11075Y480532D01*
X6388Y471333D01*
X6146Y470589D01*
X4531Y460391D01*
X4500Y460000D01*
X4500Y40000D01*
X4531Y39609D01*
X6146Y29411D01*
X6388Y28667D01*
X11075Y19468D01*
X11535Y18835D01*
X18835Y11535D01*
X19468Y11075D01*
X28667Y6388D01*
X29411Y6146D01*
X39609Y4531D01*
X40000Y4500D01*
X640000Y4500D01*
X640391Y4531D01*
G37*
%LPC*%
G36*
X504062Y459340D02*
X499836Y461091D01*
X496601Y464326D01*
X495148Y467833D01*
X494592Y468658D01*
X493758Y469201D01*
X492778Y469376D01*
X491808Y469155D01*
X491001Y468573D01*
X490529Y467833D01*
X489428Y465176D01*
X486614Y462362D01*
X482939Y460840D01*
X481950Y460840D01*
X481950Y480840D01*
X482939Y480840D01*
X486614Y479318D01*
X489428Y476505D01*
X490529Y473847D01*
X491085Y473022D01*
X491918Y472479D01*
X492898Y472304D01*
X493868Y472525D01*
X494675Y473107D01*
X495148Y473847D01*
X496601Y477354D01*
X499836Y480589D01*
X504062Y482340D01*
X508638Y482340D01*
X512864Y480589D01*
X516099Y477354D01*
X517850Y473128D01*
X517850Y468552D01*
X516099Y464326D01*
X512864Y461091D01*
X508638Y459340D01*
X504062Y459340D01*
G37*
G36*
X470950Y471840D02*
X470950Y472829D01*
X472472Y476504D01*
X475286Y479318D01*
X478961Y480840D01*
X479950Y480840D01*
X479950Y471840D01*
X470950Y471840D01*
G37*
G36*
X311414Y448600D02*
X306819Y450503D01*
X303303Y454019D01*
X301400Y458614D01*
X301400Y463586D01*
X303303Y468181D01*
X306819Y471697D01*
X311414Y473600D01*
X316386Y473600D01*
X320981Y471697D01*
X324497Y468181D01*
X326400Y463586D01*
X326400Y458614D01*
X324497Y454019D01*
X320981Y450503D01*
X316386Y448600D01*
X311414Y448600D01*
G37*
G36*
X352900Y462100D02*
X352900Y463288D01*
X354575Y467331D01*
X357669Y470425D01*
X361712Y472100D01*
X362900Y472100D01*
X362900Y462100D01*
X352900Y462100D01*
G37*
G36*
X364900Y462100D02*
X364900Y472100D01*
X366088Y472100D01*
X370131Y470425D01*
X373225Y467331D01*
X374900Y463288D01*
X374900Y462100D01*
X364900Y462100D01*
G37*
G36*
X478961Y460840D02*
X475286Y462362D01*
X472472Y465176D01*
X470950Y468851D01*
X470950Y469840D01*
X479950Y469840D01*
X479950Y460840D01*
X478961Y460840D01*
G37*
G36*
X364900Y450100D02*
X364900Y460100D01*
X374900Y460100D01*
X374900Y458912D01*
X373225Y454869D01*
X370131Y451775D01*
X366088Y450100D01*
X364900Y450100D01*
G37*
G36*
X361712Y450100D02*
X357669Y451775D01*
X354575Y454869D01*
X352900Y458912D01*
X352900Y460100D01*
X362900Y460100D01*
X362900Y450100D01*
X361712Y450100D01*
G37*
G36*
X368400Y392100D02*
X368400Y394326D01*
X370070Y400557D01*
X373295Y406143D01*
X377857Y410705D01*
X383443Y413930D01*
X389674Y415600D01*
X391900Y415600D01*
X391900Y392100D01*
X368400Y392100D01*
G37*
G36*
X260400Y392100D02*
X260400Y394326D01*
X262070Y400557D01*
X265295Y406143D01*
X269857Y410705D01*
X275443Y413930D01*
X281674Y415600D01*
X283900Y415600D01*
X283900Y392100D01*
X260400Y392100D01*
G37*
G36*
X285900Y392100D02*
X285900Y415600D01*
X288126Y415600D01*
X294357Y413930D01*
X299943Y410705D01*
X304505Y406143D01*
X307730Y400557D01*
X309400Y394326D01*
X309400Y392100D01*
X285900Y392100D01*
G37*
G36*
X393900Y392100D02*
X393900Y415600D01*
X396126Y415600D01*
X402357Y413930D01*
X407943Y410705D01*
X412505Y406143D01*
X415730Y400557D01*
X417400Y394326D01*
X417400Y392100D01*
X393900Y392100D01*
G37*
G36*
X38422Y369462D02*
X37988Y369500D01*
X35922Y369500D01*
X34482Y370097D01*
X33960Y370249D01*
X32880Y370439D01*
X31056Y371493D01*
X30762Y371637D01*
X28388Y372621D01*
X27645Y373363D01*
X27128Y373761D01*
X26620Y374054D01*
X24942Y376053D01*
X24794Y376214D01*
X22621Y378388D01*
X22415Y378884D01*
X22021Y379535D01*
X21973Y379592D01*
X20908Y382517D01*
X20868Y382619D01*
X19500Y385922D01*
X19500Y394078D01*
X20868Y397381D01*
X20908Y397483D01*
X21973Y400408D01*
X22021Y400465D01*
X22415Y401116D01*
X22621Y401612D01*
X24794Y403786D01*
X24942Y403947D01*
X26620Y405946D01*
X27128Y406239D01*
X27645Y406637D01*
X28388Y407379D01*
X30762Y408363D01*
X31056Y408507D01*
X32880Y409561D01*
X33960Y409751D01*
X34482Y409903D01*
X35922Y410500D01*
X37988Y410500D01*
X38422Y410538D01*
X40000Y410816D01*
X41578Y410538D01*
X42012Y410500D01*
X44078Y410500D01*
X45518Y409903D01*
X46041Y409751D01*
X47120Y409561D01*
X48944Y408507D01*
X49238Y408363D01*
X51612Y407379D01*
X52355Y406637D01*
X52872Y406239D01*
X53380Y405946D01*
X55058Y403947D01*
X55206Y403786D01*
X57379Y401612D01*
X57585Y401116D01*
X57979Y400465D01*
X58027Y400408D01*
X59092Y397483D01*
X59132Y397381D01*
X60500Y394078D01*
X60500Y385922D01*
X59132Y382619D01*
X59092Y382517D01*
X58027Y379592D01*
X57979Y379535D01*
X57585Y378884D01*
X57379Y378388D01*
X55206Y376214D01*
X55058Y376053D01*
X53380Y374054D01*
X52872Y373761D01*
X52355Y373363D01*
X51612Y372621D01*
X49238Y371637D01*
X48944Y371493D01*
X47120Y370439D01*
X46041Y370249D01*
X45518Y370097D01*
X44078Y369500D01*
X42012Y369500D01*
X41578Y369462D01*
X40000Y369184D01*
X38422Y369462D01*
G37*
G36*
X638422Y369462D02*
X637988Y369500D01*
X635922Y369500D01*
X634482Y370097D01*
X633960Y370249D01*
X632880Y370439D01*
X631056Y371493D01*
X630762Y371637D01*
X628388Y372621D01*
X627645Y373363D01*
X627128Y373761D01*
X626620Y374054D01*
X624942Y376053D01*
X624794Y376214D01*
X622621Y378388D01*
X622415Y378884D01*
X622021Y379535D01*
X621973Y379592D01*
X620908Y382517D01*
X620868Y382619D01*
X619500Y385922D01*
X619500Y394078D01*
X620868Y397381D01*
X620908Y397483D01*
X621973Y400408D01*
X622021Y400465D01*
X622415Y401116D01*
X622621Y401612D01*
X624794Y403786D01*
X624942Y403947D01*
X626620Y405946D01*
X627128Y406239D01*
X627645Y406637D01*
X628388Y407379D01*
X630762Y408363D01*
X631056Y408507D01*
X632880Y409561D01*
X633960Y409751D01*
X634482Y409903D01*
X635922Y410500D01*
X637988Y410500D01*
X638422Y410538D01*
X640000Y410816D01*
X641578Y410538D01*
X642012Y410500D01*
X644078Y410500D01*
X645518Y409903D01*
X646041Y409751D01*
X647120Y409561D01*
X648944Y408507D01*
X649238Y408363D01*
X651612Y407379D01*
X652355Y406637D01*
X652872Y406239D01*
X653380Y405946D01*
X655058Y403947D01*
X655206Y403786D01*
X657379Y401612D01*
X657585Y401116D01*
X657979Y400465D01*
X658027Y400408D01*
X659092Y397483D01*
X659132Y397381D01*
X660500Y394078D01*
X660500Y385922D01*
X659132Y382619D01*
X659092Y382517D01*
X658027Y379592D01*
X657979Y379535D01*
X657585Y378884D01*
X657379Y378388D01*
X655206Y376214D01*
X655058Y376053D01*
X653380Y374054D01*
X652872Y373761D01*
X652355Y373363D01*
X651612Y372621D01*
X649238Y371637D01*
X648944Y371493D01*
X647120Y370439D01*
X646041Y370249D01*
X645518Y370097D01*
X644078Y369500D01*
X642012Y369500D01*
X641578Y369462D01*
X640000Y369184D01*
X638422Y369462D01*
G37*
G36*
X393900Y366600D02*
X393900Y390100D01*
X417400Y390100D01*
X417400Y387874D01*
X415730Y381643D01*
X412505Y376057D01*
X407943Y371495D01*
X402357Y368270D01*
X396126Y366600D01*
X393900Y366600D01*
G37*
G36*
X389674Y366600D02*
X383443Y368270D01*
X377857Y371495D01*
X373295Y376057D01*
X370070Y381643D01*
X368400Y387874D01*
X368400Y390100D01*
X391900Y390100D01*
X391900Y366600D01*
X389674Y366600D01*
G37*
G36*
X285900Y366600D02*
X285900Y390100D01*
X309400Y390100D01*
X309400Y387874D01*
X307730Y381643D01*
X304505Y376057D01*
X299943Y371495D01*
X294357Y368270D01*
X288126Y366600D01*
X285900Y366600D01*
G37*
G36*
X281674Y366600D02*
X275443Y368270D01*
X269857Y371495D01*
X265295Y376057D01*
X262070Y381643D01*
X260400Y387874D01*
X260400Y390100D01*
X283900Y390100D01*
X283900Y366600D01*
X281674Y366600D01*
G37*
G36*
X187628Y357610D02*
X185578Y359660D01*
X185578Y361263D01*
X185380Y362238D01*
X184817Y363059D01*
X183979Y363595D01*
X182998Y363762D01*
X182121Y363573D01*
X181343Y363250D01*
X178657Y363250D01*
X176177Y364278D01*
X174278Y366177D01*
X173250Y368657D01*
X173250Y371343D01*
X174278Y373824D01*
X176177Y375722D01*
X178657Y376750D01*
X181343Y376750D01*
X182121Y376427D01*
X183098Y376237D01*
X184071Y376443D01*
X184888Y377012D01*
X185417Y377855D01*
X185578Y378737D01*
X185578Y380340D01*
X187628Y382390D01*
X212372Y382390D01*
X214422Y380340D01*
X214422Y378323D01*
X214620Y377348D01*
X215183Y376527D01*
X216021Y375991D01*
X217002Y375824D01*
X217879Y376013D01*
X219657Y376750D01*
X222343Y376750D01*
X224824Y375722D01*
X226722Y373824D01*
X227750Y371343D01*
X227750Y368657D01*
X226722Y366177D01*
X224824Y364278D01*
X222343Y363250D01*
X219657Y363250D01*
X217879Y363987D01*
X216902Y364177D01*
X215929Y363971D01*
X215112Y363402D01*
X214583Y362560D01*
X214422Y361677D01*
X214422Y359660D01*
X212372Y357610D01*
X187628Y357610D01*
G37*
G36*
X339391Y15500D02*
X328074Y18533D01*
X317926Y24391D01*
X309641Y32676D01*
X303783Y42824D01*
X300750Y54141D01*
X300750Y114108D01*
X300552Y115083D01*
X299989Y115903D01*
X299151Y116439D01*
X298170Y116606D01*
X297293Y116417D01*
X294838Y115400D01*
X290262Y115400D01*
X286036Y117151D01*
X282801Y120386D01*
X282160Y121933D01*
X281604Y122759D01*
X280770Y123301D01*
X279790Y123476D01*
X278820Y123255D01*
X278013Y122673D01*
X277540Y121933D01*
X276899Y120386D01*
X273664Y117151D01*
X269438Y115400D01*
X264862Y115400D01*
X260636Y117151D01*
X257401Y120386D01*
X255650Y124612D01*
X255650Y129188D01*
X257401Y133414D01*
X260636Y136649D01*
X264862Y138400D01*
X269438Y138400D01*
X273664Y136649D01*
X276899Y133414D01*
X277540Y131867D01*
X278096Y131041D01*
X278930Y130499D01*
X279910Y130324D01*
X280880Y130545D01*
X281687Y131127D01*
X282160Y131867D01*
X282801Y133414D01*
X286036Y136649D01*
X290262Y138400D01*
X294838Y138400D01*
X297293Y137383D01*
X298270Y137193D01*
X299243Y137398D01*
X300060Y137967D01*
X300589Y138810D01*
X300750Y139692D01*
X300750Y216246D01*
X300552Y217221D01*
X299989Y218042D01*
X299207Y218556D01*
X298736Y218751D01*
X295501Y221986D01*
X294860Y223533D01*
X294304Y224359D01*
X293470Y224901D01*
X292490Y225076D01*
X291520Y224855D01*
X290713Y224273D01*
X290240Y223533D01*
X289599Y221986D01*
X286364Y218751D01*
X282138Y217000D01*
X277562Y217000D01*
X273336Y218751D01*
X270101Y221986D01*
X268648Y225493D01*
X268092Y226318D01*
X267258Y226861D01*
X266278Y227036D01*
X265308Y226815D01*
X264501Y226233D01*
X264029Y225493D01*
X262928Y222836D01*
X260114Y220022D01*
X256439Y218500D01*
X255450Y218500D01*
X255450Y238500D01*
X256439Y238500D01*
X260114Y236978D01*
X262928Y234165D01*
X264029Y231507D01*
X264585Y230682D01*
X265418Y230139D01*
X266398Y229964D01*
X267368Y230185D01*
X268175Y230767D01*
X268648Y231507D01*
X270101Y235014D01*
X273336Y238249D01*
X277562Y240000D01*
X282138Y240000D01*
X286364Y238249D01*
X289599Y235014D01*
X290240Y233467D01*
X290796Y232641D01*
X291630Y232099D01*
X292610Y231924D01*
X293580Y232145D01*
X294387Y232727D01*
X294860Y233467D01*
X295501Y235014D01*
X298736Y238249D01*
X302962Y240000D01*
X307538Y240000D01*
X311764Y238249D01*
X314999Y235014D01*
X315640Y233467D01*
X316196Y232641D01*
X317030Y232099D01*
X318010Y231924D01*
X318980Y232145D01*
X319787Y232727D01*
X320260Y233467D01*
X320901Y235014D01*
X324136Y238249D01*
X328362Y240000D01*
X332938Y240000D01*
X337164Y238249D01*
X340399Y235014D01*
X341040Y233467D01*
X341596Y232641D01*
X342430Y232099D01*
X343410Y231924D01*
X344380Y232145D01*
X345187Y232727D01*
X345660Y233467D01*
X346301Y235014D01*
X349536Y238249D01*
X350007Y238444D01*
X350832Y239000D01*
X351375Y239834D01*
X351550Y240754D01*
X351550Y260918D01*
X354642Y270434D01*
X360522Y278528D01*
X368616Y284408D01*
X378132Y287500D01*
X422000Y287500D01*
X422975Y287698D01*
X423796Y288261D01*
X424332Y289099D01*
X424500Y290000D01*
X424500Y363624D01*
X426377Y368155D01*
X429845Y371623D01*
X434035Y373359D01*
X434860Y373915D01*
X435403Y374749D01*
X435578Y375668D01*
X435578Y380340D01*
X437628Y382390D01*
X462372Y382390D01*
X464422Y380340D01*
X464422Y377000D01*
X464620Y376025D01*
X465183Y375204D01*
X466021Y374668D01*
X466922Y374500D01*
X481711Y374500D01*
X482686Y374698D01*
X483507Y375261D01*
X483697Y375550D01*
X487136Y378989D01*
X491362Y380740D01*
X495938Y380740D01*
X500164Y378989D01*
X503399Y375754D01*
X504040Y374207D01*
X504596Y373381D01*
X505430Y372839D01*
X506410Y372664D01*
X507380Y372885D01*
X508187Y373467D01*
X508660Y374207D01*
X509301Y375754D01*
X512536Y378989D01*
X516762Y380740D01*
X521338Y380740D01*
X525564Y378989D01*
X528799Y375754D01*
X530550Y371528D01*
X530550Y366952D01*
X528799Y362726D01*
X525564Y359491D01*
X524823Y359184D01*
X523998Y358628D01*
X523365Y357521D01*
X522240Y353322D01*
X516810Y343918D01*
X509132Y336240D01*
X499728Y330810D01*
X489239Y328000D01*
X486610Y328000D01*
X485654Y327810D01*
X482492Y326500D01*
X479508Y326500D01*
X476752Y327642D01*
X474642Y329752D01*
X473500Y332508D01*
X473500Y335187D01*
X473302Y336162D01*
X472739Y336982D01*
X471901Y337519D01*
X470920Y337685D01*
X470043Y337496D01*
X467638Y336500D01*
X466922Y336500D01*
X465947Y336302D01*
X465126Y335739D01*
X464590Y334901D01*
X464422Y334000D01*
X464422Y330660D01*
X462372Y328610D01*
X450650Y328610D01*
X449675Y328412D01*
X448854Y327849D01*
X448318Y327011D01*
X448150Y326110D01*
X448150Y324492D01*
X448348Y323517D01*
X448882Y322724D01*
X450358Y321248D01*
X451500Y318492D01*
X451500Y315508D01*
X450358Y312752D01*
X448248Y310642D01*
X445492Y309500D01*
X442508Y309500D01*
X439752Y310642D01*
X437768Y312626D01*
X436938Y313175D01*
X435960Y313358D01*
X434988Y313144D01*
X434177Y312568D01*
X433654Y311722D01*
X433500Y310858D01*
X433500Y290000D01*
X433698Y289025D01*
X434261Y288204D01*
X435099Y287668D01*
X436000Y287500D01*
X442858Y287500D01*
X443833Y287698D01*
X444626Y288232D01*
X445752Y289358D01*
X448508Y290500D01*
X451492Y290500D01*
X454248Y289358D01*
X455374Y288232D01*
X456204Y287683D01*
X457142Y287500D01*
X499858Y287500D01*
X500833Y287698D01*
X501626Y288232D01*
X502752Y289358D01*
X505508Y290500D01*
X508492Y290500D01*
X511248Y289358D01*
X513358Y287248D01*
X514500Y284492D01*
X514500Y281508D01*
X513358Y278752D01*
X511248Y276642D01*
X508492Y275500D01*
X505508Y275500D01*
X502752Y276642D01*
X501626Y277768D01*
X500796Y278317D01*
X499858Y278500D01*
X457142Y278500D01*
X456167Y278302D01*
X455374Y277768D01*
X454248Y276642D01*
X451492Y275500D01*
X448508Y275500D01*
X445752Y276642D01*
X444626Y277768D01*
X443796Y278317D01*
X442858Y278500D01*
X383134Y278500D01*
X382646Y278452D01*
X374960Y276923D01*
X374059Y276550D01*
X367544Y272196D01*
X366854Y271506D01*
X362500Y264991D01*
X362127Y264090D01*
X360598Y256404D01*
X360550Y255916D01*
X360550Y254192D01*
X360748Y253217D01*
X361311Y252396D01*
X362149Y251860D01*
X363130Y251693D01*
X364098Y251922D01*
X364681Y252329D01*
X367508Y253500D01*
X370492Y253500D01*
X373248Y252358D01*
X374374Y251232D01*
X375204Y250683D01*
X376142Y250500D01*
X442858Y250500D01*
X443833Y250698D01*
X444626Y251232D01*
X445752Y252358D01*
X448508Y253500D01*
X451492Y253500D01*
X454248Y252358D01*
X455374Y251232D01*
X456204Y250683D01*
X457142Y250500D01*
X486858Y250500D01*
X487833Y250698D01*
X488626Y251232D01*
X489752Y252358D01*
X492508Y253500D01*
X495492Y253500D01*
X498248Y252358D01*
X500358Y250248D01*
X501500Y247492D01*
X501500Y244508D01*
X500358Y241752D01*
X498248Y239642D01*
X495492Y238500D01*
X492508Y238500D01*
X489752Y239642D01*
X488626Y240768D01*
X487796Y241317D01*
X486858Y241500D01*
X457142Y241500D01*
X456167Y241302D01*
X455374Y240768D01*
X454248Y239642D01*
X451492Y238500D01*
X448508Y238500D01*
X445752Y239642D01*
X444626Y240768D01*
X443796Y241317D01*
X442858Y241500D01*
X416149Y241500D01*
X415174Y241302D01*
X414353Y240739D01*
X413817Y239901D01*
X413650Y238920D01*
X413879Y237952D01*
X414381Y237232D01*
X416599Y235014D01*
X418350Y230788D01*
X418350Y226212D01*
X416599Y221986D01*
X413364Y218751D01*
X409138Y217000D01*
X404562Y217000D01*
X400336Y218751D01*
X397101Y221986D01*
X396460Y223533D01*
X395904Y224359D01*
X395070Y224901D01*
X394090Y225076D01*
X393120Y224855D01*
X392313Y224273D01*
X391840Y223533D01*
X391199Y221986D01*
X387964Y218751D01*
X383738Y217000D01*
X379162Y217000D01*
X374936Y218751D01*
X371701Y221986D01*
X371060Y223533D01*
X370504Y224359D01*
X369670Y224901D01*
X368690Y225076D01*
X367720Y224855D01*
X366913Y224273D01*
X366440Y223533D01*
X365799Y221986D01*
X362564Y218751D01*
X358338Y217000D01*
X353762Y217000D01*
X349536Y218751D01*
X346301Y221986D01*
X345660Y223533D01*
X345104Y224359D01*
X344270Y224901D01*
X343290Y225076D01*
X342320Y224855D01*
X341513Y224273D01*
X341040Y223533D01*
X340399Y221986D01*
X337164Y218751D01*
X336693Y218556D01*
X335868Y218000D01*
X335325Y217166D01*
X335150Y216246D01*
X335150Y139692D01*
X335348Y138717D01*
X335911Y137897D01*
X336749Y137361D01*
X337730Y137194D01*
X338607Y137383D01*
X341063Y138400D01*
X345638Y138400D01*
X349864Y136649D01*
X353099Y133414D01*
X353740Y131867D01*
X354296Y131041D01*
X355130Y130499D01*
X356110Y130324D01*
X357080Y130545D01*
X357887Y131127D01*
X358360Y131867D01*
X359001Y133414D01*
X362236Y136649D01*
X366462Y138400D01*
X371038Y138400D01*
X375264Y136649D01*
X378499Y133414D01*
X379140Y131867D01*
X379696Y131041D01*
X380530Y130499D01*
X381510Y130324D01*
X382480Y130545D01*
X383287Y131127D01*
X383760Y131867D01*
X384401Y133414D01*
X387636Y136649D01*
X391862Y138400D01*
X396438Y138400D01*
X400664Y136649D01*
X403899Y133414D01*
X404540Y131867D01*
X405096Y131041D01*
X405930Y130499D01*
X406910Y130324D01*
X407880Y130545D01*
X408687Y131127D01*
X409160Y131867D01*
X409801Y133414D01*
X413036Y136649D01*
X417262Y138400D01*
X421838Y138400D01*
X426064Y136649D01*
X429299Y133414D01*
X431050Y129188D01*
X431050Y124612D01*
X429299Y120386D01*
X426064Y117151D01*
X421838Y115400D01*
X417262Y115400D01*
X413036Y117151D01*
X409801Y120386D01*
X409160Y121933D01*
X408604Y122759D01*
X407770Y123301D01*
X406790Y123476D01*
X405820Y123255D01*
X405013Y122673D01*
X404540Y121933D01*
X403899Y120386D01*
X400664Y117151D01*
X400193Y116956D01*
X399368Y116400D01*
X398825Y115566D01*
X398650Y114646D01*
X398650Y89612D01*
X395846Y80981D01*
X390511Y73639D01*
X383251Y68364D01*
X382411Y67298D01*
X380597Y62919D01*
X377081Y59403D01*
X372486Y57500D01*
X367514Y57500D01*
X362919Y59403D01*
X359403Y62919D01*
X357500Y67514D01*
X357500Y72486D01*
X359403Y77081D01*
X362919Y80597D01*
X367514Y82500D01*
X372486Y82500D01*
X377081Y80597D01*
X378599Y79079D01*
X379428Y78530D01*
X380406Y78347D01*
X381755Y78768D01*
X383516Y79944D01*
X384206Y80634D01*
X387923Y86198D01*
X388297Y87099D01*
X389602Y93662D01*
X389650Y94150D01*
X389650Y114646D01*
X389452Y115621D01*
X388889Y116442D01*
X388107Y116956D01*
X387636Y117151D01*
X384401Y120386D01*
X383760Y121933D01*
X383204Y122759D01*
X382370Y123301D01*
X381390Y123476D01*
X380420Y123255D01*
X379613Y122673D01*
X379140Y121933D01*
X378499Y120386D01*
X375264Y117151D01*
X371038Y115400D01*
X366462Y115400D01*
X362236Y117151D01*
X359001Y120386D01*
X358360Y121933D01*
X357804Y122759D01*
X356970Y123301D01*
X355990Y123476D01*
X355020Y123255D01*
X354213Y122673D01*
X353740Y121933D01*
X353099Y120386D01*
X349864Y117151D01*
X349393Y116956D01*
X348568Y116400D01*
X348025Y115566D01*
X347850Y114646D01*
X347850Y87792D01*
X348048Y86817D01*
X348582Y86024D01*
X350358Y84248D01*
X351500Y81492D01*
X351500Y78508D01*
X350358Y75752D01*
X348248Y73642D01*
X345492Y72500D01*
X342508Y72500D01*
X339752Y73642D01*
X339418Y73976D01*
X338588Y74525D01*
X337610Y74708D01*
X336638Y74494D01*
X335827Y73918D01*
X335304Y73072D01*
X335150Y72208D01*
X335150Y66492D01*
X335348Y65517D01*
X335882Y64724D01*
X336358Y64248D01*
X337500Y61492D01*
X337500Y58508D01*
X336358Y55752D01*
X334248Y53642D01*
X331492Y52500D01*
X330698Y52500D01*
X329722Y52302D01*
X328902Y51739D01*
X328366Y50901D01*
X328199Y49920D01*
X328428Y48952D01*
X329309Y47921D01*
X332204Y45987D01*
X333105Y45614D01*
X338462Y44548D01*
X338950Y44500D01*
X415046Y44500D01*
X416021Y44698D01*
X416842Y45261D01*
X417356Y46043D01*
X417551Y46514D01*
X420786Y49749D01*
X425012Y51500D01*
X429588Y51500D01*
X433814Y49749D01*
X436932Y46631D01*
X437762Y46082D01*
X438740Y45899D01*
X439712Y46113D01*
X440523Y46688D01*
X441046Y47535D01*
X441200Y48399D01*
X441200Y49450D01*
X443250Y51500D01*
X462150Y51500D01*
X464200Y49450D01*
X464200Y30550D01*
X462418Y28768D01*
X461868Y27938D01*
X461686Y26960D01*
X461899Y25988D01*
X462475Y25177D01*
X463321Y24654D01*
X464185Y24500D01*
X607300Y24500D01*
X607788Y24548D01*
X612763Y25538D01*
X613664Y25911D01*
X617881Y28729D01*
X618571Y29419D01*
X618652Y29539D01*
X619029Y30460D01*
X619017Y31455D01*
X618341Y32696D01*
X617551Y33486D01*
X615800Y37712D01*
X615800Y42288D01*
X617551Y46514D01*
X620786Y49749D01*
X625012Y51500D01*
X629588Y51500D01*
X633814Y49749D01*
X636932Y46631D01*
X637762Y46082D01*
X638740Y45899D01*
X639712Y46113D01*
X640523Y46688D01*
X641046Y47535D01*
X641200Y48399D01*
X641200Y49450D01*
X643250Y51500D01*
X662150Y51500D01*
X664200Y49450D01*
X664200Y30550D01*
X662150Y28500D01*
X643250Y28500D01*
X641200Y30550D01*
X641200Y31601D01*
X641002Y32576D01*
X640439Y33397D01*
X639601Y33933D01*
X638620Y34100D01*
X637652Y33871D01*
X636932Y33369D01*
X633814Y30251D01*
X629725Y28557D01*
X628659Y27717D01*
X624840Y22460D01*
X618561Y17898D01*
X611180Y15500D01*
X339391Y15500D01*
G37*
G36*
X117628Y357610D02*
X115578Y359660D01*
X115578Y361677D01*
X115380Y362652D01*
X114817Y363473D01*
X113979Y364009D01*
X112998Y364176D01*
X112121Y363987D01*
X110343Y363250D01*
X107657Y363250D01*
X105177Y364278D01*
X103278Y366177D01*
X102250Y368657D01*
X102250Y371343D01*
X103278Y373824D01*
X105177Y375722D01*
X107657Y376750D01*
X110343Y376750D01*
X112121Y376013D01*
X113098Y375823D01*
X114071Y376029D01*
X114888Y376598D01*
X115417Y377440D01*
X115578Y378323D01*
X115578Y380340D01*
X117628Y382390D01*
X142372Y382390D01*
X144422Y380340D01*
X144422Y378737D01*
X144620Y377762D01*
X145183Y376941D01*
X146021Y376405D01*
X147002Y376238D01*
X147879Y376427D01*
X148657Y376750D01*
X151343Y376750D01*
X153824Y375722D01*
X155722Y373824D01*
X156750Y371343D01*
X156750Y368657D01*
X155722Y366177D01*
X153824Y364278D01*
X151343Y363250D01*
X148657Y363250D01*
X147879Y363573D01*
X146902Y363763D01*
X145929Y363557D01*
X145112Y362988D01*
X144583Y362145D01*
X144422Y361263D01*
X144422Y359660D01*
X142372Y357610D01*
X117628Y357610D01*
G37*
G36*
X311414Y303600D02*
X306819Y305503D01*
X303303Y309019D01*
X302873Y310057D01*
X302317Y310882D01*
X301483Y311425D01*
X300564Y311600D01*
X130240Y311600D01*
X123477Y314401D01*
X118301Y319577D01*
X116670Y323515D01*
X116128Y324326D01*
X114278Y326177D01*
X113250Y328657D01*
X113250Y331343D01*
X114278Y333824D01*
X116177Y335722D01*
X118657Y336750D01*
X121343Y336750D01*
X123824Y335722D01*
X125722Y333824D01*
X126750Y331343D01*
X126750Y328657D01*
X126080Y327041D01*
X125890Y326064D01*
X126096Y325091D01*
X126622Y324316D01*
X128682Y322257D01*
X129803Y321610D01*
X133253Y320685D01*
X133900Y320600D01*
X300564Y320600D01*
X301539Y320798D01*
X302359Y321361D01*
X302873Y322143D01*
X303303Y323181D01*
X306819Y326697D01*
X311414Y328600D01*
X316386Y328600D01*
X320981Y326697D01*
X324497Y323181D01*
X324902Y322203D01*
X325458Y321378D01*
X326292Y320835D01*
X327272Y320660D01*
X328242Y320881D01*
X329049Y321463D01*
X329521Y322203D01*
X329575Y322331D01*
X332669Y325425D01*
X336712Y327100D01*
X337900Y327100D01*
X337900Y305100D01*
X336712Y305100D01*
X332669Y306775D01*
X329575Y309869D01*
X329521Y309997D01*
X328965Y310822D01*
X328132Y311365D01*
X327152Y311540D01*
X326182Y311319D01*
X325375Y310737D01*
X324902Y309997D01*
X324497Y309019D01*
X320981Y305503D01*
X316386Y303600D01*
X311414Y303600D01*
G37*
G36*
X361414Y303600D02*
X356819Y305503D01*
X353303Y309019D01*
X352898Y309997D01*
X352342Y310822D01*
X351508Y311365D01*
X350528Y311540D01*
X349558Y311319D01*
X348751Y310737D01*
X348279Y309997D01*
X348225Y309869D01*
X345131Y306775D01*
X341088Y305100D01*
X339900Y305100D01*
X339900Y327100D01*
X341088Y327100D01*
X345131Y325425D01*
X348225Y322331D01*
X348279Y322203D01*
X348835Y321378D01*
X349669Y320835D01*
X350648Y320660D01*
X351618Y320881D01*
X352425Y321463D01*
X352898Y322203D01*
X353303Y323181D01*
X356819Y326697D01*
X361414Y328600D01*
X366386Y328600D01*
X370981Y326697D01*
X374497Y323181D01*
X376400Y318586D01*
X376400Y313614D01*
X374497Y309019D01*
X370981Y305503D01*
X366386Y303600D01*
X361414Y303600D01*
G37*
G36*
X544508Y282000D02*
X541752Y283142D01*
X539642Y285252D01*
X538500Y288008D01*
X538500Y290992D01*
X539810Y294154D01*
X540000Y295110D01*
X540000Y296096D01*
X542315Y303221D01*
X546718Y309282D01*
X552779Y313685D01*
X553851Y314033D01*
X554717Y314523D01*
X555323Y315311D01*
X555578Y316411D01*
X555578Y320340D01*
X557628Y322390D01*
X582372Y322390D01*
X584422Y320340D01*
X584422Y318500D01*
X584620Y317525D01*
X585183Y316704D01*
X586021Y316168D01*
X586922Y316000D01*
X587450Y316000D01*
X588406Y316190D01*
X591568Y317500D01*
X594552Y317500D01*
X597308Y316358D01*
X599418Y314248D01*
X600560Y311492D01*
X600560Y308508D01*
X599418Y305752D01*
X597308Y303642D01*
X594552Y302500D01*
X591568Y302500D01*
X588406Y303810D01*
X587450Y304000D01*
X586922Y304000D01*
X585947Y303802D01*
X585126Y303239D01*
X584590Y302401D01*
X584422Y301500D01*
X584422Y299660D01*
X582372Y297610D01*
X557628Y297610D01*
X557293Y297945D01*
X556464Y298494D01*
X555486Y298677D01*
X554514Y298463D01*
X553702Y297888D01*
X553111Y296824D01*
X552534Y294673D01*
X552473Y293680D01*
X552639Y293069D01*
X553500Y290992D01*
X553500Y288008D01*
X552358Y285252D01*
X550248Y283142D01*
X547492Y282000D01*
X544508Y282000D01*
G37*
G36*
X114750Y291000D02*
X114750Y291044D01*
X115549Y292974D01*
X117026Y294451D01*
X118956Y295250D01*
X119000Y295250D01*
X119000Y291000D01*
X114750Y291000D01*
G37*
G36*
X204750Y291000D02*
X204750Y291044D01*
X205549Y292974D01*
X207026Y294451D01*
X208956Y295250D01*
X209000Y295250D01*
X209000Y291000D01*
X204750Y291000D01*
G37*
G36*
X211000Y291000D02*
X211000Y295250D01*
X211044Y295250D01*
X212974Y294451D01*
X214451Y292974D01*
X215250Y291044D01*
X215250Y291000D01*
X211000Y291000D01*
G37*
G36*
X121000Y291000D02*
X121000Y295250D01*
X121044Y295250D01*
X122974Y294451D01*
X124451Y292974D01*
X125250Y291044D01*
X125250Y291000D01*
X121000Y291000D01*
G37*
G36*
X118956Y284750D02*
X117026Y285549D01*
X115549Y287026D01*
X114750Y288956D01*
X114750Y289000D01*
X119000Y289000D01*
X119000Y284750D01*
X118956Y284750D01*
G37*
G36*
X121000Y284750D02*
X121000Y289000D01*
X125250Y289000D01*
X125250Y288956D01*
X124451Y287026D01*
X122974Y285549D01*
X121044Y284750D01*
X121000Y284750D01*
G37*
G36*
X208956Y284750D02*
X207026Y285549D01*
X205549Y287026D01*
X204750Y288956D01*
X204750Y289000D01*
X209000Y289000D01*
X209000Y284750D01*
X208956Y284750D01*
G37*
G36*
X211000Y284750D02*
X211000Y289000D01*
X215250Y289000D01*
X215250Y288956D01*
X214451Y287026D01*
X212974Y285549D01*
X211044Y284750D01*
X211000Y284750D01*
G37*
G36*
X581000Y281000D02*
X581000Y286000D01*
X581193Y286000D01*
X583399Y285087D01*
X585087Y283399D01*
X586000Y281193D01*
X586000Y281000D01*
X581000Y281000D01*
G37*
G36*
X574000Y281000D02*
X574000Y281193D01*
X574913Y283399D01*
X576601Y285087D01*
X578807Y286000D01*
X579000Y286000D01*
X579000Y281000D01*
X574000Y281000D01*
G37*
G36*
X578807Y274000D02*
X576601Y274913D01*
X574913Y276601D01*
X574000Y278807D01*
X574000Y279000D01*
X579000Y279000D01*
X579000Y274000D01*
X578807Y274000D01*
G37*
G36*
X581000Y274000D02*
X581000Y279000D01*
X586000Y279000D01*
X586000Y278807D01*
X585087Y276601D01*
X583399Y274913D01*
X581193Y274000D01*
X581000Y274000D01*
G37*
G36*
X520000Y246000D02*
X520000Y251000D01*
X520193Y251000D01*
X522399Y250087D01*
X524087Y248399D01*
X525000Y246193D01*
X525000Y246000D01*
X520000Y246000D01*
G37*
G36*
X513000Y246000D02*
X513000Y246193D01*
X513913Y248399D01*
X515601Y250087D01*
X517807Y251000D01*
X518000Y251000D01*
X518000Y246000D01*
X513000Y246000D01*
G37*
G36*
X517807Y239000D02*
X515601Y239913D01*
X513913Y241601D01*
X513000Y243807D01*
X513000Y244000D01*
X518000Y244000D01*
X518000Y239000D01*
X517807Y239000D01*
G37*
G36*
X520000Y239000D02*
X520000Y244000D01*
X525000Y244000D01*
X525000Y243807D01*
X524087Y241601D01*
X522399Y239913D01*
X520193Y239000D01*
X520000Y239000D01*
G37*
G36*
X244450Y229500D02*
X244450Y230489D01*
X245972Y234164D01*
X248786Y236978D01*
X252461Y238500D01*
X253450Y238500D01*
X253450Y229500D01*
X244450Y229500D01*
G37*
G36*
X252461Y218500D02*
X248786Y220022D01*
X245972Y222836D01*
X244450Y226511D01*
X244450Y227500D01*
X253450Y227500D01*
X253450Y218500D01*
X252461Y218500D01*
G37*
G36*
X128647Y178364D02*
X128274Y178453D01*
X128221Y178462D01*
X127543Y178477D01*
X127532Y178476D01*
X127342Y178507D01*
X126461Y178712D01*
X126433Y178713D01*
X126406Y178729D01*
X125786Y179002D01*
X125765Y179008D01*
X125453Y179077D01*
X125336Y179094D01*
X125091Y179201D01*
X125009Y179225D01*
X124017Y179303D01*
X123364Y179131D01*
X122198Y178648D01*
X120526Y178648D01*
X119607Y178646D01*
X118912Y178934D01*
X117935Y179124D01*
X116998Y178934D01*
X116245Y178622D01*
X115978Y178630D01*
X115896Y178615D01*
X114605Y178647D01*
X114544Y178648D01*
X113657Y178648D01*
X112846Y179007D01*
X112790Y179031D01*
X111970Y179370D01*
X111359Y180013D01*
X111316Y180057D01*
X110689Y180684D01*
X110370Y181511D01*
X110347Y181568D01*
X110008Y182387D01*
X110030Y183273D01*
X110030Y183334D01*
X110030Y184221D01*
X110390Y185032D01*
X110414Y185088D01*
X110778Y185967D01*
X110968Y186943D01*
X110605Y188221D01*
X110583Y188256D01*
X110578Y188341D01*
X110554Y188559D01*
X110551Y188577D01*
X110463Y188955D01*
X110457Y188973D01*
X110376Y189192D01*
X110349Y189257D01*
X110351Y189286D01*
X110259Y190186D01*
X110253Y190429D01*
X110271Y190912D01*
X110284Y190967D01*
X110349Y191556D01*
X110348Y191641D01*
X110390Y191759D01*
X110519Y192333D01*
X110550Y192636D01*
X110724Y193268D01*
X110592Y194254D01*
X110085Y195111D01*
X109186Y195746D01*
X108659Y195964D01*
X107365Y197258D01*
X106665Y198948D01*
X106665Y200778D01*
X107365Y202469D01*
X108659Y203763D01*
X110350Y204463D01*
X122682Y204463D01*
X123657Y204661D01*
X124477Y205224D01*
X125014Y206062D01*
X125182Y206970D01*
X125178Y208646D01*
X124876Y209829D01*
X123155Y213010D01*
X122836Y213438D01*
X122599Y214009D01*
X122489Y214242D01*
X122194Y214786D01*
X122109Y215123D01*
X122109Y215742D01*
X122096Y215999D01*
X122032Y216614D01*
X122082Y216959D01*
X122319Y217530D01*
X122405Y217773D01*
X122581Y218366D01*
X122759Y218665D01*
X123197Y219102D01*
X123369Y219294D01*
X123759Y219773D01*
X124038Y219982D01*
X124609Y220218D01*
X124842Y220329D01*
X125386Y220623D01*
X125724Y220709D01*
X126342Y220709D01*
X126599Y220722D01*
X127393Y220804D01*
X127781Y220763D01*
X127959Y220777D01*
X128047Y220763D01*
X128768Y220465D01*
X128951Y220397D01*
X129259Y220297D01*
X130248Y220183D01*
X130856Y220313D01*
X131062Y220385D01*
X131196Y220436D01*
X131980Y220761D01*
X132364Y220739D01*
X132784Y220791D01*
X133603Y220719D01*
X133825Y220709D01*
X134534Y220709D01*
X135000Y220594D01*
X135270Y220570D01*
X136173Y220709D01*
X136507Y220709D01*
X137032Y220764D01*
X137341Y220831D01*
X137613Y220834D01*
X138047Y220752D01*
X138511Y220709D01*
X138762Y220709D01*
X138929Y220639D01*
X139422Y220493D01*
X139929Y220397D01*
X141350Y220544D01*
X141761Y220714D01*
X142669Y220709D01*
X142684Y220709D01*
X144322Y220709D01*
X144871Y220481D01*
X145848Y220291D01*
X146562Y220473D01*
X146563Y220467D01*
X147068Y220563D01*
X147552Y220707D01*
X147688Y220763D01*
X147861Y220779D01*
X148344Y220871D01*
X148497Y220916D01*
X148675Y220916D01*
X149154Y220959D01*
X149374Y221001D01*
X149545Y220982D01*
X150044Y220978D01*
X150264Y220998D01*
X150737Y220962D01*
X150805Y220953D01*
X151101Y220854D01*
X151230Y220822D01*
X151566Y220762D01*
X152039Y220710D01*
X152078Y220693D01*
X152324Y220597D01*
X152847Y220477D01*
X153336Y220294D01*
X153585Y220232D01*
X153939Y220066D01*
X154934Y220029D01*
X155484Y220186D01*
X155888Y220353D01*
X155897Y220357D01*
X156736Y220709D01*
X157647Y220709D01*
X157658Y220709D01*
X159055Y220714D01*
X159055Y220715D01*
X159065Y220713D01*
X159323Y220715D01*
X160142Y220376D01*
X161119Y220185D01*
X162055Y220376D01*
X162874Y220715D01*
X163133Y220713D01*
X163143Y220715D01*
X163143Y220715D01*
X164541Y220709D01*
X164551Y220709D01*
X165461Y220709D01*
X166301Y220357D01*
X166311Y220353D01*
X167365Y219916D01*
X168342Y219726D01*
X169277Y219915D01*
X170362Y220364D01*
X170364Y220364D01*
X171197Y220709D01*
X172113Y220709D01*
X173802Y220709D01*
X175493Y220008D01*
X176787Y218714D01*
X177487Y217024D01*
X177487Y207101D01*
X177685Y206126D01*
X178248Y205305D01*
X179086Y204769D01*
X179987Y204601D01*
X189534Y204601D01*
X191224Y203901D01*
X192518Y202607D01*
X193219Y200916D01*
X193219Y199086D01*
X192518Y197395D01*
X191224Y196101D01*
X191136Y196065D01*
X190311Y195509D01*
X189768Y194675D01*
X189593Y193755D01*
X189593Y192542D01*
X189593Y192511D01*
X189609Y191216D01*
X189593Y191131D01*
X189593Y182333D01*
X188893Y180642D01*
X187599Y179348D01*
X185908Y178648D01*
X184240Y178648D01*
X183320Y178646D01*
X182625Y178934D01*
X181649Y179124D01*
X180712Y178934D01*
X179958Y178622D01*
X179700Y178629D01*
X179640Y178619D01*
X178318Y178647D01*
X178265Y178648D01*
X177337Y178648D01*
X176439Y178842D01*
X175449Y178652D01*
X175438Y178648D01*
X168198Y178648D01*
X167945Y178752D01*
X166554Y178905D01*
X165818Y178775D01*
X165501Y178697D01*
X165112Y178574D01*
X165046Y178548D01*
X164873Y178550D01*
X164493Y178526D01*
X164220Y178493D01*
X163724Y178405D01*
X163617Y178379D01*
X163179Y178414D01*
X162816Y178417D01*
X162182Y178376D01*
X161578Y178517D01*
X161214Y178574D01*
X160770Y178610D01*
X160364Y178771D01*
X160009Y178882D01*
X159478Y179006D01*
X159288Y179040D01*
X159227Y179064D01*
X159169Y179077D01*
X158175Y179106D01*
X157645Y178953D01*
X156909Y178648D01*
X154319Y178648D01*
X153840Y178846D01*
X152863Y179036D01*
X152364Y178889D01*
X152355Y178939D01*
X151419Y178774D01*
X151104Y178697D01*
X150723Y178577D01*
X150649Y178547D01*
X150469Y178550D01*
X150097Y178526D01*
X149825Y178493D01*
X149331Y178406D01*
X149222Y178379D01*
X148784Y178414D01*
X148421Y178417D01*
X147787Y178376D01*
X147182Y178517D01*
X146818Y178574D01*
X146374Y178610D01*
X145968Y178771D01*
X145613Y178882D01*
X145189Y178980D01*
X144944Y179121D01*
X144305Y179378D01*
X143963Y179464D01*
X143803Y179538D01*
X142808Y179575D01*
X142261Y179419D01*
X141239Y178996D01*
X141237Y178995D01*
X140397Y178647D01*
X139480Y178648D01*
X138739Y178648D01*
X137822Y178647D01*
X136989Y178992D01*
X136988Y178993D01*
X135684Y179532D01*
X135632Y179566D01*
X134653Y179749D01*
X133682Y179535D01*
X133357Y179328D01*
X133348Y179325D01*
X132814Y179070D01*
X132691Y178992D01*
X132471Y178943D01*
X131950Y178763D01*
X131796Y178690D01*
X131537Y178621D01*
X131498Y178618D01*
X131179Y178552D01*
X130493Y178499D01*
X130016Y178391D01*
X129366Y178424D01*
X129040Y178419D01*
X128945Y178411D01*
X128648Y178364D01*
X128647Y178364D01*
G37*
G36*
X459508Y200500D02*
X456752Y201642D01*
X454642Y203752D01*
X453500Y206508D01*
X453500Y209492D01*
X454642Y212248D01*
X456752Y214358D01*
X459508Y215500D01*
X462492Y215500D01*
X465248Y214358D01*
X466374Y213232D01*
X467204Y212683D01*
X468142Y212500D01*
X538858Y212500D01*
X539833Y212698D01*
X540626Y213232D01*
X541752Y214358D01*
X544508Y215500D01*
X547492Y215500D01*
X550248Y214358D01*
X552358Y212248D01*
X553500Y209492D01*
X553500Y206508D01*
X552358Y203752D01*
X550248Y201642D01*
X547492Y200500D01*
X544508Y200500D01*
X541752Y201642D01*
X540626Y202768D01*
X539796Y203317D01*
X538858Y203500D01*
X468142Y203500D01*
X467167Y203302D01*
X466374Y202768D01*
X465248Y201642D01*
X462492Y200500D01*
X459508Y200500D01*
G37*
G36*
X638422Y169462D02*
X637988Y169500D01*
X635922Y169500D01*
X634482Y170097D01*
X633960Y170249D01*
X632880Y170439D01*
X631056Y171493D01*
X630762Y171637D01*
X628388Y172621D01*
X627645Y173363D01*
X627128Y173761D01*
X626620Y174054D01*
X624942Y176053D01*
X624794Y176214D01*
X622621Y178388D01*
X622415Y178884D01*
X622021Y179535D01*
X621973Y179592D01*
X620908Y182517D01*
X620868Y182619D01*
X619500Y185922D01*
X619500Y194078D01*
X620868Y197381D01*
X620908Y197483D01*
X621973Y200408D01*
X622021Y200465D01*
X622415Y201116D01*
X622621Y201612D01*
X624794Y203786D01*
X624942Y203947D01*
X626620Y205946D01*
X627128Y206239D01*
X627645Y206637D01*
X628388Y207379D01*
X630762Y208363D01*
X631056Y208507D01*
X632880Y209561D01*
X633960Y209751D01*
X634482Y209903D01*
X635922Y210500D01*
X637988Y210500D01*
X638422Y210538D01*
X640000Y210816D01*
X641578Y210538D01*
X642012Y210500D01*
X644078Y210500D01*
X645518Y209903D01*
X646041Y209751D01*
X647120Y209561D01*
X648944Y208507D01*
X649238Y208363D01*
X651612Y207379D01*
X652355Y206637D01*
X652872Y206239D01*
X653380Y205946D01*
X655058Y203947D01*
X655206Y203786D01*
X657379Y201612D01*
X657585Y201116D01*
X657979Y200465D01*
X658027Y200408D01*
X659092Y197483D01*
X659132Y197381D01*
X660500Y194078D01*
X660500Y185922D01*
X659132Y182619D01*
X659092Y182517D01*
X658027Y179592D01*
X657979Y179535D01*
X657585Y178884D01*
X657379Y178388D01*
X655206Y176214D01*
X655058Y176053D01*
X653380Y174054D01*
X652872Y173761D01*
X652355Y173363D01*
X651612Y172621D01*
X649238Y171637D01*
X648944Y171493D01*
X647120Y170439D01*
X646041Y170249D01*
X645518Y170097D01*
X644078Y169500D01*
X642012Y169500D01*
X641578Y169462D01*
X640000Y169184D01*
X638422Y169462D01*
G37*
G36*
X38422Y169462D02*
X37988Y169500D01*
X35922Y169500D01*
X34482Y170097D01*
X33960Y170249D01*
X32880Y170439D01*
X31056Y171493D01*
X30762Y171637D01*
X28388Y172621D01*
X27645Y173363D01*
X27128Y173761D01*
X26620Y174054D01*
X24942Y176053D01*
X24794Y176214D01*
X22621Y178388D01*
X22415Y178884D01*
X22021Y179535D01*
X21973Y179592D01*
X20908Y182517D01*
X20868Y182619D01*
X19500Y185922D01*
X19500Y194078D01*
X20868Y197381D01*
X20908Y197483D01*
X21973Y200408D01*
X22021Y200465D01*
X22415Y201116D01*
X22621Y201612D01*
X24794Y203786D01*
X24942Y203947D01*
X26620Y205946D01*
X27128Y206239D01*
X27645Y206637D01*
X28388Y207379D01*
X30762Y208363D01*
X31056Y208507D01*
X32880Y209561D01*
X33960Y209751D01*
X34482Y209903D01*
X35922Y210500D01*
X37988Y210500D01*
X38422Y210538D01*
X40000Y210816D01*
X41578Y210538D01*
X42012Y210500D01*
X44078Y210500D01*
X45518Y209903D01*
X46041Y209751D01*
X47120Y209561D01*
X48944Y208507D01*
X49238Y208363D01*
X51612Y207379D01*
X52355Y206637D01*
X52872Y206239D01*
X53380Y205946D01*
X55058Y203947D01*
X55206Y203786D01*
X57379Y201612D01*
X57585Y201116D01*
X57979Y200465D01*
X58027Y200408D01*
X59092Y197483D01*
X59132Y197381D01*
X60500Y194078D01*
X60500Y185922D01*
X59132Y182619D01*
X59092Y182517D01*
X58027Y179592D01*
X57979Y179535D01*
X57585Y178884D01*
X57379Y178388D01*
X55206Y176214D01*
X55058Y176053D01*
X53380Y174054D01*
X52872Y173761D01*
X52355Y173363D01*
X51612Y172621D01*
X49238Y171637D01*
X48944Y171493D01*
X47120Y170439D01*
X46041Y170249D01*
X45518Y170097D01*
X44078Y169500D01*
X42012Y169500D01*
X41578Y169462D01*
X40000Y169184D01*
X38422Y169462D01*
G37*
G36*
X564000Y204000D02*
X564000Y204193D01*
X564913Y206399D01*
X566601Y208087D01*
X568807Y209000D01*
X569000Y209000D01*
X569000Y204000D01*
X564000Y204000D01*
G37*
G36*
X571000Y204000D02*
X571000Y209000D01*
X571193Y209000D01*
X573399Y208087D01*
X575087Y206399D01*
X576000Y204193D01*
X576000Y204000D01*
X571000Y204000D01*
G37*
G36*
X571000Y197000D02*
X571000Y202000D01*
X576000Y202000D01*
X576000Y201807D01*
X575087Y199601D01*
X573399Y197913D01*
X571193Y197000D01*
X571000Y197000D01*
G37*
G36*
X568807Y197000D02*
X566601Y197913D01*
X564913Y199601D01*
X564000Y201807D01*
X564000Y202000D01*
X569000Y202000D01*
X569000Y197000D01*
X568807Y197000D01*
G37*
G36*
X537628Y77610D02*
X535578Y79660D01*
X535578Y81500D01*
X535380Y82475D01*
X534817Y83296D01*
X533979Y83832D01*
X533078Y84000D01*
X518911Y84000D01*
X509755Y86453D01*
X501546Y91193D01*
X494843Y97896D01*
X490103Y106105D01*
X487650Y115261D01*
X487650Y121290D01*
X487460Y122246D01*
X486150Y125408D01*
X486150Y128392D01*
X487292Y131148D01*
X489402Y133258D01*
X492158Y134400D01*
X495142Y134400D01*
X497898Y133258D01*
X500008Y131148D01*
X501150Y128392D01*
X501150Y125408D01*
X499840Y122246D01*
X499650Y121290D01*
X499650Y120000D01*
X499698Y119512D01*
X501335Y111285D01*
X501708Y110383D01*
X506369Y103408D01*
X507058Y102719D01*
X514033Y98058D01*
X514935Y97685D01*
X523162Y96048D01*
X523650Y96000D01*
X533078Y96000D01*
X534053Y96198D01*
X534874Y96761D01*
X535410Y97599D01*
X535578Y98500D01*
X535578Y100340D01*
X537628Y102390D01*
X562372Y102390D01*
X564422Y100340D01*
X564422Y98500D01*
X564620Y97525D01*
X565183Y96704D01*
X566021Y96168D01*
X566922Y96000D01*
X573000Y96000D01*
X573647Y96085D01*
X573744Y96111D01*
X574635Y96555D01*
X575282Y97311D01*
X575583Y98259D01*
X575500Y98836D01*
X575500Y102242D01*
X576810Y105404D01*
X577000Y106360D01*
X577000Y110000D01*
X576915Y110647D01*
X575374Y116397D01*
X574727Y117518D01*
X570518Y121727D01*
X569397Y122374D01*
X567569Y122864D01*
X566576Y122925D01*
X565638Y122594D01*
X564903Y121923D01*
X564488Y121019D01*
X564422Y120449D01*
X564422Y119660D01*
X562372Y117610D01*
X537628Y117610D01*
X535578Y119660D01*
X535578Y123538D01*
X535380Y124513D01*
X534817Y125334D01*
X533851Y125916D01*
X532320Y126413D01*
X526003Y131003D01*
X521413Y137320D01*
X519000Y144746D01*
X519000Y160901D01*
X518915Y161548D01*
X517495Y166848D01*
X516848Y167968D01*
X512968Y171848D01*
X511848Y172495D01*
X506548Y173915D01*
X505901Y174000D01*
X483610Y174000D01*
X482654Y173810D01*
X479492Y172500D01*
X476508Y172500D01*
X473752Y173642D01*
X471642Y175752D01*
X470500Y178508D01*
X470500Y181492D01*
X471642Y184248D01*
X473752Y186358D01*
X476508Y187500D01*
X479492Y187500D01*
X482654Y186190D01*
X483610Y186000D01*
X509876Y186000D01*
X517438Y183543D01*
X523870Y178870D01*
X528543Y172438D01*
X531000Y164876D01*
X531000Y148650D01*
X531085Y148003D01*
X532445Y142928D01*
X533092Y141807D01*
X533301Y141598D01*
X534131Y141049D01*
X535109Y140866D01*
X536080Y141080D01*
X536837Y141598D01*
X537628Y142390D01*
X562372Y142390D01*
X564422Y140340D01*
X564422Y138500D01*
X564620Y137525D01*
X565183Y136704D01*
X566021Y136168D01*
X566922Y136000D01*
X567118Y136000D01*
X574951Y133455D01*
X581614Y128614D01*
X586455Y121951D01*
X589000Y114118D01*
X589000Y106360D01*
X589190Y105404D01*
X590500Y102242D01*
X590500Y99258D01*
X589358Y96502D01*
X588875Y96018D01*
X588333Y95207D01*
X586564Y90937D01*
X582063Y86436D01*
X576183Y84000D01*
X566922Y84000D01*
X565947Y83802D01*
X565126Y83239D01*
X564590Y82401D01*
X564422Y81500D01*
X564422Y79660D01*
X562372Y77610D01*
X537628Y77610D01*
G37*
G36*
X43420Y15500D02*
X36039Y17898D01*
X29760Y22460D01*
X25941Y27717D01*
X24875Y28557D01*
X20786Y30251D01*
X17551Y33486D01*
X15800Y37712D01*
X15800Y42288D01*
X17551Y46514D01*
X20786Y49749D01*
X25012Y51500D01*
X29588Y51500D01*
X33814Y49749D01*
X36932Y46631D01*
X37762Y46082D01*
X38740Y45899D01*
X39712Y46113D01*
X40523Y46688D01*
X41046Y47535D01*
X41200Y48399D01*
X41200Y49450D01*
X43250Y51500D01*
X62150Y51500D01*
X64200Y49450D01*
X64200Y30550D01*
X62418Y28768D01*
X61868Y27938D01*
X61686Y26960D01*
X61899Y25988D01*
X62475Y25177D01*
X63321Y24654D01*
X64185Y24500D01*
X222101Y24500D01*
X223076Y24698D01*
X223897Y25261D01*
X224433Y26099D01*
X224600Y27080D01*
X224371Y28048D01*
X223782Y28850D01*
X223058Y29310D01*
X220786Y30251D01*
X217551Y33486D01*
X215800Y37712D01*
X215800Y42288D01*
X217551Y46514D01*
X220786Y49749D01*
X225012Y51500D01*
X229588Y51500D01*
X233814Y49749D01*
X236932Y46631D01*
X237762Y46082D01*
X238740Y45899D01*
X239712Y46113D01*
X240523Y46688D01*
X241046Y47535D01*
X241200Y48399D01*
X241200Y49450D01*
X243250Y51500D01*
X262150Y51500D01*
X264200Y49450D01*
X264200Y29843D01*
X264398Y28868D01*
X264961Y28047D01*
X265799Y27511D01*
X266780Y27344D01*
X267835Y27616D01*
X270770Y29111D01*
X271403Y29571D01*
X276429Y34597D01*
X276889Y35230D01*
X280116Y41563D01*
X280357Y42307D01*
X281469Y49327D01*
X281500Y49718D01*
X281500Y72858D01*
X281302Y73833D01*
X280768Y74626D01*
X279642Y75752D01*
X278500Y78508D01*
X278500Y81492D01*
X279642Y84248D01*
X281752Y86358D01*
X284508Y87500D01*
X287492Y87500D01*
X290248Y86358D01*
X292358Y84248D01*
X293500Y81492D01*
X293500Y78508D01*
X292358Y75752D01*
X291232Y74626D01*
X290683Y73796D01*
X290500Y72858D01*
X290500Y45213D01*
X288168Y36510D01*
X283663Y28708D01*
X277292Y22337D01*
X269490Y17832D01*
X260787Y15500D01*
X43420Y15500D01*
G37*
%LPD*%
D10*
X363900Y316100D03*
X338900Y316100D03*
X313900Y316100D03*
X363900Y461100D03*
X313900Y461100D03*
D11*
X392900Y391100D03*
X284900Y391100D03*
D12*
X123650Y370000D03*
X136350Y370000D03*
X206350Y370000D03*
X193650Y370000D03*
D13*
X254450Y228500D03*
X279850Y228500D03*
X305250Y228500D03*
X330650Y228500D03*
X356050Y228500D03*
X381450Y228500D03*
X406850Y228500D03*
X419550Y126900D03*
X394150Y126900D03*
X368750Y126900D03*
X343350Y126900D03*
X317950Y126900D03*
X292550Y126900D03*
X267150Y126900D03*
D14*
X652700Y40000D03*
D13*
X627300Y40000D03*
D14*
X452700Y40000D03*
D13*
X427300Y40000D03*
D14*
X252700Y40000D03*
D13*
X227300Y40000D03*
D14*
X52700Y40000D03*
D13*
X27300Y40000D03*
D12*
X556350Y90000D03*
X543650Y90000D03*
X556350Y130000D03*
X543650Y130000D03*
D15*
X556350Y130000D01*
D12*
X563650Y310000D03*
X576350Y310000D03*
X456350Y341000D03*
X443650Y341000D03*
X456350Y370000D03*
X443650Y370000D03*
D13*
X480950Y470840D03*
X506350Y470840D03*
X493650Y369240D03*
X519050Y369240D03*
D16*
X130064Y183117D02*
X129131Y183041D01*
X130064Y183117D02*
X130485Y183211D01*
X130874Y183343D01*
X131233Y183513D01*
X131561Y183721D01*
X131858Y183965D01*
X132124Y184248D01*
X132358Y184567D01*
X132562Y184924D01*
X132735Y185319D01*
X132986Y186219D01*
X133111Y187267D01*
X133091Y188644D01*
X132986Y189350D01*
X132822Y189969D01*
X132607Y190508D01*
X132347Y190971D01*
X132052Y191365D01*
X131730Y191695D01*
X131388Y191966D01*
X131034Y192185D01*
X130677Y192356D01*
X129983Y192579D01*
X129372Y192681D01*
X128907Y192705D01*
X128447Y192685D01*
X128016Y192626D01*
X127613Y192529D01*
X127238Y192392D01*
X126892Y192218D01*
X126575Y192006D01*
X126287Y191755D01*
X126029Y191468D01*
X125800Y191143D01*
X125601Y190781D01*
X125432Y190382D01*
X125185Y189475D01*
X125061Y188425D01*
X125054Y187432D01*
X125133Y186589D01*
X125313Y185761D01*
X125447Y185363D01*
X125616Y184982D01*
X125822Y184622D01*
X126067Y184288D01*
X126354Y183983D01*
X126687Y183714D01*
X127068Y183484D01*
X127500Y183297D01*
X127986Y183158D01*
X128529Y183071D01*
X129131Y183041D01*
X129440Y192423D02*
X129079Y192443D01*
X129440Y192423D02*
X129783Y192364D01*
X130107Y192266D01*
X130412Y192132D01*
X130696Y191961D01*
X130959Y191754D01*
X131201Y191514D01*
X131420Y191240D01*
X131615Y190934D01*
X131787Y190596D01*
X132057Y189831D01*
X132223Y188952D01*
X132280Y187968D01*
X132179Y186553D01*
X132062Y185966D01*
X131907Y185453D01*
X131719Y185009D01*
X131504Y184629D01*
X131267Y184308D01*
X131013Y184042D01*
X130748Y183825D01*
X130476Y183653D01*
X130204Y183520D01*
X129935Y183423D01*
X129433Y183314D01*
X129010Y183286D01*
X128603Y183312D01*
X128119Y183418D01*
X127860Y183512D01*
X127598Y183639D01*
X127336Y183805D01*
X127081Y184014D01*
X126836Y184271D01*
X126608Y184580D01*
X126401Y184946D01*
X126220Y185373D01*
X126071Y185868D01*
X125886Y187074D01*
X125876Y188320D01*
X125988Y189289D01*
X126208Y190143D01*
X126356Y190525D01*
X126529Y190876D01*
X126726Y191194D01*
X126946Y191478D01*
X127189Y191728D01*
X127453Y191942D01*
X127739Y192120D01*
X128045Y192259D01*
X128371Y192361D01*
X128716Y192422D01*
X129079Y192443D01*
X148640Y183041D02*
X149411Y183091D01*
X150166Y183224D01*
X151493Y183640D01*
X151328Y184044D01*
X149949Y183589D01*
X149262Y183455D01*
X148623Y183406D01*
X148319Y183419D01*
X148040Y183455D01*
X147785Y183513D01*
X147554Y183591D01*
X147345Y183688D01*
X147157Y183803D01*
X146992Y183932D01*
X146846Y184075D01*
X146721Y184230D01*
X146614Y184395D01*
X146526Y184568D01*
X146456Y184748D01*
X146365Y185123D01*
X146336Y185504D01*
X146353Y185783D01*
X146403Y186037D01*
X146483Y186268D01*
X146589Y186477D01*
X146719Y186666D01*
X146870Y186835D01*
X147039Y186988D01*
X147417Y187245D01*
X147831Y187450D01*
X149695Y188088D01*
X150160Y188299D01*
X150551Y188538D01*
X150719Y188671D01*
X150868Y188814D01*
X150998Y188969D01*
X151108Y189136D01*
X151199Y189318D01*
X151270Y189514D01*
X151321Y189727D01*
X151352Y189958D01*
X151362Y190207D01*
X151335Y190617D01*
X151260Y190980D01*
X151141Y191298D01*
X150984Y191575D01*
X150796Y191814D01*
X150582Y192016D01*
X150347Y192186D01*
X150099Y192325D01*
X149582Y192526D01*
X149079Y192640D01*
X148296Y192705D01*
X147610Y192651D01*
X146926Y192497D01*
X146263Y192249D01*
X145640Y191916D01*
X145864Y191631D01*
X146520Y191978D01*
X147145Y192226D01*
X147737Y192376D01*
X148296Y192425D01*
X148753Y192387D01*
X148968Y192340D01*
X149172Y192276D01*
X149364Y192196D01*
X149544Y192099D01*
X149711Y191987D01*
X149864Y191862D01*
X150002Y191722D01*
X150124Y191570D01*
X150230Y191406D01*
X150318Y191230D01*
X150389Y191044D01*
X150440Y190848D01*
X150471Y190644D01*
X150482Y190431D01*
X150465Y190156D01*
X150417Y189906D01*
X150340Y189677D01*
X150236Y189468D01*
X150109Y189279D01*
X149960Y189108D01*
X149792Y188953D01*
X149410Y188686D01*
X148984Y188467D01*
X147000Y187751D01*
X146530Y187534D01*
X146141Y187291D01*
X145977Y187158D01*
X145832Y187014D01*
X145707Y186859D01*
X145602Y186691D01*
X145516Y186508D01*
X145449Y186310D01*
X145402Y186095D01*
X145364Y185608D01*
X145390Y185197D01*
X145464Y184832D01*
X145582Y184510D01*
X145737Y184229D01*
X145925Y183986D01*
X146141Y183777D01*
X146378Y183602D01*
X146633Y183456D01*
X147171Y183242D01*
X147713Y183116D01*
X148640Y183041D01*
X163036Y183041D02*
X163806Y183091D01*
X164561Y183224D01*
X165888Y183642D01*
X165723Y184044D01*
X164344Y183589D01*
X163657Y183455D01*
X163018Y183406D01*
X162715Y183419D01*
X162435Y183455D01*
X162180Y183513D01*
X161949Y183591D01*
X161739Y183688D01*
X161552Y183803D01*
X161386Y183932D01*
X161241Y184075D01*
X161115Y184230D01*
X161008Y184395D01*
X160920Y184568D01*
X160850Y184748D01*
X160758Y185123D01*
X160729Y185504D01*
X160747Y185783D01*
X160797Y186037D01*
X160876Y186268D01*
X160983Y186477D01*
X161113Y186666D01*
X161264Y186835D01*
X161433Y186988D01*
X161812Y187245D01*
X162226Y187450D01*
X164090Y188088D01*
X164555Y188299D01*
X164947Y188538D01*
X165114Y188671D01*
X165263Y188814D01*
X165393Y188969D01*
X165503Y189136D01*
X165594Y189318D01*
X165665Y189514D01*
X165716Y189727D01*
X165747Y189958D01*
X165757Y190207D01*
X165731Y190617D01*
X165655Y190980D01*
X165536Y191298D01*
X165379Y191575D01*
X165191Y191814D01*
X164977Y192016D01*
X164743Y192186D01*
X164494Y192325D01*
X163978Y192526D01*
X163474Y192640D01*
X162691Y192705D01*
X162006Y192652D01*
X161322Y192497D01*
X160658Y192250D01*
X160035Y191916D01*
X160261Y191631D01*
X160917Y191978D01*
X161542Y192226D01*
X162134Y192376D01*
X162691Y192425D01*
X163149Y192387D01*
X163363Y192340D01*
X163567Y192276D01*
X163759Y192196D01*
X163939Y192099D01*
X164106Y191987D01*
X164259Y191862D01*
X164397Y191722D01*
X164519Y191570D01*
X164625Y191406D01*
X164714Y191230D01*
X164784Y191044D01*
X164835Y190848D01*
X164866Y190644D01*
X164877Y190431D01*
X164860Y190156D01*
X164812Y189906D01*
X164735Y189677D01*
X164631Y189468D01*
X164504Y189279D01*
X164355Y189108D01*
X164187Y188953D01*
X163806Y188686D01*
X163380Y188467D01*
X161396Y187751D01*
X160927Y187534D01*
X160539Y187291D01*
X160375Y187158D01*
X160230Y187014D01*
X160105Y186859D01*
X160000Y186691D01*
X159914Y186508D01*
X159848Y186310D01*
X159801Y186095D01*
X159763Y185608D01*
X159789Y185197D01*
X159863Y184832D01*
X159981Y184510D01*
X160136Y184229D01*
X160324Y183986D01*
X160539Y183777D01*
X160776Y183602D01*
X161030Y183456D01*
X161568Y183242D01*
X162109Y183116D01*
X163036Y183041D01*
X116893Y186605D02*
X115392Y183248D01*
X116893Y186605D02*
X117129Y186908D01*
X117255Y187032D01*
X117515Y187230D01*
X117781Y187370D01*
X118042Y187461D01*
X118288Y187512D01*
X119531Y187529D01*
X119640Y187513D01*
X119746Y187486D01*
X119847Y187449D01*
X119943Y187402D01*
X120033Y187347D01*
X120118Y187284D01*
X120196Y187213D01*
X120267Y187135D01*
X120330Y187050D01*
X120385Y186959D01*
X120432Y186863D01*
X120469Y186762D01*
X120496Y186656D01*
X120512Y186547D01*
X120518Y183248D01*
X121283Y183248D01*
X121283Y192498D01*
X117258Y192448D01*
X116467Y192308D01*
X116150Y192208D01*
X115880Y192091D01*
X115654Y191959D01*
X115467Y191812D01*
X115316Y191653D01*
X115198Y191484D01*
X115108Y191306D01*
X115043Y191121D01*
X114998Y190930D01*
X114958Y190541D01*
X114961Y190163D01*
X115014Y189823D01*
X115111Y189516D01*
X115247Y189241D01*
X115412Y188999D01*
X115601Y188790D01*
X115805Y188615D01*
X116016Y188474D01*
X116190Y188380D01*
X116316Y188293D01*
X116428Y188191D01*
X116523Y188074D01*
X116602Y187947D01*
X116663Y187809D01*
X116704Y187663D01*
X116726Y187511D01*
X116726Y187356D01*
X116704Y187204D01*
X116663Y187058D01*
X116602Y186920D01*
X116523Y186793D01*
X116428Y186677D01*
X116316Y186574D01*
X116190Y186487D01*
X116116Y186446D01*
X116098Y186433D01*
X116045Y186380D01*
X115978Y186288D01*
X114630Y183248D01*
X115392Y183248D01*
X119419Y192391D02*
X119531Y192385D01*
X119640Y192369D01*
X119746Y192342D01*
X119847Y192305D01*
X119943Y192258D01*
X120033Y192203D01*
X120118Y192140D01*
X120196Y192069D01*
X120267Y191991D01*
X120330Y191906D01*
X120385Y191815D01*
X120432Y191719D01*
X120469Y191618D01*
X120496Y191512D01*
X120512Y191403D01*
X120512Y188596D01*
X120496Y188486D01*
X120469Y188381D01*
X120432Y188280D01*
X120385Y188183D01*
X120330Y188093D01*
X120267Y188008D01*
X120196Y187930D01*
X120118Y187859D01*
X120033Y187795D01*
X119943Y187740D01*
X119847Y187694D01*
X119746Y187657D01*
X119640Y187630D01*
X119531Y187613D01*
X118020Y187619D01*
X117753Y187653D01*
X117501Y187708D01*
X117263Y187784D01*
X117041Y187881D01*
X116834Y187998D01*
X116644Y188133D01*
X116471Y188287D01*
X116316Y188459D01*
X116180Y188648D01*
X116063Y188853D01*
X115966Y189074D01*
X115889Y189310D01*
X115833Y189561D01*
X115788Y190103D01*
X115813Y190501D01*
X115898Y190901D01*
X115967Y191097D01*
X116058Y191286D01*
X116171Y191467D01*
X116308Y191639D01*
X116472Y191798D01*
X116665Y191942D01*
X116887Y192071D01*
X117142Y192180D01*
X117432Y192269D01*
X117757Y192336D01*
X119419Y192391D01*
X139489Y191127D02*
X139483Y183248D01*
X139489Y191127D02*
X139506Y191237D01*
X139533Y191342D01*
X139570Y191443D01*
X139616Y191539D01*
X139671Y191630D01*
X139734Y191715D01*
X139805Y191793D01*
X139883Y191864D01*
X139968Y191927D01*
X140059Y191983D01*
X140155Y192029D01*
X140256Y192066D01*
X140361Y192093D01*
X140470Y192110D01*
X142532Y192115D01*
X142532Y192498D01*
X135566Y192498D01*
X135566Y192115D01*
X137749Y192110D01*
X137858Y192093D01*
X137963Y192066D01*
X138064Y192029D01*
X138160Y191983D01*
X138251Y191927D01*
X138336Y191864D01*
X138414Y191793D01*
X138485Y191715D01*
X138548Y191630D01*
X138603Y191539D01*
X138649Y191443D01*
X138686Y191342D01*
X138713Y191237D01*
X138730Y191127D01*
X138736Y183248D01*
X139483Y183248D01*
X155994Y183248D02*
X155994Y192498D01*
X155234Y192498D01*
X155234Y183248D01*
X155994Y183248D01*
X174523Y183248D02*
X174523Y192498D01*
X169233Y192498D01*
X169233Y192115D01*
X172774Y192110D01*
X172883Y192093D01*
X172989Y192066D01*
X173090Y192029D01*
X173186Y191983D01*
X173277Y191927D01*
X173362Y191864D01*
X173440Y191793D01*
X173511Y191715D01*
X173574Y191630D01*
X173629Y191539D01*
X173676Y191443D01*
X173713Y191342D01*
X173740Y191237D01*
X173756Y191127D01*
X173756Y189164D01*
X173740Y189055D01*
X173713Y188949D01*
X173676Y188848D01*
X173629Y188752D01*
X173574Y188661D01*
X173511Y188576D01*
X173440Y188498D01*
X173362Y188427D01*
X173277Y188364D01*
X173186Y188309D01*
X173090Y188262D01*
X172989Y188225D01*
X172883Y188198D01*
X172774Y188182D01*
X169871Y188176D01*
X169871Y187794D01*
X172774Y187788D01*
X172883Y187771D01*
X172989Y187744D01*
X173090Y187707D01*
X173186Y187661D01*
X173277Y187606D01*
X173362Y187542D01*
X173440Y187471D01*
X173511Y187393D01*
X173574Y187308D01*
X173629Y187218D01*
X173676Y187121D01*
X173713Y187020D01*
X173740Y186915D01*
X173756Y186805D01*
X173756Y184617D01*
X173740Y184507D01*
X173713Y184402D01*
X173676Y184301D01*
X173629Y184204D01*
X173574Y184114D01*
X173511Y184029D01*
X173440Y183951D01*
X173362Y183880D01*
X173277Y183816D01*
X173186Y183761D01*
X173090Y183715D01*
X172989Y183678D01*
X172883Y183651D01*
X172774Y183634D01*
X169113Y183628D01*
X169113Y183248D01*
X174523Y183248D01*
X179105Y183248D02*
X180607Y186605D01*
X180842Y186908D01*
X181097Y187139D01*
X181362Y187307D01*
X181626Y187421D01*
X181880Y187491D01*
X182116Y187526D01*
X183243Y187529D01*
X183353Y187513D01*
X183458Y187486D01*
X183559Y187449D01*
X183656Y187402D01*
X183746Y187347D01*
X183831Y187284D01*
X183909Y187213D01*
X183980Y187135D01*
X184044Y187050D01*
X184099Y186959D01*
X184145Y186863D01*
X184182Y186762D01*
X184209Y186656D01*
X184226Y186547D01*
X184232Y183248D01*
X184993Y183248D01*
X184993Y192498D01*
X180970Y192448D01*
X180180Y192308D01*
X179864Y192208D01*
X179594Y192091D01*
X179368Y191959D01*
X179181Y191812D01*
X179031Y191653D01*
X178913Y191484D01*
X178823Y191306D01*
X178758Y191121D01*
X178713Y190930D01*
X178673Y190541D01*
X178676Y190163D01*
X178729Y189823D01*
X178826Y189516D01*
X178961Y189241D01*
X179127Y188999D01*
X179315Y188790D01*
X179518Y188615D01*
X179729Y188474D01*
X179904Y188380D01*
X180030Y188293D01*
X180142Y188191D01*
X180238Y188074D01*
X180317Y187947D01*
X180378Y187809D01*
X180420Y187663D01*
X180441Y187511D01*
X180441Y187356D01*
X180420Y187204D01*
X180378Y187058D01*
X180317Y186920D01*
X180238Y186793D01*
X180142Y186677D01*
X180030Y186574D01*
X179904Y186487D01*
X179830Y186446D01*
X179812Y186433D01*
X179760Y186380D01*
X179691Y186288D01*
X179618Y186155D01*
X178341Y183248D01*
X179105Y183248D01*
X183131Y192391D02*
X183243Y192385D01*
X183353Y192369D01*
X183458Y192342D01*
X183559Y192305D01*
X183656Y192258D01*
X183746Y192203D01*
X183831Y192140D01*
X183909Y192069D01*
X183980Y191991D01*
X184044Y191906D01*
X184099Y191815D01*
X184145Y191719D01*
X184182Y191618D01*
X184209Y191512D01*
X184226Y191403D01*
X184226Y188596D01*
X184209Y188486D01*
X184182Y188381D01*
X184145Y188280D01*
X184099Y188183D01*
X184044Y188093D01*
X183980Y188008D01*
X183909Y187930D01*
X183831Y187859D01*
X183746Y187795D01*
X183656Y187740D01*
X183559Y187694D01*
X183458Y187657D01*
X183353Y187630D01*
X183243Y187613D01*
X181732Y187619D01*
X181466Y187653D01*
X181213Y187708D01*
X180976Y187784D01*
X180753Y187881D01*
X180547Y187998D01*
X180357Y188133D01*
X180184Y188287D01*
X180029Y188459D01*
X179892Y188648D01*
X179775Y188853D01*
X179678Y189074D01*
X179601Y189310D01*
X179545Y189561D01*
X179500Y190103D01*
X179525Y190501D01*
X179609Y190901D01*
X179679Y191097D01*
X179769Y191286D01*
X179882Y191467D01*
X180020Y191639D01*
X180184Y191798D01*
X180377Y191942D01*
X180599Y192071D01*
X180854Y192180D01*
X181144Y192269D01*
X181469Y192336D01*
X183131Y192391D01*
X144302Y202557D02*
X138216Y202557D01*
X138216Y200882D01*
X138216Y198962D01*
X138216Y197121D01*
X144302Y197121D01*
X149794Y206652D02*
X150414Y206681D01*
X150973Y206767D01*
X151473Y206904D01*
X151917Y207088D01*
X152309Y207315D01*
X152651Y207581D01*
X152947Y207880D01*
X153199Y208210D01*
X153410Y208564D01*
X153584Y208940D01*
X153829Y209737D01*
X153959Y210565D01*
X153997Y211389D01*
X153963Y212177D01*
X153866Y212878D01*
X153712Y213495D01*
X153509Y214035D01*
X153263Y214502D01*
X152981Y214902D01*
X152670Y215240D01*
X152337Y215520D01*
X151989Y215748D01*
X151632Y215929D01*
X151275Y216069D01*
X150583Y216242D01*
X149969Y216309D01*
X149522Y216311D01*
X149159Y216278D01*
X148809Y216212D01*
X148473Y216112D01*
X148151Y215980D01*
X147843Y215815D01*
X147549Y215616D01*
X147135Y215258D01*
X147483Y215008D01*
X148035Y215467D01*
X148320Y215647D01*
X148612Y215794D01*
X148909Y215908D01*
X149214Y215989D01*
X149526Y216037D01*
X149846Y216054D01*
X150146Y216040D01*
X150447Y215996D01*
X150744Y215923D01*
X151036Y215817D01*
X151320Y215679D01*
X151593Y215506D01*
X151853Y215296D01*
X152097Y215050D01*
X152322Y214764D01*
X152526Y214438D01*
X152705Y214071D01*
X152858Y213661D01*
X153074Y212705D01*
X153150Y211561D01*
X153120Y210793D01*
X153033Y210113D01*
X152897Y209516D01*
X152717Y208997D01*
X152502Y208550D01*
X152256Y208171D01*
X151988Y207853D01*
X151703Y207591D01*
X151409Y207380D01*
X151112Y207215D01*
X150818Y207090D01*
X150269Y206939D01*
X149815Y206884D01*
X149215Y206903D01*
X148656Y207011D01*
X148104Y207205D01*
X147421Y207572D01*
X147266Y207372D01*
X147847Y207047D01*
X148451Y206823D01*
X149094Y206693D01*
X149794Y206652D01*
X161124Y206652D02*
X162083Y206705D01*
X162852Y206860D01*
X163170Y206973D01*
X163448Y207109D01*
X163688Y207268D01*
X163892Y207447D01*
X164063Y207647D01*
X164203Y207866D01*
X164315Y208104D01*
X164401Y208360D01*
X164506Y208922D01*
X164536Y216109D01*
X163775Y216109D01*
X163728Y209094D01*
X163669Y208807D01*
X163589Y208539D01*
X163487Y208290D01*
X163363Y208059D01*
X163218Y207849D01*
X163053Y207658D01*
X162868Y207487D01*
X162663Y207338D01*
X162440Y207211D01*
X162198Y207105D01*
X161938Y207022D01*
X161660Y206962D01*
X161055Y206914D01*
X160766Y206926D01*
X160490Y206964D01*
X160227Y207025D01*
X159979Y207110D01*
X159747Y207217D01*
X159530Y207345D01*
X159330Y207494D01*
X159148Y207663D01*
X158985Y207851D01*
X158840Y208057D01*
X158716Y208281D01*
X158613Y208521D01*
X158531Y208777D01*
X158471Y209048D01*
X158423Y216109D01*
X157661Y216109D01*
X157691Y208855D01*
X157777Y208472D01*
X157911Y208136D01*
X158088Y207844D01*
X158301Y207592D01*
X158542Y207379D01*
X158807Y207200D01*
X159088Y207052D01*
X159671Y206841D01*
X160240Y206720D01*
X161124Y206652D01*
X130529Y206859D02*
X130537Y210281D01*
X130560Y210411D01*
X130599Y210538D01*
X133509Y216109D01*
X132769Y216109D01*
X131010Y212465D01*
X130915Y212343D01*
X130805Y212236D01*
X130682Y212146D01*
X130547Y212073D01*
X130404Y212020D01*
X130252Y211988D01*
X130095Y211976D01*
X129938Y211987D01*
X129782Y212019D01*
X129629Y212070D01*
X129483Y212140D01*
X129349Y212227D01*
X129229Y212330D01*
X129126Y212449D01*
X127264Y216109D01*
X126709Y216109D01*
X129708Y210567D01*
X129749Y210436D01*
X129774Y210302D01*
X129782Y206859D01*
X130529Y206859D01*
X137795Y206859D02*
X139630Y210600D01*
X139715Y210713D01*
X139814Y210813D01*
X139924Y210900D01*
X140044Y210971D01*
X140173Y211028D01*
X140309Y211067D01*
X140487Y211092D01*
X140536Y211094D01*
X140678Y211087D01*
X140806Y211064D01*
X140929Y211026D01*
X141047Y210975D01*
X141157Y210910D01*
X141260Y210833D01*
X141354Y210743D01*
X142502Y209174D01*
X142580Y209020D01*
X142633Y208856D01*
X142660Y208685D01*
X142663Y206859D01*
X143407Y206859D01*
X143407Y216109D01*
X142663Y216109D01*
X142647Y213309D01*
X142595Y213017D01*
X142513Y212761D01*
X142402Y212540D01*
X142267Y212355D01*
X142191Y212277D01*
X142111Y212207D01*
X142026Y212146D01*
X141937Y212094D01*
X141845Y212051D01*
X141749Y212017D01*
X141651Y211992D01*
X141550Y211977D01*
X141448Y211970D01*
X141239Y211985D01*
X141028Y212037D01*
X140819Y212125D01*
X140613Y212251D01*
X140416Y212414D01*
X140231Y212615D01*
X137847Y216109D01*
X137261Y216109D01*
X139426Y212973D01*
X139484Y212838D01*
X139524Y212698D01*
X139544Y212554D01*
X139545Y212409D01*
X139527Y212264D01*
X139489Y212122D01*
X136879Y206859D01*
X137795Y206859D01*
X172887Y206859D02*
X172887Y216109D01*
X172110Y216109D01*
X172104Y208246D01*
X172088Y208137D01*
X172061Y208032D01*
X172024Y207930D01*
X171977Y207834D01*
X171922Y207743D01*
X171859Y207659D01*
X171788Y207581D01*
X171710Y207510D01*
X171625Y207446D01*
X171534Y207391D01*
X171438Y207345D01*
X171337Y207308D01*
X171231Y207281D01*
X171122Y207264D01*
X167545Y207258D01*
X167545Y206859D01*
X172887Y206859D01*
X161349Y200001D02*
X188619Y200001D01*
X138203Y199863D02*
X111265Y199863D01*
X161349Y202557D02*
X161349Y197121D01*
X157087Y197121D02*
X157087Y202557D01*
X152826Y202557D02*
X152826Y197121D01*
X148564Y197121D02*
X148564Y202557D01*
X144302Y202557D02*
X144302Y200882D01*
X144302Y198962D01*
X144302Y197121D01*
X144302Y200882D02*
X138216Y200882D01*
X138216Y198962D02*
X144302Y198962D01*
D10*
X370000Y70000D03*
D17*
X519000Y245000D03*
X570000Y203000D03*
X580000Y280000D03*
D18*
X120000Y290000D03*
D19*
X210000Y290000D01*
X210000Y310000D01*
D18*
X210000Y290000D03*
D19*
X123650Y370000D02*
X109000Y370000D01*
D18*
X109000Y370000D03*
D19*
X133900Y316100D02*
X313900Y316100D01*
X133900Y316100D02*
X133564Y316104D01*
X133228Y316116D01*
X132893Y316137D01*
X132558Y316165D01*
X132225Y316201D01*
X131892Y316246D01*
X131560Y316298D01*
X131229Y316359D01*
X130901Y316427D01*
X130574Y316504D01*
X130248Y316588D01*
X129925Y316680D01*
X129605Y316780D01*
X129286Y316888D01*
X128971Y317003D01*
X128658Y317126D01*
X128349Y317257D01*
X128043Y317394D01*
X127740Y317540D01*
X127440Y317692D01*
X127145Y317852D01*
X126853Y318019D01*
X126566Y318192D01*
X126283Y318373D01*
X126004Y318561D01*
X125730Y318755D01*
X125460Y318955D01*
X125196Y319163D01*
X124937Y319376D01*
X124683Y319596D01*
X124434Y319821D01*
X124191Y320053D01*
X123953Y320291D01*
X123721Y320534D01*
X123496Y320783D01*
X123276Y321037D01*
X123063Y321296D01*
X122855Y321560D01*
X122655Y321830D01*
X122461Y322104D01*
X122273Y322383D01*
X122092Y322666D01*
X121919Y322953D01*
X121752Y323245D01*
X121592Y323540D01*
X121440Y323840D01*
X121294Y324143D01*
X121157Y324449D01*
X121026Y324758D01*
X120903Y325071D01*
X120788Y325386D01*
X120680Y325705D01*
X120580Y326025D01*
X120488Y326348D01*
X120404Y326674D01*
X120327Y327001D01*
X120259Y327329D01*
X120198Y327660D01*
X120146Y327992D01*
X120101Y328325D01*
X120065Y328658D01*
X120037Y328993D01*
X120016Y329328D01*
X120004Y329664D01*
X120000Y330000D01*
D18*
X120000Y330000D03*
D19*
X136350Y370000D02*
X150000Y370000D01*
D18*
X150000Y370000D03*
D19*
X206350Y370000D02*
X221000Y370000D01*
D18*
X221000Y370000D03*
D19*
X193650Y370000D02*
X180000Y370000D01*
D18*
X180000Y370000D03*
D17*
X478000Y180000D03*
D20*
X505901Y180000D01*
X506363Y179994D01*
X506824Y179978D01*
X507284Y179950D01*
X507744Y179911D01*
X508203Y179861D01*
X508661Y179800D01*
X509116Y179727D01*
X509570Y179644D01*
X510022Y179550D01*
X510472Y179445D01*
X510918Y179329D01*
X511362Y179203D01*
X511803Y179065D01*
X512240Y178917D01*
X512674Y178759D01*
X513103Y178590D01*
X513528Y178411D01*
X513949Y178221D01*
X514366Y178022D01*
X514777Y177812D01*
X515183Y177593D01*
X515583Y177364D01*
X515978Y177125D01*
X516367Y176877D01*
X516750Y176619D01*
X517127Y176352D01*
X517497Y176077D01*
X517861Y175792D01*
X518217Y175499D01*
X518566Y175197D01*
X518908Y174887D01*
X519242Y174568D01*
X519568Y174242D01*
X519887Y173908D01*
X520197Y173566D01*
X520499Y173217D01*
X520792Y172861D01*
X521077Y172497D01*
X521352Y172127D01*
X521619Y171750D01*
X521877Y171367D01*
X522125Y170978D01*
X522364Y170583D01*
X522593Y170183D01*
X522812Y169777D01*
X523022Y169366D01*
X523221Y168949D01*
X523411Y168528D01*
X523590Y168103D01*
X523759Y167674D01*
X523917Y167240D01*
X524065Y166803D01*
X524203Y166362D01*
X524329Y165918D01*
X524445Y165472D01*
X524550Y165022D01*
X524644Y164570D01*
X524727Y164116D01*
X524800Y163661D01*
X524861Y163203D01*
X524911Y162744D01*
X524950Y162284D01*
X524978Y161824D01*
X524994Y161363D01*
X525000Y160901D01*
X525000Y148650D02*
X525005Y148199D01*
X525022Y147749D01*
X525049Y147299D01*
X525087Y146850D01*
X525136Y146402D01*
X525196Y145955D01*
X525266Y145510D01*
X525347Y145067D01*
X525439Y144626D01*
X525542Y144187D01*
X525655Y143751D01*
X525779Y143317D01*
X525913Y142887D01*
X526057Y142460D01*
X526212Y142037D01*
X526377Y141617D01*
X526552Y141202D01*
X526737Y140791D01*
X526932Y140384D01*
X527136Y139983D01*
X527350Y139586D01*
X527574Y139195D01*
X527807Y138810D01*
X528050Y138430D01*
X528301Y138056D01*
X528562Y137688D01*
X528831Y137326D01*
X529109Y136972D01*
X529396Y136624D01*
X529690Y136283D01*
X529993Y135949D01*
X530304Y135623D01*
X530623Y135304D01*
X530949Y134993D01*
X531283Y134690D01*
X531624Y134396D01*
X531972Y134109D01*
X532326Y133831D01*
X532688Y133562D01*
X533056Y133301D01*
X533430Y133050D01*
X533810Y132807D01*
X534195Y132574D01*
X534586Y132350D01*
X534983Y132136D01*
X535384Y131932D01*
X535791Y131737D01*
X536202Y131552D01*
X536617Y131377D01*
X537037Y131212D01*
X537460Y131057D01*
X537887Y130913D01*
X538317Y130779D01*
X538751Y130655D01*
X539187Y130542D01*
X539626Y130439D01*
X540067Y130347D01*
X540510Y130266D01*
X540955Y130196D01*
X541402Y130136D01*
X541850Y130087D01*
X542299Y130049D01*
X542749Y130022D01*
X543199Y130005D01*
X543650Y130000D01*
X525000Y148650D02*
X525000Y160901D01*
D19*
X356050Y228500D02*
X356050Y255916D01*
X356058Y256570D01*
X356082Y257225D01*
X356121Y257878D01*
X356176Y258530D01*
X356247Y259181D01*
X356334Y259829D01*
X356437Y260476D01*
X356555Y261120D01*
X356688Y261760D01*
X356837Y262398D01*
X357001Y263031D01*
X357181Y263661D01*
X357376Y264285D01*
X357585Y264905D01*
X357810Y265520D01*
X358049Y266129D01*
X358304Y266732D01*
X358572Y267329D01*
X358855Y267919D01*
X359152Y268503D01*
X359463Y269078D01*
X359788Y269647D01*
X360127Y270207D01*
X360479Y270758D01*
X360844Y271301D01*
X361223Y271836D01*
X361614Y272360D01*
X362017Y272876D01*
X362433Y273381D01*
X362861Y273876D01*
X363301Y274361D01*
X363753Y274834D01*
X364216Y275297D01*
X364689Y275749D01*
X365174Y276189D01*
X365669Y276617D01*
X366174Y277033D01*
X366690Y277436D01*
X367214Y277827D01*
X367749Y278206D01*
X368292Y278571D01*
X368843Y278923D01*
X369403Y279262D01*
X369972Y279587D01*
X370547Y279898D01*
X371131Y280195D01*
X371721Y280478D01*
X372318Y280746D01*
X372921Y281001D01*
X373530Y281240D01*
X374145Y281465D01*
X374765Y281674D01*
X375389Y281869D01*
X376019Y282049D01*
X376652Y282213D01*
X377290Y282362D01*
X377930Y282495D01*
X378574Y282613D01*
X379221Y282716D01*
X379869Y282803D01*
X380520Y282874D01*
X381172Y282929D01*
X381825Y282968D01*
X382480Y282992D01*
X383134Y283000D01*
X429000Y283000D01*
D17*
X507000Y283000D03*
D19*
X450000Y283000D02*
X429000Y283000D01*
X450000Y283000D02*
X507000Y283000D01*
D17*
X450000Y283000D03*
D19*
X443650Y369000D02*
X443650Y370000D01*
X443650Y369000D02*
X436828Y369000D01*
X436639Y368998D01*
X436450Y368991D01*
X436261Y368979D01*
X436072Y368963D01*
X435884Y368943D01*
X435697Y368918D01*
X435510Y368888D01*
X435324Y368854D01*
X435139Y368816D01*
X434955Y368773D01*
X434772Y368725D01*
X434590Y368673D01*
X434409Y368617D01*
X434230Y368556D01*
X434052Y368491D01*
X433876Y368422D01*
X433702Y368349D01*
X433529Y368271D01*
X433359Y368189D01*
X433190Y368103D01*
X433024Y368013D01*
X432860Y367919D01*
X432698Y367822D01*
X432538Y367720D01*
X432381Y367614D01*
X432227Y367505D01*
X432075Y367392D01*
X431926Y367275D01*
X431780Y367155D01*
X431637Y367031D01*
X431497Y366904D01*
X431360Y366774D01*
X431226Y366640D01*
X431096Y366503D01*
X430969Y366363D01*
X430845Y366220D01*
X430725Y366074D01*
X430608Y365925D01*
X430495Y365773D01*
X430386Y365619D01*
X430280Y365462D01*
X430178Y365302D01*
X430081Y365140D01*
X429987Y364976D01*
X429897Y364810D01*
X429811Y364641D01*
X429729Y364471D01*
X429651Y364298D01*
X429578Y364124D01*
X429509Y363948D01*
X429444Y363770D01*
X429383Y363591D01*
X429327Y363410D01*
X429275Y363228D01*
X429227Y363045D01*
X429184Y362861D01*
X429146Y362676D01*
X429112Y362490D01*
X429082Y362303D01*
X429057Y362116D01*
X429037Y361928D01*
X429021Y361739D01*
X429009Y361550D01*
X429002Y361361D01*
X429000Y361172D01*
X429000Y283000D01*
D17*
X461000Y208000D03*
D19*
X546000Y208000D01*
D17*
X546000Y208000D03*
D20*
X543650Y90000D02*
X523650Y90000D01*
X522925Y90009D01*
X522201Y90035D01*
X521477Y90079D01*
X520755Y90140D01*
X520034Y90219D01*
X519315Y90315D01*
X518599Y90428D01*
X517886Y90559D01*
X517176Y90707D01*
X516471Y90872D01*
X515769Y91054D01*
X515072Y91253D01*
X514379Y91468D01*
X513693Y91701D01*
X513012Y91950D01*
X512337Y92215D01*
X511669Y92496D01*
X511008Y92794D01*
X510354Y93107D01*
X509708Y93436D01*
X509070Y93781D01*
X508441Y94141D01*
X507821Y94516D01*
X507210Y94906D01*
X506608Y95310D01*
X506016Y95729D01*
X505435Y96163D01*
X504864Y96610D01*
X504305Y97071D01*
X503756Y97545D01*
X503220Y98032D01*
X502695Y98532D01*
X502182Y99045D01*
X501682Y99570D01*
X501195Y100106D01*
X500721Y100655D01*
X500260Y101214D01*
X499813Y101785D01*
X499379Y102366D01*
X498960Y102958D01*
X498556Y103560D01*
X498166Y104171D01*
X497791Y104791D01*
X497431Y105420D01*
X497086Y106058D01*
X496757Y106704D01*
X496444Y107358D01*
X496146Y108019D01*
X495865Y108687D01*
X495600Y109362D01*
X495351Y110043D01*
X495118Y110729D01*
X494903Y111422D01*
X494704Y112119D01*
X494522Y112821D01*
X494357Y113526D01*
X494209Y114236D01*
X494078Y114949D01*
X493965Y115665D01*
X493869Y116384D01*
X493790Y117105D01*
X493729Y117827D01*
X493685Y118551D01*
X493659Y119275D01*
X493650Y120000D01*
X493650Y126900D01*
D17*
X493650Y126900D03*
X583000Y100750D03*
D20*
X573000Y90000D02*
X556350Y90000D01*
X573000Y90000D02*
X573242Y90003D01*
X573483Y90012D01*
X573724Y90026D01*
X573965Y90047D01*
X574205Y90073D01*
X574445Y90105D01*
X574684Y90143D01*
X574921Y90186D01*
X575158Y90236D01*
X575393Y90291D01*
X575627Y90351D01*
X575859Y90418D01*
X576090Y90489D01*
X576319Y90567D01*
X576546Y90650D01*
X576771Y90738D01*
X576994Y90832D01*
X577214Y90931D01*
X577432Y91036D01*
X577647Y91145D01*
X577860Y91260D01*
X578070Y91380D01*
X578276Y91505D01*
X578480Y91635D01*
X578681Y91770D01*
X578878Y91910D01*
X579072Y92054D01*
X579262Y92203D01*
X579448Y92357D01*
X579631Y92515D01*
X579810Y92677D01*
X579985Y92844D01*
X580156Y93015D01*
X580323Y93190D01*
X580485Y93369D01*
X580643Y93552D01*
X580797Y93738D01*
X580946Y93928D01*
X581090Y94122D01*
X581230Y94319D01*
X581365Y94520D01*
X581495Y94724D01*
X581620Y94930D01*
X581740Y95140D01*
X581855Y95353D01*
X581964Y95568D01*
X582069Y95786D01*
X582168Y96006D01*
X582262Y96229D01*
X582350Y96454D01*
X582433Y96681D01*
X582511Y96910D01*
X582582Y97141D01*
X582649Y97373D01*
X582709Y97607D01*
X582764Y97842D01*
X582814Y98079D01*
X582857Y98316D01*
X582895Y98555D01*
X582927Y98795D01*
X582953Y99035D01*
X582974Y99276D01*
X582988Y99517D01*
X582997Y99758D01*
X583000Y100000D01*
X583000Y100750D01*
X583000Y110000D01*
X582994Y110483D01*
X582977Y110966D01*
X582947Y111449D01*
X582907Y111930D01*
X582854Y112411D01*
X582790Y112890D01*
X582715Y113367D01*
X582627Y113843D01*
X582529Y114316D01*
X582419Y114786D01*
X582298Y115254D01*
X582165Y115719D01*
X582021Y116180D01*
X581866Y116638D01*
X581700Y117092D01*
X581523Y117542D01*
X581336Y117987D01*
X581137Y118428D01*
X580929Y118864D01*
X580709Y119294D01*
X580479Y119720D01*
X580239Y120139D01*
X579989Y120553D01*
X579729Y120960D01*
X579460Y121361D01*
X579180Y121756D01*
X578892Y122143D01*
X578593Y122524D01*
X578286Y122897D01*
X577970Y123262D01*
X577645Y123620D01*
X577312Y123970D01*
X576970Y124312D01*
X576620Y124645D01*
X576262Y124970D01*
X575897Y125286D01*
X575524Y125593D01*
X575143Y125892D01*
X574756Y126180D01*
X574361Y126460D01*
X573960Y126729D01*
X573553Y126989D01*
X573139Y127239D01*
X572720Y127479D01*
X572294Y127709D01*
X571864Y127929D01*
X571428Y128137D01*
X570987Y128336D01*
X570542Y128523D01*
X570092Y128700D01*
X569638Y128866D01*
X569180Y129021D01*
X568719Y129165D01*
X568254Y129298D01*
X567786Y129419D01*
X567316Y129529D01*
X566843Y129627D01*
X566367Y129715D01*
X565890Y129790D01*
X565411Y129854D01*
X564930Y129907D01*
X564449Y129947D01*
X563966Y129977D01*
X563483Y129994D01*
X563000Y130000D01*
X556350Y130000D01*
D19*
X607300Y20000D02*
X345250Y20000D01*
X344283Y20012D01*
X343317Y20047D01*
X342353Y20105D01*
X341389Y20187D01*
X340429Y20292D01*
X339470Y20420D01*
X338516Y20571D01*
X337565Y20745D01*
X336619Y20942D01*
X335677Y21162D01*
X334742Y21405D01*
X333812Y21670D01*
X332889Y21958D01*
X331974Y22268D01*
X331066Y22599D01*
X330166Y22953D01*
X329275Y23328D01*
X328394Y23725D01*
X327522Y24143D01*
X326661Y24582D01*
X325811Y25041D01*
X324972Y25521D01*
X324144Y26021D01*
X323329Y26541D01*
X322527Y27081D01*
X321739Y27639D01*
X320963Y28217D01*
X320203Y28813D01*
X319456Y29427D01*
X318725Y30060D01*
X318009Y30709D01*
X317310Y31376D01*
X316626Y32060D01*
X315959Y32759D01*
X315310Y33475D01*
X314677Y34206D01*
X314063Y34953D01*
X313467Y35713D01*
X312889Y36489D01*
X312331Y37277D01*
X311791Y38079D01*
X311271Y38894D01*
X310771Y39722D01*
X310291Y40561D01*
X309832Y41411D01*
X309393Y42272D01*
X308975Y43144D01*
X308578Y44025D01*
X308203Y44916D01*
X307849Y45816D01*
X307518Y46724D01*
X307208Y47639D01*
X306920Y48562D01*
X306655Y49492D01*
X306412Y50427D01*
X306192Y51369D01*
X305995Y52315D01*
X305821Y53266D01*
X305670Y54220D01*
X305542Y55179D01*
X305437Y56139D01*
X305355Y57103D01*
X305297Y58067D01*
X305262Y59033D01*
X305250Y60000D01*
X305250Y228500D01*
X607300Y20000D02*
X607783Y20006D01*
X608266Y20023D01*
X608749Y20053D01*
X609230Y20093D01*
X609711Y20146D01*
X610190Y20210D01*
X610667Y20285D01*
X611143Y20373D01*
X611616Y20471D01*
X612086Y20581D01*
X612554Y20702D01*
X613019Y20835D01*
X613480Y20979D01*
X613938Y21134D01*
X614392Y21300D01*
X614842Y21477D01*
X615287Y21664D01*
X615728Y21863D01*
X616164Y22071D01*
X616594Y22291D01*
X617020Y22521D01*
X617439Y22761D01*
X617853Y23011D01*
X618260Y23271D01*
X618661Y23540D01*
X619056Y23820D01*
X619443Y24108D01*
X619824Y24407D01*
X620197Y24714D01*
X620562Y25030D01*
X620920Y25355D01*
X621270Y25688D01*
X621612Y26030D01*
X621945Y26380D01*
X622270Y26738D01*
X622586Y27103D01*
X622893Y27476D01*
X623192Y27857D01*
X623480Y28244D01*
X623760Y28639D01*
X624029Y29040D01*
X624289Y29447D01*
X624539Y29861D01*
X624779Y30280D01*
X625009Y30706D01*
X625229Y31136D01*
X625437Y31572D01*
X625636Y32013D01*
X625823Y32458D01*
X626000Y32908D01*
X626166Y33362D01*
X626321Y33820D01*
X626465Y34281D01*
X626598Y34746D01*
X626719Y35214D01*
X626829Y35684D01*
X626927Y36157D01*
X627015Y36633D01*
X627090Y37110D01*
X627154Y37589D01*
X627207Y38070D01*
X627247Y38551D01*
X627277Y39034D01*
X627294Y39517D01*
X627300Y40000D01*
X427300Y40000D02*
X338950Y40000D01*
X338443Y40006D01*
X337935Y40025D01*
X337429Y40055D01*
X336923Y40098D01*
X336419Y40153D01*
X335916Y40220D01*
X335415Y40300D01*
X334915Y40391D01*
X334419Y40495D01*
X333924Y40610D01*
X333433Y40738D01*
X332945Y40877D01*
X332461Y41028D01*
X331980Y41190D01*
X331503Y41365D01*
X331031Y41550D01*
X330563Y41747D01*
X330101Y41956D01*
X329643Y42175D01*
X329191Y42405D01*
X328744Y42647D01*
X328304Y42899D01*
X327870Y43161D01*
X327442Y43434D01*
X327021Y43717D01*
X326607Y44011D01*
X326200Y44314D01*
X325800Y44627D01*
X325408Y44949D01*
X325024Y45281D01*
X324649Y45622D01*
X324281Y45972D01*
X323922Y46331D01*
X323572Y46699D01*
X323231Y47074D01*
X322899Y47458D01*
X322577Y47850D01*
X322264Y48250D01*
X321961Y48657D01*
X321667Y49071D01*
X321384Y49492D01*
X321111Y49920D01*
X320849Y50354D01*
X320597Y50794D01*
X320355Y51241D01*
X320125Y51693D01*
X319906Y52151D01*
X319697Y52613D01*
X319500Y53081D01*
X319315Y53553D01*
X319140Y54030D01*
X318978Y54511D01*
X318827Y54995D01*
X318688Y55483D01*
X318560Y55974D01*
X318445Y56469D01*
X318341Y56965D01*
X318250Y57465D01*
X318170Y57966D01*
X318103Y58469D01*
X318048Y58973D01*
X318005Y59479D01*
X317975Y59985D01*
X317956Y60493D01*
X317950Y61000D01*
X317950Y126900D01*
X330650Y60000D02*
X330650Y228500D01*
X330650Y60000D02*
X330000Y60000D01*
D17*
X330000Y60000D03*
D19*
X343350Y80000D02*
X343350Y126900D01*
X343350Y80000D02*
X344000Y80000D01*
D17*
X344000Y80000D03*
X286000Y80000D03*
D19*
X286000Y49718D01*
X285991Y49000D01*
X285965Y48282D01*
X285922Y47565D01*
X285861Y46850D01*
X285783Y46136D01*
X285688Y45424D01*
X285576Y44715D01*
X285446Y44008D01*
X285300Y43305D01*
X285136Y42606D01*
X284956Y41911D01*
X284759Y41220D01*
X284545Y40535D01*
X284315Y39854D01*
X284069Y39180D01*
X283806Y38511D01*
X283527Y37850D01*
X283232Y37195D01*
X282922Y36547D01*
X282596Y35907D01*
X282255Y35276D01*
X281898Y34652D01*
X281526Y34038D01*
X281140Y33432D01*
X280739Y32836D01*
X280324Y32250D01*
X279895Y31674D01*
X279452Y31109D01*
X278996Y30555D01*
X278526Y30011D01*
X278044Y29480D01*
X277548Y28960D01*
X277040Y28452D01*
X276520Y27956D01*
X275989Y27474D01*
X275445Y27004D01*
X274891Y26548D01*
X274326Y26105D01*
X273750Y25676D01*
X273164Y25261D01*
X272568Y24860D01*
X271962Y24474D01*
X271348Y24102D01*
X270724Y23745D01*
X270093Y23404D01*
X269453Y23078D01*
X268805Y22768D01*
X268150Y22473D01*
X267489Y22194D01*
X266820Y21931D01*
X266146Y21685D01*
X265465Y21455D01*
X264780Y21241D01*
X264089Y21044D01*
X263394Y20864D01*
X262695Y20700D01*
X261992Y20554D01*
X261285Y20424D01*
X260576Y20312D01*
X259864Y20217D01*
X259150Y20139D01*
X258435Y20078D01*
X257718Y20035D01*
X257000Y20009D01*
X256282Y20000D01*
X47300Y20000D01*
X46817Y20006D01*
X46334Y20023D01*
X45851Y20053D01*
X45370Y20093D01*
X44889Y20146D01*
X44410Y20210D01*
X43933Y20285D01*
X43457Y20373D01*
X42984Y20471D01*
X42514Y20581D01*
X42046Y20702D01*
X41581Y20835D01*
X41120Y20979D01*
X40662Y21134D01*
X40208Y21300D01*
X39758Y21477D01*
X39313Y21664D01*
X38872Y21863D01*
X38436Y22071D01*
X38006Y22291D01*
X37580Y22521D01*
X37161Y22761D01*
X36747Y23011D01*
X36340Y23271D01*
X35939Y23540D01*
X35544Y23820D01*
X35157Y24108D01*
X34776Y24407D01*
X34403Y24714D01*
X34038Y25030D01*
X33680Y25355D01*
X33330Y25688D01*
X32988Y26030D01*
X32655Y26380D01*
X32330Y26738D01*
X32014Y27103D01*
X31707Y27476D01*
X31408Y27857D01*
X31120Y28244D01*
X30840Y28639D01*
X30571Y29040D01*
X30311Y29447D01*
X30061Y29861D01*
X29821Y30280D01*
X29591Y30706D01*
X29371Y31136D01*
X29163Y31572D01*
X28964Y32013D01*
X28777Y32458D01*
X28600Y32908D01*
X28434Y33362D01*
X28279Y33820D01*
X28135Y34281D01*
X28002Y34746D01*
X27881Y35214D01*
X27771Y35684D01*
X27673Y36157D01*
X27585Y36633D01*
X27510Y37110D01*
X27446Y37589D01*
X27393Y38070D01*
X27353Y38551D01*
X27323Y39034D01*
X27306Y39517D01*
X27300Y40000D01*
D20*
X576350Y310000D02*
X593060Y310000D01*
D17*
X593060Y310000D03*
X481000Y334000D03*
D20*
X483810Y334000D01*
X484662Y334010D01*
X485513Y334041D01*
X486363Y334093D01*
X487211Y334165D01*
X488058Y334257D01*
X488902Y334370D01*
X489743Y334503D01*
X490581Y334657D01*
X491414Y334830D01*
X492243Y335024D01*
X493068Y335238D01*
X493887Y335471D01*
X494700Y335725D01*
X495506Y335998D01*
X496306Y336290D01*
X497099Y336602D01*
X497884Y336932D01*
X498660Y337282D01*
X499428Y337650D01*
X500187Y338037D01*
X500936Y338441D01*
X501675Y338864D01*
X502404Y339305D01*
X503122Y339763D01*
X503829Y340238D01*
X504524Y340730D01*
X505206Y341239D01*
X505877Y341764D01*
X506534Y342306D01*
X507178Y342862D01*
X507809Y343435D01*
X508426Y344022D01*
X509028Y344624D01*
X509615Y345241D01*
X510188Y345872D01*
X510744Y346516D01*
X511286Y347173D01*
X511811Y347844D01*
X512320Y348526D01*
X512812Y349221D01*
X513287Y349928D01*
X513745Y350646D01*
X514186Y351375D01*
X514609Y352114D01*
X515013Y352863D01*
X515400Y353622D01*
X515768Y354390D01*
X516118Y355166D01*
X516448Y355951D01*
X516760Y356744D01*
X517052Y357544D01*
X517325Y358350D01*
X517579Y359163D01*
X517812Y359982D01*
X518026Y360807D01*
X518220Y361636D01*
X518393Y362469D01*
X518547Y363307D01*
X518680Y364148D01*
X518793Y364992D01*
X518885Y365839D01*
X518957Y366687D01*
X519009Y367537D01*
X519040Y368388D01*
X519050Y369240D01*
D17*
X369000Y246000D03*
D19*
X450000Y246000D01*
D17*
X494000Y246000D03*
D19*
X450000Y246000D01*
D17*
X450000Y246000D03*
D19*
X443650Y317000D02*
X443650Y341000D01*
X443650Y317000D02*
X444000Y317000D01*
D17*
X444000Y317000D03*
D19*
X456350Y341000D02*
X465410Y341000D01*
X465572Y341002D01*
X465734Y341008D01*
X465895Y341018D01*
X466057Y341031D01*
X466218Y341049D01*
X466378Y341070D01*
X466538Y341096D01*
X466697Y341125D01*
X466856Y341158D01*
X467013Y341195D01*
X467170Y341235D01*
X467326Y341280D01*
X467480Y341328D01*
X467634Y341380D01*
X467786Y341435D01*
X467937Y341495D01*
X468086Y341557D01*
X468233Y341624D01*
X468379Y341694D01*
X468524Y341767D01*
X468666Y341844D01*
X468807Y341925D01*
X468945Y342009D01*
X469082Y342096D01*
X469216Y342186D01*
X469348Y342280D01*
X469478Y342376D01*
X469605Y342476D01*
X469730Y342579D01*
X469853Y342685D01*
X469973Y342794D01*
X470090Y342905D01*
X470205Y343020D01*
X470316Y343137D01*
X470425Y343257D01*
X470531Y343380D01*
X470634Y343505D01*
X470734Y343632D01*
X470830Y343762D01*
X470924Y343894D01*
X471014Y344028D01*
X471101Y344165D01*
X471185Y344303D01*
X471266Y344444D01*
X471343Y344586D01*
X471416Y344731D01*
X471486Y344877D01*
X471553Y345024D01*
X471615Y345173D01*
X471675Y345324D01*
X471730Y345476D01*
X471782Y345630D01*
X471830Y345784D01*
X471875Y345940D01*
X471915Y346097D01*
X471952Y346254D01*
X471985Y346413D01*
X472014Y346572D01*
X472040Y346732D01*
X472061Y346892D01*
X472079Y347053D01*
X472092Y347215D01*
X472102Y347376D01*
X472108Y347538D01*
X472110Y347700D01*
D17*
X472110Y347700D03*
D19*
X456350Y370000D02*
X493650Y370000D01*
X493650Y369240D01*
D20*
X563650Y310000D02*
X563224Y309995D01*
X562797Y309979D01*
X562372Y309954D01*
X561947Y309918D01*
X561523Y309871D01*
X561100Y309815D01*
X560678Y309748D01*
X560259Y309671D01*
X559841Y309584D01*
X559426Y309487D01*
X559013Y309380D01*
X558603Y309263D01*
X558196Y309136D01*
X557792Y308999D01*
X557391Y308853D01*
X556994Y308697D01*
X556601Y308531D01*
X556212Y308356D01*
X555828Y308172D01*
X555448Y307978D01*
X555072Y307776D01*
X554702Y307564D01*
X554337Y307343D01*
X553978Y307114D01*
X553624Y306876D01*
X553276Y306629D01*
X552934Y306374D01*
X552598Y306111D01*
X552269Y305840D01*
X551946Y305561D01*
X551630Y305275D01*
X551321Y304980D01*
X551020Y304679D01*
X550725Y304370D01*
X550439Y304054D01*
X550160Y303731D01*
X549889Y303402D01*
X549626Y303066D01*
X549371Y302724D01*
X549124Y302376D01*
X548886Y302022D01*
X548657Y301663D01*
X548436Y301298D01*
X548224Y300928D01*
X548022Y300552D01*
X547828Y300172D01*
X547644Y299788D01*
X547469Y299399D01*
X547303Y299006D01*
X547147Y298609D01*
X547001Y298208D01*
X546864Y297804D01*
X546737Y297397D01*
X546620Y296987D01*
X546513Y296574D01*
X546416Y296159D01*
X546329Y295741D01*
X546252Y295322D01*
X546185Y294900D01*
X546129Y294477D01*
X546082Y294053D01*
X546046Y293628D01*
X546021Y293203D01*
X546005Y292776D01*
X546000Y292350D01*
X546000Y289500D01*
D17*
X546000Y289500D03*
D19*
X394150Y126900D02*
X394150Y94150D01*
X394143Y93566D01*
X394122Y92983D01*
X394087Y92401D01*
X394037Y91819D01*
X393974Y91239D01*
X393897Y90661D01*
X393805Y90084D01*
X393700Y89510D01*
X393581Y88939D01*
X393448Y88371D01*
X393302Y87806D01*
X393142Y87244D01*
X392968Y86687D01*
X392781Y86134D01*
X392581Y85586D01*
X392367Y85043D01*
X392141Y84505D01*
X391901Y83973D01*
X391649Y83447D01*
X391384Y82927D01*
X391106Y82414D01*
X390817Y81907D01*
X390515Y81407D01*
X390201Y80915D01*
X389875Y80431D01*
X389538Y79955D01*
X389189Y79487D01*
X388829Y79028D01*
X388458Y78577D01*
X388077Y78136D01*
X387684Y77703D01*
X387282Y77281D01*
X386869Y76868D01*
X386447Y76466D01*
X386014Y76073D01*
X385573Y75692D01*
X385122Y75321D01*
X384663Y74961D01*
X384195Y74612D01*
X383719Y74275D01*
X383235Y73949D01*
X382743Y73635D01*
X382243Y73333D01*
X381736Y73044D01*
X381223Y72766D01*
X380703Y72501D01*
X380177Y72249D01*
X379645Y72009D01*
X379107Y71783D01*
X378564Y71569D01*
X378016Y71369D01*
X377463Y71182D01*
X376906Y71008D01*
X376344Y70848D01*
X375779Y70702D01*
X375211Y70569D01*
X374640Y70450D01*
X374066Y70345D01*
X373489Y70253D01*
X372911Y70176D01*
X372331Y70113D01*
X371749Y70063D01*
X371167Y70028D01*
X370584Y70007D01*
X370000Y70000D01*
M02*
