G04 EAGLE Gerber RS-274X export*
G75*
%MOMM*%
%FSLAX34Y34*%
%LPD*%
%INSolderpaste Top*%
%IPPOS*%
%AMOC8*
5,1,8,0,0,1.08239X$1,22.5*%
G01*
G04 Define Apertures*
%ADD10R,1.400000X1.600000*%
%ADD11R,1.000000X1.400000*%
%ADD12R,1.600000X1.400000*%
%ADD13R,1.500000X3.000000*%
%ADD14R,1.200000X0.600000*%
%ADD15R,0.700000X2.200000*%
D10*
X119250Y350000D03*
X140750Y350000D03*
X210750Y350000D03*
X189250Y350000D03*
D11*
X140000Y310000D03*
X120000Y310000D03*
X190000Y310000D03*
X210000Y310000D03*
D10*
X119250Y390000D03*
X140750Y390000D03*
X210750Y390000D03*
X189250Y390000D03*
D12*
X166000Y451750D03*
X166000Y430250D03*
D13*
X330650Y200200D03*
X305250Y200200D03*
X279850Y200200D03*
X254450Y200200D03*
X356050Y200200D03*
X381450Y200200D03*
X406850Y200200D03*
X267150Y155200D03*
X292550Y155200D03*
X317950Y155200D03*
X343350Y155200D03*
X368750Y155200D03*
X394150Y155200D03*
X419550Y155200D03*
D12*
X630000Y79250D03*
X630000Y100750D03*
X470000Y79250D03*
X470000Y100750D03*
X260000Y79250D03*
X260000Y100750D03*
X60000Y79250D03*
X60000Y100750D03*
D14*
X593060Y289500D03*
X593060Y270500D03*
X566940Y289500D03*
X566940Y280000D03*
X566940Y270500D03*
D12*
X570000Y219250D03*
X570000Y240750D03*
D15*
X480950Y265296D03*
X493650Y265296D03*
X506350Y265296D03*
X519050Y265296D03*
X519050Y314704D03*
X506350Y314704D03*
X493650Y314704D03*
X480950Y314704D03*
D10*
X428750Y300000D03*
X407250Y300000D03*
X428750Y258000D03*
X407250Y258000D03*
D12*
X576000Y421750D03*
X576000Y400250D03*
D10*
X547250Y339000D03*
X568750Y339000D03*
D13*
X480950Y442540D03*
X506350Y442540D03*
X493650Y397540D03*
X519050Y397540D03*
M02*
